<svg xmlns="http://www.w3.org/2000/svg" width="148" height="80" viewBox="0 0 148 80">
    <g fill="none" fill-rule="nonzero">
        <path fill="#FFF" stroke="#1CA3DB" d="M2.296 2.255h143.665v75.484H2.296z"/>
        <g fill="#00A4E4">
            <path d="M0 39.936v39.936h148V0H0v39.936zm142.446 0v34.306H5.466V5.63h136.98v34.306z"/>
            <path d="M107.452 16.766c-1.895.167-4.055.598-5.712 1.135-3.5 1.126-6.18 2.762-8.788 5.366-3.015 3.008-4.963 6.447-6.047 10.652-.6 2.366-.732 3.501-.732 6.369-.009 2.603.062 3.316.476 5.34.732 3.518 2.45 7.063 4.742 9.79.9 1.064 2.839 2.946 3.835 3.72 3.252 2.525 7.078 4.02 11.45 4.46 1.578.167 5.025.07 6.417-.167 3.35-.58 6.312-1.812 8.78-3.668 3.5-2.63 6.17-6.474 7.44-10.714.705-2.366.969-4.222 1.03-7.424l.054-2.305h-18.714V45.741h5.641c4.452 0 5.642.027 5.642.106 0 .273-.538 2.2-.785 2.824-.987 2.471-2.697 4.688-4.724 6.122-.855.598-2.557 1.46-3.482 1.76-3.632 1.17-7.916.826-11.504-.924-4.521-2.2-7.704-6.448-8.717-11.63-.644-3.29-.388-7.019.687-10.089 2.08-5.946 6.902-9.843 13.125-10.608 1.305-.159 4.179-.062 5.386.184 4.002.8 7.466 3.018 10.058 6.448l.511.686.626-.607c.344-.325 1.437-1.372 2.433-2.313.996-.941 1.816-1.733 1.833-1.76.053-.122-1.419-1.847-2.37-2.77-2.346-2.278-5.484-4.179-8.63-5.225-2.557-.854-4.408-1.153-7.405-1.188-1.19-.009-2.336-.009-2.556.009zM39.287 18.226c-.114.255-4.918 10.433-10.674 22.607C22.865 53.016 18.158 63 18.158 63.026c0 .027 1.693.036 3.764.027l3.755-.027 2.477-5.471 2.477-5.471 9.608-.01h9.617l2.389 5.472 2.389 5.48 3.755.027c2.063.009 3.755-.009 3.755-.035 0-.07.282.554-14.324-31.923-2.019-4.503-4.178-9.289-4.778-10.643-.608-1.355-1.145-2.516-1.19-2.578-.07-.07-.423-.105-1.216-.105h-1.137l-.212.457zm4.39 19.555c1.772 4.002 3.209 7.3 3.191 7.318-.018.018-2.997.018-6.611.01l-6.576-.027 3.359-7.328c1.842-4.029 3.367-7.31 3.384-7.292.018.018 1.481 3.307 3.253 7.319zM69.901 40.683v22.3h6.875V18.384h-6.875z"/>
        </g>
    </g>
</svg>
