<svg xmlns="http://www.w3.org/2000/svg" width="74" height="40" viewBox="0 0 74 40">
    <g fill="none" fill-rule="nonzero">
        <path fill="#FFF" stroke="#1CA3DB" stroke-width=".5" d="M1.148 1.127H72.98v37.742H1.148z"/>
        <g fill="#00A4E4">
            <path d="M0 19.968v19.968h74V0H0v19.968zm71.223 0V37.12H2.733V2.815h68.49v17.153z"/>
            <path d="M53.726 8.383c-.948.084-2.027.3-2.856.567-1.75.563-3.09 1.381-4.394 2.683-1.508 1.504-2.482 3.224-3.024 5.327-.3 1.183-.365 1.75-.365 3.184-.005 1.302.03 1.658.237 2.67a11.44 11.44 0 0 0 2.372 4.895c.45.532 1.419 1.473 1.917 1.86 1.626 1.262 3.539 2.01 5.725 2.23.789.084 2.512.035 3.209-.083 1.674-.29 3.155-.907 4.39-1.835a10.57 10.57 0 0 0 3.72-5.357c.352-1.183.484-2.11.515-3.712l.026-1.152h-9.357V22.871h2.821c2.226 0 2.82.013 2.82.052 0 .137-.268 1.1-.391 1.412-.494 1.236-1.349 2.345-2.363 3.061-.427.3-1.278.73-1.74.88-1.816.585-3.958.414-5.752-.462-2.261-1.1-3.852-3.224-4.36-5.814-.32-1.645-.193-3.51.345-5.045 1.04-2.973 3.45-4.921 6.562-5.304.652-.08 2.09-.03 2.693.092 2.001.4 3.733 1.509 5.029 3.224l.256.343.312-.303c.172-.163.719-.686 1.217-1.157.498-.47.908-.866.917-.88.026-.061-.71-.923-1.186-1.385a11.685 11.685 0 0 0-4.315-2.613c-1.278-.426-2.203-.576-3.702-.593a33.677 33.677 0 0 0-1.278.004zM19.644 9.113c-.058.128-2.46 5.216-5.338 11.304A4436.86 4436.86 0 0 0 9.08 31.513c0 .013.846.018 1.882.013l1.878-.013 1.238-2.735 1.239-2.736 4.804-.005h4.808l1.195 2.736 1.194 2.74 1.877.013c1.032.005 1.878-.004 1.878-.017 0-.035.141.277-7.162-15.961-1.01-2.252-2.09-4.645-2.389-5.322a38.746 38.746 0 0 0-.595-1.289c-.035-.035-.211-.053-.608-.053h-.569l-.105.23zm2.195 9.777c.885 2.002 1.604 3.65 1.595 3.66-.009.008-1.498.008-3.306.004l-3.287-.013 1.679-3.664c.92-2.014 1.683-3.655 1.692-3.646.009.009.74 1.654 1.627 3.66zM34.95 20.342v11.15H38.388v-22.3H34.95z"/>
        </g>
    </g>
</svg>
