<?xml version="1.0" encoding="UTF-8"?>
<svg width="129px" height="44px" viewBox="0 0 129 44" version="1.1" xmlns="http://www.w3.org/2000/svg" xmlns:xlink="http://www.w3.org/1999/xlink">
    <!-- Generator: sketchtool 51.2 (57519) - http://www.bohemiancoding.com/sketch -->
    <title>7FEAA032-D8D0-41DD-AA4C-65941041FC4B</title>
    <desc>Created with sketchtool.</desc>
    <defs></defs>
    <g id="Nueva-landing" stroke="none" stroke-width="1" fill="none" fill-rule="evenodd">
        <g id="proceso-de-pago-&gt;-pago-exitoso" transform="translate(-564.000000, -1282.000000)">
            <g id="Group-2" transform="translate(475.000000, 1182.000000)">
                <g id="Group" transform="translate(89.000000, 100.000000)">
                    <g id="Appstore">
                        <rect id="background" fill="#000000" x="0" y="0" width="128.518987" height="44" rx="2.7"></rect>
                        <g id="icon" transform="translate(10.500039, 7.744000)" fill="#FFFFFF">
                            <path d="M17.6349837,13.2487722 C17.6069818,10.1014195 20.183155,8.57022215 20.3009561,8.49893554 C18.8419614,6.34764231 16.5805679,6.05370711 15.7858938,6.03027041 C13.8865937,5.82812893 12.0442629,7.17964496 11.0767496,7.17964496 C10.0899246,7.17964496 8.60003128,6.04980099 6.99426812,6.08300298 C4.92792227,6.11522843 2.99482676,7.32514777 1.93461753,9.20398942 C-0.253391674,13.0349124 1.3784422,18.6646017 3.4747211,21.7611749 C4.52334334,23.2787008 5.74866712,24.9710255 7.35249911,24.9114572 C8.92157014,24.8470063 9.50767852,23.8997732 11.4011852,23.8997732 C13.2773113,23.8997732 13.8276932,24.9114572 15.4633894,24.872396 C17.1473647,24.8470063 18.2075739,23.3499874 19.219504,21.8187901 C20.4313097,20.0825217 20.9179631,18.3687134 20.9372747,18.2808258 C20.8986514,18.2681309 17.6678135,17.0211035 17.6349837,13.2487722" id="Fill-2"></path>
                            <path d="M14.5451207,3.99323107 C15.3890395,2.92588496 15.9664577,1.47378645 15.806171,0.000204297521 C14.5847096,0.0548899174 13.0571586,0.854667107 12.1775132,1.89857653 C11.399254,2.81846678 10.7040348,4.32622744 10.8836331,5.74414744 C12.2557254,5.8476595 13.6645098,5.0439762 14.5451207,3.99323107" id="Fill-3"></path>
                        </g>
                        <g id="App-Store" transform="translate(39.127491, 18.374041)" fill="#FFFFFF">
                            <path d="M11.7344391,14.0636504 L9.54160203,14.0636504 L8.34041781,10.2463989 L4.16524049,10.2463989 L3.02102561,14.0636504 L0.886123426,14.0636504 L5.02364304,1.06800348 L7.57857347,1.06800348 L11.7344391,14.0636504 L11.7344391,14.0636504 Z M7.97832449,8.64489142 L6.89204455,5.25242993 C6.77714027,4.90478563 6.56084986,4.08840745 6.24413891,2.80329538 L6.20551562,2.80329538 C6.07805877,3.35601075 5.87432094,4.17238894 5.59526769,5.25242993 L4.5273338,8.64489142 L7.97832449,8.64489142 L7.97832449,8.64489142 Z" id="Fill-4"></path>
                            <path d="M22.3539119,9.26303422 C22.3539119,10.8567294 21.926159,12.1164517 21.0696876,13.0412246 C20.3030154,13.8644385 19.3499858,14.2755572 18.2134955,14.2755572 C16.9862406,14.2755572 16.1036985,13.8331896 15.5678004,12.9455248 L15.5678004,17.8623479 L13.5091792,17.8623479 L13.5091792,7.77285108 C13.5091792,6.77190894 13.4831085,5.74557703 13.4328982,4.69287885 L15.2433648,4.69287885 L15.358269,6.17915588 L15.3968923,6.17915588 C16.0834213,5.0590772 17.1252844,4.49952613 18.5234474,4.49952613 C19.6164864,4.49952613 20.5289616,4.93603456 21.2589417,5.81002794 C21.9879563,6.68597439 22.3539119,7.83632546 22.3539119,9.26303422 L22.3539119,9.26303422 Z M20.2566674,9.33920348 C20.2566674,8.42712546 20.0538952,7.67519819 19.6464195,7.08342166 C19.2012861,6.46723191 18.6035907,6.15767224 17.854299,6.15767224 C17.3464027,6.15767224 16.8848545,6.32954133 16.4725509,6.6693734 C16.0592817,7.01018199 15.7889187,7.45645571 15.6624274,8.01014761 C15.598699,8.26697472 15.5668348,8.47692844 15.5668348,8.64293836 L15.5668348,10.2073377 C15.5668348,10.8870018 15.7734694,11.4621774 16.1867386,11.9328643 C16.6000077,12.4015982 17.1368714,12.6369417 17.7973296,12.6369417 C18.5726921,12.6369417 19.176181,12.3332412 19.6077962,11.7307228 C20.040377,11.1262514 20.2566674,10.3294038 20.2566674,9.33920348 L20.2566674,9.33920348 Z" id="Fill-5"></path>
                            <path d="M33.0110424,9.26303422 C33.0110424,10.8567294 32.5832894,12.1164517 31.7268181,13.0412246 C30.9591802,13.8644385 30.0071162,14.2755572 28.8696604,14.2755572 C27.643371,14.2755572 26.7608289,13.8331896 26.2239653,12.9455248 L26.2239653,17.8623479 L24.1653441,17.8623479 L24.1653441,7.77285108 C24.1653441,6.77190894 24.1392733,5.74557703 24.0890631,4.69287885 L25.8995296,4.69287885 L26.0144339,6.17915588 L26.0530572,6.17915588 C26.7386205,5.0590772 27.7804837,4.49952613 29.1796123,4.49952613 C30.2716857,4.49952613 31.1851265,4.93603456 31.9160722,5.81002794 C32.6441211,6.68597439 33.0110424,7.83632546 33.0110424,9.26303422 L33.0110424,9.26303422 Z M30.9128323,9.33920348 C30.9128323,8.42712546 30.7090944,7.67519819 30.3016188,7.08342166 C29.857451,6.46723191 29.2607212,6.15767224 28.5114294,6.15767224 C28.0035332,6.15767224 27.5419849,6.32954133 27.1277502,6.6693734 C26.7154466,7.01018199 26.4450836,7.45645571 26.3185923,8.01014761 C26.2558295,8.26697472 26.2220341,8.47692844 26.2220341,8.64293836 L26.2220341,10.2073377 C26.2220341,10.8870018 26.4296343,11.4621774 26.8409723,11.9328643 C27.2542414,12.4006217 27.7911051,12.6369417 28.4534945,12.6369417 C29.2298226,12.6369417 29.8333114,12.3332412 30.2639611,11.7307228 C30.6965419,11.1262514 30.9128323,10.3294038 30.9128323,9.33920348 L30.9128323,9.33920348 Z" id="Fill-6"></path>
                            <path d="M44.9263264,10.4192445 C44.9263264,11.5246752 44.5449214,12.4240584 43.7840427,13.1183704 C42.9478485,13.8761569 41.7804597,14.2560266 40.2838073,14.2560266 C38.9010936,14.2560266 37.7926053,13.9865046 36.9564111,13.4464841 L37.4324431,11.7111922 C38.3352625,12.2512127 39.3269153,12.5217112 40.4064362,12.5217112 C41.1827643,12.5217112 41.7862531,12.343983 42.2169028,11.991456 C42.6494836,11.636976 42.8667396,11.1653126 42.8667396,10.5754891 C42.8667396,10.047187 42.6871413,9.60384282 42.3318071,9.24350365 C41.9755073,8.88511753 41.3865021,8.54919158 40.5599638,8.2425615 C38.3101573,7.39395786 37.1842885,6.15181307 37.1842885,4.52003323 C37.1842885,3.45366365 37.5821084,2.58064679 38.3748513,1.89805307 C39.1685599,1.21643588 40.2210444,0.875627283 41.5303739,0.875627283 C42.6996939,0.875627283 43.6739663,1.08167489 44.4473976,1.49279356 L43.9308112,3.19000084 C43.2027622,2.79157703 42.3810518,2.59236513 41.4618175,2.59236513 C40.7356997,2.59236513 40.1650407,2.77302299 39.7585306,3.13238563 C39.4157489,3.45366365 39.2409785,3.84525175 39.2409785,4.31007951 C39.2409785,4.8227572 39.4389229,5.24852381 39.833846,5.58152018 C40.1756621,5.89010332 40.7994282,6.22505274 41.7012819,6.58441538 C42.8078391,7.03557175 43.6198937,7.56094431 44.1413081,8.16443918 C44.6656192,8.76793406 44.9263264,9.52083786 44.9263264,10.4192445" id="Fill-7"></path>
                            <path d="M51.7500956,6.25532513 L49.4809775,6.25532513 L49.4809775,10.8049734 C49.4809775,11.9621602 49.8807285,12.5392888 50.6821617,12.5392888 C51.0500485,12.5392888 51.3551725,12.5080398 51.596568,12.4426124 L51.6535374,14.0236127 C51.2479929,14.1769278 50.7140259,14.2540736 50.0535677,14.2540736 C49.2395819,14.2540736 48.6051945,14.0021291 48.1455773,13.5011698 C47.6878914,12.9992339 47.4590484,12.1584425 47.4590484,10.9748894 L47.4590484,6.25141902 L46.108199,6.25141902 L46.108199,4.68897274 L47.4590484,4.68897274 L47.4590484,2.97321142 L49.4809775,2.35604513 L49.4809775,4.68897274 L51.7500956,4.68897274 L51.7500956,6.25532513" id="Fill-8"></path>
                            <path d="M61.9678862,9.30111885 C61.9678862,10.741499 61.5613761,11.9240755 60.7473903,12.8488484 C59.8967124,13.7999876 58.7650501,14.2755572 57.3543345,14.2755572 C55.9928637,14.2755572 54.9104461,13.8195182 54.1032194,12.9074402 C53.2959927,11.9953622 52.8923793,10.8450111 52.8923793,9.45736348 C52.8923793,8.00526497 53.3104764,6.81585274 54.1408771,5.89107984 C54.9732089,4.96630695 56.0952154,4.50245571 57.5059309,4.50245571 C58.8664362,4.50245571 59.9575441,4.96044778 60.785048,5.87154927 C61.5748942,6.757261 61.9678862,7.89882332 61.9678862,9.30111885 L61.9678862,9.30111885 Z M59.8339496,9.34896877 C59.8339496,8.49059984 59.6504889,7.75429703 59.2826021,7.13810728 C58.8509869,6.39399224 58.2320487,6.02291125 57.4325467,6.02291125 C56.6089051,6.02291125 55.9745176,6.39399224 55.5448335,7.13810728 C55.1750156,7.75429703 54.9925205,8.50329472 54.9925205,9.38802993 C54.9925205,10.2473754 55.1750156,10.9856312 55.5448335,11.5988914 C55.9899669,12.343983 56.6108363,12.7160405 57.4161318,12.7160405 C58.2021157,12.7160405 58.8191227,12.3351942 59.2661872,11.5813139 C59.6437299,10.9504762 59.8339496,10.2092908 59.8339496,9.34896877 L59.8339496,9.34896877 Z" id="Fill-9"></path>
                            <path d="M68.6622674,6.52387059 C68.4585295,6.48578596 68.240308,6.46723191 68.0133962,6.46723191 C67.2892095,6.46723191 66.7291719,6.74163654 66.3352143,7.29630497 C65.9924327,7.78456943 65.8215246,8.40173571 65.8215246,9.14682728 L65.8215246,14.0636504 L63.7629034,14.0636504 L63.7629034,7.64394927 C63.7629034,6.5648848 63.7426262,5.57956712 63.7030373,4.69385538 L65.4961234,4.69385538 L65.5714388,6.48676249 L65.6284082,6.48676249 C65.8466298,5.87057274 66.1884458,5.37351951 66.6577188,5.00243852 C67.1173359,4.66651257 67.611714,4.49952613 68.1456809,4.49952613 C68.3359006,4.49952613 68.5077742,4.51417406 68.6603362,4.53761075 L68.6622674,6.52387059" id="Fill-10"></path>
                            <path d="M77.8690934,8.93492051 C77.8690934,9.30795456 77.8449538,9.62239687 77.793778,9.87922398 L71.61888,9.87922398 C71.6410884,10.8049734 71.9413844,11.5139334 72.5139747,12.0021979 C73.0344235,12.4377298 73.7083998,12.6564722 74.5339726,12.6564722 C75.4483789,12.6564722 76.2826419,12.5099929 77.0328992,12.2131281 L77.3554037,13.6583909 C76.4786551,14.0441198 75.4425854,14.2374726 74.2491258,14.2374726 C72.8123396,14.2374726 71.6845396,13.8097529 70.8637947,12.9562666 C70.0459466,12.1018038 69.6346086,10.9524293 69.6346086,9.51497869 C69.6346086,8.10291786 70.015048,6.92620051 70.7797891,5.98775621 C71.5792911,4.98583753 72.6597776,4.48487819 74.0193173,4.48487819 C75.3547174,4.48487819 76.365682,4.98583753 77.0512453,5.98775621 C77.5958336,6.78167422 77.8690934,7.76601538 77.8690934,8.93492051 L77.8690934,8.93492051 Z M75.9060648,8.39490001 C75.9205486,7.7767572 75.7853671,7.24552546 75.5063138,6.7943691 C75.150014,6.21431092 74.6015633,5.92525836 73.8667553,5.92525836 C73.1927789,5.92525836 72.6452938,6.20747522 72.2281623,6.77386199 C71.8853807,7.22404183 71.6816428,7.76601538 71.61888,8.39294695 L75.9060648,8.39490001 L75.9060648,8.39490001 Z" id="Fill-11"></path>
                        </g>
                        <g id="Available-on-the" transform="translate(39.910613, 7.198041)" fill="#FFFFFF">
                            <path d="M6.20258423,7.59279621 L5.12402894,7.59279621 L4.53405823,5.71688414 L2.48219611,5.71688414 L1.9192617,7.59279621 L0.86967388,7.59279621 L2.90318994,1.20532051 L4.15844676,1.20532051 L6.20258423,7.59279621 L6.20258423,7.59279621 Z M4.35639111,4.92980183 L3.82242417,3.26189042 C3.7664204,3.09099786 3.66310311,2.69355059 3.50378205,2.05880679 L3.48447041,2.05880679 C3.41881082,2.33321142 3.32514935,2.73163522 3.18417435,3.26189042 L2.65986323,4.92980183 L4.35639111,4.92980183 L4.35639111,4.92980183 Z" id="Fill-12"></path>
                            <path d="M11.28734,2.9874858 L9.56281019,7.59279621 L8.57888196,7.59279621 L6.91035596,2.9874858 L7.99760149,2.9874858 L8.77586072,5.42294894 C8.9071799,5.8301615 9.01918743,6.21882001 9.10319308,6.58794794 L9.13119496,6.58794794 C9.20651037,6.25690464 9.3185179,5.86824613 9.45852732,5.42294894 L10.2271307,2.9874858 L11.28734,2.9874858" id="Fill-13"></path>
                            <path d="M14.9584834,7.59279621 L14.883168,7.062541 L14.8551661,7.062541 C14.5461798,7.48928414 14.0962185,7.6972848 13.5245939,7.6972848 C12.7096425,7.6972848 12.128362,7.11917968 12.128362,6.34186265 C12.128362,5.20518299 13.1026344,4.61731257 14.7895065,4.61731257 L14.7895065,4.53235456 C14.7895065,3.92593009 14.4708644,3.6222296 13.843236,3.6222296 C13.3932747,3.6222296 12.9993171,3.73648348 12.6536387,3.96401472 L12.4479697,3.29118629 C12.8699291,3.02557042 13.3942403,2.89276249 14.0131784,2.89276249 C15.2027757,2.89276249 15.8033678,3.52750629 15.8033678,4.79797042 L15.8033678,6.49420117 C15.8033678,6.95902894 15.8226794,7.31936811 15.8690274,7.59377274 L14.9584834,7.59279621 L14.9584834,7.59279621 Z M14.8175084,5.29892976 C13.6926051,5.29892976 13.1306363,5.57431092 13.1306363,6.22760877 C13.1306363,6.71099059 13.4212766,6.94731059 13.8239243,6.94731059 C14.3395452,6.94731059 14.8175084,6.54986332 14.8175084,6.00984282 L14.8175084,5.29892976 L14.8175084,5.29892976 Z" id="Fill-14"></path>
                            <path d="M18.0570366,2.22872282 C17.7200484,2.22872282 17.45741,1.96310695 17.45741,1.61253307 C17.45741,1.26195918 17.7287386,1.00610861 18.0763482,1.00610861 C18.4229922,1.00610861 18.7039766,1.26195918 18.6943208,1.61253307 C18.6943208,1.98263753 18.432648,2.22872282 18.0570366,2.22872282 L18.0570366,2.22872282 Z M17.5703832,2.9874858 L18.5823133,2.9874858 L18.5823133,7.59279621 L17.5703832,7.59279621 L17.5703832,2.9874858 Z" id="Fill-15"></path>
                            <polygon id="Fill-16" points="20.3802273 0.8742772 21.3921574 0.8742772 21.3921574 7.59279621 20.3802273 7.59279621"></polygon>
                            <path d="M25.6928604,7.59279621 L25.6165794,7.062541 L25.5895431,7.062541 C25.2805568,7.48928414 24.8305955,7.6972848 24.2589709,7.6972848 C23.4440195,7.6972848 22.8627391,7.11917968 22.8627391,6.34186265 C22.8627391,5.20518299 23.8370115,4.61731257 25.5238835,4.61731257 L25.5238835,4.53235456 C25.5238835,3.92593009 25.2052414,3.6222296 24.577613,3.6222296 C24.1276517,3.6222296 23.7336942,3.73648348 23.3880158,3.96401472 L23.1813812,3.29020976 C23.6033406,3.02459389 24.1276517,2.89178596 24.7465899,2.89178596 C25.9361871,2.89178596 26.5377448,3.52652976 26.5377448,4.79699389 L26.5377448,6.49322464 C26.5377448,6.95805241 26.5570565,7.31839158 26.6014732,7.59279621 L25.6928604,7.59279621 L25.6928604,7.59279621 Z M25.5518854,5.29892976 C24.4269822,5.29892976 23.8650134,5.57431092 23.8650134,6.22760877 C23.8650134,6.71099059 24.1556536,6.94731059 24.5583014,6.94731059 C25.0739222,6.94731059 25.5518854,6.54986332 25.5518854,6.00984282 L25.5518854,5.29892976 L25.5518854,5.29892976 Z" id="Fill-17"></path>
                            <path d="M30.6366411,7.6972848 C29.9906667,7.6972848 29.5136691,7.42190365 29.2037172,6.88188315 L29.1844055,6.88188315 L29.1264706,7.59279621 L28.2651713,7.59279621 C28.2922076,7.22366827 28.3018634,6.80571389 28.3018634,6.35162794 L28.3018634,0.8742772 L29.3157247,0.8742772 L29.3157247,3.66129075 L29.3340708,3.66129075 C29.6343668,3.1495896 30.1210203,2.89373902 30.7863064,2.89373902 C31.8832077,2.89373902 32.6518111,3.84194861 32.6518111,5.22471356 C32.6518111,6.65435191 31.7982365,7.6972848 30.6366411,7.6972848 L30.6366411,7.6972848 Z M30.4309721,3.69742232 C29.8487261,3.69742232 29.3157247,4.20912348 29.3157247,4.92003654 L29.3157247,5.7256729 C29.3157247,6.3604167 29.7946535,6.88188315 30.4126261,6.88188315 C31.1706081,6.88188315 31.6225005,6.25690464 31.6225005,5.26182166 C31.621535,4.33314265 31.152262,3.69742232 30.4309721,3.69742232 L30.4309721,3.69742232 Z" id="Fill-18"></path>
                            <polygon id="Fill-19" points="34.1494291 0.8742772 35.1603936 0.8742772 35.1603936 7.59279621 34.1494291 7.59279621"></polygon>
                            <path d="M40.6680743,5.53622629 L37.6303528,5.53622629 C37.65063,6.40826662 38.2203235,6.9004372 39.0632768,6.9004372 C39.5142036,6.9004372 39.9265072,6.82426794 40.2914973,6.68267125 L40.4488872,7.39358431 C40.0182375,7.58303092 39.5122725,7.67775422 38.9223018,7.67775422 C37.4971025,7.67775422 36.6541492,6.76762927 36.6541492,5.35654497 C36.6541492,3.94448414 37.5173797,2.8829972 38.8093287,2.8829972 C39.9699584,2.8829972 40.7028353,3.75503753 40.7028353,5.07237505 C40.705732,5.25205637 40.6970418,5.41318365 40.6680743,5.53622629 L40.6680743,5.53622629 Z M39.7411155,4.80675918 C39.7411155,4.09584613 39.38385,3.59391026 38.73691,3.59391026 C38.1556295,3.59391026 37.6979436,4.10561142 37.6303528,4.80675918 L39.7411155,4.80675918 L39.7411155,4.80675918 Z" id="Fill-20"></path>
                            <path d="M46.8014523,7.6972848 C45.4708801,7.6972848 44.6086152,6.69243654 44.6086152,5.32822563 C44.6086152,3.90639951 45.4892261,2.89276249 46.8777333,2.89276249 C48.1880283,2.89276249 49.0705704,3.84976084 49.0705704,5.2530329 C49.0705704,6.69243654 48.160992,7.6972848 46.8014523,7.6972848 L46.8014523,7.6972848 Z M46.8400756,3.64078365 C46.1091299,3.64078365 45.6408225,4.33216613 45.6408225,5.29892976 C45.6408225,6.24713935 46.1187857,6.93852183 46.8304198,6.93852183 C47.5420538,6.93852183 48.020017,6.19928943 48.020017,5.27939918 C48.020017,4.34193142 47.5517097,3.64078365 46.8400756,3.64078365 L46.8400756,3.64078365 Z" id="Fill-21"></path>
                            <path d="M54.5106604,7.59279621 L53.5006614,7.59279621 L53.5006614,4.94835588 C53.5006614,4.13393075 53.1907096,3.72574166 52.5814272,3.72574166 C51.9818007,3.72574166 51.5685315,4.24720811 51.5685315,4.85363257 L51.5685315,7.59279621 L50.5585325,7.59279621 L50.5585325,4.30384679 C50.5585325,3.89663422 50.5469456,3.4601258 50.5199093,2.98650927 L51.410176,2.98650927 L51.4574896,3.69742232 L51.486457,3.69742232 C51.7558544,3.20525175 52.3100986,2.89178596 52.9290368,2.89178596 C53.883032,2.89178596 54.5106604,3.63101836 54.5106604,4.83410199 L54.5106604,7.59279621" id="Fill-22"></path>
                            <path d="M61.1316574,3.75503753 L60.0183411,3.75503753 L60.0183411,5.99128877 C60.0183411,6.56060513 60.2143543,6.84477505 60.6073462,6.84477505 C60.7850134,6.84477505 60.9366098,6.82524447 61.0573075,6.79692513 L61.0853094,7.57424216 C60.8883306,7.65041142 60.6247267,7.68849604 60.2993255,7.68849604 C59.5007891,7.68849604 59.0257226,7.24319885 59.0257226,6.07722332 L59.0257226,3.75503753 L58.3623677,3.75503753 L58.3623677,2.9874858 L59.0257226,2.9874858 L59.0257226,2.1437648 L60.0183411,1.84006431 L60.0183411,2.98650927 L61.1316574,2.98650927 L61.1316574,3.75503753" id="Fill-23"></path>
                            <path d="M66.4906384,7.59279621 L65.4777427,7.59279621 L65.4777427,4.96788646 C65.4777427,4.14369604 65.1677908,3.72671819 64.5594741,3.72671819 C64.0351629,3.72671819 63.5485095,4.08705737 63.5485095,4.81652447 L63.5485095,7.59279621 L62.5356138,7.59279621 L62.5356138,0.8742772 L63.5485095,0.8742772 L63.5485095,3.64078365 L63.5678212,3.64078365 C63.8854977,3.13884778 64.3460804,2.89178596 64.9360511,2.89178596 C65.9006677,2.89178596 66.4906384,3.64957241 66.4906384,4.85363257 L66.4906384,7.59279621" id="Fill-24"></path>
                            <path d="M71.661331,5.53622629 L68.624575,5.53622629 C68.6438867,6.40826662 69.2135801,6.9004372 70.057499,6.9004372 C70.5093914,6.9004372 70.9207294,6.82426794 71.2837883,6.68267125 L71.4421438,7.39358431 C71.0124597,7.58303092 70.5055291,7.67775422 69.9145928,7.67775422 C68.4903591,7.67775422 67.6474059,6.76762927 67.6474059,5.35654497 C67.6474059,3.94448414 68.5096707,2.8829972 69.8016197,2.8829972 C70.963215,2.8829972 71.6951263,3.75503753 71.6951263,5.07237505 C71.6989887,5.25205637 71.6893328,5.41318365 71.661331,5.53622629 L71.661331,5.53622629 Z M70.7334065,4.80675918 C70.7334065,4.09584613 70.3780722,3.59391026 69.7311322,3.59391026 C69.1498517,3.59391026 68.6912002,4.10561142 68.624575,4.80675918 L70.7334065,4.80675918 L70.7334065,4.80675918 Z" id="Fill-25"></path>
                        </g>
                    </g>
                </g>
            </g>
        </g>
    </g>
</svg>