<?xml version="1.0" encoding="UTF-8"?>
<svg width="100px" height="100px" viewBox="0 0 100 100" version="1.1" xmlns="http://www.w3.org/2000/svg" xmlns:xlink="http://www.w3.org/1999/xlink">
    <!-- Generator: sketchtool 51.2 (57519) - http://www.bohemiancoding.com/sketch -->
    <title>C908015D-991C-4FCD-A734-673D55B27C3B</title>
    <desc>Created with sketchtool.</desc>
    <defs></defs>
    <g id="Symbols" stroke="none" stroke-width="1" fill="none" fill-rule="evenodd">
        <g id="image/cobertura" fill-rule="nonzero">
            <g id="iconos-sxkm-mexico-03" transform="translate(0.000000, 2.000000)">
                <path d="M56.5491742,64.7279722 C56.2489002,64.4641876 55.8199373,64.3762594 55.4338706,64.4641876 L49.3425972,66.046895 C48.9994269,66.1348232 48.7420492,66.3546437 48.570464,66.6184283 L48.5275677,66.7942847 L47.0690938,71.7622275 L46.9833012,72.0699762 C46.8546123,72.3777249 46.5972346,72.5535812 46.2540642,72.5975453 L44.6240052,72.905294 L41.7499536,73.344935 C41.4067833,73.3009709 41.1065093,73.1251145 40.8920278,72.8613299 L40.6775463,72.5975453 L37.2029467,68.6847408 C36.9884653,68.4209562 36.9026727,68.0692435 36.9026727,67.7175307 L37.0313616,62.2659828 C37.0313616,62.2659828 37.0313616,61.2548086 36.3021246,60.2875985 L32.0124954,54.7481224 C32.0124954,54.7481224 31.3261548,53.7369482 30.8971919,53.6929841 L21.4600077,52.8137021 L15.7976972,50.1318923 C15.7976972,50.1318923 15.0684603,49.9560359 14.4250159,50.0439641 C13.0094383,50.1318923 10.178283,50 10.178283,50 C9.7922164,50.0439641 9.40614978,50.2637846 9.19166832,50.6594614 C8.97718686,51.0111742 8.93429057,51.4508152 9.10587573,51.846492 L16.4411416,66.0029309 C16.6556231,66.5305001 17.2132748,66.8822129 17.7709266,66.7942847 L18.5430599,66.7063565 C18.9291265,66.6623924 19.2722968,66.4425719 19.4867783,66.0908591 C19.7012598,65.7391464 19.744156,65.3434695 19.6154672,64.9477926 L14.5108085,54.4843378 C14.5108085,54.1765891 14.7681862,54.0007327 15.0684603,54.2645173 L24.0337852,67.1020333 L25.2348814,75.0155706 C25.3635702,75.4991757 25.7496369,75.8508884 26.2214961,75.9388166 L40.5917538,79.9835135 C40.8920278,80.0274776 41.1494055,79.9835135 41.4067833,79.8516212 L43.0368424,77.47756 L48.9136343,79.7197289 C49.0852195,79.8076571 49.2997009,79.8516212 49.5141824,79.8516212 C49.8573527,79.8516212 50.2005231,79.6757648 50.4150045,79.4119802 L52.4311302,77.037919 C52.7743006,76.6422422 52.8600931,76.0707089 52.6027154,75.5871039 L51.5303081,73.2570068 L56.3775891,69.256274 C56.6778631,69.0364536 56.8494483,68.6847408 56.8494483,68.333028 L56.9781371,65.8710387 C57.0639297,65.3874336 56.8923446,64.9917567 56.5491742,64.7279722 Z" id="Shape" fill="#18302A"></path>
                <g id="Group" fill="#62CE46">
                    <path d="M81.6956522,0.35 C71.7391304,0.35 63.6521739,8.4875 63.6521739,18.50625 C63.6521739,23.0125 65.3043478,27.125 68,30.31875 L57.5652174,41.78125 C51.5217391,35.2625 42.9130435,31.15 33.3478261,31.15 C15.1304348,31.15 0.260869565,46.06875 0.260869565,64.44375 C0.260869565,82.775 15.0869565,97.7375 33.3478261,97.7375 C51.5652174,97.7375 66.4347826,82.81875 66.4347826,64.44375 C66.4347826,56.7875 63.826087,49.74375 59.5217391,44.1 L70.1304348,32.4625 C73.2608696,35.13125 77.3043478,36.75 81.7391304,36.75 C91.6956522,36.75 99.7826087,28.6125 99.7826087,18.59375 C99.7826087,8.575 91.6521739,0.35 81.6956522,0.35 Z M33.3043478,94.675 C16.6956522,94.675 3.2173913,81.06875 3.2173913,64.4 C3.2173913,47.73125 16.7391304,34.125 33.3043478,34.125 C49.9130435,34.125 63.3913043,47.73125 63.3913043,64.4 C63.3913043,81.06875 49.9130435,94.675 33.3043478,94.675 Z M81.6956522,33.6875 C73.3913043,33.6875 66.6086957,26.8625 66.6086957,18.50625 C66.6086957,10.15 73.3913043,3.325 81.6956522,3.325 C90,3.325 96.7826087,10.15 96.7826087,18.50625 C96.7826087,26.8625 90,33.6875 81.6956522,33.6875 Z" id="Shape"></path>
                    <path d="M89.5652174,12.425 C88.7391304,12.425 87.2173913,12.29375 85.2608696,11.50625 C82.2173913,10.325 81.6956522,9.1 81.6956522,9.1 C81.6956522,9.1 81.173913,10.28125 78.1304348,11.50625 C76.173913,12.29375 74.6521739,12.425 73.826087,12.425 C73.4347826,12.425 73.2173913,12.38125 73.2173913,12.38125 C73.2173913,12.38125 72.6956522,16.93125 75.3478261,22.18125 C78,27.43125 81.6956522,29.1375 81.6956522,29.1375 C81.6956522,29.1375 85.3913043,27.43125 88.0434783,22.18125 C90.6956522,16.93125 90.173913,12.38125 90.173913,12.38125 C90.173913,12.38125 89.9565217,12.425 89.5652174,12.425 Z" id="Shape"></path>
                </g>
            </g>
        </g>
    </g>
</svg>