<?xml version="1.0" encoding="UTF-8"?>
<svg width="100px" height="100px" viewBox="0 0 100 100" version="1.1" xmlns="http://www.w3.org/2000/svg" xmlns:xlink="http://www.w3.org/1999/xlink">
    <!-- Generator: sketchtool 51.2 (57519) - http://www.bohemiancoding.com/sketch -->
    <title>9F7F9911-8131-4808-8D80-62647CE928DD</title>
    <desc>Created with sketchtool.</desc>
    <defs></defs>
    <g id="Symbols" stroke="none" stroke-width="1" fill="none" fill-rule="evenodd">
        <g id="image/conductor-designado" fill-rule="nonzero">
            <g id="iconos-SxKm-06" transform="translate(0.000000, 7.000000)">
                <path d="M63.15125,42.7008497 C64.21,43.4613264 65.3191667,44.1189793 66.4616667,44.6796839 L65.6475,41.9353368 L62.3258333,30.7481036 L60.2125,30.7481036 C58.9220833,30.7481036 57.8658333,29.6846114 57.8658333,28.3848342 L57.8658333,27.0468653 C57.8658333,25.7470881 58.9220833,24.6835959 60.2125,24.6835959 L60.525,24.6835959 L62.7929167,24.6835959 L63.8866667,24.6835959 L63.8866667,22.3274611 C63.8866667,21.2971244 64.4854167,20.456487 65.2191667,20.456487 C65.9470833,20.456487 66.5475,21.2971244 66.5475,22.3274611 L66.5475,24.6835959 L70.9866667,39.6387979 L74.2054167,29.4260829 C74.7908333,27.5681192 76.8525,26.0463264 78.78875,26.0463264 L87.8083333,26.0463264 L89.2583333,26.0463264 L89.2583333,23.5982798 L84.26875,23.5982798 L84.26875,16.0589845 C84.26875,10.1224819 94.5529167,10.1224819 94.5529167,16.0589845 L94.5529167,23.5974404 L94.5529167,26.045487 L96.6808333,26.045487 L99.6241667,26.045487 C100.283333,19.3997098 98.1204167,12.5189067 93.1129167,7.37939378 C84.1529167,-1.81137824 69.4945833,-1.9477772 60.3716667,7.07679793 C52.2275,15.1260155 51.25,27.7477461 57.4991667,36.9015855 L53.22625,46.8209378 L63.15125,42.7008497 Z" id="Shape" fill="#62CE46"></path>
                <path d="M96.6816667,26.0459067 L94.55375,26.0459067 L94.55375,23.5978601 L94.55375,16.0589845 C94.55375,10.1224819 84.2695833,10.1224819 84.2695833,16.0589845 L84.2695833,23.5974404 L89.2591667,23.5974404 L89.2591667,26.045487 L87.8091667,26.045487 C87.80875,26.0459067 89.1733333,30.2285285 96.6816667,26.0459067 Z" id="Shape" fill="#18302A"></path>
                <path d="M70.9866667,39.6396373 L70.9870833,39.6383782 L66.5479167,24.6831762 L66.5479167,22.3270415 C66.5479167,21.2967047 65.9479167,20.4560674 65.2195833,20.4560674 C64.4854167,20.4560674 63.8870833,21.2967047 63.8870833,22.3270415 L63.8870833,24.6831762 L62.7933333,24.6831762 L60.5254167,24.6831762 L60.2129167,24.6831762 C58.9225,24.6831762 57.86625,25.7470881 57.86625,27.0464456 L57.86625,28.3844145 C57.86625,29.6841917 58.9225,30.7476839 60.2129167,30.7476839 L62.32625,30.7476839 L65.6479167,41.9349171 L70.5433333,38.1480622 L70.9866667,39.6396373 Z" id="Shape" fill="#18302A"></path>
                <path d="M87.80875,26.0459067 L78.7891667,26.0459067 C76.8529167,26.0459067 74.79125,27.5676995 74.2058333,29.4256632 L70.9870833,39.6383782 L70.9866667,39.6396373 L70.5433333,38.1480622 L65.6479167,41.9349171 L66.4620833,44.6792642 C75.0233333,48.8778342 85.63,47.4571865 92.81125,40.3560466 C96.8329167,36.3782332 99.105,31.2844663 99.6254167,26.0450674 L96.6820833,26.0450674 C89.1733333,30.2285285 87.80875,26.0459067 87.80875,26.0459067 Z" id="Shape" fill="#3D4C48"></path>
                <path d="M86.1495833,61.8558808 C80.6483333,60.095285 67.4983333,58.482 67.1,58.581886 C67.1,58.581886 54.3504167,51.6838756 49.1020833,50.7790259 C43.5829167,49.8259119 30.2945833,47.3518446 10.1525,57.1217876 C10.1525,57.1217876 2.38791667,56.8733316 1.82083333,57.8776477 C1.08291667,59.1916943 2.42125,62.9819067 1.48791667,63.8875959 C0.555,64.7941244 0.32,64.7597098 0.421666667,65.7359067 C0.520833333,66.706228 0.387083333,72.1802332 3.38791667,72.8525751 C5.48958333,73.3222073 8.12,73.9240415 12.1033333,74.4150777 C12.1004167,74.3412124 12.0933333,74.2681865 12.0933333,74.1947409 C12.0933333,70.5060933 15.0595833,67.5149689 18.7241667,67.5149689 C22.38625,67.5149689 25.3566667,70.5060933 25.3566667,74.1947409 C25.3566667,74.5850518 25.31625,74.9652902 25.2525,75.336715 C30.5629167,75.486544 39.8625,75.516342 66.5504167,75.6048964 C66.5504167,75.6048964 66.9329167,75.604057 67.5991667,75.5965026 C67.50375,75.1440777 67.4508333,74.675285 67.4508333,74.1947409 C67.4508333,70.5060933 70.4204167,67.5149689 74.0833333,67.5149689 C77.74625,67.5149689 80.7158333,70.5060933 80.7158333,74.1947409 C80.7158333,74.4759326 80.6925,74.7529275 80.65875,75.0253057 C85.8845833,74.5770777 90.6095833,73.784285 90.8166667,72.3825233 C91.28125,69.1920466 91.1983333,67.597228 91.1983333,67.597228 C91.1983333,67.597228 91.64875,63.6198342 86.1495833,61.8558808 Z M20.0129167,58.7858549 C20.0508333,57.990544 21.6095833,56.1611192 24.8204167,54.5209741 C29.3420833,52.2101658 32.9341667,51.1978756 39.64,51.3502228 L40.47375,59.3855907 L20.0129167,58.7858549 Z M48.4525,63.821285 C48.4525,63.9337617 48.3629167,64.0235751 48.2525,64.0235751 L44.6504167,64.0235751 C44.54,64.0235751 44.4508333,63.933342 44.4508333,63.821285 L44.4508333,63.416285 C44.4508333,63.3063264 44.5404167,63.2152539 44.6504167,63.2152539 L48.2525,63.2152539 C48.3633333,63.2152539 48.4525,63.3063264 48.4525,63.416285 L48.4525,63.821285 Z M59.4758333,59.9441969 L60.4620833,57.958228 C60.5120833,57.8591813 60.4620833,57.7777617 60.3520833,57.7777617 L59.485,57.7777617 C59.375,57.7777617 59.2445833,57.8587617 59.1954167,57.958228 L58.2279167,59.9076839 L43.175,59.4657513 L41.2529167,51.4022642 C47.9204167,51.6767409 53.325,52.631114 64.5854167,60.095285 L59.4758333,59.9441969 Z M89.04,66.7708601 C87.1633333,66.7964611 83.5466667,66.3587254 82.7804167,62.7452021 C84.17875,62.993658 85.5208333,63.2819845 86.445,63.5787047 C89.2683333,64.4852332 89.0379167,66.5261813 89.0379167,66.5261813 C89.0379167,66.5261813 89.0425,66.607601 89.04,66.7708601 Z" id="Shape" fill="#18302A"></path>
                <path d="M74.0833333,67.5149689 C70.4204167,67.5149689 67.4508333,70.5060933 67.4508333,74.1947409 C67.4508333,74.675285 67.50375,75.1440777 67.5991667,75.5965026 C68.2391667,78.613228 70.8983333,80.8761917 74.0833333,80.8761917 C77.4670833,80.8761917 80.2529167,78.320285 80.65875,75.0253057 C80.6925,74.7533472 80.7158333,74.4759326 80.7158333,74.1947409 C80.7158333,70.5060933 77.74625,67.5149689 74.0833333,67.5149689 Z M74.0833333,79.2318497 C71.3204167,79.2318497 69.0833333,76.9751813 69.0833333,74.1947409 C69.0833333,71.4126218 71.3204167,69.1584715 74.0833333,69.1584715 C76.8441667,69.1584715 79.0833333,71.4126218 79.0833333,74.1947409 C79.0833333,76.9751813 76.8441667,79.2318497 74.0833333,79.2318497 Z" id="Shape" fill="#3D4C48"></path>
                <path d="M79.0833333,74.1947409 C79.0833333,71.4126218 76.8441667,69.1584715 74.0833333,69.1584715 C71.3204167,69.1584715 69.0833333,71.4126218 69.0833333,74.1947409 C69.0833333,76.9751813 71.3204167,79.2318497 74.0833333,79.2318497 C76.8441667,79.2318497 79.0833333,76.9751813 79.0833333,74.1947409 Z" id="Shape" fill="#18302A"></path>
                <path d="M18.7241667,67.5149689 C15.0595833,67.5149689 12.0933333,70.5060933 12.0933333,74.1947409 C12.0933333,74.2686062 12.1008333,74.3416321 12.1033333,74.4150777 C12.22,78.0013212 15.1341667,80.8761917 18.7241667,80.8761917 C21.9979167,80.8761917 24.7129167,78.4810259 25.2525,75.336715 C25.31625,74.9652902 25.3566667,74.5850518 25.3566667,74.1947409 C25.3566667,70.5060933 22.3866667,67.5149689 18.7241667,67.5149689 Z M18.7241667,79.2318497 C15.9633333,79.2318497 13.725,76.9751813 13.725,74.1947409 C13.725,71.4126218 15.9633333,69.1584715 18.7241667,69.1584715 C21.4854167,69.1584715 23.7229167,71.4126218 23.7229167,74.1947409 C23.7233333,76.9751813 21.4854167,79.2318497 18.7241667,79.2318497 Z" id="Shape" fill="#3D4C48"></path>
                <ellipse id="Oval" fill="#18302A" cx="18.7241667" cy="74.1947409" rx="4.99916667" ry="5.03543005"></ellipse>
                <path d="M43.175,59.4653316 L58.2279167,59.9072642 L59.1954167,57.9578083 C59.2445833,57.8587617 59.3754167,57.777342 59.485,57.777342 L60.3520833,57.777342 C60.4620833,57.777342 60.5120833,57.858342 60.4620833,57.9578083 L59.4758333,59.9437772 L64.5854167,60.0944456 C53.325,52.6302746 47.9204167,51.6759016 41.2529167,51.4014249 L43.175,59.4653316 Z" id="Shape" fill="#FFFFFF"></path>
                <path d="M39.6404167,51.3506425 C32.9341667,51.1982953 29.3420833,52.2105855 24.8208333,54.5213938 C21.61,56.1615389 20.05125,57.9913834 20.0133333,58.7862746 L40.4741667,59.3864301 L39.6404167,51.3506425 Z" id="Shape" fill="#FFFFFF"></path>
                <path d="M86.445,63.5787047 C85.5208333,63.2819845 84.1791667,62.9932383 82.7804167,62.7452021 C83.5470833,66.3583057 87.16375,66.7960415 89.04,66.7708601 C89.0425,66.607601 89.0375,66.526601 89.0375,66.526601 C89.0375,66.526601 89.2683333,64.4852332 86.445,63.5787047 Z" id="Shape" fill="#62CE46"></path>
                <path d="M48.2525,63.2156736 L44.6504167,63.2156736 C44.54,63.2156736 44.4508333,63.3067461 44.4508333,63.4167047 L44.4508333,63.8217047 C44.4508333,63.9341813 44.5404167,64.0239948 44.6504167,64.0239948 L48.2525,64.0239948 C48.3633333,64.0239948 48.4525,63.9337617 48.4525,63.8217047 L48.4525,63.4167047 C48.4525,63.3067461 48.3629167,63.2156736 48.2525,63.2156736 Z" id="Shape" fill="#62CE46"></path>
            </g>
        </g>
    </g>
</svg>