<?xml version="1.0" encoding="UTF-8"?>
<svg width="100px" height="100px" viewBox="0 0 100 100" version="1.1" xmlns="http://www.w3.org/2000/svg" xmlns:xlink="http://www.w3.org/1999/xlink">
    <!-- Generator: sketchtool 51.2 (57519) - http://www.bohemiancoding.com/sketch -->
    <title>35DD9D67-AE85-45A8-A179-94C2980A5893</title>
    <desc>Created with sketchtool.</desc>
    <defs></defs>
    <g id="Symbols" stroke="none" stroke-width="1" fill="none" fill-rule="evenodd">
        <g id="image/daños-materiales" fill-rule="nonzero">
            <g id="iconos-SxKm-01" transform="translate(0.000000, 21.000000)">
                <g id="Group-2" transform="translate(9.000000, 0.000000)">
                    <path d="M40.3091255,10.0870444 C40.9288973,10.0870444 41.3935361,9.62577778 41.3935361,8.98317778 C41.3935361,8.35417778 40.9288973,7.89253333 40.3091255,7.89253333 C39.7057034,7.89253333 39.2281369,8.35417778 39.2281369,8.98317778 C39.2281369,9.6254 39.7057034,10.0870444 40.3091255,10.0870444 Z" id="Shape" fill="#62CE46"></path>
                    <path d="M44.7961977,13.8451778 C44.7961977,14.4881556 45.2749049,14.9486667 45.8794677,14.9486667 C46.4969582,14.9486667 46.9623574,14.4877778 46.9623574,13.8451778 C46.9623574,13.2161778 46.4969582,12.7549111 45.8794677,12.7549111 C45.2749049,12.7552889 44.7961977,13.2161778 44.7961977,13.8451778 Z" id="Shape" fill="#62CE46"></path>
                    <g id="Group">
                        <path d="M3.86730038,22.2454444 L55.0114068,22.2454444 L58.934981,26.1429778 L58.934981,0.429533333 C58.5045627,0.231577778 58.0269962,0.117866667 57.5243346,0.117866667 L3.86730038,0.117866667 C2.00760456,0.117866667 0.484790875,1.63048889 0.484790875,3.47857778 L0.484790875,18.8847333 C0.484790875,20.7324444 2.00798479,22.2454444 3.86730038,22.2454444 Z M48.1429658,13.8451778 C48.1429658,15.0888222 47.0885932,16.0525333 45.8794677,16.0525333 C44.6695817,16.0525333 43.6288973,15.0888222 43.6288973,13.8451778 C43.6288973,12.6155111 44.6695817,11.6510444 45.8794677,11.6510444 C47.0885932,11.6514222 48.1429658,12.6155111 48.1429658,13.8451778 Z M47.0030418,6.88688889 L40.4787072,15.9407111 L39.1847909,15.9407111 L45.7380228,6.88688889 L47.0030418,6.88688889 Z M40.3091255,6.78942222 C41.5193916,6.78942222 42.5737643,7.752 42.5737643,8.98317778 C42.5737643,10.2264444 41.5193916,11.1890222 40.3091255,11.1890222 C39.1007605,11.1890222 38.0596958,10.2264444 38.0596958,8.98317778 C38.0596958,7.752 39.1007605,6.78942222 40.3091255,6.78942222 Z M33.5688213,11.2604222 C32.9224335,11.2604222 32.3038023,11.5120222 31.9102662,11.917 C31.4307985,11.7352889 31.0231939,11.5539556 30.5596958,11.3858444 L31.7403042,6.88726667 L36.5501901,6.88726667 L36.5501901,8.14451111 L32.6551331,8.14451111 L31.9787072,10.7428667 C32.3870722,10.2955778 33.1190114,10.0730667 33.8357414,10.0730667 C35.6220532,10.0730667 36.9304183,11.2048889 36.9304183,13.0764 C36.9304183,14.7824444 35.6087452,16.1639778 33.5825095,16.1639778 C31.643346,16.1639778 30.3338403,14.9063556 30.208365,13.4813778 L31.5304183,13.0911333 C31.6152091,14.2082222 32.4448669,14.9626444 33.5825095,14.9626444 C34.6661597,14.9626444 35.5372624,14.2505333 35.5372624,13.1319333 C35.5372624,11.8882889 34.6235741,11.2604222 33.5688213,11.2604222 Z" id="Shape" fill="#62CE46"></path>
                        <path d="M60.9064639,28.1028889 L60.9064639,18.8847333 L60.9064639,15.1031778 L60.9064639,3.47857778 C60.9064639,2.13028889 60.095057,0.964466667 58.934981,0.429533333 L58.934981,26.1433556 L60.9064639,28.1028889 Z" id="Shape" fill="#18302A"></path>
                    </g>
                </g>
                <path d="M85.4281369,38.0505333 C84.921673,38.3837333 84.2273764,38.8400889 83.9057034,39.9617111 L85.6391635,40.4528222 C85.7779468,39.967 86.0072243,39.8155111 86.4231939,39.5427556 C86.930038,39.2080444 87.6243346,38.7513111 87.9456274,37.6300667 C88.2669202,36.5088222 87.9190114,35.7570444 87.6653992,35.2088889 C87.4570342,34.7578222 87.3418251,34.5088667 87.481749,34.0245556 C87.6197719,33.5394889 87.8494297,33.388 88.2646388,33.116 C88.7718631,32.7824222 89.4661597,32.3245556 89.7874525,31.2036889 L88.0543726,30.7140889 C87.9155894,31.1976444 87.686692,31.3491333 87.2703422,31.6230222 C86.7638783,31.9566 86.0695817,32.4125778 85.748289,33.5338222 C85.426616,34.6554444 85.7749049,35.4076 86.0285171,35.9568889 C86.2368821,36.4064444 86.3520913,36.6557778 86.2129278,37.1408444 C86.0741445,37.6244 85.8444867,37.7758889 85.4281369,38.0505333 Z" id="Shape" fill="#18302A"></path>
                <path d="M93.1737643,36.6372667 C92.656654,37.6844667 92.865019,38.4846 93.0163498,39.0694 C93.1418251,39.5510667 93.2098859,39.8151333 92.9874525,40.2680889 C92.7631179,40.7214222 92.5106464,40.8290889 92.0520913,41.0247778 C91.4935361,41.2646667 90.7292776,41.5914444 90.2117871,42.6382667 L91.8292776,43.4263111 C92.0539924,42.9726 92.3064639,42.8653111 92.7646388,42.6696222 C93.3231939,42.4293556 94.0878327,42.1029556 94.6041825,41.0561333 C95.1205323,40.0089333 94.9129278,39.2072889 94.7612167,38.6224889 C94.6361217,38.1427111 94.5676806,37.8790222 94.7912548,37.4253111 C95.0144487,36.9727333 95.2669202,36.8654444 95.7250951,36.6697556 C96.2836502,36.4302444 97.048289,36.1038444 97.5642586,35.0566444 L95.9467681,34.2686 C95.7243346,34.7211778 95.4718631,34.8288444 95.0140684,35.0245333 C94.4547529,35.2629111 93.6901141,35.5904444 93.1737643,36.6372667 Z" id="Shape" fill="#18302A"></path>
                <path d="M89.738403,37.2005333 C89.8760456,37.6776667 89.9520913,37.9394667 89.7422053,38.3988444 C89.5304183,38.8574667 89.2806084,38.9719333 88.8281369,39.1808444 C88.2760456,39.4343333 87.5209125,39.7818889 87.0326996,40.8430667 L88.6707224,41.5880444 C88.8825095,41.1279111 89.1319392,41.0134444 89.5847909,40.8045333 C90.1365019,40.5510444 90.8920152,40.2034889 91.3802281,39.1419333 C91.8684411,38.0822667 91.638403,37.2874222 91.469962,36.7064 C91.3319392,36.2288889 91.2562738,35.9670889 91.4673004,35.5092222 C91.678327,35.0502222 91.9273764,34.9353778 92.3806084,34.7272222 C92.9311787,34.4737333 93.6878327,34.1261778 94.1756654,33.0672667 L92.5372624,32.3219111 C92.3262357,32.7794 92.0764259,32.8961333 91.6239544,33.1024 C91.0722433,33.3558889 90.31673,33.7034444 89.8285171,34.7642444 C89.3410646,35.8254222 89.5711027,36.6210222 89.738403,37.2005333 Z" id="Shape" fill="#18302A"></path>
                <path d="M94.2961977,47.1821778 C88.926616,45.4852 76.9197719,43.9193111 74.0380228,43.6711111 C76.5091255,39.8136222 81.4901141,32.4537556 84.6262357,29.1312 C86.3228137,27.3348667 88.161597,26.4263111 89.9323194,26.4965778 L89.9920152,25.0576222 C88.4536122,24.9892444 86.086692,25.4769556 83.5688213,28.1452 C80.4836502,31.4129778 75.1403042,39.1793333 72.5973384,43.2136222 C69.5406844,41.6201556 58.6019011,36.0392444 53.6771863,35.2017111 C47.6262357,34.1711333 33.0574144,31.4945778 10.9745247,42.0617778 C10.9745247,42.0617778 2.46045627,41.7924222 1.83954373,42.8792889 C1.02889734,44.3004889 2.49809886,48.399 1.47452471,49.3770667 C0.449809886,50.3589111 0.19391635,50.3230222 0.30418251,51.3770222 C0.414068441,52.4272444 0.26730038,58.3481556 3.55703422,59.0734889 C5.86121673,59.5831111 8.74372624,60.2328889 13.1117871,60.7632889 C13.1087452,60.6850889 13.0992395,60.6061333 13.0992395,60.5252889 C13.0992395,56.5352 16.3539924,53.3018 20.3711027,53.3018 C24.3859316,53.3018 27.6429658,56.5355778 27.6429658,60.5252889 C27.6429658,60.9472667 27.5992395,61.3594222 27.5285171,61.761 C33.3509506,61.9219333 43.5467681,61.9551778 72.8076046,62.0503778 C72.8076046,62.0503778 73.2262357,62.05 73.9562738,62.0420667 C73.8509506,61.5536 73.7927757,61.0454889 73.7927757,60.5252889 C73.7927757,56.5352 77.0505703,53.3018 81.0653992,53.3018 C85.0821293,53.3018 88.3365019,56.5355778 88.3365019,60.5252889 C88.3365019,60.8312889 88.3106464,61.1278444 88.2737643,61.4236444 C94.0041825,60.9393333 99.1855513,60.0821556 99.4114068,58.5646222 C99.9220532,55.1147556 99.8311787,53.3905778 99.8311787,53.3905778 C99.8311787,53.3905778 100.325095,49.0888222 94.2961977,47.1821778 Z M21.7840304,43.8615111 C21.8262357,43.0013111 23.5342205,41.0217556 27.0551331,39.2473333 C32.0129278,36.7509778 35.9505703,35.6554222 43.3041825,35.8197556 L44.2186312,44.5109111 L21.7840304,43.8615111 Z M52.9665399,49.3079333 C52.9665399,49.4276889 52.8673004,49.5259111 52.7475285,49.5259111 L48.7973384,49.5259111 C48.6775665,49.5259111 48.5787072,49.4276889 48.5787072,49.3079333 L48.5787072,48.8704667 C48.5787072,48.7503333 48.6775665,48.6524889 48.7973384,48.6524889 L52.7475285,48.6524889 C52.8673004,48.6524889 52.9665399,48.7503333 52.9665399,48.8704667 L52.9665399,49.3079333 Z M65.051711,45.1134667 L66.1342205,42.9650444 C66.1878327,42.8585111 66.1330798,42.7701111 66.0129278,42.7701111 L65.060076,42.7701111 C64.9403042,42.7701111 64.7973384,42.8581333 64.7429658,42.9650444 L63.68327,45.0734222 L47.1790875,44.5955333 L45.0714829,35.8749111 C52.3825095,36.1741111 58.304943,37.2050667 70.6528517,45.2755333 L65.051711,45.1134667 Z M97.4657795,52.4975111 C95.4076046,52.5235778 91.4425856,52.0506 90.6030418,48.1424889 C92.1361217,48.4133556 93.6057034,48.7242667 94.6193916,49.0442444 C97.7155894,50.0245778 97.4638783,52.2326889 97.4638783,52.2326889 C97.4638783,52.2326889 97.4661597,52.3203333 97.4657795,52.4975111 Z" id="Shape" fill="#18302A"></path>
                <path d="M81.0665399,53.3018 C77.051711,53.3018 73.7939163,56.5355778 73.7939163,60.5252889 C73.7939163,61.0454889 73.851711,61.5536 73.9574144,62.0420667 C74.6593156,65.3038 77.5752852,67.7499111 81.0665399,67.7499111 C84.7768061,67.7499111 87.8288973,64.9883556 88.2749049,61.4236444 C88.3117871,61.1278444 88.3376426,60.8312889 88.3376426,60.5252889 C88.3376426,56.5352 85.0836502,53.3018 81.0665399,53.3018 Z M81.0665399,65.9720889 C78.039924,65.9720889 75.5851711,63.5339111 75.5851711,60.5252889 C75.5851711,57.5170444 78.039924,55.0788667 81.0665399,55.0788667 C84.0935361,55.0788667 86.5486692,57.5170444 86.5486692,60.5252889 C86.5486692,63.5339111 84.0935361,65.9720889 81.0665399,65.9720889 Z" id="Shape" fill="#3D4C48"></path>
                <ellipse id="Oval" fill="#18302A" cx="81.0669202" cy="60.5252889" rx="5.48174905" ry="5.44642222"></ellipse>
                <path d="M20.3718631,53.3018 C16.3547529,53.3018 13.1,56.5355778 13.1,60.5252889 C13.1,60.6061333 13.1095057,60.6850889 13.1125475,60.7632889 C13.239924,64.6423111 16.4365019,67.7499111 20.3722433,67.7499111 C23.9619772,67.7499111 26.9387833,65.161 27.530038,61.761 C27.6007605,61.3594222 27.6444867,60.9472667 27.6444867,60.5252889 C27.6437262,56.5352 24.3863118,53.3018 20.3718631,53.3018 Z M20.3718631,65.9720889 C17.3452471,65.9720889 14.8901141,63.5339111 14.8901141,60.5252889 C14.8901141,57.5170444 17.3456274,55.0788667 20.3718631,55.0788667 C23.3996198,55.0788667 25.8532319,57.5170444 25.8532319,60.5252889 C25.8528517,63.5339111 23.3996198,65.9720889 20.3718631,65.9720889 Z" id="Shape" fill="#3D4C48"></path>
                <ellipse id="Oval" fill="#18302A" cx="20.3714829" cy="60.5252889" rx="5.48174905" ry="5.44642222"></ellipse>
                <path d="M94.6197719,49.0438667 C93.6060837,48.7238889 92.1365019,48.4129778 90.6034221,48.1421111 C91.4429658,52.0506 95.4079848,52.5235778 97.4661597,52.4971333 C97.4665399,52.3199556 97.4646388,52.2323111 97.4646388,52.2323111 C97.4646388,52.2323111 97.7155894,50.0242 94.6197719,49.0438667 Z" id="Shape" fill="#62CE46"></path>
                <path d="M52.7475285,48.6521111 L48.7973384,48.6521111 C48.6775665,48.6521111 48.5787072,48.7499556 48.5787072,48.8700889 L48.5787072,49.3075556 C48.5787072,49.4273111 48.6775665,49.5255333 48.7973384,49.5255333 L52.7475285,49.5255333 C52.8673004,49.5255333 52.9665399,49.4273111 52.9665399,49.3075556 L52.9665399,48.8700889 C52.9665399,48.7499556 52.8673004,48.6521111 52.7475285,48.6521111 Z" id="Shape" fill="#62CE46"></path>
            </g>
        </g>
    </g>
</svg>