<svg xmlns="http://www.w3.org/2000/svg" width="100" height="100" viewBox="0 0 100 100">
    <g fill="none" fill-rule="evenodd">
        <path stroke="#050302" stroke-width="2" d="M88.872 79.828c16.474-21.47 12.425-52.228-9.044-68.7C58.36-5.346 27.6-1.297 11.128 20.172c-16.474 21.469-12.424 52.226 9.045 68.7 21.467 16.474 52.226 12.424 68.7-9.044z"/>
        <path fill="#1995C6" d="M54.685 45.648V25.847a.86.86 0 0 0-.86-.861h-7.317a.864.864 0 0 0-.609.252.864.864 0 0 0-.252.609v19.801h-19.8a.883.883 0 0 0-.86.86v7.316c0 .476.385.86.86.86h19.8v19.802c0 .476.386.86.861.86h7.316a.858.858 0 0 0 .86-.86l.001-19.801h19.802a.857.857 0 0 0 .86-.86l.002-7.315a.863.863 0 0 0-.862-.862H54.685z"/>
        <path stroke="#050302" stroke-width="1.756" d="M54.699 45.662V25.861a.86.86 0 0 0-.861-.861h-7.316a.864.864 0 0 0-.61.252.864.864 0 0 0-.251.609v19.801H25.86a.883.883 0 0 0-.86.86v7.316c0 .476.385.86.86.86h19.8V74.5c0 .476.386.86.862.86h7.316a.858.858 0 0 0 .86-.86V54.699H74.5a.857.857 0 0 0 .86-.86l.002-7.315a.863.863 0 0 0-.862-.862H54.699z"/>
    </g>
</svg>
