<svg xmlns="http://www.w3.org/2000/svg" width="100" height="100" viewBox="0 0 100 100">
    <path fill="#17D320" fill-rule="evenodd" d="M50 0C22.426 0 0 22.431 0 50c0 27.574 22.431 50 50 50 27.574 0 50-22.431 50-50 0-27.574-22.426-50-50-50zm0 95.804C24.747 95.804 4.196 75.26 4.196 50 4.196 24.747 24.74 4.196 50 4.196c25.253 0 45.804 20.55 45.804 45.804S75.254 95.804 50 95.804zM74.889 32.1c.847.841.847 2.21 0 3.05L42.572 67.202c-.424.42-.982.63-1.535.63-.559 0-1.112-.21-1.535-.63L25.81 53.628a2.147 2.147 0 0 1 0-3.05 2.19 2.19 0 0 1 3.075 0L41.03 62.624l30.777-30.525a2.196 2.196 0 0 1 3.08 0z"/>
</svg>
