<svg xmlns="http://www.w3.org/2000/svg" width="20" height="20" viewBox="0 0 20 20">
    <g fill="none" fill-rule="evenodd">
        <path d="M-6-6h32v32H-6z"/>
        <path fill="#000" fill-rule="nonzero" d="M6.483 9.417L9.167 12.1V0h1.666v12.133l2.717-2.716 1.183 1.183-4.716 4.717L5.3 10.6l1.183-1.183zm11.85-6.084A1.667 1.667 0 0 1 20 4.85v13.633A1.667 1.667 0 0 1 18.333 20H1.667A1.667 1.667 0 0 1 0 18.483V4.85a1.667 1.667 0 0 1 1.667-1.517H7.5V5H1.667v13.333h16.666V5H12.5V3.333h5.833z"/>
    </g>
</svg>
