<svg xmlns="http://www.w3.org/2000/svg" width="45" height="45" viewBox="0 0 45 45">
    <path fill="#94A3A0" fill-opacity=".6" fill-rule="nonzero" d="M45 21.92c0 12.107-9.89 21.921-22.091 21.921-3.873 0-7.512-.99-10.678-2.728L0 45l3.988-11.761a21.69 21.69 0 0 1-3.17-11.318C.817 9.814 10.707 0 22.909 0 35.112 0 45 9.814 45 21.92zM23 4C12.522 4 4 12.075 4 22c0 3.939 1.345 7.586 3.62 10.553l-2.375 6.685 7.302-2.215C15.547 38.903 19.141 40 23 40c10.476 0 19-8.074 19-17.999C42 12.076 33.477 4 23 4zm11.922 23.796c-.137-.22-.497-.352-1.038-.616-.542-.264-3.203-1.542-3.698-1.718-.497-.176-.858-.264-1.219.264-.36.529-1.398 1.718-1.714 2.07-.316.353-.631.397-1.173.133-.54-.264-2.285-.822-4.352-2.62-1.609-1.4-2.696-3.128-3.011-3.657-.316-.528-.033-.814.237-1.076.244-.237.542-.617.812-.925.272-.309.361-.528.54-.881.182-.353.092-.66-.044-.926-.135-.263-1.219-2.862-1.67-3.92-.45-1.056-.9-.88-1.217-.88-.315 0-.677-.044-1.037-.044-.361 0-.948.132-1.444.66-.496.53-1.894 1.807-1.894 4.405 0 2.598 1.939 5.108 2.21 5.46.27.352 3.743 5.857 9.246 7.972 5.503 2.113 5.503 1.408 6.496 1.32.992-.088 3.202-1.277 3.654-2.51.45-1.234.45-2.291.316-2.511z"/>
</svg>
