<svg xmlns="http://www.w3.org/2000/svg" width="24" height="20" viewBox="0 0 24 20">
    <path fill="#94A3A0" fill-rule="evenodd" d="M21.28 8.081h-.526C20.345 3.556 16.681 0 12.235 0s-8.11 3.554-8.518 8.081H3.19c-1.5 0-2.72 1.273-2.72 2.837v3.479c0 1.563 1.22 2.837 2.72 2.837h1.295c.448 0 .81-.379.81-.845l-.002-7.463c0-3.992 3.113-7.237 6.941-7.237 3.826 0 6.941 3.246 6.941 7.237v7.463c0 .633-.493 1.148-1.1 1.148h-2.557c-.274-.462-.76-.774-1.318-.774-.857 0-1.553.726-1.553 1.619 0 .892.696 1.618 1.553 1.618a1.54 1.54 0 0 0 1.318-.774h2.556c1.217 0 2.238-.842 2.584-1.992h.62c1.5 0 2.721-1.274 2.721-2.837v-3.48c.002-1.563-1.221-2.836-2.72-2.836zM2.821 15.294h-.36c-.45 0-.815-.524-.815-1.17l.002-3.543c0-.645.365-1.17.815-1.17h.36l-.002 5.883zm20.002-1.17c0 .646-.367 1.17-.817 1.17h-.358l-.002-5.882h.358c.45 0 .817.524.817 1.17l.002 3.543z"/>
</svg>
