<?xml version="1.0" encoding="UTF-8"?>
<svg width="100px" height="100px" viewBox="0 0 100 100" version="1.1" xmlns="http://www.w3.org/2000/svg" xmlns:xlink="http://www.w3.org/1999/xlink">
    <!-- Generator: sketchtool 51.2 (57519) - http://www.bohemiancoding.com/sketch -->
    <title>8ACD6CAB-F6A7-4A78-8A83-58DC226B997D</title>
    <desc>Created with sketchtool.</desc>
    <defs></defs>
    <g id="Symbols" stroke="none" stroke-width="1" fill="none" fill-rule="evenodd">
        <g id="image/pia" fill-rule="nonzero">
            <g id="iconos-SxKm-ultimos-07" transform="translate(10.000000, 0.000000)">
                <g id="Group" transform="translate(38.205980, 46.179402)">
                    <path d="M36.910299,12.6910299 L33.0564784,12.6910299 L33.0564784,2.82392027 C33.0564784,1.29568106 31.7940199,0.0332225914 30.2657807,0.0332225914 L11.4285714,0.0332225914 C9.90033223,0.0332225914 8.63787375,1.29568106 8.63787375,2.82392027 L8.63787375,12.6910299 L4.78405316,12.6910299 C2.2923588,12.6910299 0.265780731,14.717608 0.265780731,17.2093023 L0.265780731,49.3023256 C0.265780731,51.7940199 2.2923588,53.820598 4.78405316,53.820598 L36.8770764,53.820598 C39.3687708,53.820598 41.3953488,51.7940199 41.3953488,49.3023256 L41.3953488,17.2093023 C41.461794,14.717608 39.4019934,12.6910299 36.910299,12.6910299 Z" id="Shape" fill="#18302A"></path>
                    <path d="M29.6013289,45.0498339 C29.6013289,46.1461794 28.7043189,47.0431894 27.6079734,47.0431894 L14.1528239,47.0431894 C13.0564784,47.0431894 12.1594684,46.1461794 12.1594684,45.0498339 L12.1594684,39.9667774 C12.1594684,38.8704319 13.0564784,37.9734219 14.1528239,37.9734219 L27.6079734,37.9734219 C28.7043189,37.9734219 29.6013289,38.8704319 29.6013289,39.9667774 L29.6013289,45.0498339 Z" id="Shape" fill="#62CE46"></path>
                </g>
                <path d="M34.3189369,7.14285714 C27.3421927,-1.02990033 15.0498339,-1.99335548 6.910299,4.9833887 C-1.26245847,11.9601329 -2.22591362,24.2524917 4.75083056,32.4252492 C10.9634551,39.7009967 21.4285714,41.2624585 29.4019934,36.5448505 L37.4086379,40.6976744 L34.551495,32.1262458 C40.4318937,24.9833887 40.5315615,14.4186047 34.3189369,7.14285714 Z M9.36877076,22.8239203 C7.60797342,22.8239203 6.17940199,21.3953488 6.17940199,19.6345515 C6.17940199,17.8737542 7.60797342,16.4451827 9.36877076,16.4451827 C11.1295681,16.4451827 12.5581395,17.8737542 12.5581395,19.6345515 C12.5249169,21.3953488 11.1295681,22.8239203 9.36877076,22.8239203 Z M19.5348837,22.8239203 C17.7740864,22.8239203 16.345515,21.3953488 16.345515,19.6345515 C16.345515,17.8737542 17.7740864,16.4451827 19.5348837,16.4451827 C21.2956811,16.4451827 22.7242525,17.8737542 22.7242525,19.6345515 C22.7242525,21.3953488 21.2956811,22.8239203 19.5348837,22.8239203 Z M29.7009967,22.8239203 C27.9401993,22.8239203 26.5116279,21.3953488 26.5116279,19.6345515 C26.5116279,17.8737542 27.9401993,16.4451827 29.7009967,16.4451827 C31.461794,16.4451827 32.8903654,17.8737542 32.8903654,19.6345515 C32.8903654,21.3953488 31.4285714,22.8239203 29.7009967,22.8239203 Z" id="Shape" fill="#62CE46"></path>
            </g>
        </g>
    </g>
</svg>