<?xml version="1.0" encoding="UTF-8"?>
<svg width="129px" height="44px" viewBox="0 0 129 44" version="1.1" xmlns="http://www.w3.org/2000/svg" xmlns:xlink="http://www.w3.org/1999/xlink">
    <!-- Generator: sketchtool 51.2 (57519) - http://www.bohemiancoding.com/sketch -->
    <title>77BE36C3-1FE6-43A6-A115-D8F3924AF9FE</title>
    <desc>Created with sketchtool.</desc>
    <defs>
        <linearGradient x1="58.9170878%" y1="9.59026547%" x2="90.8103723%" y2="60.8514694%" id="linearGradient-1">
            <stop stop-color="#FF177B" offset="0%"></stop>
            <stop stop-color="#FFEC73" offset="100%"></stop>
        </linearGradient>
        <linearGradient x1="37.1029741%" y1="-44.0352456%" x2="0%" y2="101.060094%" id="linearGradient-2">
            <stop stop-color="#064AA2" offset="0%"></stop>
            <stop stop-color="#63FFD4" offset="100%"></stop>
        </linearGradient>
        <path d="M12.094881,11.176 L0.435067662,0 C0.163044438,0.0639044431 0,0.269687439 0,0.616 L0,11.176 L0,22 C0,22.2938203 0.117117741,22.4686362 0.261040597,22.528 L12.094881,11.176 Z" id="path-3"></path>
        <path d="M0.481565132,12.1430566 L7.22094398,8.39891066 C8.88053341,7.468883 10.1976249,6.73078337 10.1976249,6.73078337 L15.0986054,4.06109027 L11.8357573,0.854660091 L0.00205495973,12.2080727 C0.133952502,12.2509736 0.366425822,12.2275239 0.547792171,12.1369952" id="path-5"></path>
        <linearGradient x1="78.6453125%" y1="50%" x2="2.49516972%" y2="100%" id="linearGradient-7">
            <stop stop-color="#FF4521" offset="0%"></stop>
            <stop stop-color="#8A33DB" offset="100%"></stop>
        </linearGradient>
        <linearGradient x1="0%" y1="-24.1863374%" x2="64.2244373%" y2="100%" id="linearGradient-8">
            <stop stop-color="#00A3B5" offset="0%"></stop>
            <stop stop-color="#D6FFA1" offset="100%"></stop>
        </linearGradient>
        <path d="M1.51905572,0.998884118 C1.29459447,0.877305335 1.07157496,0.842526009 0.891167038,0.891681094 L12.5606608,12.0839387 L15.7890964,8.99413655 L10.9226931,6.2679443 C10.9226931,6.2679443 6.33595023,3.69786601 3.56644794,2.14600191 L1.51905572,0.998884118 Z" id="path-9"></path>
    </defs>
    <g id="Nueva-landing" stroke="none" stroke-width="1" fill="none" fill-rule="evenodd">
        <g id="proceso-de-pago-&gt;-pago-exitoso" transform="translate(-749.000000, -1282.000000)">
            <g id="Group-2" transform="translate(475.000000, 1182.000000)">
                <g id="Group" transform="translate(89.000000, 100.000000)">
                    <g id="Play-Store" transform="translate(185.481013, 0.000000)">
                        <rect id="background" fill="#000000" x="0" y="0" width="128.518987" height="44" rx="2.7"></rect>
                        <g id="icon" transform="translate(4.322078, 14.854041)">
                            <path d="M11.3559555,6.2679443 C11.3559555,6.2679443 2.48880719,1.29943701 1.96802579,1.00753283 C1.44637785,0.715628641 0.927329496,0.892699649 0.927329496,1.5028057 L0.927329496,12.1095344 L0.927329496,22.931904 C0.927329496,23.3886069 1.29820211,23.5867161 1.75139458,23.3333818 C2.20372053,23.0800476 11.3559555,17.9511245 11.3559555,17.9511245 C11.3559555,17.9511245 12.5992707,17.2548348 13.2209283,16.9066899 C14.2214051,16.3463962 16.2223588,15.2258088 16.2223588,15.2258088 C16.2223588,15.2258088 20.3513495,12.9116134 20.9007262,12.6048072 C21.4492364,12.2971245 21.3963784,11.8754851 20.9336542,11.6326699 C20.4700634,11.3907313 16.2223588,8.99413655 16.2223588,8.99413655 L11.3559555,6.2679443 Z" id="orange" fill="url(#linearGradient-1)"></path>
                            <g id="blue" transform="translate(0.898734, 0.897959)">
                                <mask id="mask-4" fill="white">
                                    <use xlink:href="#path-3"></use>
                                </mask>
                                <use id="Clip-2" fill="url(#linearGradient-2)" xlink:href="#path-3"></use>
                                <path d="M15.3143817,8.096 L10.4416239,5.368 C10.4245589,5.4076961 1.56086873,0.430063235 1.04416239,0.176 C0.518845932,-0.154817409 0,0.0225788222 0,0.616 L0,11.264 C0,11.2600153 0,21.6438422 0,22.088 C0,22.559804 0.370727978,22.758277 0.783121792,22.528 C1.27589325,22.2506779 10.4245589,17.1123346 10.4416239,17.072 L15.3143817,14.344 C15.2890643,14.3820134 19.4164447,12.0635676 19.9260989,11.792 C20.5139035,11.44795 20.4610661,11.0255362 20.0131124,10.824 C19.5351123,10.539892 15.2890643,8.1388955 15.3143817,8.096" id="Fill-1" mask="url(#mask-4)"></path>
                            </g>
                            <g id="red" transform="translate(1.158331, 11.220341)">
                                <mask id="mask-6" fill="white">
                                    <use xlink:href="#path-5"></use>
                                </mask>
                                <g id="Clip-8"></g>
                                <path d="M10.1820275,-4.9543819 C10.1649625,-4.9146858 1.30127234,-9.89231867 0.784566,-10.1463819 C0.259249542,-10.4771993 -0.259596389,-10.2998031 -0.259596389,-9.7063819 L-0.259596389,0.941618098 C-0.259596389,0.937633428 -0.259596389,11.3214603 -0.259596389,11.7656181 C-0.259596389,12.2374221 0.111131589,12.4358951 0.523525402,12.2056181 C1.01629686,11.928296 10.1649625,6.78995266 10.1820275,6.7496181 L15.0547853,4.0216181 C15.0294679,4.05963146 19.1568484,1.74118566 19.6665025,1.4696181 C20.2543071,1.12556805 20.2014697,0.703154251 19.7535161,0.501618098 C19.275516,0.217510113 15.0294679,-2.1834864 15.0547853,-2.2263819 L10.1820275,-4.9543819 Z" id="Fill-7" fill="url(#linearGradient-7)" mask="url(#mask-6)"></path>
                            </g>
                            <g id="green" transform="translate(0.433262, 0.000000)">
                                <mask id="mask-10" fill="white">
                                    <use xlink:href="#path-9"></use>
                                </mask>
                                <use id="Clip-5" fill="url(#linearGradient-8)" xlink:href="#path-9"></use>
                                <path d="M15.7798535,8.99395918 L10.9070957,6.26595918 C10.8900307,6.30565528 2.0263405,1.32802242 1.50963416,1.07395918 C0.984317707,0.743141775 0.465471775,0.920538006 0.465471775,1.51395918 L0.465471775,12.1619592 C0.465471775,12.1579745 0.465471775,22.5418014 0.465471775,22.9859592 C0.465471775,23.4577632 0.836199753,23.6562362 1.24859357,23.4259592 C1.74136503,23.1486371 10.8900307,18.0102937 10.9070957,17.9699592 L15.7798535,15.2419592 C15.7545361,15.2799725 19.8819165,12.9615267 20.3915707,12.6899592 C20.9793753,12.3459091 20.9265379,11.9234953 20.4785842,11.7219592 C20.0005841,11.4378512 15.7545361,9.03685468 15.7798535,8.99395918" id="Fill-4" mask="url(#mask-10)"></path>
                            </g>
                        </g>
                        <g id="Google-play" transform="translate(30.193696, 17.688000)" fill="#FFFFFF">
                            <path d="M57.8305223,13.0125425 L56.8669608,13.9374724 C56.644279,14.0619705 56.4227912,14.2065098 56.2019004,14.3091449 C55.5326609,14.6182646 54.8520784,14.696 54.2473152,14.696 C53.6037469,14.696 52.5948132,14.6534884 51.5655814,13.8961755 C50.1357612,12.8716471 49.5106999,11.1104541 49.5106999,9.57578705 C49.5106999,6.39835209 52.0533322,4.84 54.1273178,4.84 C54.8520784,4.84 55.5965402,5.0246216 56.2019004,5.41390597 C57.2084461,6.09105429 57.468739,6.97104344 57.6132135,7.44231438 L52.8771952,9.38873621 L51.3261836,9.51141241 C51.8282624,12.1167633 53.5607627,13.6319965 55.4753487,13.6319965 C56.4317462,13.6319965 57.1415818,13.3143745 57.7929112,12.9870356 C57.7929112,12.9870356 57.9236547,12.9178025 57.8305223,13.0125425 L57.8305223,13.0125425 Z M54.93682,7.78602316 C55.316914,7.64295692 55.5146337,7.5194553 55.5146337,7.23210005 C55.5146337,6.40794071 54.6145664,5.456 53.5403877,5.456 C52.7447872,5.456 51.2509706,6.09796387 51.2509706,8.32710699 C51.2509706,8.67499027 51.2911047,9.04549514 51.3111718,9.416 L54.93682,7.78602316 L54.93682,7.78602316 Z" id="Fill-1"></path>
                            <path d="M47.9467292,12.9010763 C47.9467292,13.6953149 48.0859704,13.8189035 48.7458783,13.8813037 C49.0898159,13.9224999 49.4325633,13.9406747 49.7717405,13.9818709 L49.029121,14.432 L45.4903723,14.432 C45.9545095,13.8189035 46.0342459,13.7577151 46.0342459,13.349388 L46.0342459,12.8932006 L46.0265103,0.737896734 L44.4639151,0.737896734 L45.9681956,0 L48.8398958,0 C48.2174759,0.367130887 48.031226,0.590680883 47.9514896,1.30616204 L47.9467292,12.9010763" id="Fill-2"></path>
                            <path d="M42.4564358,5.84300288 C42.9168419,6.2288593 43.8774571,7.04781986 43.8774571,8.60093739 C43.8774571,10.1146818 43.040409,10.8282436 42.1962321,11.5036438 C41.9372165,11.7695637 41.6342395,12.0578959 41.6342395,12.5037206 C41.6342395,12.9562084 41.9372165,13.2015332 42.1552411,13.3844667 L42.8794154,13.9544681 C43.7598307,14.7122489 44.5624226,15.4070327 44.5624226,16.8184071 C44.5624226,18.7410261 42.7374321,20.68 39.2888415,20.68 C36.3838273,20.68 34.97944,19.2692314 34.97944,17.7566985 C34.97944,17.0207243 35.3388538,15.9782456 36.5246224,15.2640781 C37.767422,14.4893365 39.4510233,14.385755 40.3528253,14.325181 C40.0712349,13.9544681 39.7498417,13.5661887 39.7498417,12.9325846 C39.7498417,12.5861013 39.8520222,12.3795439 39.9506382,12.1360364 C39.7314255,12.1572373 39.5104305,12.1790439 39.3096341,12.1790439 C37.1834488,12.1790439 35.9816402,10.561718 35.9816402,8.96801587 C35.9816402,8.02790729 36.4022435,6.9848229 37.2660249,6.2288593 C38.4090202,5.26936704 39.7718224,5.104 40.8548165,5.104 L44.9859962,5.104 L43.7016116,5.84300288 L42.4564358,5.84300288 L42.4564358,5.84300288 Z M41.0460328,14.8942001 C40.8801425,14.872 40.7807281,14.872 40.5807016,14.872 C40.3974438,14.872 39.3056823,14.9127003 38.4600612,15.2050022 C38.0126965,15.3733533 36.7197107,15.8710066 36.7197107,17.3491665 C36.7197107,18.8242429 38.1157041,19.888 40.2752719,19.888 C42.2156489,19.888 43.2457256,18.9303103 43.2457256,17.6408517 C43.2457256,16.5795613 42.5791702,16.0196243 41.0460328,14.8942001 L41.0460328,14.8942001 Z M41.6129353,10.957345 C42.0743259,10.486932 42.1145497,9.83717031 42.1145497,9.46820711 C42.1145497,8.00262009 41.258611,5.72 39.5993795,5.72 C39.0817939,5.72 38.5210268,5.98509794 38.2027856,6.39512414 C37.8650241,6.81964317 37.7638731,7.37037056 37.7638731,7.89996257 C37.7638731,9.26470368 38.5435048,11.528 40.2583399,11.528 C40.7587712,11.528 41.2970602,11.2798104 41.6129353,10.957345 L41.6129353,10.957345 Z" id="Fill-3"></path>
                            <path d="M29.9619668,14.696 C26.768537,14.696 25.0598973,12.1482859 25.0598973,9.84149762 C25.0598973,7.14617835 27.2079015,4.84 30.2632113,4.84 C33.2167171,4.84 35.0664536,7.20900204 35.0664536,9.6963322 C35.0664536,12.1257182 33.2381495,14.696 29.9619668,14.696 L29.9619668,14.696 Z M32.4593929,13.0297547 C32.9468599,12.3691462 33.0651423,11.5446088 33.0651423,10.7408684 C33.0651423,8.92297156 32.2192438,5.456 29.7191835,5.456 C29.054293,5.456 28.3846233,5.72207845 27.9019354,6.1563674 C27.1145807,6.87875509 26.974195,7.78648018 26.974195,8.67707837 C26.974195,10.7164014 27.9586871,14.08 30.4019957,14.08 C31.1905452,14.08 31.9952241,13.6891399 32.4593929,13.0297547 L32.4593929,13.0297547 Z" id="Fill-4"></path>
                            <path d="M19.2589624,14.696 C16.0636065,14.696 14.3572328,12.1482859 14.3572328,9.84149762 C14.3572328,7.14617835 16.5067276,4.84 19.5621192,4.84 C22.5150687,4.84 24.3637891,7.20900204 24.3637891,9.6963322 C24.3637891,12.1257182 22.5371057,14.696 19.2589624,14.696 L19.2589624,14.696 Z M21.7576266,13.0297547 C22.2417467,12.3691462 22.3624778,11.5446088 22.3624778,10.7408684 C22.3624778,8.92297156 21.5137736,5.456 19.0148774,5.456 C18.3472699,5.456 17.6844438,5.72207845 17.2003238,6.1563674 C16.4113875,6.87875509 16.2715306,7.78648018 16.2715306,8.67707837 C16.2715306,10.7164014 17.2606894,14.08 19.701013,14.08 C20.4881563,14.08 21.2920346,13.6891399 21.7576266,13.0297547 L21.7576266,13.0297547 Z" id="Fill-5"></path>
                            <path d="M13.0324505,14.087076 L10.3275459,14.7175492 C9.23159313,14.8934245 8.24744791,15.048 7.20530627,15.048 C1.98802119,15.048 0,11.1391875 0,8.07993162 C0,4.34395155 2.81671213,0.88 7.64057828,0.88 C8.66119548,0.88 9.6429491,1.0327498 10.5374092,1.28104429 C11.9550327,1.68634852 12.618105,2.18598033 13.0324505,2.47870006 L11.4611664,3.99767811 L10.7986919,4.14860221 L11.2710338,3.38241897 C10.6312796,2.74646862 9.45520815,1.57254688 7.22324331,1.57254688 C4.23911887,1.57254688 1.98802119,3.88144221 1.98802119,7.25228332 C1.98802119,10.8726361 4.55839806,14.2781654 8.68092621,14.2781654 C9.89227386,14.2781654 10.5158847,14.0304794 11.0820971,13.7992248 L11.0820971,10.6955437 L8.22592347,10.8519448 L9.73980908,10.0242966 L13.7481381,10.0242966 L13.2578592,10.5044543 C13.1257231,10.6188645 13.107786,10.6578126 13.0707162,10.811171 C13.0509854,10.9864377 13.0324505,11.5438832 13.0324505,11.7398411 L13.0324505,14.087076" id="Fill-6"></path>
                            <path d="M63.6680117,13.1067001 L63.6680117,18.304 L62.6497433,18.304 L62.6497433,5.07885206 L63.6680117,5.07885206 L63.6680117,6.58513177 C64.3313476,5.61158286 65.5434865,4.84 66.9512858,4.84 C69.4763765,4.84 71.1770695,6.78165562 71.1770695,9.8552886 C71.1770695,12.9083622 69.4763765,14.8905319 66.9512858,14.8905319 C65.6222278,14.8905319 64.4315638,14.1957445 63.6680117,13.1067001 L63.6680117,13.1067001 Z M70.1329071,9.93452848 C70.1329071,7.59353476 68.9371952,5.808 66.817007,5.808 C65.5003468,5.808 64.2411669,6.86392199 63.6939057,7.7847984 L63.6939057,12.0628712 C64.2411669,12.9855809 65.5003468,14.08 66.817007,14.08 C68.9371952,14.08 70.1329071,12.2791886 70.1329071,9.93452848 L70.1329071,9.93452848 Z" id="Fill-7"></path>
                            <polygon id="Fill-8" points="72.569286 1.408 73.6134484 1.408 73.6134484 14.696 72.569286 14.696"></polygon>
                            <path d="M84.9655185,17.3888965 C85.1832654,17.4874829 85.5549265,17.5479653 85.7905704,17.5479653 C86.4133862,17.5479653 86.8470902,17.2897052 87.2366484,16.3776298 L87.9793741,14.6714196 L83.9680588,5.016 L85.103922,5.016 L88.5449194,13.3831433 L91.9525091,5.016 L93.1044797,5.016 L88.2120351,16.697582 C87.7043568,17.9011829 86.9055538,18.48 85.8084674,18.48 C85.4791625,18.48 85.0448619,18.4207272 84.7907244,18.3414952 L84.9655185,17.3888965" id="Fill-9"></path>
                            <path d="M82.0918295,14.6828891 C82.023434,14.3490566 81.9718375,14.0547489 81.93404,13.8090872 C81.9028421,13.5640335 81.8848433,13.3135071 81.8848433,13.0587242 C81.5338668,13.5810595 81.0365001,14.0158322 80.4011426,14.3581777 C79.7651852,14.7029555 79.1610256,14.872 78.332481,14.872 C77.3347478,14.872 76.5601996,14.6232979 76.0076366,14.1185967 C75.4568734,13.6145036 75.179692,12.9316368 75.179692,12.0675641 C75.179692,11.2047075 75.5810651,10.5042066 76.3814116,9.96849364 C77.181758,9.43034841 78.2160888,9.16279598 79.4964031,9.16279598 L81.8848433,9.16279598 L81.8848433,7.966715 C81.8848433,7.27776749 81.6532588,6.73597382 81.1906898,6.3431582 C80.7263208,5.94973451 80.0747644,5.75089441 79.230021,5.75089441 C78.4578726,5.75089441 77.8315145,5.93270845 77.3545465,6.28660735 C76.8817781,6.64780313 76.643594,7.09534538 76.643594,7.63470675 L75.5954642,7.63470675 L75.5738656,7.58302049 C75.5360681,6.85576434 75.8642462,6.21789502 76.5619995,5.66698024 C77.256753,5.11667354 78.1668921,4.84 79.2870171,4.84 C80.4035424,4.84 81.307082,5.11241702 81.9880364,5.65603491 C82.6683909,6.19418014 83.009768,6.97190641 83.009768,7.98860565 L83.009768,12.7376613 C83.009768,13.0787906 83.025967,13.4083666 83.0679641,13.7294295 C83.1111613,14.0511005 83.1801566,14.3721634 83.2719505,14.6828891 L82.0918295,14.6828891 L82.0918295,14.6828891 Z M78.4556906,13.992 C79.3248893,13.992 79.9495134,13.7939694 80.5879249,13.4021868 C81.2221402,13.0128489 81.6537423,12.5049372 81.879734,11.8900645 L81.879734,10.032 L79.4819445,10.032 C78.5659889,10.032 77.807688,10.2385874 77.2112379,10.6554295 C76.6135888,11.0710492 76.3108679,11.5740713 76.3108679,12.1589949 C76.3108679,12.7109134 76.5026911,13.1522037 76.8839396,13.4865331 C77.266387,13.8245297 77.7891051,13.992 78.4556906,13.992 L78.4556906,13.992 Z" id="Fill-10"></path>
                        </g>
                        <g id="Get-it-on" transform="translate(29.845642, 6.142041)" fill="#FFFFFF">
                            <path d="M0.00369555543,4.00532781 C0.00369555543,2.10980199 1.5003955,0.89048428 3.3615302,0.89048428 C4.60888006,0.89048428 5.42466245,1.45051318 5.93295302,2.1363089 L5.02186615,2.63317241 C4.67661218,2.18142704 4.07181832,1.83006953 3.3615302,1.83006953 C2.09559897,1.83006953 1.15514153,2.73243231 1.15514153,4.00532781 C1.15514153,5.25961208 2.09559897,6.1805861 3.3615302,6.1805861 C4.014276,6.1805861 4.58969928,5.90085364 4.87741093,5.63916843 L4.87741093,4.70917078 L2.9587339,4.70917078 L2.9587339,3.77917314 L5.99049535,3.77917314 L5.99049535,6.02718443 C5.36712012,6.68647323 4.46502424,7.128631 3.3615302,7.128631 C1.5003955,7.128631 0.00369555543,5.89239398 0.00369555543,4.00532781" id="Fill-1"></path>
                            <polyline id="Fill-2" points="7.44184076 7.03689355 7.44184076 0.982221732 11.8865861 0.982221732 11.8865861 1.91789734 8.5799143 1.91789734 8.5799143 3.47849085 11.8185325 3.47849085 11.8185325 4.41359938 8.5799143 4.41359938 8.5799143 6.10178501 11.8865861 6.10178501 11.8865861 7.03689355 7.44184076 7.03689355"></polyline>
                            <polyline id="Fill-3" points="14.9093122 7.03689355 14.9093122 1.91789734 12.9750951 1.91789734 12.9750951 0.982221732 17.9640949 0.982221732 17.9640949 1.91789734 16.0298778 1.91789734 16.0298778 7.03689355 14.9093122 7.03689355"></polyline>
                            <polygon id="Fill-4" points="21.9552948 0.982221732 23.0438039 0.982221732 23.0438039 7.03689355 21.9552948 7.03689355"></polygon>
                            <polyline id="Fill-5" points="26.1578374 7.03689355 26.1578374 1.91789734 24.223022 1.91789734 24.223022 0.982221732 29.2120218 0.982221732 29.2120218 1.91789734 27.278403 1.91789734 27.278403 7.03689355 26.1578374 7.03689355"></polyline>
                            <path d="M32.9310944,4.00984004 C32.9310944,2.21040722 34.3000896,0.89048428 36.2422794,0.89048428 C38.1735513,0.89048428 39.5528578,2.21040722 39.5528578,4.00984004 C39.5528578,5.80870806 38.1735513,7.128631 36.2422794,7.128631 C34.3000896,7.128631 32.9310944,5.80870806 32.9310944,4.00984004 L32.9310944,4.00984004 Z M38.3736397,3.96368891 C38.3736397,2.72899129 37.5348339,1.8078588 36.2422774,1.8078588 C34.9400796,1.8078588 34.1103126,2.72899129 34.1103126,3.96368891 C34.1103126,5.18888456 34.9400796,6.11951903 36.2422774,6.11951903 C37.5348339,6.11951903 38.3736397,5.18888456 38.3736397,3.96368891 L38.3736397,3.96368891 Z" id="Fill-6"></path>
                            <polyline id="Fill-7" points="45.2741483 7.03689355 41.942354 2.70726731 41.942354 7.03689355 40.8227851 7.03689355 40.8227851 0.982221732 41.971659 0.982221732 45.2358724 5.17631677 45.2358724 0.982221732 46.3560394 0.982221732 46.3560394 7.03689355 45.2741483 7.03689355"></polyline>
                        </g>
                    </g>
                </g>
            </g>
        </g>
    </g>
</svg>