<svg xmlns="http://www.w3.org/2000/svg" xmlns:xlink="http://www.w3.org/1999/xlink" width="102" height="102" viewBox="0 0 102 102">
    <defs>
        <path id="a" d="M99.762 50.113C99.762 77.621 77.483 99.92 50 99.92 22.516 99.919.238 77.62.238 50.113.238 22.608 22.516.31 50 .31c27.483 0 49.762 22.298 49.762 49.803z"/>
    </defs>
    <g fill="none" fill-rule="evenodd">
        <path stroke="#62CE46" stroke-width="1.69" d="M100.762 51.113c0 27.508-22.279 49.806-49.762 49.806-27.484 0-49.762-22.298-49.762-49.806C1.238 23.608 23.516 1.31 51 1.31c27.483 0 49.762 22.298 49.762 49.803z"/>
        <g transform="translate(1 1)">
            <mask id="b" fill="#fff">
                <use xlink:href="#a"/>
            </mask>
            <g fill-rule="nonzero" mask="url(#b)">
                <path fill="#62CE46" d="M87.101 55.14H75.944V36.408c0-10.547-18.384-10.547-18.384 0v13.39h8.918v5.342H46.403c-3.36 0-6.107 2.751-6.107 6.114v40.66h52.913v-40.66c0-3.363-2.749-6.114-6.108-6.114z"/>
                <path fill="#18302A" d="M53.596 55.258H42.441V36.527c0-10.548-18.385-10.548-18.385 0v13.39h8.92v5.34H12.897c-3.359 0-6.107 2.752-6.107 6.115v40.542h52.914V61.372c0-3.363-2.751-6.114-6.109-6.114z"/>
                <path fill="#3D4C48" d="M40.296 61.254v40.66h52.913v-40.66c0-3.363-2.748-6.114-6.107-6.114h-8.075c-9.015 5.212-15.773 0-15.773 0h-16.85c-3.36 0-6.108 2.751-6.108 6.114z" opacity=".3"/>
                <path fill="#3D4C48" d="M6.79 61.254v40.66h52.915v-40.66c0-3.363-2.75-6.114-6.108-6.114h-8.075c-9.015 5.212-15.776 0-15.776 0H12.9c-3.36 0-6.108 2.751-6.108 6.114z"/>
                <g fill="#62CE46">
                    <path d="M18.233 56.184a2.084 2.084 0 1 1-4.17 0V53.71a2.085 2.085 0 1 1 4.17 0v2.474z"/>
                    <path d="M21.92 56.184a2.083 2.083 0 1 1-4.168 0V53.71a2.083 2.083 0 1 1 4.167 0v2.474z"/>
                    <path d="M25.612 56.184a2.086 2.086 0 0 1-4.172 0V53.71a2.086 2.086 0 0 1 4.172 0v2.474z"/>
                </g>
            </g>
        </g>
        <path fill="#3D4C48" fill-rule="nonzero" d="M51 100.074c-18.7 0-34.98-10.556-43.21-26.027v3.413c8.9 14.563 24.938 24.304 43.21 24.304 3.319 0 6.561-.325 9.704-.937v-1.724c-3.14.636-6.382.971-9.704.971z"/>
    </g>
</svg>
