<svg xmlns="http://www.w3.org/2000/svg" width="100" height="100" viewBox="0 0 100 100">
    <g fill="none" fill-rule="evenodd">
        <path stroke="#050302" stroke-width="2" d="M56.395 1.425C29.568-2.107 4.957 16.777 1.425 43.605c-3.532 26.828 15.352 51.438 42.18 54.97 26.828 3.532 51.439-15.353 54.97-42.18 3.532-26.827-15.353-51.439-42.18-54.97z"/>
        <path fill="#ADABB1" d="M53.029 64.65h-23.97a3.66 3.66 0 0 0-3.66 3.659v6.399h31.29V68.31a3.66 3.66 0 0 0-3.66-3.66"/>
        <path stroke="#050302" stroke-width="1.707" d="M53.029 64.65h-23.97a3.66 3.66 0 0 0-3.66 3.659v6.399h31.29V68.31a3.66 3.66 0 0 0-3.66-3.66z"/>
        <path fill="#A4BD7E" d="M73.767 65.292L51.531 43.057l4.295-4.288a1.812 1.812 0 0 0 2.467-.077c.7-.707.7-1.842 0-2.55l-9.26-9.252a1.787 1.787 0 0 0-2.543 0 1.788 1.788 0 0 0 0 2.542l-.076-.074-11.758 11.748.077.085a1.789 1.789 0 0 0-2.545 0 1.79 1.79 0 0 0 0 2.543l9.253 9.26c.709.7 1.85.7 2.551 0 .701-.709.701-1.843 0-2.552l.076.076 4.295-4.287L70.59 68.46c.876.876 2.3.876 3.176 0a2.238 2.238 0 0 0 0-3.168"/>
        <path stroke="#050302" stroke-width="1.707" d="M73.767 65.292L51.531 43.057l4.295-4.288a1.812 1.812 0 0 0 2.467-.077c.7-.707.7-1.842 0-2.55l-9.26-9.252a1.787 1.787 0 0 0-2.543 0 1.788 1.788 0 0 0 0 2.542l-.076-.074-11.758 11.748.077.085a1.789 1.789 0 0 0-2.545 0 1.79 1.79 0 0 0 0 2.543l9.253 9.26c.709.7 1.85.7 2.551 0 .701-.709.701-1.843 0-2.552l.076.076 4.295-4.287L70.59 68.46c.876.876 2.3.876 3.176 0a2.238 2.238 0 0 0 0-3.168z"/>
    </g>
</svg>
