<?xml version="1.0" encoding="UTF-8"?>
<svg width="100px" height="100px" viewBox="0 0 100 100" version="1.1" xmlns="http://www.w3.org/2000/svg" xmlns:xlink="http://www.w3.org/1999/xlink">
    <!-- Generator: sketchtool 51.2 (57519) - http://www.bohemiancoding.com/sketch -->
    <title>686B5AC0-6702-4F71-801C-BAF33432BAF7</title>
    <desc>Created with sketchtool.</desc>
    <defs>
        <path d="M99.7623853,50.1134455 C99.7623853,77.6212545 77.4830275,99.9188409 49.9995413,99.9188409 C22.516055,99.9188409 0.237614679,77.6212545 0.237614679,50.1134455 C0.237614679,22.6083909 22.516055,0.309886364 49.9995413,0.309886364 C77.4830275,0.309886364 99.7623853,22.6083909 99.7623853,50.1134455 Z" id="path-1"></path>
    </defs>
    <g id="Symbols" stroke="none" stroke-width="1" fill="none" fill-rule="evenodd">
        <g id="image/responsabilidad-civil">
            <g id="iconos-SxKm-02">
                <path d="M99.7623853,50.1134455 C99.7623853,77.6212545 77.4830275,99.9188409 49.9995413,99.9188409 C22.516055,99.9188409 0.237614679,77.6212545 0.237614679,50.1134455 C0.237614679,22.6083909 22.516055,0.309886364 49.9995413,0.309886364 C77.4830275,0.309886364 99.7623853,22.6083909 99.7623853,50.1134455 Z" id="Shape" stroke="#62CE46" stroke-width="1.69009174"></path>
                <g id="Clipped">
                    <mask id="mask-2" fill="white">
                        <use xlink:href="#path-1"></use>
                    </mask>
                    <g id="SVGID_3_"></g>
                    <g id="Group" mask="url(#mask-2)">
                        <g transform="translate(6.422018, 28.463636)">
                            <g id="Group" stroke-width="1" fill="none" fill-rule="evenodd">
                                <path d="M80.6793578,26.6759364 L69.5220183,26.6759364 L69.5220183,21.3339545 L69.5220183,7.94410909 C69.5220183,-2.60304545 51.1376147,-2.60304545 51.1376147,7.94410909 L51.1376147,21.3339545 L60.056422,21.3339545 L60.056422,26.6763955 L39.9807339,26.6763955 C36.6211009,26.6763955 33.8738532,29.4277273 33.8738532,32.7905682 L33.8738532,73.4499545 L86.7866972,73.4499545 L86.7866972,32.7905682 C86.7862385,29.4277273 84.0380734,26.6759364 80.6793578,26.6759364 Z" id="Shape" fill="#62CE46" fill-rule="nonzero"></path>
                                <path d="M47.1743119,26.7939227 L36.0188073,26.7939227 L36.0188073,21.4537773 L36.0188073,8.06301364 C36.0188073,-2.48414091 17.6344037,-2.48414091 17.6344037,8.06301364 L17.6344037,21.4537773 L26.553211,21.4537773 L26.553211,26.7939227 L6.47568807,26.7939227 C3.11697248,26.7939227 0.368807339,29.5452545 0.368807339,32.9080955 L0.368807339,73.4499545 L53.2825688,73.4499545 L53.2825688,32.9080955 C53.2821101,29.5452545 50.5316514,26.7939227 47.1743119,26.7939227 Z" id="Shape" fill="#18302A" fill-rule="nonzero"></path>
                            </g>
                            <path d="M33.8738532,32.7905682 L33.8738532,73.4499545 L86.7866972,73.4499545 L86.7866972,32.7905682 C86.7866972,29.4277273 84.0385321,26.6763955 80.6798165,26.6763955 L72.6045872,26.6763955 C63.5899083,31.8884545 56.8316514,26.6763955 56.8316514,26.6763955 L39.9816514,26.6763955 C36.6211009,26.6759364 33.8738532,29.4277273 33.8738532,32.7905682 Z" id="Shape" fill="#62CE46" fill-rule="nonzero" opacity="0.3"></path>
                            <path d="M0.368807339,32.7905682 L0.368807339,73.4499545 L53.2825688,73.4499545 L53.2825688,32.7905682 C53.2825688,29.4277273 50.5321101,26.6763955 47.1747706,26.6763955 L39.0995413,26.6763955 C30.0853211,31.8884545 23.3243119,26.6763955 23.3243119,26.6763955 L6.4766055,26.6763955 C3.11697248,26.6759364 0.368807339,29.4277273 0.368807339,32.7905682 Z" id="Shape" fill="#18302A" fill-rule="nonzero"></path>
                            <g id="Group" stroke-width="1" fill="none" fill-rule="evenodd" transform="translate(7.339450, 22.954545)">
                                <path d="M4.47201835,4.76536364 C4.47201835,5.91722273 3.53899083,6.85009545 2.38623853,6.85009545 C1.23394495,6.85009545 0.301834862,5.91722273 0.301834862,4.76536364 L0.301834862,2.29178182 C0.301834862,1.13900455 1.23394495,0.206131818 2.38623853,0.206131818 C3.53899083,0.206131818 4.47201835,1.13900455 4.47201835,2.29178182 L4.47201835,4.76536364 Z" id="Shape" fill="#62CE46" fill-rule="nonzero"></path>
                                <path d="M8.15825688,4.76536364 C8.15825688,5.91722273 7.22614679,6.85009545 6.07522936,6.85009545 C4.92614679,6.85009545 3.99082569,5.91722273 3.99082569,4.76536364 L3.99082569,2.29178182 C3.99082569,1.13900455 4.92614679,0.206131818 6.07522936,0.206131818 C7.22614679,0.206131818 8.15825688,1.13900455 8.15825688,2.29178182 L8.15825688,4.76536364 Z" id="Shape" fill="#62CE46" fill-rule="nonzero"></path>
                                <path d="M11.8504587,4.76536364 C11.8504587,5.91722273 10.916055,6.85009545 9.76330275,6.85009545 C8.61422018,6.85009545 7.67889908,5.91722273 7.67889908,4.76536364 L7.67889908,2.29178182 C7.67889908,1.13900455 8.61422018,0.206131818 9.76330275,0.206131818 C10.916055,0.206131818 11.8504587,1.13900455 11.8504587,2.29178182 L11.8504587,4.76536364 Z" id="Shape" fill="#62CE46" fill-rule="nonzero"></path>
                            </g>
                        </g>
                    </g>
                </g>
                <path d="M49.9995413,99.0741136 C31.3,99.0741136 15.0206422,88.5177773 6.79082569,73.0473318 L6.79082569,76.4597545 C15.690367,91.0234955 31.7279817,100.764027 49.9995413,100.764027 C53.3188073,100.764027 56.5614679,100.438991 59.7041284,99.8274818 L59.7041284,98.1031364 C56.5642202,98.7385182 53.3215596,99.0741136 49.9995413,99.0741136 Z" id="Shape" fill="#3D4C48" fill-rule="nonzero"></path>
            </g>
        </g>
    </g>
</svg>