<svg xmlns="http://www.w3.org/2000/svg" width="100" height="100" viewBox="0 0 100 100">
    <g fill="none" fill-rule="nonzero">
        <path fill="#18302A" d="M65.7 0H4C3 0 2.2.8 2.2 1.8v78.3c0 1 .8 1.8 1.8 1.8h48.667v-3.6H5.8V3.6h58.1v54.233h3.6V1.8c0-1-.8-1.8-1.8-1.8z"/>
        <g fill="#62CE46">
            <path d="M17.433 13.533h18v4.233h-18zM17.433 25.433h34.8v4.233h-34.8zM17.433 34.966h34.8V39.2h-34.8zM17.433 44.533h34.8v4.233h-34.8zM17.433 54.066h34.8v4.2h-34.8zM34.233 64.866h18v4.2h-18z"/>
        </g>
        <g fill="#62CE46">
            <path d="M74.267 54.2c-12.634 0-22.9 10.267-22.9 22.9s10.266 22.9 22.9 22.9c12.633 0 22.9-10.267 22.9-22.9 0-12.6-10.267-22.9-22.9-22.9zm0 42.2C63.633 96.4 55 87.767 55 77.133c0-10.633 8.633-19.266 19.267-19.266 10.633 0 19.266 8.633 19.266 19.266 0 10.6-8.633 19.267-19.266 19.267z"/>
            <path d="M82.867 80.667H76.3V64.5h-4.2v16.167h-6.433c-.667 0-.8.366-.334.833l8.034 7.667a1.248 1.248 0 0 0 1.733 0l8.033-7.667c.534-.467.367-.833-.266-.833z"/>
        </g>
    </g>
</svg>
