<svg xmlns="http://www.w3.org/2000/svg" xmlns:xlink="http://www.w3.org/1999/xlink" width="100" height="101" viewBox="0 0 100 101">
    <defs>
        <path id="a" d="M1.037 45.808C-1.343 73.01 18.78 96.99 45.983 99.369c27.202 2.38 51.183-17.743 53.561-44.946C101.924 27.22 81.8 3.24 54.598.86A49.715 49.715 0 0 0 50.235.67C24.88.672 3.288 20.07 1.037 45.808z"/>
        <path id="c" d="M1.037 45.808C-1.343 73.01 18.78 96.99 45.983 99.369c27.202 2.38 51.183-17.743 53.561-44.946C101.924 27.22 81.8 3.24 54.598.86A49.715 49.715 0 0 0 50.235.67C24.88.672 3.288 20.07 1.037 45.808"/>
        <path id="e" d="M1.037 45.808C-1.343 73.01 18.78 96.99 45.983 99.369c27.202 2.38 51.183-17.743 53.561-44.946C101.924 27.22 81.8 3.24 54.598.86A49.715 49.715 0 0 0 50.235.67C24.88.672 3.288 20.07 1.037 45.808"/>
        <path id="g" d="M1.037 45.808C-1.343 73.01 18.78 96.99 45.983 99.369c27.202 2.38 51.183-17.743 53.561-44.946C101.924 27.22 81.8 3.24 54.598.86A49.715 49.715 0 0 0 50.235.67C24.88.672 3.288 20.07 1.037 45.808"/>
        <path id="i" d="M1.037 45.808C-1.343 73.01 18.78 96.99 45.983 99.369c27.202 2.38 51.183-17.743 53.561-44.946C101.924 27.22 81.8 3.24 54.598.86A49.715 49.715 0 0 0 50.235.67C24.88.672 3.288 20.07 1.037 45.808"/>
        <path id="k" d="M1.037 45.808C-1.343 73.01 18.78 96.99 45.983 99.369c27.202 2.38 51.183-17.743 53.561-44.946C101.924 27.22 81.8 3.24 54.598.86A49.715 49.715 0 0 0 50.235.67C24.88.672 3.288 20.07 1.037 45.808"/>
        <path id="m" d="M1.037 45.808C-1.343 73.01 18.78 96.99 45.983 99.369c27.202 2.38 51.183-17.743 53.561-44.946C101.924 27.22 81.8 3.24 54.598.86A49.715 49.715 0 0 0 50.235.67C24.88.672 3.288 20.07 1.037 45.808"/>
        <path id="o" d="M1.037 45.808C-1.343 73.01 18.78 96.99 45.983 99.369c27.202 2.38 51.183-17.743 53.561-44.946C101.924 27.22 81.8 3.24 54.598.86A49.715 49.715 0 0 0 50.235.67C24.88.672 3.288 20.07 1.037 45.808"/>
        <path id="q" d="M1.037 45.808C-1.343 73.01 18.78 96.99 45.983 99.369c27.202 2.38 51.183-17.743 53.561-44.946C101.924 27.22 81.8 3.24 54.598.86A49.715 49.715 0 0 0 50.235.67C24.88.672 3.288 20.07 1.037 45.808"/>
        <path id="s" d="M1.037 45.808C-1.343 73.01 18.78 96.99 45.983 99.369c27.202 2.38 51.183-17.743 53.561-44.946C101.924 27.22 81.8 3.24 54.598.86A49.715 49.715 0 0 0 50.235.67C24.88.672 3.288 20.07 1.037 45.808"/>
        <path id="u" d="M1.037 45.808C-1.343 73.01 18.78 96.99 45.983 99.369c27.202 2.38 51.183-17.743 53.561-44.946C101.924 27.22 81.8 3.24 54.598.86A49.715 49.715 0 0 0 50.235.67C24.88.672 3.288 20.07 1.037 45.808"/>
        <path id="w" d="M1.037 45.808C-1.343 73.01 18.78 96.99 45.983 99.369c27.202 2.38 51.183-17.743 53.561-44.946C101.924 27.22 81.8 3.24 54.598.86A49.715 49.715 0 0 0 50.235.67C24.88.672 3.288 20.07 1.037 45.808"/>
        <path id="y" d="M1.037 45.808C-1.343 73.01 18.78 96.99 45.983 99.369c27.202 2.38 51.183-17.743 53.561-44.946C101.924 27.22 81.8 3.24 54.598.86A49.715 49.715 0 0 0 50.235.67C24.88.672 3.288 20.07 1.037 45.808"/>
        <path id="A" d="M1.037 45.808C-1.343 73.01 18.78 96.99 45.983 99.369c27.202 2.38 51.183-17.743 53.561-44.946C101.924 27.22 81.8 3.24 54.598.86A49.715 49.715 0 0 0 50.235.67C24.88.672 3.288 20.07 1.037 45.808"/>
        <path id="C" d="M1.037 45.808C-1.343 73.01 18.78 96.99 45.983 99.369c27.202 2.38 51.183-17.743 53.561-44.946C101.924 27.22 81.8 3.24 54.598.86A49.715 49.715 0 0 0 50.235.67C24.88.672 3.288 20.07 1.037 45.808"/>
        <path id="E" d="M1.037 45.808C-1.343 73.01 18.78 96.99 45.983 99.369c27.202 2.38 51.183-17.743 53.561-44.946C101.924 27.22 81.8 3.24 54.598.86A49.715 49.715 0 0 0 50.235.67C24.88.672 3.288 20.07 1.037 45.808"/>
        <path id="G" d="M1.037 45.808C-1.343 73.01 18.78 96.99 45.983 99.369c27.202 2.38 51.183-17.743 53.561-44.946C101.924 27.22 81.8 3.24 54.598.86A49.715 49.715 0 0 0 50.235.67C24.88.672 3.288 20.07 1.037 45.808"/>
        <path id="I" d="M1.037 45.808C-1.343 73.01 18.78 96.99 45.983 99.369c27.202 2.38 51.183-17.743 53.561-44.946C101.924 27.22 81.8 3.24 54.598.86A49.715 49.715 0 0 0 50.235.67C24.88.672 3.288 20.07 1.037 45.808"/>
        <path id="K" d="M1.037 45.808C-1.343 73.01 18.78 96.99 45.983 99.369c27.202 2.38 51.183-17.743 53.561-44.946C101.924 27.22 81.8 3.24 54.598.86A49.715 49.715 0 0 0 50.235.67C24.88.672 3.288 20.07 1.037 45.808"/>
        <path id="M" d="M1.037 45.808C-1.343 73.01 18.78 96.99 45.983 99.369c27.202 2.38 51.183-17.743 53.561-44.946C101.924 27.22 81.8 3.24 54.598.86A49.715 49.715 0 0 0 50.235.67C24.88.672 3.288 20.07 1.037 45.808"/>
        <path id="O" d="M1.037 45.808C-1.343 73.01 18.78 96.99 45.983 99.369c27.202 2.38 51.183-17.743 53.561-44.946C101.924 27.22 81.8 3.24 54.598.86A49.715 49.715 0 0 0 50.235.67C24.88.672 3.288 20.07 1.037 45.808"/>
        <path id="Q" d="M1.037 45.808C-1.343 73.01 18.78 96.99 45.983 99.369c27.202 2.38 51.183-17.743 53.561-44.946C101.924 27.22 81.8 3.24 54.598.86A49.715 49.715 0 0 0 50.235.67C24.88.672 3.288 20.07 1.037 45.808"/>
        <path id="S" d="M1.037 45.808C-1.343 73.01 18.78 96.99 45.983 99.369c27.202 2.38 51.183-17.743 53.561-44.946C101.924 27.22 81.8 3.24 54.598.86A49.715 49.715 0 0 0 50.235.67C24.88.672 3.288 20.07 1.037 45.808"/>
        <path id="U" d="M1.037 45.808C-1.343 73.01 18.78 96.99 45.983 99.369c27.202 2.38 51.183-17.743 53.561-44.946C101.924 27.22 81.8 3.24 54.598.86A49.715 49.715 0 0 0 50.235.67C24.88.672 3.288 20.07 1.037 45.808z"/>
        <path id="W" d="M1.037 45.808C-1.343 73.01 18.78 96.99 45.983 99.369c27.202 2.38 51.183-17.743 53.561-44.946C101.924 27.22 81.8 3.24 54.598.86A49.715 49.715 0 0 0 50.235.67C24.88.672 3.288 20.07 1.037 45.808"/>
        <path id="Y" d="M1.037 45.808C-1.343 73.01 18.78 96.99 45.983 99.369c27.202 2.38 51.183-17.743 53.561-44.946C101.924 27.22 81.8 3.24 54.598.86A49.715 49.715 0 0 0 50.235.67C24.88.672 3.288 20.07 1.037 45.808"/>
        <path id="aa" d="M1.037 45.808C-1.343 73.01 18.78 96.99 45.983 99.369c27.202 2.38 51.183-17.743 53.561-44.946C101.924 27.22 81.8 3.24 54.598.86A49.715 49.715 0 0 0 50.235.67C24.88.672 3.288 20.07 1.037 45.808"/>
        <path id="ac" d="M1.037 45.808C-1.343 73.01 18.78 96.99 45.983 99.369c27.202 2.38 51.183-17.743 53.561-44.946C101.924 27.22 81.8 3.24 54.598.86A49.715 49.715 0 0 0 50.235.67C24.88.672 3.288 20.07 1.037 45.808"/>
        <path id="ae" d="M1.037 45.808C-1.343 73.01 18.78 96.99 45.983 99.369c27.202 2.38 51.183-17.743 53.561-44.946C101.924 27.22 81.8 3.24 54.598.86A49.715 49.715 0 0 0 50.235.67C24.88.672 3.288 20.07 1.037 45.808z"/>
        <path id="ag" d="M1.037 45.808C-1.343 73.01 18.78 96.99 45.983 99.369c27.202 2.38 51.183-17.743 53.561-44.946C101.924 27.22 81.8 3.24 54.598.86A49.715 49.715 0 0 0 50.235.67C24.88.672 3.288 20.07 1.037 45.808"/>
        <path id="ai" d="M1.037 45.808C-1.343 73.01 18.78 96.99 45.983 99.369c27.202 2.38 51.183-17.743 53.561-44.946C101.924 27.22 81.8 3.24 54.598.86A49.715 49.715 0 0 0 50.235.67C24.88.672 3.288 20.07 1.037 45.808"/>
        <path id="ak" d="M1.037 45.808C-1.343 73.01 18.78 96.99 45.983 99.369c27.202 2.38 51.183-17.743 53.561-44.946C101.924 27.22 81.8 3.24 54.598.86A49.715 49.715 0 0 0 50.235.67C24.88.672 3.288 20.07 1.037 45.808z"/>
        <path id="am" d="M1.037 45.808C-1.343 73.01 18.78 96.99 45.983 99.369c27.202 2.38 51.183-17.743 53.561-44.946C101.924 27.22 81.8 3.24 54.598.86A49.715 49.715 0 0 0 50.235.67C24.88.672 3.288 20.07 1.037 45.808"/>
        <path id="ao" d="M1.037 45.808C-1.343 73.01 18.78 96.99 45.983 99.369c27.202 2.38 51.183-17.743 53.561-44.946C101.924 27.22 81.8 3.24 54.598.86A49.715 49.715 0 0 0 50.235.67C24.88.672 3.288 20.07 1.037 45.808z"/>
        <path id="aq" d="M1.037 45.808C-1.343 73.01 18.78 96.99 45.983 99.369c27.202 2.38 51.183-17.743 53.561-44.946C101.924 27.22 81.8 3.24 54.598.86A49.715 49.715 0 0 0 50.235.67C24.88.672 3.288 20.07 1.037 45.808"/>
        <path id="as" d="M1.037 45.808C-1.343 73.01 18.78 96.99 45.983 99.369c27.202 2.38 51.183-17.743 53.561-44.946C101.924 27.22 81.8 3.24 54.598.86A49.715 49.715 0 0 0 50.235.67C24.88.672 3.288 20.07 1.037 45.808"/>
        <path id="au" d="M1.037 45.808C-1.343 73.01 18.78 96.99 45.983 99.369c27.202 2.38 51.183-17.743 53.561-44.946C101.924 27.22 81.8 3.24 54.598.86A49.715 49.715 0 0 0 50.235.67C24.88.672 3.288 20.07 1.037 45.808z"/>
        <path id="aw" d="M1.037 45.808C-1.343 73.01 18.78 96.99 45.983 99.369c27.202 2.38 51.183-17.743 53.561-44.946C101.924 27.22 81.8 3.24 54.598.86A49.715 49.715 0 0 0 50.235.67C24.88.672 3.288 20.07 1.037 45.808"/>
        <path id="ay" d="M1.037 45.808C-1.343 73.01 18.78 96.99 45.983 99.369c27.202 2.38 51.183-17.743 53.561-44.946C101.924 27.22 81.8 3.24 54.598.86A49.715 49.715 0 0 0 50.235.67C24.88.672 3.288 20.07 1.037 45.808"/>
        <path id="aA" d="M1.037 45.808C-1.343 73.01 18.78 96.99 45.983 99.369c27.202 2.38 51.183-17.743 53.561-44.946C101.924 27.22 81.8 3.24 54.598.86A49.715 49.715 0 0 0 50.235.67C24.88.672 3.288 20.07 1.037 45.808"/>
        <path id="aC" d="M1.037 45.808C-1.343 73.01 18.78 96.99 45.983 99.369c27.202 2.38 51.183-17.743 53.561-44.946C101.924 27.22 81.8 3.24 54.598.86A49.715 49.715 0 0 0 50.235.67C24.88.672 3.288 20.07 1.037 45.808"/>
        <path id="aE" d="M1.037 45.808C-1.343 73.01 18.78 96.99 45.983 99.369c27.202 2.38 51.183-17.743 53.561-44.946C101.924 27.22 81.8 3.24 54.598.86A49.715 49.715 0 0 0 50.235.67C24.88.672 3.288 20.07 1.037 45.808z"/>
        <path id="aG" d="M1.037 45.808C-1.343 73.01 18.78 96.99 45.983 99.369c27.202 2.38 51.183-17.743 53.561-44.946C101.924 27.22 81.8 3.24 54.598.86A49.715 49.715 0 0 0 50.235.67C24.88.672 3.288 20.07 1.037 45.808"/>
        <path id="aI" d="M1.037 45.808C-1.343 73.01 18.78 96.99 45.983 99.369c27.202 2.38 51.183-17.743 53.561-44.946C101.924 27.22 81.8 3.24 54.598.86A49.715 49.715 0 0 0 50.235.67C24.88.672 3.288 20.07 1.037 45.808"/>
        <path id="aK" d="M1.037 45.808C-1.343 73.01 18.78 96.99 45.983 99.369c27.202 2.38 51.183-17.743 53.561-44.946C101.924 27.22 81.8 3.24 54.598.86A49.715 49.715 0 0 0 50.235.67C24.88.672 3.288 20.07 1.037 45.808"/>
        <path id="aM" d="M1.037 45.808C-1.343 73.01 18.78 96.99 45.983 99.369c27.202 2.38 51.183-17.743 53.561-44.946C101.924 27.22 81.8 3.24 54.598.86A49.715 49.715 0 0 0 50.235.67C24.88.672 3.288 20.07 1.037 45.808"/>
        <path id="aO" d="M1.037 45.808C-1.343 73.01 18.78 96.99 45.983 99.369c27.202 2.38 51.183-17.743 53.561-44.946C101.924 27.22 81.8 3.24 54.598.86A49.715 49.715 0 0 0 50.235.67C24.88.672 3.288 20.07 1.037 45.808"/>
        <path id="aQ" d="M1.037 45.808C-1.343 73.01 18.78 96.99 45.983 99.369c27.202 2.38 51.183-17.743 53.561-44.946C101.924 27.22 81.8 3.24 54.598.86A49.715 49.715 0 0 0 50.235.67C24.88.672 3.288 20.07 1.037 45.808z"/>
        <path id="aS" d="M1.037 45.808C-1.343 73.01 18.78 96.99 45.983 99.369c27.202 2.38 51.183-17.743 53.561-44.946C101.924 27.22 81.8 3.24 54.598.86A49.715 49.715 0 0 0 50.235.67C24.88.672 3.288 20.07 1.037 45.808"/>
        <path id="aU" d="M1.037 45.808C-1.343 73.01 18.78 96.99 45.983 99.369c27.202 2.38 51.183-17.743 53.561-44.946C101.924 27.22 81.8 3.24 54.598.86A49.715 49.715 0 0 0 50.235.67C24.88.672 3.288 20.07 1.037 45.808"/>
        <path id="aW" d="M1.037 45.808C-1.343 73.01 18.78 96.99 45.983 99.369c27.202 2.38 51.183-17.743 53.561-44.946C101.924 27.22 81.8 3.24 54.598.86A49.715 49.715 0 0 0 50.235.67C24.88.672 3.288 20.07 1.037 45.808"/>
        <path id="aY" d="M1.037 45.808C-1.343 73.01 18.78 96.99 45.983 99.369c27.202 2.38 51.183-17.743 53.561-44.946C101.924 27.22 81.8 3.24 54.598.86A49.715 49.715 0 0 0 50.235.67C24.88.672 3.288 20.07 1.037 45.808"/>
        <path id="ba" d="M1.037 45.808C-1.343 73.01 18.78 96.99 45.983 99.369c27.202 2.38 51.183-17.743 53.561-44.946C101.924 27.22 81.8 3.24 54.598.86A49.715 49.715 0 0 0 50.235.67C24.88.672 3.288 20.07 1.037 45.808"/>
        <path id="bc" d="M1.037 45.808C-1.343 73.01 18.78 96.99 45.983 99.369c27.202 2.38 51.183-17.743 53.561-44.946C101.924 27.22 81.8 3.24 54.598.86A49.715 49.715 0 0 0 50.235.67C24.88.672 3.288 20.07 1.037 45.808z"/>
        <path id="be" d="M1.037 45.808C-1.343 73.01 18.78 96.99 45.983 99.369c27.202 2.38 51.183-17.743 53.561-44.946C101.924 27.22 81.8 3.24 54.598.86A49.715 49.715 0 0 0 50.235.67C24.88.672 3.288 20.07 1.037 45.808"/>
        <path id="bg" d="M1.037 45.808C-1.343 73.01 18.78 96.99 45.983 99.369c27.202 2.38 51.183-17.743 53.561-44.946C101.924 27.22 81.8 3.24 54.598.86A49.715 49.715 0 0 0 50.235.67C24.88.672 3.288 20.07 1.037 45.808"/>
        <path id="bi" d="M1.037 45.808C-1.343 73.01 18.78 96.99 45.983 99.369c27.202 2.38 51.183-17.743 53.561-44.946C101.924 27.22 81.8 3.24 54.598.86A49.715 49.715 0 0 0 50.235.67C24.88.672 3.288 20.07 1.037 45.808z"/>
        <path id="bk" d="M1.037 45.808C-1.343 73.01 18.78 96.99 45.983 99.369c27.202 2.38 51.183-17.743 53.561-44.946C101.924 27.22 81.8 3.24 54.598.86A49.715 49.715 0 0 0 50.235.67C24.88.672 3.288 20.07 1.037 45.808"/>
        <path id="bm" d="M1.037 45.808C-1.343 73.01 18.78 96.99 45.983 99.369c27.202 2.38 51.183-17.743 53.561-44.946C101.924 27.22 81.8 3.24 54.598.86A49.715 49.715 0 0 0 50.235.67C24.88.672 3.288 20.07 1.037 45.808"/>
        <path id="bo" d="M1.037 45.808C-1.343 73.01 18.78 96.99 45.983 99.369c27.202 2.38 51.183-17.743 53.561-44.946C101.924 27.22 81.8 3.24 54.598.86A49.715 49.715 0 0 0 50.235.67C24.88.672 3.288 20.07 1.037 45.808"/>
        <path id="bq" d="M1.037 45.808C-1.343 73.01 18.78 96.99 45.983 99.369c27.202 2.38 51.183-17.743 53.561-44.946C101.924 27.22 81.8 3.24 54.598.86A49.715 49.715 0 0 0 50.235.67C24.88.672 3.288 20.07 1.037 45.808"/>
        <path id="bs" d="M1.037 45.808C-1.343 73.01 18.78 96.99 45.983 99.369c27.202 2.38 51.183-17.743 53.561-44.946C101.924 27.22 81.8 3.24 54.598.86A49.715 49.715 0 0 0 50.235.67C24.88.672 3.288 20.07 1.037 45.808"/>
        <path id="bu" d="M1.037 45.808C-1.343 73.01 18.78 96.99 45.983 99.369c27.202 2.38 51.183-17.743 53.561-44.946C101.924 27.22 81.8 3.24 54.598.86A49.715 49.715 0 0 0 50.235.67C24.88.672 3.288 20.07 1.037 45.808"/>
        <path id="bw" d="M1.037 45.808C-1.343 73.01 18.78 96.99 45.983 99.369c27.202 2.38 51.183-17.743 53.561-44.946C101.924 27.22 81.8 3.24 54.598.86A49.715 49.715 0 0 0 50.235.67C24.88.672 3.288 20.07 1.037 45.808"/>
        <path id="by" d="M1.037 45.808C-1.343 73.01 18.78 96.99 45.983 99.369c27.202 2.38 51.183-17.743 53.561-44.946C101.924 27.22 81.8 3.24 54.598.86A49.715 49.715 0 0 0 50.235.67C24.88.672 3.288 20.07 1.037 45.808z"/>
        <path id="bz" d="M1.037 45.808C-1.343 73.01 18.78 96.99 45.983 99.369c27.202 2.38 51.183-17.743 53.561-44.946C101.924 27.22 81.8 3.24 54.598.86A49.715 49.715 0 0 0 50.235.67C24.88.672 3.288 20.07 1.037 45.808z"/>
        <path id="bB" d="M1.037 45.808C-1.343 73.01 18.78 96.99 45.983 99.369c27.202 2.38 51.183-17.743 53.561-44.946C101.924 27.22 81.8 3.24 54.598.86A49.715 49.715 0 0 0 50.235.67C24.88.672 3.288 20.07 1.037 45.808z"/>
        <path id="bD" d="M1.037 45.808C-1.343 73.01 18.78 96.99 45.983 99.369c27.202 2.38 51.183-17.743 53.561-44.946C101.924 27.22 81.8 3.24 54.598.86A49.715 49.715 0 0 0 50.235.67C24.88.672 3.288 20.07 1.037 45.808z"/>
        <path id="bF" d="M1.037 45.808C-1.343 73.01 18.78 96.99 45.983 99.369c27.202 2.38 51.183-17.743 53.561-44.946C101.924 27.22 81.8 3.24 54.598.86A49.715 49.715 0 0 0 50.235.67C24.88.672 3.288 20.07 1.037 45.808z"/>
        <path id="bH" d="M1.037 45.808C-1.343 73.01 18.78 96.99 45.983 99.369c27.202 2.38 51.183-17.743 53.561-44.946C101.924 27.22 81.8 3.24 54.598.86A49.715 49.715 0 0 0 50.235.67C24.88.672 3.288 20.07 1.037 45.808z"/>
        <path id="bJ" d="M1.037 45.808C-1.343 73.01 18.78 96.99 45.983 99.369c27.202 2.38 51.183-17.743 53.561-44.946C101.924 27.22 81.8 3.24 54.598.86A49.715 49.715 0 0 0 50.235.67C24.88.672 3.288 20.07 1.037 45.808z"/>
        <path id="bL" d="M1.037 45.808C-1.343 73.01 18.78 96.99 45.983 99.369c27.202 2.38 51.183-17.743 53.561-44.946C101.924 27.22 81.8 3.24 54.598.86A49.715 49.715 0 0 0 50.235.67C24.88.672 3.288 20.07 1.037 45.808z"/>
        <path id="bN" d="M1.037 45.808C-1.343 73.01 18.78 96.99 45.983 99.369c27.202 2.38 51.183-17.743 53.561-44.946C101.924 27.22 81.8 3.24 54.598.86A49.715 49.715 0 0 0 50.235.67C24.88.672 3.288 20.07 1.037 45.808z"/>
        <path id="bP" d="M1.037 45.808C-1.343 73.01 18.78 96.99 45.983 99.369c27.202 2.38 51.183-17.743 53.561-44.946C101.924 27.22 81.8 3.24 54.598.86A49.715 49.715 0 0 0 50.235.67C24.88.672 3.288 20.07 1.037 45.808z"/>
        <path id="bR" d="M1.037 45.808C-1.343 73.01 18.78 96.99 45.983 99.369c27.202 2.38 51.183-17.743 53.561-44.946C101.924 27.22 81.8 3.24 54.598.86A49.715 49.715 0 0 0 50.235.67C24.88.672 3.288 20.07 1.037 45.808z"/>
        <path id="bT" d="M1.037 45.808C-1.343 73.01 18.78 96.99 45.983 99.369c27.202 2.38 51.183-17.743 53.561-44.946C101.924 27.22 81.8 3.24 54.598.86A49.715 49.715 0 0 0 50.235.67C24.88.672 3.288 20.07 1.037 45.808"/>
        <path id="bV" d="M1.037 45.808C-1.343 73.01 18.78 96.99 45.983 99.369c27.202 2.38 51.183-17.743 53.561-44.946C101.924 27.22 81.8 3.24 54.598.86A49.715 49.715 0 0 0 50.235.67C24.88.672 3.288 20.07 1.037 45.808z"/>
        <path id="bX" d="M1.037 45.808C-1.343 73.01 18.78 96.99 45.983 99.369c27.202 2.38 51.183-17.743 53.561-44.946C101.924 27.22 81.8 3.24 54.598.86A49.715 49.715 0 0 0 50.235.67C24.88.672 3.288 20.07 1.037 45.808z"/>
        <path id="bZ" d="M1.037 45.808C-1.343 73.01 18.78 96.99 45.983 99.369c27.202 2.38 51.183-17.743 53.561-44.946C101.924 27.22 81.8 3.24 54.598.86A49.715 49.715 0 0 0 50.235.67C24.88.672 3.288 20.07 1.037 45.808z"/>
        <path id="cb" d="M1.037 45.808C-1.343 73.01 18.78 96.99 45.983 99.369c27.202 2.38 51.183-17.743 53.561-44.946C101.924 27.22 81.8 3.24 54.598.86A49.715 49.715 0 0 0 50.235.67C24.88.672 3.288 20.07 1.037 45.808z"/>
        <path id="cd" d="M1.037 45.808C-1.343 73.01 18.78 96.99 45.983 99.369c27.202 2.38 51.183-17.743 53.561-44.946C101.924 27.22 81.8 3.24 54.598.86A49.715 49.715 0 0 0 50.235.67C24.88.672 3.288 20.07 1.037 45.808z"/>
        <path id="cf" d="M1.037 45.808C-1.343 73.01 18.78 96.99 45.983 99.369c27.202 2.38 51.183-17.743 53.561-44.946C101.924 27.22 81.8 3.24 54.598.86A49.715 49.715 0 0 0 50.235.67C24.88.672 3.288 20.07 1.037 45.808z"/>
    </defs>
    <g fill="none" fill-rule="evenodd">
        <g>
            <mask id="b" fill="#fff">
                <use xlink:href="#a"/>
            </mask>
            <path fill="#002C25" d="M52.252 54.52l6.672 1.385 4.924-4.711.745 6.775 6.002 3.228-6.212 2.8-1.216 6.706-1.26-4.395.674-3.718 3.446-1.554-3.328-1.79-.414-3.757-2.731 2.613-3.7-.768z" mask="url(#b)"/>
        </g>
        <g>
            <mask id="d" fill="#fff">
                <use xlink:href="#c"/>
            </mask>
            <path fill="#FEFEFE" d="M3.477 43.61c4.908 1.429 10.844 4.517 15.857 7.623.536.113.961.291 1.141.57.037.056.062.134.091.206.328.209.652.417.968.625 2.006 1.315 3.788 2.587 5.193 3.69.753.589.627.595-.524.573-1.546-.027-3.802-.149-4.501-.149-.147 0-.867-.04-1.995-.107-.276.149-.595.204-.987.204-.385 0-.837-.05-1.384-.113l-.488-.055a11.775 11.775 0 0 1-1.782-.329c-5.117-.33-12.154-.795-17.308-1.138v17.214h.025c8.241.135 16.482.268 24.576.394 1.226-4.921 4.316-8.61 8.747-10.422 5.098-2.084 11.153-1.366 16.2 1.919.27.124 1.277.218 2.591.284-1.222-1.104-2.205-1.896-3.263-2.636-.381-.268-.77-.53-1.188-.795a.602.602 0 0 1 .21-1.1c1.32-.253 3.137-.285 4.355-.204l.06.007c1.771.125 4.184.556 5.734 1.892.886.764 1.853 1.951 2.397 2.656-.487-1.836-2.083-3.654-4.478-5.033-2.567-1.478-5.936-2.342-9.196-3.055-2.535-.554-4.8-1.018-6.49-1.361-2.376-.485-4.67-.92-6.693-1.303-1.675-.318-3.139-.595-4.247-.823l-.152-.055c-.155-.08-15.518-7.916-17.431-8.656a60.7 60.7 0 0 1-.857-.339c-2.047-.817-5.14-2.054-8.703-2.54a79.181 79.181 0 0 0-2.197-.265v1.542c1.976.223 3.925.557 5.719 1.079" mask="url(#d)"/>
        </g>
        <g>
            <mask id="f" fill="#fff">
                <use xlink:href="#e"/>
            </mask>
            <path fill="#002C25" d="M24.572 79.258l.569.005v-.016c-1.29-.005-2.597-.013-3.925-.019 1.125.009 2.245.02 3.356.03" mask="url(#f)"/>
        </g>
        <g>
            <mask id="h" fill="#fff">
                <use xlink:href="#g"/>
            </mask>
            <path fill="#002C25" d="M.037 40.657c4.182.57 7.73 2.155 9.695 2.916 1.964.76 17.488 8.68 17.488 8.68 2.435.504 6.574 1.239 10.939 2.126 1.542.313 3.858.787 6.498 1.365 3.114.68 6.643 1.552 9.368 3.121 2.451 1.412 4.46 3.51 4.862 5.874l.022-.002.366-.028.193.311c.027.045.052.1.079.15-.195-2.512-2.115-5.037-5.222-6.827-2.71-1.56-6.186-2.454-9.54-3.187a445.117 445.117 0 0 0-13.216-2.671c-1.628-.31-3.054-.579-4.148-.805-1.29-.656-15.55-7.925-17.472-8.67-.255-.097-.537-.21-.843-.333-2.103-.84-5.279-2.11-8.988-2.616a76.374 76.374 0 0 0-2.36-.282v.606c.734.077 1.5.166 2.28.272" mask="url(#h)"/>
        </g>
        <g>
            <mask id="j" fill="#fff">
                <use xlink:href="#i"/>
            </mask>
            <path fill="#002C25" d="M-.044 41.254c3.562.486 6.656 1.722 8.703 2.54.31.125.597.24.855.34 1.913.74 17.278 8.577 17.433 8.655l.151.054c1.109.229 2.571.507 4.248.824 2.022.383 4.316.819 6.693 1.303 1.69.343 3.955.807 6.49 1.36 3.26.714 6.629 1.578 9.195 3.055 2.395 1.38 3.99 3.198 4.479 5.034.1.129.185.24.253.331.204-.003.348-.007.43-.012-.4-2.361-2.41-4.462-4.861-5.873-2.725-1.57-6.253-2.441-9.368-3.122a427.953 427.953 0 0 0-6.498-1.364c-4.365-.887-8.504-1.622-10.939-2.126 0 0-15.524-7.92-17.488-8.68-1.964-.761-5.513-2.344-9.694-2.916a73.45 73.45 0 0 0-2.28-.272v.604c.76.081 1.493.169 2.198.265" mask="url(#j)"/>
        </g>
        <g>
            <mask id="l" fill="#fff">
                <use xlink:href="#k"/>
            </mask>
            <path fill="#2191C6" d="M20.72 52.662a7.5 7.5 0 0 1 .002 1.1c-.092 1.48-.232 2.263-.776 2.72a1.504 1.504 0 0 1-.238.158c1.126.069 1.847.109 1.995.109.698 0 2.954.122 4.5.149 1.151.021 1.276.015.525-.574-1.407-1.103-3.189-2.375-5.194-3.69-.316-.208-.64-.416-.967-.625.069.168.125.36.15.604.002.017.004.032.004.049" mask="url(#l)"/>
        </g>
        <g>
            <mask id="n" fill="#fff">
                <use xlink:href="#m"/>
            </mask>
            <path fill="#2191C6" d="M12.56 54.727c-.177-.397-.271-1.03.272-1.808 0 0 .013-.023.021-.032.266-.376.704-.786 1.17-1.093l.058-.035c.242-.151.524-.317.864-.426.618-.2 2.928-.407 4.39-.1-5.014-3.105-10.95-6.194-15.858-7.624-1.794-.522-3.743-.854-5.719-1.079v12.68c5.155.343 12.191.809 17.309 1.138-1.041-.282-2.126-.772-2.506-1.621" mask="url(#n)"/>
        </g>
        <g>
            <mask id="p" fill="#fff">
                <use xlink:href="#o"/>
            </mask>
            <path fill="#FEFEFE" d="M36.994 80.989a5.81 5.81 0 0 1-5.804-5.803c0-3.2 2.603-5.806 5.804-5.806 3.2 0 5.803 2.606 5.803 5.806a5.81 5.81 0 0 1-5.803 5.803m0-14.547c-4.82 0-8.743 3.923-8.743 8.744 0 4.82 3.922 8.742 8.743 8.742 4.82 0 8.743-3.921 8.743-8.742 0-4.821-3.923-8.744-8.743-8.744" mask="url(#p)"/>
        </g>
        <g>
            <mask id="r" fill="#fff">
                <use xlink:href="#q"/>
            </mask>
            <path fill="#002C25" d="M36.994 84.53c-5.147 0-9.344-4.198-9.344-9.345s4.197-9.345 9.344-9.345c5.147 0 9.344 4.198 9.344 9.345s-4.197 9.346-9.344 9.346m0-19.293c-5.485 0-9.947 4.463-9.947 9.949 0 5.483 4.462 9.945 9.947 9.945 5.484 0 9.946-4.462 9.946-9.945 0-5.486-4.462-9.949-9.946-9.949" mask="url(#r)"/>
        </g>
        <g>
            <mask id="t" fill="#fff">
                <use xlink:href="#s"/>
            </mask>
            <path fill="#002C25" d="M36.994 83.929c-4.82 0-8.743-3.922-8.743-8.743 0-4.822 3.922-8.743 8.743-8.743 4.82 0 8.743 3.921 8.743 8.743 0 4.821-3.923 8.743-8.743 8.743m0-18.089c-5.147 0-9.344 4.199-9.344 9.344 0 5.149 4.197 9.347 9.344 9.347 5.147 0 9.344-4.198 9.344-9.347 0-5.145-4.197-9.344-9.344-9.344" mask="url(#t)"/>
        </g>
        <g>
            <mask id="v" fill="#fff">
                <use xlink:href="#u"/>
            </mask>
            <path fill="#FEFEFE" d="M36.994 70.585a4.606 4.606 0 0 0-4.6 4.601c0 2.536 2.063 4.6 4.6 4.6 2.537 0 4.6-2.064 4.6-4.6a4.606 4.606 0 0 0-4.6-4.601" mask="url(#v)"/>
        </g>
        <g>
            <mask id="x" fill="#fff">
                <use xlink:href="#w"/>
            </mask>
            <path fill="#002C25" d="M36.994 80.388a5.213 5.213 0 0 1-5.203-5.202 5.212 5.212 0 0 1 5.203-5.203 5.212 5.212 0 0 1 5.202 5.203 5.213 5.213 0 0 1-5.202 5.202m0-11.007a5.811 5.811 0 0 0-5.804 5.806 5.81 5.81 0 0 0 5.804 5.802 5.81 5.81 0 0 0 5.803-5.802 5.811 5.811 0 0 0-5.803-5.806" mask="url(#x)"/>
        </g>
        <g>
            <mask id="z" fill="#fff">
                <use xlink:href="#y"/>
            </mask>
            <path fill="#002C25" d="M36.994 79.786a4.605 4.605 0 0 1-4.6-4.6c0-2.537 2.063-4.6 4.6-4.6 2.537 0 4.6 2.063 4.6 4.6 0 2.537-2.063 4.6-4.6 4.6m0-9.803a5.211 5.211 0 0 0-5.203 5.202 5.213 5.213 0 0 0 5.203 5.203 5.213 5.213 0 0 0 5.202-5.203 5.211 5.211 0 0 0-5.202-5.202" mask="url(#z)"/>
        </g>
        <g>
            <mask id="B" fill="#fff">
                <use xlink:href="#A"/>
            </mask>
            <path fill="#FEFEFE" d="M14.643 52.827a3.498 3.498 0 0 0-.79.729l-.013.02c-.293.41-.208.599-.181.66.241.539 1.636 1.063 3.319 1.245l.493.055c.816.092 1.523.175 1.702.023.244-.204.317-1.375.349-1.873.024-.38.022-.706-.002-.948l-.004-.039a1.306 1.306 0 0 0-.038-.197c-.565-.263-3.212-.334-4.164-.025-.204.067-.394.175-.634.328l-.037.022" mask="url(#B)"/>
        </g>
        <g>
            <mask id="D" fill="#fff">
                <use xlink:href="#C"/>
            </mask>
            <path fill="#002C25" d="M20.475 51.802c-.18-.277-.605-.456-1.14-.568.417.257.829.516 1.232.775-.03-.072-.054-.15-.092-.207" mask="url(#D)"/>
        </g>
        <g>
            <mask id="F" fill="#fff">
                <use xlink:href="#E"/>
            </mask>
            <path fill="#002C25" d="M16.848 56.677l.488.055c.546.062.998.113 1.384.113.392 0 .712-.055.988-.204-1.17-.071-2.78-.173-4.642-.293.686.187 1.354.283 1.782.33" mask="url(#F)"/>
        </g>
        <g>
            <mask id="H" fill="#fff">
                <use xlink:href="#G"/>
            </mask>
            <path fill="#002C25" d="M19.97 52.13c.09.136.131.383.149.546h-.001c.032.312.026.69.003 1.048-.18 2.884-.52 2.646-3.208 2.356-2.083-.227-4.835-1.078-3.568-2.846l-.003.001c.245-.345.647-.696 1.012-.939l.003.002c.247-.158.492-.301.772-.392 1.043-.34 4.476-.34 4.842.224m-5.026-.797c-.34.109-.623.276-.864.427-.02.01-.038.021-.057.033-.467.309-.905.717-1.171 1.095l-.015.019c-.55.79-.455 1.423-.278 1.82.38.849 1.466 1.339 2.506 1.62 1.863.121 3.472.223 4.641.294a1.55 1.55 0 0 0 .24-.159c.542-.458.683-1.24.775-2.721a7.501 7.501 0 0 0 0-1.1l-.006-.048a2.09 2.09 0 0 0-.15-.605 86.175 86.175 0 0 0-1.232-.775c-1.46-.307-3.772-.101-4.39.1" mask="url(#H)"/>
        </g>
        <g>
            <mask id="J" fill="#fff">
                <use xlink:href="#I"/>
            </mask>
            <path fill="#002C25" d="M19.478 52.501c.013.045.027.113.038.198l.001.026c.027.254.029.582.005.96-.032.5-.105 1.67-.35 1.874-.178.151-.885.07-1.7-.024l-.494-.053c-1.683-.184-3.078-.707-3.319-1.245-.027-.063-.112-.252.175-.652l.019-.028c.175-.238.478-.517.79-.73l.037-.022c.24-.153.43-.261.634-.329.952-.307 3.599-.237 4.164.025m-5.122-.203l-.001-.003c-.367.243-.768.594-1.012.94l.001-.001c-1.267 1.767 1.486 2.62 3.57 2.845 2.687.291 3.027.53 3.208-2.355a6.567 6.567 0 0 0-.005-1.049h.002c-.017-.162-.06-.408-.147-.544-.367-.564-3.801-.564-4.842-.226-.28.091-.527.234-.774.393" mask="url(#J)"/>
        </g>
        <g>
            <mask id="L" fill="#fff">
                <use xlink:href="#K"/>
            </mask>
            <path fill="#DC6A67" d="M55.018 62.674c-1.313-1.132-3.488-1.499-5.08-1.604l-.058-.007a20.54 20.54 0 0 0-2.43.003c1.341.948 2.573 1.981 4.301 3.608 1.792.056 3.758.082 5.185.084-.527-.66-1.259-1.517-1.918-2.084" mask="url(#L)"/>
        </g>
        <g>
            <mask id="N" fill="#fff">
                <use xlink:href="#M"/>
            </mask>
            <path fill="#002C25" d="M55.805 61.763c-1.55-1.336-3.963-1.767-5.734-1.892l-.06-.006c-1.218-.082-3.036-.05-4.355.203a.605.605 0 0 0-.477.48.6.6 0 0 0 .268.62c.416.267.807.527 1.188.795 1.057.74 2.04 1.532 3.262 2.636.298.016.613.03.938.044-1.464-1.355-2.598-2.292-3.856-3.174a37.538 37.538 0 0 0-1.208-.81c1.202-.231 2.93-.278 4.2-.194l.007.003c1.979.134 4.101.601 5.433 1.75.834.718 1.758 1.85 2.292 2.54l.58-.005a5.038 5.038 0 0 0-.08-.334c-.545-.705-1.51-1.892-2.398-2.656" mask="url(#N)"/>
        </g>
        <g>
            <mask id="P" fill="#fff">
                <use xlink:href="#O"/>
            </mask>
            <path fill="#002C25" d="M58.456 64.75a26.527 26.527 0 0 0-.253-.33c.03.11.058.222.08.333l.173-.002" mask="url(#P)"/>
        </g>
        <g>
            <mask id="R" fill="#fff">
                <use xlink:href="#Q"/>
            </mask>
            <path fill="#002C25" d="M47.45 61.066a20.54 20.54 0 0 1 2.43-.004c.019.004.039.005.058.007 1.592.107 3.767.473 5.08 1.605.66.568 1.39 1.425 1.918 2.084h.767c-.535-.69-1.459-1.821-2.292-2.54-1.332-1.149-3.454-1.617-5.433-1.75l-.007-.003c-1.27-.084-2.999-.037-4.2.195.424.272.82.538 1.207.81 1.26.88 2.393 1.818 3.856 3.172l.917.033c-1.728-1.627-2.96-2.66-4.3-3.61" mask="url(#R)"/>
        </g>
        <g>
            <mask id="T" fill="#fff">
                <use xlink:href="#S"/>
            </mask>
            <path fill="#A4BD7E" d="M26.01 78.048a10.2 10.2 0 0 1-.475-2.293 26.861 26.861 0 0 0-.296 2.29l.772.003" mask="url(#T)"/>
        </g>
        <g>
            <mask id="V" fill="#fff">
                <use xlink:href="#U"/>
            </mask>
            <path fill="#A4BD7E" d="M48.459 67.02c-6.803-3.526-10.935-5.029-14.646-3.474-1.234.517-2.515 1.38-3.704 2.602a11.772 11.772 0 0 1 6.801-2.145c6.299 0 11.423 4.848 11.423 10.806 0 .843-.103 1.675-.305 2.488 2.882-.237 7.61-.823 9.356-1.752l.074-.033c.484-.178.908-.76 1.225-1.68.6-1.74.67-4.22.39-6.078l-10.502-.676-.112-.058z" mask="url(#V)"/>
        </g>
        <g>
            <mask id="X" fill="#fff">
                <use xlink:href="#W"/>
            </mask>
            <path fill="#A4BD7E" d="M31.064 63.732c-3.924 1.787-6.632 5.253-7.642 9.825l-.108.478-.49-.007c-8.25-.127-16.655-.264-25.06-.401l-.005-.001v4.28c7.732.028 15.675.056 23.339.118l2.924.015c.619-7.262 3.728-11.914 7.042-14.307" mask="url(#X)"/>
        </g>
        <g>
            <mask id="Z" fill="#fff">
                <use xlink:href="#Y"/>
            </mask>
            <path fill="#A4BD7E" d="M58.166 65.955c-.348.007-.709.019-1.083.03-.663.02-1.365.042-2.095.045h-.252a30.68 30.68 0 0 1-3.255-.158 50.888 50.888 0 0 1-2.973-.179c.132.069.258.132.392.2l9.464.61v-.559l-.144.001c-.018.003-.035.01-.054.01" mask="url(#Z)"/>
        </g>
        <g>
            <mask id="ab" fill="#fff">
                <use xlink:href="#aa"/>
            </mask>
            <path fill="#A4BD7E" d="M38.863 62.518a15.583 15.583 0 0 0-4.299.136c-.331.094-.659.202-.984.338-2.368.991-4.746 3.1-6.474 6.3a11.123 11.123 0 0 1 3.003-3.145c1.19-1.22 2.47-2.083 3.703-2.6 3.713-1.555 7.844-.054 14.647 3.474l.112.057 10.501.676a9.975 9.975 0 0 0-.108-.61l-10.228-.658c-4.09-2.12-7.212-3.494-9.873-3.968" mask="url(#ab)"/>
        </g>
        <g>
            <mask id="ad" fill="#fff">
                <use xlink:href="#ac"/>
            </mask>
            <path fill="#A4BD7E" d="M25.24 78.045c.07-.795.166-1.562.295-2.29a10.423 10.423 0 0 1-.047-.945c0-.864.12-1.698.322-2.504-.578 1.7-.988 3.611-1.174 5.735l.603.004" mask="url(#ad)"/>
        </g>
        <g>
            <mask id="af" fill="#fff">
                <use xlink:href="#ae"/>
            </mask>
            <path fill="#A4BD7E" d="M-2.242 77.914l.398.001c7.827.037 15.633.073 22.943.11-7.665-.062-15.608-.09-23.34-.118v.007z" mask="url(#af)"/>
        </g>
        <g>
            <mask id="ah" fill="#fff">
                <use xlink:href="#ag"/>
            </mask>
            <path fill="#A4BD7E" d="M33.58 62.992c.325-.136.654-.244.985-.337a14.49 14.49 0 0 0-3.004.855c-.168.069-.332.147-.496.222-3.315 2.393-6.424 7.045-7.044 14.307l.614.003c.187-2.124.597-4.036 1.175-5.736.271-1.076.712-2.09 1.297-3.014 1.726-3.199 4.106-5.308 6.472-6.3" mask="url(#ah)"/>
        </g>
        <g>
            <mask id="aj" fill="#fff">
                <use xlink:href="#ai"/>
            </mask>
            <path fill="#A4BD7E" d="M58.363 65.944v.559l-9.463-.61c-.133-.07-.26-.13-.39-.2-.929-.09-1.615-.21-1.861-.369-2.434-1.584-5.113-2.526-7.786-2.806 2.66.474 5.784 1.848 9.872 3.967 3.612.232 6.618.426 10.23.66-.1-.47-.223-.881-.369-1.203l-.233.002" mask="url(#aj)"/>
        </g>
        <g>
            <mask id="al" fill="#fff">
                <use xlink:href="#ak"/>
            </mask>
            <path fill="#A4BD7E" d="M54.988 66.031c.73-.005 1.431-.025 2.095-.046.374-.012.735-.024 1.083-.03.019 0 .035-.007.054-.01-1.343.013-4.19.016-6.74-.074.941.104 2.086.16 3.256.16h.252z" mask="url(#al)"/>
        </g>
        <g>
            <mask id="an" fill="#fff">
                <use xlink:href="#am"/>
            </mask>
            <path fill="#002C25" d="M59.547 65.169c.011.14.02.282.02.421v1.511c.622 3.08.2 8.201-1.901 8.976-2.081 1.107-7.815 1.709-10.462 1.884a9.655 9.655 0 0 0 .528-3.152c0-5.636-4.846-10.206-10.821-10.206-3.984 0-7.456 2.037-9.333 5.06-.43.807-.816 1.693-1.15 2.656a9.684 9.684 0 0 0-.338 2.49c0 1.362.283 2.66.795 3.845-.56 0-1.134-.004-1.702-.007l-.005.049-.037.551 1.74.01.921.004-.365-.845a9.058 9.058 0 0 1-.746-3.607c0-5.295 4.584-9.603 10.22-9.603 5.634 0 10.218 4.308 10.218 9.603a9.1 9.1 0 0 1-.493 2.957l-.295.854.903-.06c.819-.054 8.044-.566 10.67-1.934.826-.323 1.469-1.13 1.907-2.403.923-2.675.773-7.15-.274-9.054" mask="url(#an)"/>
        </g>
        <g>
            <mask id="ap" fill="#fff">
                <use xlink:href="#ao"/>
            </mask>
            <path fill="#002C25" d="M-2.242 79.117l.393.002c7.87.037 15.72.073 23.065.11-7.7-.062-15.686-.09-23.458-.12v.008z" mask="url(#ap)"/>
        </g>
        <g>
            <mask id="ar" fill="#fff">
                <use xlink:href="#aq"/>
            </mask>
            <path fill="#002C25" d="M22.833 73.426c1.453-6.568 6.111-10.381 11.548-11.346 1.509-.43 3.073-.458 4.81-.118 2.659.318 5.337 1.264 7.786 2.857.31.202 1.79.333 3.609.413a79.461 79.461 0 0 0-.689-.633c-1.314-.067-2.321-.16-2.591-.284-5.047-3.285-11.102-4.002-16.2-1.919-4.43 1.812-7.522 5.501-8.747 10.42-8.094-.123-16.335-.257-24.576-.393h-.017l-.008.602c8.41.136 16.82.275 25.075.401" mask="url(#ar)"/>
        </g>
        <g>
            <mask id="at" fill="#fff">
                <use xlink:href="#as"/>
            </mask>
            <path fill="#002C25" d="M27.578 69.663a9.817 9.817 0 0 0-1.15 2.656c.334-.962.72-1.848 1.15-2.656" mask="url(#at)"/>
        </g>
        <g>
            <mask id="av" fill="#fff">
                <use xlink:href="#au"/>
            </mask>
            <path fill="#002C25" d="M59.275 64.71l-.366.026-.022.002c.034.197.055.397.065.598h.003c.258.417.464 1.033.612 1.764v-1.51c0-.139-.008-.28-.02-.42-.026-.05-.051-.105-.08-.15l-.192-.31z" mask="url(#av)"/>
        </g>
        <g>
            <mask id="ax" fill="#fff">
                <use xlink:href="#aw"/>
            </mask>
            <path fill="#002C25" d="M25.183 78.647l-.604-.004v.013c-1.318-.013-2.655-.022-3.985-.033-7.287-.035-15.058-.07-22.836-.106v.594c7.773.027 15.76.055 23.457.117l3.926.02.037-.553.005-.048" mask="url(#ax)"/>
        </g>
        <g>
            <mask id="az" fill="#fff">
                <use xlink:href="#ay"/>
            </mask>
            <path fill="#002C25" d="M24.578 78.656l.001-.008c-1.311-.012-2.637-.017-3.985-.024 1.33.01 2.668.019 3.984.032" mask="url(#az)"/>
        </g>
        <g>
            <mask id="aB" fill="#fff">
                <use xlink:href="#aA"/>
            </mask>
            <path fill="#002C25" d="M58.64 65a.604.604 0 0 1 .11.345c.096-.003.166-.006.201-.009a4.824 4.824 0 0 0-.065-.598c-.081.004-.227.01-.43.013.106.142.172.233.184.25" mask="url(#aB)"/>
        </g>
        <g>
            <mask id="aD" fill="#fff">
                <use xlink:href="#aC"/>
            </mask>
            <path fill="#002C25" d="M34.381 62.08a16.41 16.41 0 0 1 4.809-.12c-1.736-.338-3.3-.31-4.809.12" mask="url(#aD)"/>
        </g>
        <g>
            <mask id="aF" fill="#fff">
                <use xlink:href="#aE"/>
            </mask>
            <path fill="#002C25" d="M51.77 64.693a30.85 30.85 0 0 0 3.21.135 78.062 78.062 0 0 0 1.978-.044l-.021-.026a188.927 188.927 0 0 1-5.186-.084l.02.019z" mask="url(#aF)"/>
        </g>
        <g>
            <mask id="aH" fill="#fff">
                <use xlink:href="#aG"/>
            </mask>
            <path fill="#002C25" d="M58.351 65.35a4.303 4.303 0 0 0-.07-.597l-.578.005c.276.355.45.594.45.594.07 0 .137 0 .198-.002" mask="url(#aH)"/>
        </g>
        <g>
            <mask id="aJ" fill="#fff">
                <use xlink:href="#aI"/>
            </mask>
            <path fill="#002C25" d="M51.505 65.268c-.232-.219-.454-.426-.67-.626a81.69 81.69 0 0 1-.938-.042c.22.2.45.41.689.633.3.012.606.025.92.035" mask="url(#aJ)"/>
        </g>
        <g>
            <mask id="aL" fill="#fff">
                <use xlink:href="#aK"/>
            </mask>
            <path fill="#002C25" d="M58.351 65.35c.163 0 .296-.003.4-.005a.598.598 0 0 0-.11-.345 17.733 17.733 0 0 0-.185-.25 7.875 7.875 0 0 1-.174.003c.039.2.059.399.07.597" mask="url(#aL)"/>
        </g>
        <g>
            <mask id="aN" fill="#fff">
                <use xlink:href="#aM"/>
            </mask>
            <path fill="#002C25" d="M58.153 65.353s-.174-.24-.45-.595h-.767l.016.019c-.622.027-1.285.047-1.972.052a31.17 31.17 0 0 1-3.21-.137l-.012-.011c-.319-.017-.625-.028-.924-.04.217.2.44.409.671.628 2.473.085 5.285.096 6.648.084" mask="url(#aN)"/>
        </g>
        <g>
            <mask id="aP" fill="#fff">
                <use xlink:href="#aO"/>
            </mask>
            <path fill="#002C25" d="M26.01 78.048l-.77-.003c-.018.202-.043.396-.058.602l1.703.008a9.672 9.672 0 0 1-.795-3.845c0-.862.125-1.692.338-2.491a22.27 22.27 0 0 0-.893 3.436 10.2 10.2 0 0 0 .476 2.293" mask="url(#aP)"/>
        </g>
        <g>
            <mask id="aR" fill="#fff">
                <use xlink:href="#aQ"/>
            </mask>
            <path fill="#002C25" d="M59.072 67.754c.28 1.858.211 4.339-.389 6.078-.317.92-.74 1.502-1.224 1.68l-.075.033c-1.745.93-6.473 1.515-9.356 1.75.203-.811.304-1.643.304-2.486 0-5.958-5.123-10.806-11.421-10.806-2.55 0-4.899.803-6.802 2.145-.923.947-1.788 2.117-2.532 3.514 1.878-3.022 5.35-5.058 9.334-5.058 5.975 0 10.82 4.569 10.82 10.205 0 1.1-.186 2.159-.526 3.151 2.647-.174 8.38-.776 10.462-1.883 2.099-.774 2.521-5.895 1.899-8.976v.684l-.494-.031z" mask="url(#aR)"/>
        </g>
        <g>
            <mask id="aT" fill="#fff">
                <use xlink:href="#aS"/>
            </mask>
            <path fill="#002C25" d="M51.437 65.867a.602.602 0 0 1-.345-.16c-.175-.167-.34-.32-.506-.474-1.82-.08-3.298-.212-3.61-.414-2.447-1.593-5.126-2.538-7.786-2.858 2.592.504 5.573 1.81 9.319 3.733a50.91 50.91 0 0 0 2.972.178c-.014-.003-.03-.004-.044-.005" mask="url(#aT)"/>
        </g>
        <g>
            <mask id="aV" fill="#fff">
                <use xlink:href="#aU"/>
            </mask>
            <path fill="#002C25" d="M58.363 65.944v-.032a.646.646 0 0 1-.143.034c.048 0 .098 0 .143-.002" mask="url(#aV)"/>
        </g>
        <g>
            <mask id="aX" fill="#fff">
                <use xlink:href="#aW"/>
            </mask>
            <path fill="#002C25" d="M34.381 62.08c-5.437.964-10.095 4.778-11.548 11.346-8.253-.127-16.665-.265-25.075-.4v.6l.006.002c8.405.137 16.811.273 25.06.4l.49.008.107-.48c1.01-4.57 3.718-8.037 7.644-9.824.758-.549 1.528-.98 2.28-1.294a9.166 9.166 0 0 1 1.036-.358" mask="url(#aX)"/>
        </g>
        <g>
            <mask id="aZ" fill="#fff">
                <use xlink:href="#aY"/>
            </mask>
            <path fill="#002C25" d="M24.02 78.05l.002-.011-2.924-.014c.978.007 1.954.015 2.922.024" mask="url(#aZ)"/>
        </g>
        <g>
            <mask id="bb" fill="#fff">
                <use xlink:href="#ba"/>
            </mask>
            <path fill="#002C25" d="M24.636 78.041c-.018.203-.043.397-.057.603.203 0 .402.002.603.003.015-.206.04-.4.057-.602l-.603-.004" mask="url(#bb)"/>
        </g>
        <g>
            <mask id="bd" fill="#fff">
                <use xlink:href="#bc"/>
            </mask>
            <path fill="#002C25" d="M-2.242 78.516c7.778.036 15.549.072 22.835.108-7.48-.06-15.15-.088-22.835-.115v.007z" mask="url(#bd)"/>
        </g>
        <g>
            <mask id="bf" fill="#fff">
                <use xlink:href="#be"/>
            </mask>
            <path fill="#002C25" d="M34.564 62.655a15.583 15.583 0 0 1 4.299-.136c-1.56-.28-2.96-.243-4.299.136" mask="url(#bf)"/>
        </g>
        <g>
            <mask id="bh" fill="#fff">
                <use xlink:href="#bg"/>
            </mask>
            <path fill="#002C25" d="M27.107 69.292a19.572 19.572 0 0 0-1.297 3.015c-.204.805-.322 1.64-.322 2.502 0 .319.018.632.047.946a22.22 22.22 0 0 1 .892-3.435 9.84 9.84 0 0 1 1.15-2.658c.745-1.397 1.609-2.566 2.533-3.514a11.118 11.118 0 0 0-3.003 3.144" mask="url(#bh)"/>
        </g>
        <g>
            <mask id="bj" fill="#fff">
                <use xlink:href="#bi"/>
            </mask>
            <path fill="#002C25" d="M58.952 65.337c.004.085.013.169.013.254v1.552h-.001c.04.193.076.398.108.61l.495.032V67.1c-.148-.732-.354-1.348-.612-1.764h-.003z" mask="url(#bj)"/>
        </g>
        <g>
            <mask id="bl" fill="#fff">
                <use xlink:href="#bk"/>
            </mask>
            <path fill="#002C25" d="M58.692 65.62a.596.596 0 0 1-.33.292v.032l.234-.002c.145.321.268.733.368 1.202h.001V65.59c0-.086-.008-.169-.013-.254a5.379 5.379 0 0 1-.202.008.58.58 0 0 1-.058.276" mask="url(#bl)"/>
        </g>
        <g>
            <mask id="bn" fill="#fff">
                <use xlink:href="#bm"/>
            </mask>
            <path fill="#002C25" d="M24.022 78.039l-.002.01-2.922-.025c-7.31-.036-15.116-.071-22.942-.108l-.398-.001v.594c7.686.027 15.355.055 22.836.115l3.985.02c.014-.206.039-.4.057-.603-.205 0-.41 0-.614-.002" mask="url(#bn)"/>
        </g>
        <g>
            <mask id="bp" fill="#fff">
                <use xlink:href="#bo"/>
            </mask>
            <path fill="#002C25" d="M34.381 62.08c-.347.1-.692.213-1.035.358-.753.314-1.523.745-2.281 1.294.164-.076.327-.152.497-.221a14.504 14.504 0 0 1 3.003-.857c1.339-.378 2.739-.414 4.298-.136 2.673.28 5.353 1.221 7.786 2.806.246.16.932.28 1.86.37-3.746-1.923-6.727-3.23-9.32-3.733a16.41 16.41 0 0 0-4.808.12" mask="url(#bp)"/>
        </g>
        <g>
            <mask id="br" fill="#fff">
                <use xlink:href="#bq"/>
            </mask>
            <path fill="#002C25" d="M27.107 69.292a10.386 10.386 0 0 0-1.297 3.015c.37-1.091.803-2.103 1.297-3.015" mask="url(#br)"/>
        </g>
        <g>
            <mask id="bt" fill="#fff">
                <use xlink:href="#bs"/>
            </mask>
            <path fill="#002C25" d="M58.351 65.35c-.061.002-.129.003-.198.003-.962.021-2.032.07-3.169.076a30.662 30.662 0 0 1-3.479-.16c-.313-.01-.62-.024-.92-.037.167.154.332.308.507.475a.602.602 0 0 0 .388.164c2.55.091 5.397.086 6.74.075a.646.646 0 0 0 .143-.033v-.322c0-.08-.007-.16-.012-.24" mask="url(#bt)"/>
        </g>
        <g>
            <mask id="bv" fill="#fff">
                <use xlink:href="#bu"/>
            </mask>
            <path fill="#002C25" d="M58.363 65.59v.321c.14-.05.26-.151.329-.29a.594.594 0 0 0 .058-.276 25.18 25.18 0 0 1-.399.006c.005.08.012.16.012.24" mask="url(#bv)"/>
        </g>
        <g>
            <mask id="bx" fill="#fff">
                <use xlink:href="#bw"/>
            </mask>
            <path fill="#002C25" d="M51.505 65.268c1.114.126 2.375.17 3.479.162 1.137-.008 2.207-.056 3.169-.078-1.364.012-4.175.002-6.648-.084" mask="url(#bx)"/>
        </g>
        <g>
            <mask id="bA" fill="#fff">
                <use xlink:href="#bz"/>
            </mask>
            <path fill="#D6D7DB" d="M66.154 24.464l-.005.001-2.114 2.172 9.508 29.304 2.147-2.085z" mask="url(#bA)"/>
        </g>
        <g>
            <mask id="bC" fill="#fff">
                <use xlink:href="#bB"/>
            </mask>
            <path stroke="#050302" stroke-width="1.447" d="M66.154 24.464l-.005.001-2.114 2.172 9.508 29.304 2.147-2.085z" mask="url(#bC)"/>
        </g>
        <g>
            <mask id="bE" fill="#fff">
                <use xlink:href="#bD"/>
            </mask>
            <path fill="#D6D7DB" d="M73.294 54.666L70.883 73.66l2.663.338 2.579-20.305z" mask="url(#bE)"/>
        </g>
        <g>
            <mask id="bG" fill="#fff">
                <use xlink:href="#bF"/>
            </mask>
            <path stroke="#050302" stroke-width="1.447" d="M73.294 54.666L70.883 73.66l2.663.338 2.579-20.305z" mask="url(#bG)"/>
        </g>
        <g>
            <mask id="bI" fill="#fff">
                <use xlink:href="#bH"/>
            </mask>
            <path fill="#D6D7DB" d="M75.588 73.307l-7.472 3.258-1.382 10.887 6.947.881z" mask="url(#bI)"/>
        </g>
        <g>
            <mask id="bK" fill="#fff">
                <use xlink:href="#bJ"/>
            </mask>
            <path stroke="#050302" stroke-width="1.447" d="M75.588 73.307l-7.472 3.258-1.382 10.887 6.947.881z" mask="url(#bK)"/>
        </g>
        <g>
            <mask id="bM" fill="#fff">
                <use xlink:href="#bL"/>
            </mask>
            <path fill="#ADABB1" d="M79.598 85.899l-17.985-2.284-.599 4.719L79 90.616z" mask="url(#bM)"/>
        </g>
        <g>
            <mask id="bO" fill="#fff">
                <use xlink:href="#bN"/>
            </mask>
            <path stroke="#050302" stroke-width="1.447" d="M79.598 85.899l-17.985-2.284-.599 4.719L79 90.616z" mask="url(#bO)"/>
        </g>
        <g>
            <mask id="bQ" fill="#fff">
                <use xlink:href="#bP"/>
            </mask>
            <path fill="#ADABB1" d="M75.588 73.307l-6.947-.881-.525 4.139 6.947.881z" mask="url(#bQ)"/>
        </g>
        <g>
            <mask id="bS" fill="#fff">
                <use xlink:href="#bR"/>
            </mask>
            <path stroke="#050302" stroke-width="1.447" d="M75.588 73.307l-6.947-.881-.525 4.139 6.947.881z" mask="url(#bS)"/>
        </g>
        <g>
            <mask id="bU" fill="#fff">
                <use xlink:href="#bT"/>
            </mask>
            <path fill="#D6D7DB" d="M45.114 10.442l.214 2.676c7.999-.65 15.687 4.21 18.272 12.175l2.554-.828c-2.976-9.17-11.83-14.77-21.04-14.023" mask="url(#bU)"/>
        </g>
        <g>
            <mask id="bW" fill="#fff">
                <use xlink:href="#bV"/>
            </mask>
            <path stroke="#050302" stroke-width="1.447" d="M45.114 10.442l.214 2.676c7.999-.65 15.687 4.21 18.272 12.175l2.554-.828c-2.976-9.17-11.83-14.77-21.04-14.023z" mask="url(#bW)"/>
        </g>
        <g>
            <mask id="bY" fill="#fff">
                <use xlink:href="#bX"/>
            </mask>
            <path fill="#ADABB1" d="M45.947 13.117l-16.298.998-.17-2.76 16.298-.997z" mask="url(#bY)"/>
        </g>
        <g>
            <mask id="ca" fill="#fff">
                <use xlink:href="#bZ"/>
            </mask>
            <path stroke="#050302" stroke-width="1.447" d="M45.947 13.117l-16.298.998-.17-2.76 16.298-.997z" mask="url(#ca)"/>
        </g>
        <g>
            <mask id="cc" fill="#fff">
                <use xlink:href="#cb"/>
            </mask>
            <path fill="#E9BE4C" d="M46.115 15.875l-16.297 1-.172-2.798 16.298-.994z" mask="url(#cc)"/>
        </g>
        <g>
            <mask id="ce" fill="#fff">
                <use xlink:href="#cd"/>
            </mask>
            <path stroke="#050302" stroke-width="1.447" d="M46.115 15.875l-16.297 1-.172-2.798 16.298-.994z" mask="url(#ce)"/>
        </g>
        <g>
            <mask id="cg" fill="#fff">
                <use xlink:href="#cf"/>
            </mask>
            <path fill="#ADABB1" d="M67.484 24.032L62.036 25.8l.872 2.69 5.448-1.77z" mask="url(#cg)"/>
        </g>
        <path stroke="#050302" stroke-width="1.447" d="M67.484 24.032L62.036 25.8l.872 2.69 5.448-1.77z"/>
        <path stroke="#050302" stroke-width="2" d="M79.828 11.362C58.359-5.112 27.6-1.063 11.128 20.406c-16.474 21.468-12.424 52.228 9.044 68.7 21.47 16.473 52.227 12.424 68.7-9.045 16.474-21.467 12.424-52.226-9.044-68.7z"/>
    </g>
</svg>
