<svg xmlns="http://www.w3.org/2000/svg" width="401" height="248" viewBox="0 0 401 248">
    <defs>
        <filter id="a" width="120.7%" height="312.8%" x="-10.4%" y="-106.4%" filterUnits="objectBoundingBox">
            <feGaussianBlur in="SourceGraphic" stdDeviation="8.513"/>
        </filter>
        <filter id="b" width="153.1%" height="491%" x="-26.5%" y="-195.5%" filterUnits="objectBoundingBox">
            <feGaussianBlur in="SourceGraphic" stdDeviation="25.416"/>
        </filter>
    </defs>
    <g fill="none" fill-rule="evenodd">
        <g fill="#0F312A">
            <path d="M33.756 0h212.488a12 12 0 0 1 9.319 4.44l6.134 7.56a7.362 7.362 0 0 1-5.717 12H24.02a7.362 7.362 0 0 1-5.717-12l6.134-7.56A12 12 0 0 1 33.756 0z" filter="url(#a)" opacity=".332" style="mix-blend-mode:multiply" transform="translate(56 124)"/>
            <path d="M39.802 20h219.127a12 12 0 0 1 8.217 3.254l17.29 16.246c4.54 4.266 4.763 11.404.498 15.944a11.28 11.28 0 0 1-8.22 3.556H11.223C5.385 59 .652 54.267.652 48.428c0-3.62 1.853-6.99 4.911-8.928l27.813-17.635A12 12 0 0 1 39.802 20z" filter="url(#b)" opacity=".201" style="mix-blend-mode:multiply" transform="translate(56 124)"/>
        </g>
        <g fill-rule="nonzero">
            <path fill="#FFF" stroke="#1CA3DB" stroke-width="1.824" d="M63.189 4.115H325.28v137.758H63.189z"/>
            <g fill="#00A4E4">
                <path d="M59 72.883v72.883h270V0H59v72.883zm259.868 0v62.608H68.97V10.274h249.898v62.609z"/>
                <path d="M255.027 30.598c-3.457.305-7.397 1.092-10.42 2.07-6.385 2.056-11.273 5.042-16.033 9.793-5.5 5.49-9.054 11.768-11.032 19.441-1.093 4.319-1.334 6.39-1.334 11.623-.017 4.752.112 6.052.868 9.744 1.335 6.422 4.47 12.891 8.651 17.868 1.64 1.942 5.179 5.378 6.996 6.79 5.934 4.608 12.913 7.337 20.889 8.14 2.878.305 9.166.128 11.707-.305 6.11-1.06 11.514-3.307 16.016-6.695 6.385-4.8 11.257-11.815 13.573-19.553 1.286-4.318 1.769-7.705 1.881-13.549l.097-4.206h-34.14v11.72h10.292c8.12 0 10.291.047 10.291.192 0 .497-.98 4.013-1.43 5.153-1.802 4.51-4.922 8.556-8.62 11.173-1.56 1.092-4.664 2.665-6.352 3.21-6.625 2.136-14.44 1.51-20.986-1.685-8.25-4.013-14.055-11.767-15.904-21.223-1.174-6.004-.707-12.81 1.254-18.413 3.796-10.852 12.592-17.964 23.945-19.36 2.38-.29 7.622-.113 9.825.337 7.301 1.46 13.621 5.506 18.349 11.767l.933 1.252 1.141-1.108c.627-.594 2.621-2.504 4.439-4.222 1.817-1.717 3.312-3.162 3.344-3.21.097-.225-2.589-3.372-4.325-5.057-4.278-4.158-10.003-7.626-15.744-9.536-4.663-1.557-8.04-2.103-13.508-2.167-2.17-.016-4.261-.016-4.663.016zM130.673 33.263c-.21.465-8.973 19.04-19.474 41.257-10.485 22.234-19.072 40.455-19.072 40.503 0 .048 3.087.064 6.866.048l6.85-.048 4.52-9.985 4.518-9.985 17.529-.016h17.544l4.358 9.985 4.358 10.001 6.85.048c3.763.016 6.85-.016 6.85-.064 0-.128.515 1.011-26.13-58.258-3.683-8.22-7.623-16.952-8.717-19.425-1.11-2.472-2.09-4.591-2.17-4.703-.13-.129-.772-.193-2.22-.193h-2.074l-.386.835zm8.008 35.687c3.232 7.304 5.854 13.324 5.821 13.356-.032.032-5.467.032-12.06.016l-11.997-.048 6.127-13.372c3.361-7.353 6.143-13.34 6.175-13.309.032.032 2.702 6.036 5.934 13.357zM186.522 74.247v40.696h12.543V33.552h-12.543z"/>
            </g>
        </g>
    </g>
</svg>
