<svg xmlns="http://www.w3.org/2000/svg" width="100" height="100" viewBox="0 0 100 100">
    <g fill="none" fill-rule="nonzero">
        <path fill="#62CE46" d="M46.378 23.035c-.757.142-1.202.65-1.202 1.288 0 .546.314 1.014 1.202 1.184v-2.472z"/>
        <path fill="#62CE46" d="M44.827 37.484l2 4.828 1.937-4.853c5.296-.963 9.296-5.597 9.261-11.147-.04-6.222-5.132-11.23-11.373-11.191-6.241.04-11.268 5.115-11.228 11.336.034 5.55 4.094 10.134 9.403 11.027zm1.224-10.74c-1.331-.273-2.167-1.094-2.167-2.369 0-1.236 1.032-2.29 2.494-2.474v-1.365h1.02v1.379c1.606.208 2.232 1.276 2.44 2.121l-1.174.43a1.775 1.775 0 0 0-1.267-1.394v2.669l.195.04c1.451.286 2.326 1.249 2.326 2.42 0 1.158-.864 2.278-2.521 2.474v1.353h-1.02v-1.353c-1.814-.183-2.702-1.432-2.847-2.578l1.243-.39c.077.834.572 1.64 1.605 1.822v-2.72l-.327-.065z"/>
        <path fill="#62CE46" d="M48.638 28.267c0-.547-.391-1.055-1.24-1.249v2.511c.849-.156 1.24-.664 1.24-1.262z"/>
        <path fill="#FFF" d="M44.773 27.708l-1.242.389c.144 1.146 1.032 2.395 2.847 2.578v1.353h1.02v-1.353c1.657-.196 2.52-1.316 2.52-2.474 0-1.171-.875-2.134-2.326-2.42l-.195-.04v-2.669c.796.223 1.188.9 1.268 1.395l1.174-.43c-.21-.846-.835-1.914-2.441-2.122v-1.38h-1.02v1.366c-1.461.183-2.494 1.238-2.494 2.474 0 1.275.836 2.096 2.168 2.369l.327.065v2.72c-1.033-.182-1.528-.988-1.606-1.821zm2.624-.69c.85.194 1.24.702 1.24 1.25 0 .598-.39 1.105-1.24 1.261v-2.51zm-2.22-2.695c0-.638.444-1.146 1.201-1.288v2.473c-.888-.171-1.202-.64-1.202-1.185z"/>
        <path fill="#62CE46" d="M80.36 41.323l-3.063-2.051-4.33 6.423 3.06 2.052zM86.476 48.452L79.83 52.47l-1.902-3.147 6.645-4.018zM68.355 36.31l3.645.575-1.205 7.645-3.645-.574z"/>
        <path fill="#18302A" d="M86.672 63.703c1.739.34 3.21.672 4.37.99l.975-3.547c-1.248-.342-2.81-.696-4.637-1.052l-.708 3.61zM95.695 73.43c-.248.128-.785.354-1.858.606l.847 3.578c1.988-.467 4.31-1.257 4.602-3.225.043-.297.082-.58.119-.852l-3.66-.47c-.015.118-.032.24-.05.362zM79.282 81.028l-.484 3.646a8.792 8.792 0 0 0 5.618-1.137l-1.878-3.165a5.167 5.167 0 0 1-3.256.656zM82.77 59.282a196.732 196.732 0 0 0-4.612-.683l-.5 3.645c1.505.203 3.068.435 4.526.67l.586-3.632zM86.679 75.025a1.84 1.84 0 0 0-1.673 1.604 5.14 5.14 0 0 1-.311 1.22l3.435 1.341c.081-.205.154-.413.218-.627.55-.054 1.075-.11 1.574-.168l-.428-3.653a89.9 89.9 0 0 1-2.815.283zM72.761 61.674c.088.003.222.013.393.029l.304-3.357.067-.128c-.003-.004-.024-.013-.055-.03l.014-.148c-.137-.012-.25-.02-.345-.027-.561-.297-1.695-.889-3.174-1.633l-1.662 3.283c2.052 1.032 3.463 1.787 3.478 1.794.302.163.643.236.98.217zM35.563 79.13c1.352.015 2.877.026 4.615.038l.027-3.677c-1.736-.012-3.256-.024-4.604-.039l-.038 3.678zM4.779 67.69c-.014-.28-.025-.499-.04-.64a1.689 1.689 0 0 1-.014-.18.944.944 0 0 1-.2.5L1.82 64.867c-.535.574-.786 1.211-.786 2.007 0 .16.011.345.034.557.01.098.016.247.025.438.034.698.09 1.87.324 3.096l3.626-.683c-.186-.977-.233-1.95-.265-2.592zM20.936 56.955l-1.308-3.439a91.363 91.363 0 0 0-4.357 1.78l1.486 3.365a86.922 86.922 0 0 1 4.179-1.706zM29.518 54.283l-.876-3.573c-1.5.365-3.033.792-4.554 1.266l1.103 3.51a69.95 69.95 0 0 1 4.327-1.203zM73.153 75.608c-.288.003-.522.006-.698.006l.008 1.983-1.092.233a8.715 8.715 0 0 0 2.304 4.282l2.64-2.57a5.05 5.05 0 0 1-1.337-2.477 1.84 1.84 0 0 0-1.825-1.457zM15.348 74.398l-.577-.072-.248 1.917-1.244.04a8.697 8.697 0 0 0 1.589 4.745l3.02-2.114a5.05 5.05 0 0 1-.922-2.751 1.84 1.84 0 0 0-1.618-1.765zM22.052 81.073c-.498-.007-1-.072-1.475-.215l-1.066 3.52c.822.247 1.675.371 2.539.371h.003c1.099 0 2.172-.2 3.187-.596l-1.343-3.425a5.075 5.075 0 0 1-1.845.345zM6.407 72.813a.9.9 0 0 1-.164-.055L4.73 76.113c.278.124.573.222.876.29l.202.044c1.098.243 2.342.519 3.835.798l.677-3.616c-1.43-.266-2.642-.535-3.711-.771l-.202-.045zM6.934 56.595l.303 3.664c.978-.08 2.272-.124 3.741-.124.252 0 .488.003.706.004l.03-3.677c-.226-.002-.474-.003-.737-.003-1.59 0-2.95.045-4.043.136zM2.535 63.955c0 .284-.026.388-.027.392 0 0 .046-.166.232-.344l2.56 2.65c.83-.798.926-1.921.926-2.698 0-.617-.07-1.28-.136-1.924-.049-.463-.095-.9-.113-1.293l-3.686.169c.024.498.076 1.01.129 1.505.058.575.115 1.117.115 1.543zM47.526 49.062a55.101 55.101 0 0 0-4.32-.17l-.452.002.035 3.678.418-.001c1.34 0 2.696.052 4.028.157l.29-3.666zM63.234 79.266l4.613.015.01-3.678-4.609-.015zM27.06 76.867a5.033 5.033 0 0 1-.633 1.712l3.177 1.872a8.64 8.64 0 0 0 .67-1.398l.665.013.071-3.677c-.762-.015-1.448-.031-2.08-.048a1.825 1.825 0 0 0-1.87 1.526zM65.77 54.336c-1.533-.72-2.971-1.365-4.28-1.92L60.047 55.8c1.263.535 2.658 1.163 4.147 1.862l1.575-3.326zM96.02 68.825l3.684-.214c-.068-1.157-.529-3.375-2.856-5.234l-2.306 2.87c1.213.968 1.446 2.03 1.478 2.578zM57.036 50.71c-1.138-.375-2.086-.624-2.902-.763l-.297-.052c-.48-.082-1.01-.172-1.59-.264l-.579 3.632c.564.091 1.08.179 1.548.257l.297.052c.62.106 1.417.318 2.365.63l1.158-3.492zM44.79 79.194l4.612.022.016-3.678-4.61-.021zM54.012 79.234l4.613.016.01-3.678-4.608-.016zM37.999 49.132c-1.55.142-3.137.35-4.713.618l.62 3.625a57.85 57.85 0 0 1 4.43-.58l-.337-3.663z"/>
    </g>
</svg>
