<svg xmlns="http://www.w3.org/2000/svg" width="80" height="21" viewBox="0 0 80 21">
    <g fill="none" fill-rule="evenodd">
        <path fill="#FFF" d="M0 14.567v-.513h4.042v.428c0 1.852 1.536 3.192 4.373 3.192 2.501 0 4.129-1.056 4.129-2.908 0-1.11-.572-1.91-1.988-2.25l-5.52-1.343C1.84 10.405.333 9.008.333 6.016.333 2.25 3.348 0 8.083 0c4.672 0 7.629 2.452 7.629 5.958v.485h-3.89v-.398c0-1.683-1.147-2.965-3.74-2.965-2.232 0-3.678.854-3.678 2.593 0 1.169.632 1.824 1.808 2.11l5.79 1.453c3.105.77 4.613 2.508 4.613 5.217 0 3.79-3.587 6.3-8.35 6.3C3.287 20.753 0 18.47 0 14.567"/>
        <path fill="#17D320" d="M36.768 20.353h-4.432l-4.734-6.983-4.733 6.983h-4.434l6.996-10.175L18.736.4h4.343l4.523 6.643L32.125.399h4.344l-6.696 9.78z"/>
        <path fill="#FFF" d="M40.009.4h4.221v9.578L51.679.399h4.913l-7.931 9.892 8.174 10.062h-4.977l-7.628-9.776v9.776h-4.221zM79.37 20.353h-4.042V8.096l-3.95 7.41h-3.74l-3.95-7.41v12.257H59.65V.4h3.89l5.97 11.403L75.477.399h3.893z"/>
    </g>
</svg>
