<svg xmlns="http://www.w3.org/2000/svg" xmlns:xlink="http://www.w3.org/1999/xlink" width="168" height="40" viewBox="0 0 168 40">
    <defs>
        <path id="a" d="M0 .195h51.696v27.019H0z"/>
        <path id="c" d="M0 40h168V0H0z"/>
    </defs>
    <g fill="none" fill-rule="evenodd">
        <path fill="#6CB644" d="M4.33 33.771l1.193-2.006h4.917l1.63 1.801 2.515.511c2.128.486 1.85 2.403 1.85 2.403h-.924v.002c0 .643-.563 1.165-1.259 1.165-.695 0-1.259-.522-1.259-1.165v-.002H5.79v.002c0 .643-.564 1.165-1.259 1.165s-1.259-.522-1.259-1.165v-.002H2.35v-1.401c.184-1.143 1.98-1.308 1.98-1.308"/>
        <path fill="#050302" d="M25.96 26.147c-.107 0-.21.02-.307.05L15.84 11.9a.313.313 0 0 0-.431-.082.303.303 0 0 0-.084.424l9.812 14.297a1.023 1.023 0 0 0-.239.652c0 .576.476 1.044 1.061 1.044.586 0 1.061-.468 1.061-1.044 0-.577-.475-1.044-1.06-1.044"/>
        <path fill="#6CB644" d="M27.021 6.1V2.372a31.673 31.673 0 0 0-2.35.005V6.1c0 .527.529.959 1.175.959s1.175-.432 1.175-.959zM18.719 7.774l-1.535-4.245c-.649.27-1.286.572-1.911.907l1.534 4.245c.218.602.826.89 1.352.641.526-.25.778-.946.56-1.548zM12.615 11.138L9.72 8.235a23.09 23.09 0 0 0-1.495 1.491l2.9 2.907a1.056 1.056 0 0 0 1.491-1.495zM8.67 18.01l-4.24-1.54c-.167.312-.329.626-.48.947-.151.32-.291.642-.426.965l4.242 1.54c.6.217 1.295-.034 1.543-.56.249-.526-.039-1.135-.639-1.352zM43.93 19.922l4.238-1.537c-.269-.65-.571-1.289-.906-1.914l-4.239 1.537c-.6.218-.889.827-.64 1.353.25.526.945.779 1.546.56zM40.57 12.633l2.899-2.9c-.473-.519-.968-1.02-1.49-1.498l-2.902 2.905a1.06 1.06 0 0 0 0 1.493c.41.41 1.083.41 1.493 0zM33.708 8.682l1.537-4.247a21.863 21.863 0 0 0-.945-.48c-.32-.153-.642-.292-.965-.426L31.8 7.777c-.218.601.034 1.296.559 1.545.525.25 1.132-.039 1.35-.64z"/>
        <mask id="b" fill="#fff">
            <use xlink:href="#a"/>
        </mask>
        <path fill="#27453F" d="M35.743 2.17C22.576-3.304 7.431 2.994 1.977 16.21A25.944 25.944 0 0 0 .023 27.214h6.296a1.08 1.08 0 0 0 1.074-1.078 1.08 1.08 0 0 0-1.074-1.079H2.13a23.846 23.846 0 0 1 1.406-7.033c.122-.337.25-.673.387-1.006.138-.334.286-.662.437-.986a23.672 23.672 0 0 1 3.967-5.964 23.816 23.816 0 0 1 9.45-6.324 23.744 23.744 0 0 1 9.15-1.41c2.343.105 4.702.562 7.007 1.401.335.123.67.25 1.003.388.333.138.659.286.982.438a23.571 23.571 0 0 1 5.942 3.982 23.917 23.917 0 0 1 6.3 9.485 23.99 23.99 0 0 1 1.399 7.029h-4.172a1.08 1.08 0 0 0 0 2.157h6.287c.427-10.56-5.651-20.77-15.932-25.044" mask="url(#b)"/>
        <mask id="d" fill="#fff">
            <use xlink:href="#c"/>
        </mask>
        <path fill="#27453F" d="M1.782 38.264h48.129v-5.94H1.782v5.94zM0 30.588V40H51.692v-9.412H0z" mask="url(#d)"/>
        <g fill="#27453F" mask="url(#d)">
            <path d="M69.851 11.329l-5.163-1.376c-1.37-.366-1.954-1.08-1.954-2.388 0-1.822 1.458-2.911 3.9-2.911 2.483 0 4.025 1.232 4.025 3.217v.731h2.555V7.82c0-3.207-2.706-5.445-6.58-5.445-3.952 0-6.505 2.097-6.505 5.342 0 2.365 1.278 3.893 3.796 4.542l5.037 1.325c1.04.273 2.283.94 2.283 2.567 0 2.028-1.589 3.19-4.358 3.19-2.677 0-4.407-1.342-4.407-3.42v-.757H59.9v.808c0 3.326 2.873 5.649 6.987 5.649 4.165 0 6.963-2.26 6.963-5.624 0-2.286-1.457-3.987-3.999-4.668M89.49 18.909h-9.793V13.06h9.03v-2.356h-9.03V5.087h9.767V2.73H77.015v18.533H89.49zM99.345 14.31h4.985v.108c0 3.159-1.7 4.899-4.789 4.899-4.432 0-5.094-3.692-5.094-5.893V10.47c0-2.143.645-5.739 4.967-5.739 3.202 0 4.7 2.12 4.764 4.222l.01.338h2.577l-.007-.356c-.085-3.923-3.047-6.56-7.37-6.56-4.702 0-7.623 3.132-7.623 8.172v2.828c0 5.01 3.043 8.247 7.75 8.247 4.508 0 7.42-2.917 7.42-7.432v-2.235h-7.59v2.356zM117.368 21.621c4.302 0 7.192-2.7 7.192-6.719V2.732h-2.682V15.08c0 2.582-1.728 4.186-4.51 4.186-2.78 0-4.508-1.604-4.508-4.186V2.731h-2.682v12.171c0 4.02 2.89 6.719 7.19 6.719M131.018 5.036h4.764c2.404 0 3.898 1.427 3.898 3.726 0 2.318-1.458 3.702-3.898 3.702h-4.764V5.036zm7.663 9.241c2.283-.892 3.682-2.97 3.682-5.515 0-3.664-2.484-6.031-6.327-6.031h-7.7v18.533h2.682v-6.522h4.94l3.611 6.522h3.069l-3.957-6.987zM157.89 10.47v3.056c0 3.594-1.924 5.74-5.145 5.74-3.223 0-5.146-2.146-5.146-5.74v-3.057c0-3.593 1.923-5.739 5.146-5.739 3.221 0 5.144 2.146 5.144 5.74m-5.144-8.095c-4.756 0-7.828 3.218-7.828 8.196v2.854c0 4.979 3.072 8.196 7.828 8.196 4.754 0 7.827-3.217 7.827-8.196V10.57c0-4.978-3.073-8.196-7.827-8.196M70.23 27.712h-2.457l-2.639 3.89-2.639-3.89h-2.458l3.868 5.719-4.005 5.9h2.49l2.744-4.066 2.744 4.067h2.49l-4.005-5.901zM84.187 27.712h-2.841l-4.026 4.352v-4.352h-2.213v11.62h2.213v-4.47l4.193 4.47h2.849l-5.564-5.872zM84.95 39.332h2.212v-11.62H84.95zM91.69 27.712h-2.213v11.62h7.632v-2.02H91.69zM106.118 23.975h-2.663l-1.668 2.921h2.294zM100.038 32.615c0-.93.267-3.093 2.742-3.093s2.742 2.163 2.742 3.093v1.814c0 .93-.267 3.095-2.742 3.095s-2.742-2.164-2.742-3.095v-1.814zm2.742-5.114c-3.01 0-4.955 2.031-4.955 5.175v1.692c0 3.144 1.944 5.175 4.955 5.175 3.01 0 4.955-2.03 4.955-5.175v-1.692c0-3.144-1.945-5.175-4.955-5.175zM114.765 34.055l-3.166-6.342h-1.94v11.62h2.153V32.67l2.076 4.106h1.754l2.077-4.106v6.661h2.152v-11.62h-1.94zM124.325 34.464h5.358v-2.02h-5.358v-2.711h5.795v-2.02h-8.008v11.619h8.024v-2.02h-5.811zM130.882 29.733h3.23v9.599h2.214v-9.6h3.229v-2.02h-8.673zM143.057 29.703h2.517c1.253 0 2.002.71 2.002 1.9 0 .704-.26 1.884-2.002 1.884h-2.517v-3.784zm6.732 1.9c0-2.327-1.634-3.89-4.064-3.89h-4.88v11.619h2.212v-3.87h2.438l2.143 3.87h2.537l-2.441-4.311c1.282-.638 2.055-1.9 2.055-3.419zM153.428 32.615c0-.93.267-3.093 2.742-3.093s2.742 2.163 2.742 3.093v1.814c0 .93-.267 3.095-2.742 3.095s-2.742-2.164-2.742-3.095v-1.814zm2.742-5.114c-3.01 0-4.955 2.031-4.955 5.175v1.692c0 3.144 1.944 5.175 4.955 5.175 3.01 0 4.955-2.03 4.955-5.175v-1.692c0-3.144-1.945-5.175-4.955-5.175zM164.684 36.49h.505c.428 0 .82-.02.82-.51 0-.416-.361-.48-.687-.48h-.638v.99zm-.48-1.385h1.2c.737 0 1.088.292 1.088.89 0 .565-.355.797-.818.85l.89 1.374h-.517l-.853-1.337h-.51v1.337h-.48v-3.114zm1.037 3.84c1.23 0 2.184-.989 2.184-2.293 0-1.272-.955-2.257-2.184-2.257-1.247 0-2.2.985-2.2 2.257 0 1.304.953 2.293 2.2 2.293zm0-4.944a2.65 2.65 0 0 1 2.666 2.65 2.652 2.652 0 0 1-2.666 2.68c-1.46 0-2.683-1.142-2.683-2.68 0-1.5 1.224-2.65 2.683-2.65z"/>
        </g>
    </g>
</svg>
