<svg xmlns="http://www.w3.org/2000/svg" xmlns:xlink="http://www.w3.org/1999/xlink" width="129" height="44" viewBox="0 0 129 44">
    <defs>
        <linearGradient id="a" x1="58.917%" x2="90.81%" y1="9.59%" y2="60.851%">
            <stop offset="0%" stop-color="#FF177B"/>
            <stop offset="100%" stop-color="#FFEC73"/>
        </linearGradient>
        <linearGradient id="c" x1="37.103%" x2="0%" y1="-44.035%" y2="101.06%">
            <stop offset="0%" stop-color="#064AA2"/>
            <stop offset="100%" stop-color="#63FFD4"/>
        </linearGradient>
        <path id="b" d="M12.095 11.176L.435 0C.163.064 0 .27 0 .616V22c0 .294.117.469.261.528l11.834-11.352z"/>
        <path id="e" d="M.482 12.143L7.22 8.4l2.977-1.668 4.9-2.67L11.837.855.002 12.208c.132.043.364.02.546-.071"/>
        <linearGradient id="f" x1="78.645%" x2="2.495%" y1="50%" y2="100%">
            <stop offset="0%" stop-color="#FF4521"/>
            <stop offset="100%" stop-color="#8A33DB"/>
        </linearGradient>
        <linearGradient id="i" x1="0%" x2="64.224%" y1="-24.186%" y2="100%">
            <stop offset="0%" stop-color="#00A3B5"/>
            <stop offset="100%" stop-color="#D6FFA1"/>
        </linearGradient>
        <path id="h" d="M1.52.999C1.294.877 1.071.843.89.892l11.67 11.192 3.228-3.09-4.866-2.726-7.357-4.122L1.52.999z"/>
    </defs>
    <g fill="none" fill-rule="evenodd" transform="translate(.481)">
        <rect width="128.519" height="44" fill="#000" rx="2.7"/>
        <path fill="url(#a)" d="M11.356 6.268l-9.388-5.26C1.446.716.928.893.928 1.503v21.429c0 .457.37.655.823.401l9.605-5.382 1.865-1.044 3.001-1.681 4.679-2.621c.548-.308.495-.73.033-.972-.464-.242-4.712-2.639-4.712-2.639l-4.866-2.726z" transform="translate(4.322 14.854)"/>
        <g transform="translate(5.22 15.752)">
            <mask id="d" fill="#fff">
                <use xlink:href="#b"/>
            </mask>
            <use fill="url(#c)" xlink:href="#b"/>
            <path d="M15.314 8.096l-4.872-2.728C10.425 5.408 1.56.43 1.044.176.52-.154 0 .023 0 .616v21.472c0 .472.37.67.783.44.493-.277 9.642-5.416 9.659-5.456l4.872-2.728c-.025.038 4.102-2.28 4.612-2.552.588-.344.535-.766.087-.968-.478-.284-4.724-2.685-4.699-2.728" mask="url(#d)"/>
        </g>
        <g transform="translate(5.48 26.074)">
            <mask id="g" fill="#fff">
                <use xlink:href="#e"/>
            </mask>
            <path fill="url(#f)" d="M10.182-4.954c-.017.04-8.88-4.938-9.397-5.192-.526-.331-1.045-.154-1.045.44v21.472c0 .471.371.67.784.44.492-.278 9.641-5.416 9.658-5.456l4.873-2.728c-.026.038 4.102-2.28 4.612-2.552.587-.344.534-.767.087-.968-.478-.284-4.725-2.685-4.7-2.728l-4.872-2.728z" mask="url(#g)"/>
        </g>
        <g transform="translate(4.755 14.854)">
            <mask id="j" fill="#fff">
                <use xlink:href="#h"/>
            </mask>
            <use fill="url(#i)" xlink:href="#h"/>
            <path d="M15.78 8.994l-4.873-2.728c-.017.04-8.88-4.938-9.397-5.192C.984.744.465.921.465 1.514v21.472c0 .472.371.67.784.44.492-.277 9.641-5.416 9.658-5.456l4.873-2.728c-.025.038 4.102-2.28 4.612-2.552.587-.344.535-.767.087-.968-.478-.284-4.724-2.685-4.7-2.728" mask="url(#j)"/>
        </g>
        <g fill="#FFF">
            <path d="M88.024 30.7l-.963.925c-.223.125-.445.27-.665.372-.67.31-1.35.387-1.955.387-.644 0-1.652-.043-2.682-.8-1.43-1.024-2.055-2.786-2.055-4.32 0-3.178 2.543-4.736 4.617-4.736.725 0 1.47.185 2.075.574 1.006.677 1.266 1.557 1.41 2.028l-4.735 1.947-1.551.122c.502 2.606 2.234 4.121 4.149 4.121.956 0 1.666-.318 2.318-.645 0 0 .13-.07.037.026zm-2.893-5.226c.38-.143.577-.267.577-.554 0-.824-.9-1.776-1.974-1.776-.796 0-2.29.642-2.29 2.871 0 .348.04.718.06 1.089l3.627-1.63z"/>
            <path d="M78.14 30.59c0 .793.14.917.8.98.344.04.686.059 1.025.1l-.742.45h-3.539c.464-.613.544-.674.544-1.083v-.456l-.008-12.155h-1.562l1.504-.738h2.872c-.623.367-.81.59-.889 1.306L78.14 30.59"/>
            <path d="M72.65 23.531c.46.386 1.421 1.205 1.421 2.758 0 1.514-.837 2.227-1.681 2.903-.26.266-.562.554-.562 1 0 .452.303.698.52.88l.725.57c.88.758 1.683 1.453 1.683 2.864 0 1.923-1.825 3.862-5.273 3.862-2.905 0-4.31-1.41-4.31-2.923 0-.736.36-1.779 1.545-2.493 1.243-.775 2.927-.878 3.829-.939-.282-.37-.603-.759-.603-1.392 0-.347.102-.553.2-.797-.219.021-.44.043-.64.043-2.127 0-3.329-1.617-3.329-3.211 0-.94.42-1.983 1.285-2.74 1.143-.959 2.506-1.124 3.589-1.124h4.13l-1.284.739H72.65zm-1.41 9.051c-.166-.022-.266-.022-.466-.022-.183 0-1.275.04-2.12.333-.448.168-1.74.666-1.74 2.144 0 1.475 1.395 2.539 3.555 2.539 1.94 0 2.97-.958 2.97-2.247 0-1.061-.666-1.621-2.2-2.747zm.567-3.937c.461-.47.501-1.12.501-1.489 0-1.465-.856-3.748-2.515-3.748-.518 0-1.078.265-1.397.675-.337.425-.438.975-.438 1.505 0 1.365.78 3.628 2.494 3.628.5 0 1.039-.248 1.355-.57zM60.156 32.384c-3.194 0-4.902-2.548-4.902-4.855 0-2.695 2.148-5.001 5.203-5.001 2.953 0 4.803 2.369 4.803 4.856 0 2.43-1.828 5-5.104 5zm2.497-1.666c.488-.66.606-1.485.606-2.29 0-1.817-.846-5.284-3.346-5.284-.665 0-1.335.266-1.817.7-.788.723-.928 1.63-.928 2.521 0 2.04.984 5.403 3.428 5.403.788 0 1.593-.39 2.057-1.05zM49.453 32.384c-3.196 0-4.902-2.548-4.902-4.855 0-2.695 2.15-5.001 5.205-5.001 2.953 0 4.801 2.369 4.801 4.856 0 2.43-1.826 5-5.104 5zm2.498-1.666c.484-.66.605-1.485.605-2.29 0-1.817-.849-5.284-3.347-5.284-.668 0-1.33.266-1.815.7-.789.723-.929 1.63-.929 2.521 0 2.04.99 5.403 3.43 5.403.787 0 1.59-.39 2.056-1.05zM43.226 31.775l-2.705.63c-1.096.176-2.08.331-3.122.331-5.217 0-7.205-3.909-7.205-6.968 0-3.736 2.816-7.2 7.64-7.2 1.02 0 2.003.153 2.897.401 1.418.405 2.08.905 2.495 1.198l-1.571 1.519-.663.15.473-.766c-.64-.636-1.816-1.81-4.048-1.81-2.984 0-5.235 2.31-5.235 5.68 0 3.62 2.57 7.026 6.693 7.026 1.211 0 1.835-.248 2.4-.479v-3.103l-2.855.156 1.514-.828h4.008l-.49.48c-.133.115-.15.154-.188.307-.02.175-.038.733-.038.929v2.347M93.862 30.795v5.197h-1.019V22.767h1.019v1.506c.663-.973 1.875-1.745 3.283-1.745 2.525 0 4.226 1.942 4.226 5.015 0 3.053-1.7 5.036-4.226 5.036-1.33 0-2.52-.695-3.283-1.784zm6.465-3.172c0-2.341-1.196-4.127-3.316-4.127-1.317 0-2.576 1.056-3.123 1.977v4.278c.547.923 1.806 2.017 3.123 2.017 2.12 0 3.316-1.8 3.316-4.145zM102.763 19.096h1.044v13.288h-1.044zM115.16 35.077c.217.098.589.159.824.159.623 0 1.057-.258 1.446-1.17l.743-1.707-4.011-9.655h1.136l3.44 8.367 3.408-8.367h1.152l-4.892 11.682c-.508 1.203-1.307 1.782-2.404 1.782-.33 0-.763-.06-1.018-.139l.175-.952M112.286 32.37c-.069-.333-.12-.627-.158-.873a5.939 5.939 0 0 1-.05-.75c-.35.522-.848.957-1.483 1.3-.636.344-1.24.513-2.069.513-.998 0-1.772-.249-2.325-.753-.55-.504-.828-1.187-.828-2.051 0-.863.402-1.564 1.202-2.1.8-.538 1.835-.805 3.115-.805h2.389v-1.196c0-.69-.232-1.231-.695-1.624-.464-.393-1.116-.592-1.96-.592-.772 0-1.399.182-1.876.536-.473.36-.71.808-.71 1.348h-1.049l-.021-.052c-.038-.727.29-1.365.988-1.916.694-.55 1.605-.827 2.725-.827 1.116 0 2.02.272 2.7.816.681.538 1.022 1.316 1.022 2.333v4.749c0 .34.017.67.059.991.043.322.112.643.204.954h-1.18zm-3.637-.69c.87 0 1.494-.198 2.133-.59.634-.39 1.065-.897 1.291-1.512V27.72h-2.397c-.916 0-1.675.207-2.271.623-.598.416-.9.92-.9 1.504 0 .552.191.993.573 1.328.382.338.905.505 1.571.505z"/>
        </g>
        <g fill="#FFF">
            <path d="M29.85 10.147c0-1.895 1.496-3.114 3.357-3.114 1.248 0 2.063.56 2.572 1.245l-.911.497a2.106 2.106 0 0 0-1.66-.803c-1.267 0-2.207.902-2.207 2.175 0 1.255.94 2.176 2.206 2.176.653 0 1.228-.28 1.516-.542v-.93h-1.919v-.93h3.032v2.248c-.623.66-1.525 1.102-2.629 1.102-1.861 0-3.358-1.237-3.358-3.124M37.287 13.179V7.124h4.445v.936h-3.306v1.56h3.238v.936h-3.238v1.688h3.306v.935h-4.445M44.755 13.179v-5.12h-1.934v-.935h4.989v.936h-1.934v5.119h-1.121M51.8 7.124h1.09v6.055H51.8zM56.003 13.179v-5.12H54.07v-.935h4.989v.936h-1.934v5.119h-1.12M62.777 10.152c0-1.8 1.369-3.12 3.31-3.12 1.932 0 3.311 1.32 3.311 3.12 0 1.799-1.379 3.119-3.31 3.119-1.942 0-3.311-1.32-3.311-3.12zm5.442-.046c0-1.235-.839-2.156-2.131-2.156-1.302 0-2.132.921-2.132 2.156 0 1.225.83 2.156 2.132 2.156 1.292 0 2.131-.931 2.131-2.156zM75.12 13.179l-3.332-4.33v4.33h-1.12V7.124h1.15l3.264 4.194V7.124h1.12v6.055H75.12"/>
        </g>
    </g>
</svg>
