<?xml version="1.0" encoding="utf-8"?>
<!-- Generator: Adobe Illustrator 22.0.0, SVG Export Plug-In . SVG Version: 6.00 Build 0)  -->
<svg version="1.1" id="Capa_1" xmlns="http://www.w3.org/2000/svg" xmlns:xlink="http://www.w3.org/1999/xlink" x="0px" y="0px"
	 viewBox="0 0 94.5 93.6" style="enable-background:new 0 0 94.5 93.6;" xml:space="preserve">
<style type="text/css">
	.st0{fill:#FFFFFF;}
	.st1{fill:#10312B;}
	.st2{fill:#76BC21;}
	.st3{fill:#D6C6AF;}
	.st4{fill:#162E2C;}
</style>
<g>
	<g>
		<circle class="st0" cx="47.2" cy="46.4" r="46.2"/>
		<path class="st1" d="M47.2,93.6c-12.6,0-24.5-4.9-33.4-13.8C4.9,70.9,0,59.1,0,46.4C0,33.8,4.9,22,13.8,13.1
			c18.4-18.4,48.3-18.4,66.7,0l0,0C99,31.5,99,61.4,80.6,79.8C71.6,88.7,59.8,93.6,47.2,93.6z M47.2,1.3c-11.6,0-23.1,4.4-32,13.2
			C6.7,23,2,34.4,2,46.4c0,12.1,4.7,23.4,13.2,32c8.5,8.5,19.9,13.2,32,13.2s23.4-4.7,32-13.2c17.6-17.6,17.6-46.3,0-63.9
			C70.3,5.7,58.8,1.3,47.2,1.3z"/>
	</g>
	<g>
		<g>
			<g>
				<path class="st2" d="M70.8,62.4c-0.4-1.5-0.9-3.1-1.5-4.6c-0.7-1.7-1.4-3.1-2.2-4c-1.5-1.5-8.8-4.2-12.1-5.3
					c-0.2,0.2-0.5,0.4-0.8,0.6c-0.2,0.2-0.5,0.3-0.8,0.5c-0.2,0.1-0.5,0.3-0.8,0.4c-0.4,0.2-0.9,0.4-1.3,0.5
					c-0.9,0.3-1.9,0.5-3.1,0.5c-0.4,0-0.8,0-1.2-0.1c-1.6-0.2-2.8-0.6-3.7-1.1c-0.3-0.2-0.5-0.3-0.8-0.5c-0.3-0.2-0.6-0.4-0.8-0.6
					c-0.1-0.1-0.1-0.1-0.2-0.2c-3.5,1.2-11.4,4.1-13,5.7c-0.8,0.8-1.5,2-2.2,3.4c-0.7,1.6-1.4,3.3-1.9,4.7c-0.3,0.9-0.5,1.7-0.7,2.3
					c0.2,0,0.5,0,0.8,0c0.2,0,0.4,0,0.6,0c0.1,0,0.2,0,0.3,0c0.2-0.1,0.4-0.1,0.7-0.1c0.4,0,0.8,0.2,1.1,0.4
					c0.2,0.1,0.4,0.1,0.7,0.2c0.1,0,0.2,0.1,0.3,0.1c0.7-1.1,1.6-2.1,2.5-3c0.1-0.1,0.3-0.2,0.4-0.4c0.2-0.2,0.4-0.4,0.6-0.6
					c0.2-0.2,0.4-0.4,0.6-0.5c2.9-2.4,6.4-4.1,10.2-4.9c7.2-1.4,14.6,0.7,20,5.7c0.2,0.2,0.4,0.4,0.6,0.6c0,0,0,0,0,0
					c0,0,0.1,0.1,0.1,0.1c0.1,0.1,0.3,0.3,0.4,0.4c0.9,0.9,1.6,1.9,2.3,2.9c0.2-0.6,0.9-1.1,1.6-1.1c0.8,0,1.4,0.5,1.6,1.2
					c0.4,0,0.9,0,1.3,0c0.3,0,0.5,0,0.8,0c0.1,0,0.2,0,0.3,0C71.5,65.2,71.2,63.9,70.8,62.4z"/>
				<g>
					<path class="st3" d="M52.6,48.3l0-2.1c-1.8,1.1-3.4,1.4-4.1,1.4c0,0,0,0-0.1,0c-1.8,0-3.6-0.7-5-1.4l0,1.9
						c0.9,0.6,2.5,1.4,4.8,1.4C50.1,49.5,51.6,48.9,52.6,48.3z"/>
					<path class="st0" d="M24.6,68v-0.9c-0.1,0.5-0.3,0.9-0.4,1.4h0.5C24.6,68.4,24.6,68.2,24.6,68z"/>
					<path class="st0" d="M70.9,67.6c-0.5,0-1-0.1-1.6-0.1V68c0,0.2,0,0.3-0.1,0.5h1.8C71.1,68.2,71,67.9,70.9,67.6z"/>
					<path class="st3" d="M26.2,68.5c0.1,0,0.3,0,0.4,0.1c0.3-0.6,0.6-1.2,0.9-1.8v-0.1v-0.4c0-0.2,0-0.3-0.1-0.5
						c-0.2-0.4-0.6-0.7-1.1-0.7c-0.4,0-0.7,0.2-0.9,0.4c-0.2,0.2-0.3,0.5-0.3,0.7c0,0,0,0,0,0.1V68c0,0.2,0,0.3,0.1,0.5H26.2z"/>
					<path class="st3" d="M67.2,67.6c0.2,0.3,0.3,0.6,0.5,0.9c0.1,0,0.1,0,0.2,0h1c0.1-0.2,0.1-0.3,0.1-0.5v-0.5v-0.8v-0.3
						c0-0.2,0-0.3-0.1-0.5c-0.2-0.4-0.6-0.8-1.1-0.8c-0.6,0-1.1,0.4-1.2,1c0,0.1,0,0.1,0,0.2c0.1,0.2,0.2,0.3,0.3,0.5
						C66.9,67.1,67.1,67.4,67.2,67.6z"/>
					<path class="st2" d="M33.4,68.5c-0.1,0.1-0.2,0.3-0.3,0.4c-0.1,0.2-0.2,0.4-0.4,0.6c-0.2,0.3-0.4,0.7-0.6,1.1
						c-0.5,1-0.9,2-1.2,3.1h0.6h1.1h0.8h0.8H39c0.3-0.6,0.7-1.1,1.2-1.6l-5.3-5.3C34.4,67.3,33.9,67.9,33.4,68.5z"/>
					<path class="st0" d="M52.6,62.4c-2.8-0.9-5.7-1.1-8.8-0.6c-0.7,0.1-1.4,0.3-2.1,0.6c-1,0.3-2,0.8-2.9,1.3l5.6,5.6
						c0.3-0.1,0.6-0.2,1-0.3c1.6-0.3,3.3-0.2,4.8,0.3l5.6-5.6C54.7,63.2,53.7,62.8,52.6,62.4z"/>
					<path class="st0" d="M62.2,70.7c-0.2-0.4-0.4-0.8-0.6-1.1c-0.6-1-1.3-1.9-2.1-2.7l-5.2,5.2c0.4,0.5,0.8,1,1.1,1.5H61h0.8h0.8
						h0.7c-0.2-0.5-0.3-1-0.5-1.5C62.6,71.6,62.4,71.2,62.2,70.7z"/>
					<path class="st3" d="M21.8,71.4L21.8,71.4l0.8,0h0.7h2.1h0.7c0.7,0,1.2-0.5,1.2-1.2c0-0.3-0.1-0.5-0.2-0.7
						c0-0.1-0.1-0.1-0.2-0.2c-0.1-0.1-0.1-0.1-0.2-0.2c-0.1-0.1-0.2-0.1-0.4-0.1c-0.1,0-0.1,0-0.2,0h-0.6h-0.4h-0.3H24h-0.6h-0.8
						h-0.7c-0.7,0-1.2,0.5-1.2,1.2C20.7,70.9,21.2,71.4,21.8,71.4z M25.9,69.2c0.1,0,0.2-0.1,0.4-0.1c0,0,0.1,0,0.1,0
						c0.1,0,0.2,0,0.3,0.1c0.1,0,0.2,0.1,0.2,0.2c0.1,0.1,0.1,0.1,0.1,0.2c0.1,0.1,0.1,0.3,0.1,0.4v0.4c0,0.5-0.4,0.9-0.9,0.9
						c-0.3,0-0.5-0.1-0.6-0.3c-0.2-0.2-0.3-0.4-0.3-0.6V70c0-0.2,0.1-0.3,0.2-0.5c0-0.1,0.1-0.1,0.2-0.2
						C25.7,69.2,25.8,69.2,25.9,69.2z"/>
					<path class="st3" d="M21.8,74.7C21.8,74.7,21.8,74.7,21.8,74.7l0.7,0h2.2h2.4c0.2,0,0.4-0.1,0.6-0.2c0.4-0.2,0.6-0.6,0.6-1.1
						c0-0.3-0.1-0.5-0.2-0.7c-0.2-0.3-0.6-0.5-1-0.5h-1.9h-2.1h-0.7h-0.6c-0.1,0-0.2,0-0.3,0c-0.5,0.1-1,0.6-1,1.2
						c0,0.3,0.2,0.7,0.4,0.9C21.2,74.5,21.5,74.6,21.8,74.7z M26.3,73.3c0-0.5,0.4-0.9,0.9-0.9c0.4,0,0.8,0.3,0.9,0.7
						c0,0.1,0,0.1,0,0.2v0.4c0,0.3-0.1,0.5-0.4,0.7c-0.2,0.1-0.3,0.2-0.6,0.2c-0.5,0-0.9-0.4-0.9-0.9V73.3z"/>
					<path class="st3" d="M27.9,75.5h-0.3h-3h-2.3h-0.4c-0.1,0-0.2,0-0.3,0.1c-0.5,0.1-0.9,0.6-0.9,1.2c0,0.3,0.1,0.7,0.4,0.9
						c0.2,0.2,0.4,0.3,0.7,0.3c0.1,0,0.1,0,0.2,0h2.5h2.9h0.5l0,0c-0.2,0-0.4-0.1-0.5-0.2C27.1,77.6,27,77.3,27,77v-0.4
						c0-0.4,0.2-0.7,0.5-0.8c0.1-0.1,0.2-0.1,0.4-0.1c0.5,0,0.9,0.4,0.9,0.9v0V77c0,0.3-0.2,0.6-0.5,0.8c-0.1,0-0.1,0.1-0.2,0.1
						c0.1,0,0.1,0,0.2,0c0.4-0.2,0.8-0.6,0.8-1.1c0-0.2,0-0.4-0.1-0.5C28.8,75.8,28.3,75.5,27.9,75.5z"/>
					<path class="st0" d="M28.2,77.8c-0.1,0-0.2,0-0.2,0.1C28,77.9,28.1,77.9,28.2,77.8z"/>
					<path class="st3" d="M28.3,77v-0.4c0-0.2-0.2-0.4-0.4-0.4c-0.2,0-0.4,0.2-0.4,0.4V77c0,0.2,0.2,0.4,0.4,0.4
						C28.1,77.4,28.3,77.2,28.3,77z"/>
					<path class="st3" d="M27.2,74.2c0.2,0,0.4-0.2,0.4-0.4v-0.4c0-0.2-0.2-0.4-0.4-0.4c-0.2,0-0.4,0.2-0.4,0.4v0.4
						C26.7,74,26.9,74.2,27.2,74.2z"/>
					<path class="st3" d="M26.2,70.8c0.2,0,0.4-0.2,0.4-0.4V70c0-0.1,0-0.2-0.1-0.3c-0.1-0.1-0.2-0.1-0.3-0.1c0,0-0.1,0-0.1,0
						c-0.1,0-0.1,0-0.2,0.1c-0.1,0.1-0.1,0.2-0.1,0.3v0.4l0,0C25.8,70.6,26,70.8,26.2,70.8z"/>
					<path class="st3" d="M68.4,69h-0.5h-0.1c-0.2,0-0.4,0.1-0.6,0.2c-0.1,0-0.2,0.1-0.2,0.2c-0.1,0.1-0.1,0.1-0.2,0.2
						c-0.2,0.2-0.2,0.5-0.2,0.7c0,0.7,0.5,1.2,1.2,1.2h1h2.9h0.4c0.2,0,0.4-0.1,0.6-0.2c0.1-0.1,0.2-0.1,0.3-0.2
						c0.2-0.2,0.3-0.5,0.3-0.8c0-0.5-0.3-0.9-0.7-1.1C72.5,69,72.3,69,72.1,69l0,0h-0.9h-2.2h-0.3H68.4z M67.8,71.3
						c-0.5,0-0.9-0.4-0.9-0.9V70c0-0.2,0-0.3,0.1-0.4c0-0.1,0.1-0.1,0.1-0.2c0.1-0.1,0.2-0.1,0.2-0.2c0.1-0.1,0.3-0.1,0.4-0.1
						c0.1,0,0.1,0,0.2,0c0.1,0,0.1,0,0.2,0c0.1,0,0.2,0.1,0.2,0.2c0.1,0.1,0.1,0.1,0.2,0.2c0.1,0.1,0.2,0.3,0.2,0.5v0.4
						c0,0.1,0,0.3-0.1,0.4C68.4,71.1,68.1,71.3,67.8,71.3z"/>
					<path class="st3" d="M72.1,72.2h-0.3h-2.8h-2.2c-0.3,0-0.6,0.1-0.8,0.3c-0.2,0.2-0.3,0.4-0.4,0.6c0,0.1-0.1,0.2-0.1,0.3
						c0,0.4,0.2,0.8,0.6,1c0.1,0.1,0.2,0.1,0.4,0.1c0.1,0,0.2,0,0.2,0h2.7h2.5c0.1,0,0.1,0,0.1,0c0.5-0.1,0.9-0.4,1-0.8
						c0-0.1,0.1-0.2,0.1-0.4c0-0.3-0.1-0.6-0.3-0.8C72.8,72.4,72.5,72.2,72.1,72.2z M67.7,73.7c0,0.5-0.4,0.9-0.9,0.9
						c-0.1,0-0.1,0-0.2,0c-0.2,0-0.3-0.1-0.4-0.2c-0.2-0.2-0.3-0.4-0.3-0.7v-0.1v-0.3c0-0.2,0.1-0.4,0.2-0.6
						c0.2-0.2,0.4-0.3,0.7-0.3c0.5,0,0.9,0.4,0.9,0.9V73.7z"/>
					<path class="st3" d="M72.4,75.5c-0.1,0-0.2,0-0.3,0h-2.4h-3h-0.1h-0.5c-0.1,0-0.2,0-0.3,0c-0.3,0.1-0.5,0.2-0.7,0.4
						c-0.2,0.2-0.3,0.5-0.3,0.7c0,0.6,0.5,1.1,1,1.2c0,0,0.1,0,0.1,0c0,0-0.1,0-0.1,0c-0.4-0.1-0.7-0.4-0.7-0.9v-0.4
						c0-0.1,0-0.2,0.1-0.4c0.1-0.3,0.3-0.4,0.6-0.5c0.1,0,0.1,0,0.2,0c0.3,0,0.6,0.2,0.7,0.4c0.1,0.1,0.2,0.3,0.2,0.5V77
						c0,0.1,0,0.2-0.1,0.3c-0.1,0.1-0.1,0.2-0.2,0.3c-0.2,0.1-0.4,0.2-0.6,0.2l0,0h0.7H67h0.7h2.3h2.2c0.2,0,0.4-0.1,0.6-0.2
						c0.3-0.2,0.6-0.6,0.6-1C73.3,76.1,72.9,75.6,72.4,75.5z"/>
					<path class="st3" d="M66.5,77.2c0-0.1,0-0.1,0-0.2v-0.4c0-0.2-0.2-0.4-0.4-0.4l0,0c-0.2,0-0.4,0.2-0.4,0.4V77
						c0,0.2,0.2,0.4,0.4,0.4C66.3,77.4,66.4,77.3,66.5,77.2z"/>
					<path class="st3" d="M66.8,72.9c-0.2,0-0.4,0.2-0.4,0.4v0.3v0.1c0,0.1,0,0.2,0.1,0.2c0.1,0.1,0.2,0.2,0.3,0.2
						c0.2,0,0.4-0.2,0.4-0.4v-0.4C67.2,73.1,67.1,72.9,66.8,72.9z"/>
					<path class="st3" d="M67.8,69.6c-0.1,0-0.2,0.1-0.3,0.1c-0.1,0.1-0.1,0.2-0.1,0.3v0.4c0,0.2,0.2,0.4,0.4,0.4
						c0.2,0,0.4-0.2,0.4-0.4V70c0-0.1-0.1-0.2-0.1-0.3C68,69.6,67.9,69.6,67.8,69.6z"/>
				</g>
				<g>
					<path class="st4" d="M73.6,74.2c0.1-0.2,0.2-0.5,0.2-0.8c0-0.5-0.2-1-0.6-1.3c0-0.2-0.1-0.4-0.1-0.6c0.4-0.3,0.7-0.8,0.7-1.4
						c0-0.8-0.6-1.5-1.3-1.7c-0.1-0.3-0.1-0.6-0.2-0.9c0.1,0,0.2,0,0.3,0c0.2,0,0.5-0.1,0.6-0.3c0.2-0.2,0.2-0.4,0.2-0.7
						c0-0.2-0.4-2-1-4.3c-0.9-3.4-2.4-7.7-4.2-9.6c-2.1-2.1-12-5.5-13.1-5.8c-0.3-0.1-0.6,0-0.8,0.2c0,0,0,0-0.1,0.1l0-2.1l0-1
						l0-1.1c-0.1,0.2-0.3,0.3-0.5,0.5c-0.1,0.1-0.2,0.2-0.3,0.3c-0.3,0.2-0.5,0.4-0.8,0.6c-1.9,1.4-3.6,1.7-4.1,1.7
						c-1.9,0-3.8-0.8-5-1.7c-0.2-0.2-0.5-0.3-0.7-0.5c0,0-0.1-0.1-0.1-0.1c-0.3-0.2-0.5-0.5-0.8-0.8l0,1.1l0,1.1l0,1.8
						c-0.1,0-0.2,0-0.3,0c-1.2,0.4-11.9,4-14.1,6.2c-2,2-3.6,6.3-4.5,9.2c-0.5,1.6-0.8,2.8-0.8,2.9c-0.1,0.2,0,0.5,0.1,0.7
						c0.2,0.2,0.4,0.3,0.6,0.3c0,0,0.2,0,0.4,0c-0.2,0.7-0.5,1.5-0.7,2.3h-0.8c-0.9,0-1.7,0.8-1.7,1.7c0,0.8,0.5,1.4,1.2,1.6
						c-0.7,0.2-1.2,0.9-1.2,1.6c0,0.6,0.3,1.1,0.7,1.4c0,0.2-0.1,0.4-0.1,0.6c-0.4,0.3-0.6,0.8-0.6,1.3c0,0.2,0,0.4,0.1,0.6
						c-0.1,0.4-0.2,0.7-0.3,1.1h0.8h0.7h2.8h2.9h0.7h0.8h0.3h0.5h0.5h3.2h0.8H35h2.7h18.7h3.9h0.8H62H64h0.6h1.5H67h0h0.8h2.1h2.9
						h1.4h0.1C74.1,77.1,73.9,75.7,73.6,74.2z M50.2,69.4c-1.5-0.5-3.2-0.7-4.8-0.3c-0.3,0.1-0.7,0.2-1,0.3l-5.6-5.6
						c0.9-0.5,1.9-1,2.9-1.3c0.7-0.2,1.4-0.4,2.1-0.6c3-0.6,6-0.4,8.8,0.6c1.1,0.4,2.1,0.8,3.1,1.4L50.2,69.4z M21.9,69h0.7h0.8H24
						h0.9h0.3h0.4h0.6c0.1,0,0.1,0,0.2,0c0.1,0,0.3,0.1,0.4,0.1c0.1,0,0.2,0.1,0.2,0.2c0.1,0.1,0.1,0.1,0.2,0.2
						c0.2,0.2,0.2,0.5,0.2,0.7c0,0.7-0.5,1.2-1.2,1.2h-0.7h-2.1h-0.7h-0.8l0,0c-0.7,0-1.2-0.6-1.2-1.2C20.7,69.5,21.2,69,21.9,69z
						 M24.6,62.4c0.5-1.5,1.1-3.2,1.9-4.7c0.6-1.4,1.4-2.6,2.2-3.4c1.6-1.6,9.5-4.5,13-5.7c0.1,0.1,0.1,0.1,0.2,0.2
						c0.2,0.2,0.4,0.4,0.8,0.6c0.2,0.2,0.5,0.3,0.8,0.5c0.9,0.5,2.1,0.9,3.7,1.1c0.4,0,0.8,0.1,1.2,0.1c1.1,0,2.2-0.2,3.1-0.5
						c0.5-0.2,0.9-0.3,1.3-0.5c0.3-0.1,0.5-0.3,0.8-0.4c0.3-0.2,0.5-0.3,0.8-0.5c0.3-0.2,0.6-0.5,0.8-0.6c3.2,1.1,10.6,3.8,12.1,5.3
						c0.8,0.8,1.6,2.3,2.2,4c0.6,1.5,1.1,3.1,1.5,4.6c0.4,1.5,0.7,2.8,0.9,3.6c-0.1,0-0.2,0-0.3,0c-0.3,0-0.5,0-0.8,0
						c-0.4,0-0.9,0-1.3,0c-0.2-0.7-0.9-1.2-1.6-1.2c-0.7,0-1.3,0.5-1.6,1.1c-0.7-1-1.5-2-2.3-2.9c-0.1-0.1-0.3-0.3-0.4-0.4
						c0,0-0.1-0.1-0.1-0.1c0,0,0,0,0,0c-0.2-0.2-0.4-0.4-0.6-0.6c-5.3-4.9-12.7-7-20-5.7c-3.8,0.7-7.3,2.5-10.2,4.9
						c-0.2,0.2-0.4,0.4-0.6,0.5c-0.2,0.2-0.4,0.4-0.6,0.6c-0.1,0.1-0.3,0.2-0.4,0.4c-0.9,0.9-1.7,1.9-2.5,3c-0.1,0-0.2-0.1-0.3-0.1
						c-0.2-0.1-0.4-0.1-0.7-0.2c-0.3-0.3-0.7-0.4-1.1-0.4c-0.2,0-0.5,0.1-0.7,0.1c-0.1,0-0.2,0-0.3,0c-0.2,0-0.4,0-0.6,0
						c-0.3,0-0.5,0-0.8,0C24.1,64.1,24.3,63.3,24.6,62.4z M43.4,46.2c1.4,0.8,3.2,1.4,5,1.4c0,0,0,0,0.1,0c0.8,0,2.3-0.3,4.1-1.4
						l0,2.1c-1.1,0.6-2.6,1.2-4.4,1.2c-2.4,0-3.9-0.8-4.8-1.4L43.4,46.2z M71.1,68.5h-1.8c0-0.2,0.1-0.3,0.1-0.5v-0.5
						c0.5,0,1,0,1.6,0.1C71,67.9,71.1,68.2,71.1,68.5z M73.3,70.2c0,0.3-0.1,0.6-0.3,0.8c-0.1,0.1-0.2,0.2-0.3,0.2
						c-0.2,0.1-0.4,0.2-0.6,0.2h-0.4h-2.9h-1c-0.7,0-1.2-0.5-1.2-1.2c0-0.3,0.1-0.5,0.2-0.7c0-0.1,0.1-0.1,0.2-0.2
						c0.1-0.1,0.1-0.1,0.2-0.2c0.2-0.1,0.4-0.2,0.6-0.2h0.1h0.5h0.4h0.3h2.2h0.9l0,0c0.2,0,0.3,0,0.5,0.1
						C73,69.3,73.3,69.7,73.3,70.2z M73.3,73.8c-0.1,0.4-0.5,0.8-1,0.8c0,0-0.1,0-0.1,0h-2.5h-2.7c-0.1,0-0.2,0-0.2,0
						c-0.1,0-0.3-0.1-0.4-0.1c-0.4-0.2-0.6-0.6-0.6-1c0-0.1,0-0.2,0.1-0.3c0.1-0.2,0.2-0.4,0.4-0.6c0.2-0.2,0.5-0.3,0.8-0.3h2.2h2.8
						h0.3c0.4,0,0.7,0.2,0.9,0.4c0.2,0.2,0.3,0.5,0.3,0.8C73.3,73.6,73.3,73.7,73.3,73.8z M72.1,77.9h-2.2h-2.3H67h-0.2h-0.7l0,0
						c0.2,0,0.4-0.1,0.6-0.2c0.1-0.1,0.2-0.2,0.2-0.3c0-0.1,0.1-0.2,0.1-0.3v-0.4c0-0.2-0.1-0.4-0.2-0.5c-0.2-0.2-0.4-0.4-0.7-0.4
						c-0.1,0-0.1,0-0.2,0c-0.3,0.1-0.5,0.2-0.6,0.5c0,0.1-0.1,0.2-0.1,0.4V77c0,0.4,0.3,0.8,0.7,0.9c0,0,0.1,0,0.1,0
						c0,0-0.1,0-0.1,0c-0.6-0.1-1-0.6-1-1.2c0-0.3,0.1-0.5,0.3-0.7c0.2-0.2,0.4-0.4,0.7-0.4c0.1,0,0.2,0,0.3,0h0.5h0.1h3h2.4
						c0.1,0,0.2,0,0.3,0c0.5,0.1,0.9,0.6,0.9,1.2c0,0.4-0.2,0.8-0.6,1C72.6,77.8,72.4,77.9,72.1,77.9z M65.7,77v-0.4
						c0-0.2,0.2-0.4,0.4-0.4l0,0c0.2,0,0.4,0.2,0.4,0.4V77c0,0.1,0,0.1,0,0.2c-0.1,0.1-0.2,0.3-0.4,0.3C65.9,77.4,65.7,77.2,65.7,77
						z M25.1,68v-1.6c0,0,0,0,0-0.1c0-0.3,0.1-0.5,0.3-0.7c0.2-0.2,0.5-0.4,0.9-0.4c0.5,0,0.9,0.3,1.1,0.7c0.1,0.1,0.1,0.3,0.1,0.5
						v0.4v0.1c-0.3,0.6-0.6,1.2-0.9,1.8c-0.1,0-0.3-0.1-0.4-0.1h-1C25.1,68.4,25.1,68.2,25.1,68z M24.9,66.3L24.9,66.3L24.9,66.3
						L24.9,66.3L24.9,66.3z M68.9,66.4v0.3v0.8V68c0,0.2,0,0.3-0.1,0.5h-1c-0.1,0-0.1,0-0.2,0c-0.2-0.3-0.3-0.6-0.5-0.9
						c-0.1-0.2-0.3-0.5-0.4-0.7c-0.1-0.2-0.2-0.4-0.3-0.5c0-0.1,0-0.1,0-0.2c0.1-0.6,0.6-1,1.2-1c0.5,0,0.9,0.3,1.1,0.8
						C68.9,66.1,68.9,66.2,68.9,66.4z M24.7,68.5h-0.5c0.1-0.5,0.3-0.9,0.4-1.4V68C24.6,68.2,24.6,68.4,24.7,68.5z M21.6,72.3
						c0.1,0,0.2,0,0.3,0h0.6h0.7h2.1h1.9c0.4,0,0.8,0.2,1,0.5c0.1,0.2,0.2,0.4,0.2,0.7c0,0.5-0.3,0.9-0.6,1.1
						c-0.2,0.1-0.4,0.2-0.6,0.2h-2.4h-2.2h-0.6c0,0-0.1,0-0.1,0c-0.3,0-0.5-0.1-0.7-0.3c-0.2-0.2-0.4-0.5-0.4-0.9
						C20.7,72.9,21.1,72.4,21.6,72.3z M21.5,75.5c0.1,0,0.2-0.1,0.3-0.1h0.4h2.3h3h0.3c0.5,0,0.9,0.3,1.1,0.7
						c0.1,0.2,0.1,0.3,0.1,0.5c0,0.5-0.3,0.9-0.8,1.1c0,0-0.1,0-0.2,0c0.1,0,0.1,0,0.2-0.1c0.3-0.2,0.5-0.4,0.5-0.8v-0.4v0
						c0-0.5-0.4-0.9-0.9-0.9c-0.1,0-0.3,0-0.4,0.1c-0.3,0.1-0.5,0.5-0.5,0.8V77c0,0.3,0.2,0.6,0.4,0.7c0.1,0.1,0.3,0.2,0.5,0.2l0,0
						l0,0h-0.5h-2.9h-2.5c-0.1,0-0.1,0-0.2,0c-0.3,0-0.5-0.2-0.7-0.3c-0.2-0.2-0.4-0.5-0.4-0.9C20.7,76.1,21,75.7,21.5,75.5z
						 M27.5,76.6c0-0.2,0.2-0.4,0.4-0.4c0.2,0,0.4,0.2,0.4,0.4V77c0,0.2-0.2,0.4-0.4,0.4c-0.2,0-0.4-0.2-0.4-0.4V76.6z M34.3,73.6
						h-0.8h-0.8h-1.1H31c0.3-1.1,0.7-2.1,1.2-3.1c0.2-0.4,0.4-0.7,0.6-1.1c0.1-0.2,0.2-0.4,0.4-0.6c0.1-0.1,0.2-0.3,0.3-0.4
						c0.5-0.6,1-1.2,1.5-1.8l5.3,5.3c-0.5,0.5-0.8,1-1.2,1.6H34.3z M62.6,73.6h-0.8H61h-5.8c-0.3-0.5-0.7-1-1.1-1.5l5.2-5.2
						c0.8,0.9,1.5,1.8,2.1,2.7c0.2,0.4,0.4,0.7,0.6,1.1c0.2,0.4,0.4,0.9,0.6,1.3c0.2,0.5,0.4,1,0.5,1.5H62.6z"/>
					<path class="st4" d="M27.2,74.6c0.2,0,0.4-0.1,0.6-0.2c0.2-0.2,0.4-0.4,0.4-0.7v-0.4c0-0.1,0-0.2,0-0.2
						c-0.1-0.4-0.4-0.7-0.9-0.7c-0.5,0-0.9,0.4-0.9,0.9v0.4C26.3,74.2,26.7,74.6,27.2,74.6z M26.7,73.3c0-0.2,0.2-0.4,0.4-0.4
						c0.2,0,0.4,0.2,0.4,0.4v0.4c0,0.2-0.2,0.4-0.4,0.4c-0.2,0-0.4-0.2-0.4-0.4V73.3z"/>
					<path class="st4" d="M26.2,71.3c0.5,0,0.9-0.4,0.9-0.9V70c0-0.2,0-0.3-0.1-0.4c0-0.1-0.1-0.1-0.1-0.2c-0.1-0.1-0.2-0.1-0.2-0.2
						c-0.1,0-0.2-0.1-0.3-0.1c0,0-0.1,0-0.1,0c-0.1,0-0.2,0-0.4,0.1c-0.1,0-0.2,0.1-0.2,0.2c-0.1,0.1-0.1,0.1-0.2,0.2
						c-0.1,0.1-0.2,0.3-0.2,0.5v0.4c0,0.2,0.1,0.5,0.3,0.6C25.8,71.2,26,71.3,26.2,71.3z M25.8,70.4V70c0-0.1,0.1-0.2,0.1-0.3
						c0.1-0.1,0.1-0.1,0.2-0.1c0,0,0.1,0,0.1,0c0.1,0,0.2,0.1,0.3,0.1c0.1,0.1,0.1,0.2,0.1,0.3v0.4c0,0.2-0.2,0.4-0.4,0.4
						C26,70.8,25.8,70.6,25.8,70.4L25.8,70.4z"/>
					<path class="st4" d="M66.8,72.4c-0.3,0-0.5,0.1-0.7,0.3c-0.1,0.2-0.2,0.4-0.2,0.6v0.3v0.1c0,0.3,0.1,0.5,0.3,0.7
						c0.1,0.1,0.3,0.2,0.4,0.2c0.1,0,0.1,0,0.2,0c0.5,0,0.9-0.4,0.9-0.9v-0.4C67.7,72.8,67.3,72.4,66.8,72.4z M67.2,73.7
						c0,0.2-0.2,0.4-0.4,0.4c-0.1,0-0.3-0.1-0.3-0.2c0-0.1-0.1-0.1-0.1-0.2v-0.1v-0.3c0-0.2,0.2-0.4,0.4-0.4c0.2,0,0.4,0.2,0.4,0.4
						V73.7z"/>
					<path class="st4" d="M68.3,69.3c-0.1-0.1-0.1-0.1-0.2-0.2c-0.1,0-0.1,0-0.2,0c-0.1,0-0.1,0-0.2,0c-0.1,0-0.3,0-0.4,0.1
						c-0.1,0-0.2,0.1-0.2,0.2C67,69.4,67,69.5,67,69.6c-0.1,0.1-0.1,0.3-0.1,0.4v0.4c0,0.5,0.4,0.9,0.9,0.9c0.4,0,0.7-0.2,0.8-0.5
						c0-0.1,0.1-0.2,0.1-0.4V70c0-0.2-0.1-0.3-0.2-0.5C68.5,69.4,68.4,69.4,68.3,69.3z M68.2,70.4c0,0.2-0.2,0.4-0.4,0.4
						c-0.2,0-0.4-0.2-0.4-0.4V70c0-0.1,0-0.2,0.1-0.3c0.1-0.1,0.2-0.1,0.3-0.1c0.1,0,0.2,0,0.3,0.1c0.1,0.1,0.1,0.2,0.1,0.3V70.4z"
						/>
				</g>
				<path class="st2" d="M52.6,62.4c-2.8-0.9-5.7-1.1-8.8-0.6c-0.7,0.1-1.4,0.3-2.1,0.6c-1,0.3-2,0.8-2.9,1.3l5.6,5.6
					c0.3-0.1,0.6-0.2,1-0.3c1.6-0.3,3.3-0.2,4.8,0.3l5.6-5.6C54.7,63.2,53.7,62.8,52.6,62.4z"/>
				<path class="st2" d="M62.2,70.7c-0.2-0.4-0.4-0.8-0.6-1.1c-0.6-1-1.3-1.9-2.1-2.7l-5.2,5.2c0.4,0.5,0.8,1,1.1,1.5H61h0.8h0.8
					h0.7c-0.2-0.5-0.3-1-0.5-1.5C62.6,71.6,62.4,71.2,62.2,70.7z"/>
			</g>
			<g>
				<g>
					<g>
						<g>
							<g>
								<g>
									<path class="st3" d="M59.1,30.9c-0.3,0-0.5-0.2-0.5-0.5c0-8.2-5.3-11.9-10.6-11.9c-5.3,0-10.6,3.7-10.6,11.9
										c0,0.3-0.2,0.5-0.5,0.5c-1.6,0-2.4,1.5-2.4,2.8c0,1.8,1.3,3.3,3.5,4.3c0.1,0.1,0.2,0.2,0.3,0.3c1.8,5.6,7.3,8,9.7,8
										c2.4,0,8-2.4,9.7-8c0-0.1,0.1-0.2,0.3-0.3l0,0c2.3-1,3.5-2.5,3.5-4.3C61.6,32.4,60.7,30.9,59.1,30.9z"/>
								</g>
								<g>
									<path class="st4" d="M60.2,29.9l-0.3-0.1l0-0.4c-0.2-3.8-1.6-7-4-9.1c-2.1-1.9-4.9-2.9-7.8-2.9c-2.9,0-5.7,1-7.8,2.9
										c-2.4,2.2-3.8,5.3-4,9.1l0,0.4l-0.3,0.1c-1.6,0.5-2.6,2.1-2.6,3.9c0,2.1,1.3,4,3.8,5.2l0.2,0.1l0.1,0.2
										c1.2,3.4,5.5,8.4,10.7,8.4c3.1,0,8.7-2.7,10.7-8.4l0.1-0.2L59,39c2.4-1.2,3.8-3.1,3.8-5.2C62.8,32,61.8,30.4,60.2,29.9z
										 M57.9,37.9L57.9,37.9c-0.2,0.1-0.3,0.2-0.4,0.4c-1.7,5.5-7.1,7.9-9.5,7.9c-2.4,0-7.8-2.4-9.5-7.9
										c-0.1-0.2-0.2-0.4-0.4-0.4c-2.2-1-3.4-2.4-3.4-4.1c0-1.3,0.8-2.6,2.2-2.6c0.4,0,0.7-0.3,0.7-0.7c0-8,5.2-11.6,10.4-11.6
										c5.2,0,10.4,3.6,10.4,11.6c0,0.4,0.3,0.7,0.7,0.7c1.4,0,2.2,1.4,2.2,2.6C61.4,35.5,60.1,36.9,57.9,37.9z"/>
								</g>
							</g>
							<g>
								<path class="st1" d="M48.1,15.3c-10.5-1.8-13.6,8.2-11.3,14.6h0.3c0.5-1.6,2.7-4.9,3.6-5.6c2-1.4,2.7,1.4,7.3,1.5
									c4.6,0,5.4-2.9,7.3-1.5c0.9,0.7,3.2,4,3.7,5.6h0.3C61.7,23.5,58.6,13.5,48.1,15.3z"/>
							</g>
							<g>
								<path class="st4" d="M58.1,17.9c-1.6-1.9-4.7-4.1-10-3.2l0,0l0,0c-5.3-0.9-8.4,1.2-10,3.2c-2.6,3.1-3.4,8.1-1.8,12.2
									l0.1,0.4h1.2l0.1-0.4c0.5-1.6,2.7-4.7,3.4-5.3c0.7-0.5,1-0.3,2,0.2c1,0.6,2.5,1.3,5,1.3c2.5,0,3.9-0.8,4.9-1.3
									c1.1-0.6,1.4-0.7,2-0.2c0.7,0.5,3,3.7,3.4,5.3l0.1,0.4h1.2l0.1-0.4C61.4,26,60.7,21,58.1,17.9z M59.2,28.1l-0.1,0.4L59,28.2
									c-0.9-1.7-2.5-3.8-3.2-4.3c-1.3-0.9-2.3-0.4-3.3,0.2c-1,0.5-2.2,1.2-4.4,1.2c-2.2,0-3.4-0.7-4.4-1.2c-1-0.6-2-1.1-3.3-0.2
									c-0.8,0.6-2.2,2.6-3.2,4.4L37,28.6l-0.1-0.4C36.2,24.8,37,21,39,18.6c1.6-1.9,3.9-2.9,6.7-2.9c0.7,0,1.5,0.1,2.3,0.2l0.1,0
									l0.1,0c3.8-0.7,6.9,0.3,9,2.7C59.1,21,60,24.7,59.2,28.1z"/>
							</g>
						</g>
					</g>
				</g>
			</g>
		</g>
		<polygon class="st4" points="42.6,77.8 34.5,77.8 58.2,48.8 64.5,50.9 		"/>
	</g>
</g>
<g>
</g>
<g>
</g>
<g>
</g>
<g>
</g>
<g>
</g>
<g>
</g>
</svg>
