<svg xmlns="http://www.w3.org/2000/svg" width="100" height="100" viewBox="0 0 100 100">
    <g fill="none" fill-rule="nonzero">
        <path fill="#18302A" d="M56.55 66.728c-.301-.264-.73-.352-1.116-.264l-6.091 1.583c-.344.088-.601.308-.773.571l-.042.176-1.459 4.968-.086.308c-.128.308-.386.484-.729.528l-1.63.307-2.874.44a1.317 1.317 0 0 1-.858-.484l-.214-.263-3.475-3.913c-.215-.264-.3-.616-.3-.967l.128-5.452s0-1.011-.729-1.978l-4.29-5.54s-.686-1.011-1.115-1.055l-9.437-.88-5.662-2.681s-.73-.176-1.373-.088c-1.416.088-4.247-.044-4.247-.044a1.282 1.282 0 0 0-.986.66 1.289 1.289 0 0 0-.086 1.186l7.335 14.157c.215.528.772.88 1.33.791l.772-.088a1.27 1.27 0 0 0 .944-.615 1.34 1.34 0 0 0 .128-1.143l-5.104-10.464c0-.307.257-.483.557-.22l8.966 12.838 1.2 7.914c.13.483.516.835.987.923l14.37 4.045c.301.043.558 0 .816-.132l1.63-2.374 5.877 2.242c.171.088.386.132.6.132.343 0 .687-.176.901-.44l2.016-2.374c.343-.396.43-.967.172-1.45l-1.073-2.331 4.848-4c.3-.22.471-.572.471-.924l.13-2.462c.085-.484-.087-.88-.43-1.143z"/>
        <g fill="#62CE46">
            <path d="M81.696 2.35c-9.957 0-18.044 8.138-18.044 18.156 0 4.506 1.652 8.619 4.348 11.813L57.565 43.78C51.522 37.263 42.913 33.15 33.348 33.15 15.13 33.15.26 48.069.26 66.444c0 18.331 14.826 33.293 33.087 33.293 18.217 0 33.087-14.918 33.087-33.293 0-7.657-2.609-14.7-6.913-20.344L70.13 34.462a17.822 17.822 0 0 0 11.61 4.288c9.956 0 18.043-8.137 18.043-18.156 0-10.019-8.13-18.244-18.087-18.244zM33.304 96.675c-16.608 0-30.087-13.606-30.087-30.275 0-16.669 13.522-30.275 30.087-30.275 16.609 0 30.087 13.606 30.087 30.275 0 16.669-13.478 30.275-30.087 30.275zm48.392-60.987c-8.305 0-15.087-6.826-15.087-15.182 0-8.356 6.782-15.181 15.087-15.181 8.304 0 15.087 6.825 15.087 15.181 0 8.357-6.783 15.181-15.087 15.181z"/>
            <path d="M89.565 14.425c-.826 0-2.348-.131-4.304-.919-3.044-1.181-3.565-2.406-3.565-2.406s-.522 1.181-3.566 2.406c-1.956.788-3.478.919-4.304.919-.391 0-.609-.044-.609-.044s-.521 4.55 2.13 9.8c2.653 5.25 6.349 6.956 6.349 6.956s3.695-1.706 6.347-6.956c2.653-5.25 2.13-9.8 2.13-9.8s-.216.044-.608.044z"/>
        </g>
    </g>
</svg>
