<?xml version="1.0" encoding="UTF-8"?>
<svg width="209px" height="183px" viewBox="0 0 209 183" version="1.1" xmlns="http://www.w3.org/2000/svg" xmlns:xlink="http://www.w3.org/1999/xlink">
    <!-- Generator: sketchtool 51.2 (57519) - http://www.bohemiancoding.com/sketch -->
    <title>EAE9127E-52BA-4AAD-96BA-CEF43A2B3169</title>
    <desc>Created with sketchtool.</desc>
    <defs></defs>
    <g id="Nueva-landing" stroke="none" stroke-width="1" fill="none" fill-rule="evenodd">
        <g id="cotización---datos-personales" transform="translate(-320.000000, -199.000000)">
            <g id="Ilustraciones-seguro-Sxkm-02" transform="translate(320.000000, 199.000000)">
                <path d="M23,106.501376 C16.6469744,106.501376 11.4997248,101.349477 11.4997248,95 C11.4997248,101.349477 6.34972364,106.501376 0,106.501376 C6.34972364,106.501376 11.4997248,111.64667 11.4997248,118 C11.4997248,111.64667 16.6469744,106.501376 23,106.501376" id="Fill-1" fill="#17D320"></path>
                <path d="M183,122.5 C178.856722,122.5 175.499462,119.140883 175.499462,115 C175.499462,119.140883 172.141124,122.5 168,122.5 C172.141124,122.5 175.499462,125.855887 175.499462,130 C175.499462,125.855887 178.856722,122.5 183,122.5" id="Fill-2" fill="#17D320"></path>
                <path d="M27,151.5 C22.8571121,151.5 19.4997308,148.140883 19.4997308,144 C19.4997308,148.140883 16.1412727,151.5 12,151.5 C16.1412727,151.5 19.4997308,154.855887 19.4997308,159 C19.4997308,154.855887 22.8571121,151.5 27,151.5" id="Fill-3" fill="#17D320"></path>
                <path d="M173.496781,67.2629038 C155.984707,67.2629038 141.736532,53.0130114 141.736532,35.4981223 C141.736532,17.9848426 155.984707,3.73709623 173.496781,3.73709623 C191.013147,3.73709623 205.263468,17.9848426 205.263468,35.4981223 C205.263468,53.0130114 191.013147,67.2629038 173.496781,67.2629038 Z M173.496781,0 C153.924116,0 138,15.9242359 138,35.4981223 C138,55.0736182 153.924116,71 173.496781,71 C193.073739,71 209,55.0736182 209,35.4981223 C209,15.9242359 193.073739,0 173.496781,0 Z" id="Fill-4" fill="#17D320"></path>
                <path d="M182.004835,32.6047745 L171.988839,42.653543 C171.634093,43.0099557 171.152226,43.2099611 170.650802,43.2099611 C170.644283,43.2099611 170.638307,43.2099611 170.631244,43.2094161 C170.123301,43.2045113 169.637631,42.9941515 169.285601,42.6257493 L164.970525,38.1144578 C164.246909,37.3580344 164.271899,36.1563676 165.025937,35.4304627 C165.779432,34.7056478 166.97731,34.7296266 167.700926,35.48605 L170.678508,38.5994843 L179.32876,29.9207794 C180.067044,29.1796153 181.264921,29.1796153 182.004835,29.9207794 C182.743119,30.6619436 182.743662,31.8636104 182.004835,32.6047745 Z M189.637027,23.7892813 C187.944244,23.7892813 184.816181,23.5167945 180.805328,21.9222017 C174.551374,19.4654606 173.496916,17 173.496916,17 C173.496916,17 172.442457,19.4654606 166.187417,21.9222017 C162.132017,23.5167945 159.00504,23.7892813 157.357347,23.7892813 C156.555503,23.7892813 156.089933,23.7435035 156.089933,23.7435035 C156.089933,23.7435035 154.995274,33.0374836 160.444123,43.788723 C165.894602,54.5388726 173.496916,58 173.496916,58 C173.496916,58 181.056855,54.5388726 186.550251,43.788723 C192.042561,33.0374836 190.901725,23.7435035 190.901725,23.7435035 C190.901725,23.7435035 190.479616,23.7892813 189.637027,23.7892813 Z" id="Fill-5" fill="#17D320"></path>
                <path d="M92.0005887,77 C70.562991,77 51.2374129,89.9101772 43.0360807,109.721109 C34.829857,129.522257 39.3718407,152.31915 54.5271853,167.473417 C69.6808994,182.632576 92.4777769,187.167497 112.279456,178.964529 C132.082222,170.763735 145,151.437057 145,129.999446 C144.966847,100.745291 121.254725,77.0369577 92.0005887,77 Z M79.9937078,167.855494 C67.636273,163.878742 57.9973977,154.130075 54.1440216,141.730239 C53.661942,140.219323 54.7858886,138.676341 56.3739796,138.652971 C70.762997,138.652971 82.5628064,150.038645 83.0889091,164.417889 L83.0889091,165.495096 C83.1389106,167.131559 81.5567981,168.340835 79.9937078,167.855494 Z M60.0257193,115.560961 C59.6311423,115.816404 59.1746069,115.950647 58.7088321,115.950647 C56.8473633,115.94032 55.6440665,113.97613 56.4750696,112.317927 C63.1801615,98.8305585 76.9398121,90.3101894 92.0005887,90.3101894 C107.062996,90.3101894 120.819385,98.8305585 127.525564,112.317927 C128.346241,113.97613 127.145662,115.931625 125.291258,115.94032 C124.826571,115.94032 124.368948,115.806077 123.976545,115.550635 C116.617629,110.931472 105.034131,107.980295 92.0005887,107.980295 C78.9686772,107.980295 67.3824611,110.943429 60.0257193,115.560961 Z M129.857156,141.730239 C126.004323,154.130075 116.3486,163.880916 103.978664,167.855494 C102.405248,168.372358 100.790526,167.17069 100.842701,165.507596 L100.842701,164.422237 C101.360108,150.029406 113.199592,138.631231 127.609262,138.652971 C129.203875,138.663298 130.333257,140.216062 129.857156,141.730239 Z" id="Fill-6" fill="#132521"></path>
                <path d="M102,131.499172 C102,136.192596 98.1945572,140 93.500276,140 C88.8065469,140 85,136.192596 85,131.499172 C85,126.805196 88.8065469,123 93.500276,123 C98.1945572,123 102,126.805196 102,131.499172" id="Fill-7" fill="#17D320"></path>
                <polyline id="Fill-8" fill="#17D320" points="132.742533 88 130 85.2574674 147.257467 68 150 70.7425326 132.742533 88"></polyline>
            </g>
        </g>
    </g>
</svg>