<svg xmlns="http://www.w3.org/2000/svg" xmlns:xlink="http://www.w3.org/1999/xlink" width="100" height="100" viewBox="0 0 100 100">
    <defs>
        <path id="a" d="M41.745 41.902c9.552-9.384 9.693-24.738.316-34.295-9.382-9.558-24.729-9.7-34.282-.315C-.747 15.663-1.772 28.79 4.77 38.31L.298 48.624l10.39-4.284c9.397 6.717 22.532 5.933 31.057-2.438z"/>
    </defs>
    <g fill="none" fill-rule="evenodd">
        <g fill-rule="nonzero">
            <g transform="translate(0 49.122)">
                <path fill="#18302A" d="M72.806 32.007a4.273 4.273 0 0 1-4.26 4.262H6.507a4.273 4.273 0 0 1-4.26-4.262v-11.91a4.273 4.273 0 0 1 4.26-4.262h62.04a4.273 4.273 0 0 1 4.259 4.261v11.911z"/>
                <path fill="#18302A" d="M74.936 32.443c0 2.104-1.917 3.826-4.26 3.826H4.379c-2.343 0-4.26-1.722-4.26-3.826s1.917-3.825 4.26-3.825h66.296c2.343 0 4.26 1.722 4.26 3.825zM48.267 19.879c.415 2.306-1.161 4.194-3.504 4.194H6.507a4.273 4.273 0 0 1-4.26-4.262V4.685A4.273 4.273 0 0 1 6.508.424h33.997c2.342 0 4.6 1.887 5.015 4.194l2.748 15.26z"/>
                <path fill="#3D4C48" d="M21.266 36.361a7.171 7.171 0 1 1-14.342 0 7.171 7.171 0 1 1 14.342 0zM62.875 36.361a7.17 7.17 0 1 1-14.339 0 7.17 7.17 0 1 1 14.34 0z"/>
                <ellipse cx="14.095" cy="36.361" fill="#18302A" rx="4.259" ry="4.261"/>
                <ellipse cx="55.706" cy="36.361" fill="#18302A" rx="4.261" ry="4.262"/>
                <path fill="#FFF" d="M40.627 5.164H7.404v10.671h35.354z"/>
                <path fill="#18302A" d="M39.723 15.871h-1.35l1.705-2.448h1.35zM27.317 3.992h1.651v12.562h-1.651z"/>
                <path fill="#62CE46" d="M28.968 20.878h5.629v1.386h-5.629z"/>
            </g>
            <path fill="#62CE46" d="M71.952 70.542v-.044a4.272 4.272 0 0 0-4.259-4.263H65.53c.147.93 1.049 3.43 6.423 4.307z"/>
        </g>
        <path fill="#62CE46" fill-rule="nonzero" d="M92.622 48.902c9.553-9.384 9.693-24.738.316-34.295-9.382-9.558-24.729-9.7-34.282-.315-8.526 8.371-9.551 21.497-3.007 31.017l-4.474 10.315 10.39-4.284c9.397 6.717 22.532 5.933 31.057-2.438z"/>
        <g transform="translate(50.877 7)">
            <mask id="b" fill="#fff">
                <use xlink:href="#a"/>
            </mask>
            <g fill-rule="nonzero" mask="url(#b)">
                <path fill="#18302A" d="M56.055 46.575a3.696 3.696 0 0 1-3.684 3.687h-32.68c-2.029 0-3.184-1.581-2.573-3.513l5.144-16.216c.613-1.932 2.772-3.515 4.8-3.515h25.31a3.697 3.697 0 0 1 3.683 3.688v15.87z"/>
                <path fill="#18302A" d="M32.8 16.633v7.84h5.225v4.248h5.544V16.633c0-6.173-10.77-6.173-10.77 0z"/>
                <g fill="#18302A">
                    <path d="M21.614 50.262H15.31L7.94 25.602h6.306z"/>
                    <path d="M12.77 29.451a2.465 2.465 0 0 1-2.457 2.458h-2.7a2.465 2.465 0 0 1-2.458-2.458v-1.39a2.465 2.465 0 0 1 2.457-2.459h2.701a2.465 2.465 0 0 1 2.458 2.458v1.391z"/>
                    <path d="M11.457 26.398v-3.245c0-1.073.629-1.947 1.397-1.947.762 0 1.391.874 1.391 1.947v3.245h-2.788z"/>
                </g>
                <path fill="#3D4C48" d="M22.262 30.534l-5.144 16.215c-.611 1.932.544 3.513 2.572 3.513h32.68a3.696 3.696 0 0 0 3.685-3.686v-15.87a3.697 3.697 0 0 0-3.684-3.687h-6.574c-7.862 4.35-9.29 0-9.29 0H27.06c-2.028 0-4.187 1.583-4.8 3.515z"/>
                <path fill="#3D4C48" d="M21.614 50.262L18.43 39.604l-5.128 3.939 2.008 6.72z"/>
            </g>
        </g>
    </g>
</svg>
