<svg xmlns="http://www.w3.org/2000/svg" width="100" height="100" viewBox="0 0 100 100">
    <g fill="none" fill-rule="evenodd">
        <g stroke="#18302A" stroke-linejoin="round" stroke-width="3.148">
            <path d="M92.274 77.946a4.685 4.685 0 0 0-1.746-1.56V74.02"/>
            <path stroke-dasharray="5.278932601213455,5.278932601213455" d="M90.529 68.727v-2.621c0-2.666-2.175-4.845-4.835-4.845H66.862"/>
            <path d="M64.222 61.26h-2.361l-.419-2.328"/>
            <path stroke-dasharray="4.741976827383041,4.741976827383041" d="M60.6 54.253l-1.033-5.746c-.47-2.623-3.03-4.769-5.688-4.769H15.306c-2.658 0-4.833 2.18-4.833 4.846v17.198c0 .055.006.108.009.162-.004.054-.009.107-.009.162v5.536"/>
            <path d="M10.473 74.02v2.367a4.69 4.69 0 0 0-1.746 1.558"/>
            <path stroke-dasharray="3.353328928351402,3.353328928351402" d="M8.19 81.162c.425 1.577 1.812 2.826 3.565 3.21"/>
            <path d="M13.422 84.493H15.783c0 .036-.004.07-.004.106 0 .775.108 1.525.309 2.235"/>
            <path stroke-dasharray="4.207932710647583,4.207932710647583" d="M18.217 90.42a8.099 8.099 0 0 0 5.697 2.334c2.974 0 5.576-1.6 6.995-3.99"/>
            <path d="M31.74 86.833c.202-.71.31-1.46.31-2.235 0-.036-.004-.07-.007-.105h2.361M60.635 84.493h2.361c0 .036-.006.07-.006.106 0 .775.108 1.525.31 2.235"/>
            <path stroke-dasharray="4.208090022206306,4.208090022206306" d="M65.429 90.42a8.101 8.101 0 0 0 5.698 2.334c2.973 0 5.575-1.6 6.994-3.99"/>
            <path d="M78.953 86.833c.201-.71.309-1.46.309-2.235 0-.036-.006-.07-.006-.105h2.361"/>
            <path stroke-dasharray="5.340045988559723,5.340045988559723" d="M86.958 84.493h1.154c2.529 0 4.62-1.772 4.817-4.002"/>
        </g>
        <path fill="#62CE46" fill-rule="nonzero" d="M50.609 35.904l2.027-5.114a11.862 11.862 0 0 0 9.705-11.75c-.043-6.555-5.379-11.835-11.917-11.794-6.54.043-11.808 5.392-11.765 11.947a11.862 11.862 0 0 0 9.853 11.624l2.097 5.087"/>
        <path fill="#FFF" fill-rule="nonzero" d="M50.137 25.065V23.64c-1.902-.192-2.831-1.509-2.982-2.716l1.3-.412c.08.879.602 1.728 1.682 1.92v-2.866l-.342-.068c-1.395-.289-2.271-1.153-2.271-2.497 0-1.304 1.082-2.415 2.613-2.608v-1.438h1.067v1.452c1.685.22 2.341 1.345 2.56 2.237l-1.23.453a1.868 1.868 0 0 0-1.33-1.47v2.814l.206.041c1.52.301 2.437 1.316 2.437 2.55 0 1.221-.904 2.401-2.643 2.608v1.426h-1.067zm0-6.872v-2.606c-.794.151-1.258.686-1.258 1.358 0 .575.329 1.069 1.258 1.248zm1.067 1.592v2.647c.89-.164 1.301-.7 1.301-1.331 0-.575-.41-1.111-1.3-1.316z"/>
        <g stroke="#62CE46" stroke-width="3.866">
            <path d="M84.139 34.75l-4.54 6.77M91.16 41.69l-6.963 4.22M75.076 30.853l-1.268 8.057"/>
        </g>
    </g>
</svg>
