<svg xmlns="http://www.w3.org/2000/svg" width="100" height="100" viewBox="0 0 100 100">
    <g fill="none" fill-rule="nonzero">
        <path fill="#62CE46" d="M26.48 69.965l-7.625-5.254-8.952-1.475 5.17 5.964-5.707 1.915 5.554.76-4.03 4.898 6.998-2.603 1.827 7.572 3.193-6.272 4.487 3.823-2.053-5.503 7.984 1.45zM55.52 39.078c.618-.41 1.464-.973 1.86-2.372.396-1.399-.028-2.325-.337-3.001-.234-.509-.34-.741-.202-1.227.136-.485.349-.627.813-.936.617-.41 1.463-.973 1.86-2.37l-2.454-.703c-.138.486-.35.627-.814.935-.619.41-1.463.974-1.858 2.371-.396 1.4.028 2.325.338 3.002.232.508.338.74.2 1.227-.137.486-.35.628-.814.936-.618.412-1.463.974-1.86 2.373l2.455.702c.138-.486.35-.627.814-.937zM63.005 35.376c-.635 1.306-.382 2.292-.197 3.012.14.544.203.792-.018 1.245-.222.454-.454.555-.967.776-.68.294-1.61.698-2.248 2.003l2.291 1.129c.222-.454.454-.555.967-.777.678-.294 1.61-.697 2.248-2.002.636-1.305.382-2.293.197-3.013-.138-.543-.201-.79.018-1.244.221-.452.456-.554.966-.774.68-.294 1.613-.698 2.248-2.003L66.219 32.6c-.22.453-.454.554-.964.775-.68.294-1.612.697-2.25 2.001zM59.01 36.204c.156.538.226.784.016 1.244-.208.459-.438.567-.944.802-.672.312-1.594.74-2.194 2.064l2.32 1.066c.208-.46.438-.568.944-.803.672-.312 1.593-.74 2.193-2.064.603-1.322.323-2.302.119-3.017-.155-.539-.226-.785-.016-1.244.208-.46.439-.567.944-.8.672-.313 1.593-.741 2.193-2.063l-2.319-1.066c-.209.46-.44.566-.944.8-.672.313-1.593.74-2.193 2.063-.602 1.322-.323 2.302-.119 3.018z"/>
        <path fill="#18302A" d="M90.597 65.229a7.642 7.642 0 0 1-.342.895c-1.782 3.838-6.33 5.5-10.151 3.709-3.821-1.79-5.47-6.363-3.689-10.201.233-.502.515-.964.835-1.388-.693-.335-1.092-.523-1.092-.523C48.266 44.753 38.55 40.235 32.936 37.79c-.112.42-.253.836-.444 1.242-1.78 3.838-6.324 5.504-10.147 3.712-3.82-1.793-5.471-6.365-3.692-10.203.037-.077.08-.147.12-.223-4.394-1.437-7.429-2.098-9.846-2.635-3.457-.77-5.963 4.993-6.534 5.958-.577.963-.317 1.043.217 2.442.54 1.403-2.692 4.696-2.553 6.422.1 1.324 8.322 4.867 8.322 4.867 16.292 20.028 31.356 23.955 37.571 25.66 5.914 1.625 22.554.684 22.554.684.367.296 14.865 5.055 21.454 5.911C96.548 82.484 98 78.12 98 78.12s.857-1.621 1.914-5.17c.462-1.56-4.083-4.697-9.318-7.72zM47.21 59.596l.193-.418a.23.23 0 0 1 .305-.111l3.76 1.764a.231.231 0 0 1 .11.307l-.194.416a.23.23 0 0 1-.305.111l-3.756-1.761a.234.234 0 0 1-.113-.308zm-24.786-.34c-2.556-3.277-3.297-5.95-2.948-6.793l21.635 9.388-4.75 7.96c-7.07-3.123-10.332-5.934-13.937-10.554zm15.64 11.29l5.905-7.456 15.917 6.905.065 2.501a.414.414 0 0 0 .216.33l.904.424c.115.053.207-.007.203-.133l-.067-2.547 5.4 2.342c-15.357 2.26-21.456.61-28.543-2.367zm57.167 7.635s-.745 2.24-4.13 1.797c-1.11-.143-2.648-.499-4.229-.921 2.547-3.39 6.534-2.077 8.478-1.13-.076.168-.119.254-.119.254z"/>
        <path fill="#3D4C48" d="M80.104 69.833c3.822 1.792 8.37.13 10.151-3.709a7.67 7.67 0 0 0 .342-.895c1.166-3.628-.507-7.652-4.035-9.308-3.322-1.558-7.189-.501-9.313 2.324a7.658 7.658 0 0 0-.834 1.387c-1.782 3.838-.132 8.41 3.689 10.201zm-1.986-9.401c1.342-2.893 4.77-4.15 7.649-2.798 2.88 1.35 4.126 4.798 2.785 7.69-1.346 2.894-4.774 4.148-7.652 2.796-2.879-1.35-4.126-4.794-2.782-7.688z"/>
        <path fill="#18302A" d="M80.9 68.12c2.878 1.352 6.306.098 7.652-2.795 1.341-2.893.095-6.34-2.785-7.691-2.879-1.351-6.307-.095-7.649 2.798-1.344 2.894-.097 6.338 2.782 7.688z"/>
        <path fill="#3D4C48" d="M22.345 42.746c3.823 1.792 8.367.126 10.147-3.712.19-.406.333-.822.444-1.241.957-3.537-.717-7.358-4.134-8.96-3.744-1.756-8.176-.188-10.03 3.487-.039.076-.081.147-.119.223-1.78 3.837-.129 8.41 3.692 10.203zm-1.99-9.405c1.344-2.893 4.774-4.146 7.652-2.796 2.884 1.35 4.127 4.796 2.782 7.69-1.343 2.893-4.767 4.149-7.648 2.797-2.881-1.35-4.127-4.797-2.785-7.69z"/>
        <path fill="#18302A" d="M23.14 41.032c2.882 1.352 6.306.096 7.649-2.797 1.345-2.894.101-6.339-2.782-7.69-2.878-1.35-6.308-.097-7.651 2.796-1.342 2.894-.096 6.34 2.785 7.69z"/>
        <path fill="#62CE46" d="M86.872 79.057c1.58.422 3.119.778 4.229.921 3.384.442 4.13-1.797 4.13-1.797s.042-.086.119-.254c-1.944-.947-5.93-2.26-8.478 1.13zM47.323 59.904l3.756 1.762a.229.229 0 0 0 .305-.112l.194-.416a.23.23 0 0 0-.11-.306l-3.76-1.765a.23.23 0 0 0-.305.111l-.193.418a.234.234 0 0 0 .113.308z"/>
    </g>
</svg>
