<svg xmlns="http://www.w3.org/2000/svg" width="129" height="44" viewBox="0 0 129 44">
    <g fill="none" fill-rule="evenodd">
        <rect width="128.519" height="44" fill="#000" rx="2.7"/>
        <g fill="#FFF">
            <path d="M28.135 20.993c-.028-3.148 2.548-4.679 2.666-4.75-1.459-2.151-3.72-2.445-4.515-2.469-1.9-.202-3.742 1.15-4.71 1.15-.986 0-2.476-1.13-4.082-1.097-2.066.032-4 1.242-5.06 3.121-2.187 3.83-.556 9.46 1.54 12.557 1.05 1.518 2.275 3.21 3.879 3.15 1.569-.064 2.155-1.011 4.048-1.011 1.876 0 2.427 1.011 4.062.972 1.684-.025 2.745-1.522 3.757-3.053 1.211-1.736 1.698-3.45 1.717-3.538-.038-.013-3.27-1.26-3.302-5.032M25.045 11.737c.844-1.067 1.421-2.52 1.261-3.993-1.221.055-2.749.855-3.628 1.899-.779.92-1.474 2.427-1.294 3.845 1.372.104 2.78-.7 3.661-1.75"/>
        </g>
        <g fill="#FFF">
            <path d="M50.862 32.438h-2.193l-1.201-3.818h-4.175l-1.144 3.818h-2.135l4.137-12.996h2.555l4.156 12.996zm-3.756-5.42l-1.086-3.392c-.115-.347-.332-1.164-.648-2.449h-.039c-.127.553-.331 1.37-.61 2.45l-1.068 3.392h3.45zM61.481 27.637c0 1.594-.427 2.853-1.284 3.778-.766.823-1.72 1.235-2.856 1.235-1.227 0-2.11-.443-2.646-1.33v4.916h-2.058v-10.09c0-1-.026-2.026-.077-3.08h1.81l.116 1.487h.038c.687-1.12 1.729-1.68 3.127-1.68 1.093 0 2.005.437 2.735 1.311.73.876 1.095 2.026 1.095 3.453zm-2.097.076c0-.912-.203-1.664-.61-2.256-.445-.616-1.043-.925-1.792-.925-.508 0-.97.172-1.382.511-.413.341-.684.787-.81 1.341a2.733 2.733 0 0 0-.096.633v1.564c0 .68.207 1.255.62 1.726.413.469.95.704 1.61.704.776 0 1.38-.304 1.811-.906.433-.605.65-1.402.65-2.392zM72.139 27.637c0 1.594-.428 2.853-1.285 3.778-.767.823-1.72 1.235-2.857 1.235-1.226 0-2.109-.443-2.646-1.33v4.916h-2.058v-10.09c0-1-.026-2.026-.076-3.08h1.81l.115 1.487h.039c.685-1.12 1.727-1.68 3.126-1.68 1.092 0 2.006.437 2.737 1.311.728.876 1.095 2.026 1.095 3.453zm-2.099.076c0-.912-.203-1.664-.61-2.256-.445-.616-1.042-.925-1.791-.925-.508 0-.97.172-1.384.511a2.37 2.37 0 0 0-.809 1.341 2.796 2.796 0 0 0-.096.633v1.564c0 .68.207 1.255.618 1.726.414.468.95.704 1.613.704.776 0 1.38-.304 1.81-.906.433-.605.65-1.402.65-2.392zM84.054 28.793c0 1.106-.382 2.005-1.142 2.7-.837.757-2.004 1.137-3.5 1.137-1.383 0-2.492-.27-3.328-.81l.476-1.735c.903.54 1.894.81 2.974.81.776 0 1.38-.177 1.81-.53.433-.354.65-.826.65-1.415 0-.529-.18-.972-.535-1.332-.356-.359-.945-.695-1.772-1.001-2.25-.849-3.375-2.091-3.375-3.723 0-1.066.398-1.94 1.19-2.622.794-.682 1.847-1.022 3.156-1.022 1.17 0 2.143.206 2.917.617l-.517 1.697c-.728-.398-1.55-.598-2.469-.598-.726 0-1.296.181-1.703.54a1.554 1.554 0 0 0-.518 1.178c0 .513.198.939.593 1.272.342.308.966.643 1.868 1.002 1.106.452 1.918.977 2.44 1.58.524.604.785 1.357.785 2.255M90.878 24.63h-2.27v4.549c0 1.157.4 1.734 1.202 1.734.368 0 .673-.03.914-.096l.057 1.58c-.406.154-.94.231-1.6.231-.814 0-1.448-.252-1.908-.753-.458-.502-.686-1.343-.686-2.526v-4.724h-1.351v-1.562h1.35v-1.716l2.022-.617v2.333h2.27v1.566M101.095 27.675c0 1.44-.406 2.623-1.22 3.548-.85.951-1.982 1.427-3.393 1.427-1.362 0-2.444-.456-3.251-1.369-.808-.912-1.211-2.062-1.211-3.45 0-1.452.418-2.641 1.248-3.566.833-.925 1.955-1.389 3.365-1.389 1.36 0 2.452.458 3.28 1.37.79.885 1.182 2.027 1.182 3.43zm-2.134.048c0-.858-.183-1.595-.55-2.21-.433-.745-1.051-1.116-1.851-1.116-.824 0-1.458.371-1.888 1.115-.37.616-.552 1.365-.552 2.25 0 .86.183 1.598.552 2.21.445.746 1.066 1.118 1.872 1.118.786 0 1.403-.38 1.85-1.135.377-.63.567-1.372.567-2.232zM107.79 24.898a3.545 3.545 0 0 0-.65-.057c-.723 0-1.283.275-1.677.83-.343.488-.514 1.105-.514 1.85v4.917h-2.059v-6.42c0-1.08-.02-2.064-.06-2.95h1.794l.075 1.793h.057c.218-.616.56-1.113 1.03-1.485.459-.335.953-.502 1.487-.502.19 0 .362.014.515.038l.002 1.986M116.997 27.309c0 .373-.025.687-.076.944h-6.175c.023.926.323 1.635.895 2.123.52.436 1.195.655 2.02.655.915 0 1.75-.147 2.5-.444l.322 1.445c-.877.386-1.913.58-3.106.58-1.437 0-2.565-.428-3.386-1.282-.818-.854-1.229-2.004-1.229-3.441 0-1.412.38-2.589 1.145-3.527.8-1.002 1.88-1.503 3.24-1.503 1.335 0 2.346.5 3.032 1.503.544.794.818 1.778.818 2.947zm-1.963-.54c.014-.618-.121-1.15-.4-1.6-.356-.58-.905-.87-1.64-.87-.674 0-1.221.283-1.638.849-.343.45-.547.992-.61 1.619l4.288.002z"/>
        </g>
        <g fill="#FFF">
            <path d="M46.113 14.79h-1.078l-.59-1.875h-2.052l-.563 1.876h-1.05l2.034-6.388h1.255l2.044 6.388zm-1.846-2.662l-.534-1.668c-.056-.171-.16-.568-.319-1.203h-.019c-.066.274-.16.673-.3 1.203l-.525 1.668h1.697zM51.198 10.186l-1.725 4.605h-.984l-1.668-4.605h1.087l.778 2.435c.132.407.244.796.328 1.165h.028c.075-.331.187-.72.327-1.165l.769-2.435h1.06M54.87 14.79l-.076-.53h-.028c-.31.427-.76.635-1.33.635-.816 0-1.397-.578-1.397-1.355 0-1.137.974-1.725 2.661-1.725v-.085c0-.606-.319-.91-.946-.91-.45 0-.844.115-1.19.342l-.205-.673c.422-.265.946-.398 1.565-.398 1.19 0 1.79.635 1.79 1.905v1.696c0 .465.02.825.066 1.1l-.91-.001zm-.142-2.293c-1.125 0-1.687.275-1.687.929 0 .483.29.72.694.72.515 0 .993-.398.993-.938v-.711zM57.968 9.427a.598.598 0 0 1-.6-.616.6.6 0 0 1 .619-.607c.347 0 .628.256.618.607 0 .37-.262.616-.637.616zm-.487.759h1.012v4.605H57.48v-4.605zM60.29 8.072h1.013v6.719H60.29zM65.603 14.79l-.076-.53H65.5c-.309.427-.759.635-1.33.635-.815 0-1.397-.578-1.397-1.355 0-1.137.975-1.725 2.661-1.725v-.085c0-.606-.318-.91-.946-.91-.45 0-.844.115-1.19.342l-.206-.674c.422-.265.946-.398 1.565-.398 1.19 0 1.791.635 1.791 1.905v1.696c0 .465.02.825.064 1.1h-.909zm-.14-2.293c-1.125 0-1.687.275-1.687.929 0 .483.29.72.693.72.516 0 .993-.398.993-.938v-.711zM70.547 14.895c-.646 0-1.123-.275-1.433-.815h-.019l-.058.71h-.861c.027-.368.036-.786.036-1.24V8.072h1.014v2.787h.019c.3-.511.787-.767 1.452-.767 1.097 0 1.865.948 1.865 2.33 0 1.43-.853 2.473-2.015 2.473zm-.205-4c-.583 0-1.116.512-1.116 1.223v.806c0 .634.48 1.156 1.097 1.156.758 0 1.21-.625 1.21-1.62 0-.929-.47-1.565-1.191-1.565zM74.06 8.072h1.011v6.719H74.06zM80.579 12.734H77.54c.02.872.59 1.364 1.433 1.364.45 0 .863-.076 1.228-.217l.158.71c-.431.19-.937.285-1.527.285-1.425 0-2.268-.91-2.268-2.321 0-1.412.863-2.474 2.155-2.474 1.16 0 1.893.872 1.893 2.19.003.18-.005.34-.034.463zm-.927-.73c0-.71-.358-1.212-1.004-1.212-.582 0-1.04.512-1.107 1.213h2.11zM86.712 14.895c-1.33 0-2.193-1.005-2.193-2.369 0-1.422.88-2.435 2.27-2.435 1.31 0 2.192.957 2.192 2.36 0 1.44-.91 2.444-2.269 2.444zm.039-4.056c-.731 0-1.2.691-1.2 1.658 0 .948.478 1.64 1.19 1.64s1.19-.74 1.19-1.66c0-.937-.469-1.638-1.18-1.638zM94.421 14.79h-1.01v-2.644c0-.814-.31-1.222-.919-1.222-.6 0-1.013.521-1.013 1.128v2.739h-1.01V11.5c0-.406-.011-.843-.038-1.316h.89l.047.71h.03c.268-.492.823-.805 1.442-.805.954 0 1.581.74 1.581 1.942v2.759M101.042 10.953H99.93v2.236c0 .57.196.854.589.854.178 0 .33-.02.45-.048l.028.777c-.197.076-.46.115-.786.115-.799 0-1.274-.446-1.274-1.612v-2.322h-.663v-.767h.663v-.844l.993-.304v1.147h1.113v.768M106.401 14.79h-1.013v-2.624c0-.824-.31-1.241-.918-1.241-.524 0-1.01.36-1.01 1.09v2.776h-1.014V8.072h1.013v2.767h.02c.317-.502.778-.75 1.368-.75.964 0 1.554.759 1.554 1.963v2.739M111.572 12.734h-3.037c.02.872.59 1.364 1.433 1.364.452 0 .863-.076 1.226-.217l.159.71c-.43.19-.937.285-1.528.285-1.424 0-2.267-.91-2.267-2.321 0-1.412.862-2.474 2.154-2.474 1.162 0 1.894.872 1.894 2.19a2 2 0 0 1-.034.463zm-.928-.73c0-.71-.355-1.212-1.002-1.212-.582 0-1.04.512-1.107 1.213h2.109z"/>
        </g>
    </g>
</svg>
