<svg xmlns="http://www.w3.org/2000/svg" width="100" height="100" viewBox="0 0 100 100">
    <g fill="none" fill-rule="evenodd">
        <g transform="translate(0 7)">
            <path fill="#18302A" fill-rule="nonzero" d="M94.859 60.464L80.99 54.339 69.784 37.463c-.605-1.586-2.492-2.884-4.19-2.884H4.713a2.46 2.46 0 0 0-2.457 2.45v41.347h92.422a3.097 3.097 0 0 0 3.092-3.085V64.585c0-1.696-1.31-3.55-2.911-4.121z"/>
            <path fill="#18302A" fill-rule="nonzero" d="M99.709 74.114a2.461 2.461 0 0 0-2.457-2.45H2.747a2.461 2.461 0 0 0-2.457 2.45v1.812a2.461 2.461 0 0 0 2.457 2.45h94.506a2.461 2.461 0 0 0 2.456-2.45v-1.812z"/>
            <path fill="#62CE46" fill-rule="nonzero" d="M59.816 29.777a3.66 3.66 0 0 0-3.664 3.656v1.146h7.329v-1.146a3.66 3.66 0 0 0-3.665-3.656zM93.876 61.442l-2.965-1.309c.363 1.84 1.622 5.302 5.875 5.74v-.307c0-1.696-1.31-3.551-2.91-4.124z"/>
            <path fill="#FFF" fill-rule="nonzero" d="M76.66 54.518H50.05V40.033h15.033c1.166 0 2.593.693 3.172 1.539l8.403 12.946z"/>
            <ellipse cx="22.366" cy="78.377" fill="#3D4C48" fill-rule="nonzero" rx="8.269" ry="8.25"/>
            <ellipse cx="75.267" cy="78.377" fill="#3D4C48" fill-rule="nonzero" rx="8.27" ry="8.251"/>
            <ellipse cx="22.366" cy="78.377" fill="#18302A" fill-rule="nonzero" rx="4.912" ry="4.901"/>
            <ellipse cx="75.268" cy="78.377" fill="#18302A" fill-rule="nonzero" rx="4.913" ry="4.902"/>
            <path fill="#62CE46" fill-rule="nonzero" d="M37.463 12.492C37.524 5.861 32.184.435 25.54.374c-6.647-.06-12.085 5.265-12.147 11.898-.055 5.917 4.192 10.87 9.83 11.913l2.048 5.178 2.145-5.14c5.658-.938 9.993-5.813 10.048-11.73z"/>
            <path stroke="#FFF" stroke-linecap="round" stroke-linejoin="round" stroke-width="3.439" d="M20.471 14.596l2.48 2.521 7.437-7.284"/>
        </g>
        <path fill="#18302A" fill-rule="nonzero" d="M70.07 61.518h-1.964l2.455-4.583h1.965z"/>
        <path fill="#62CE46" fill-rule="nonzero" d="M50.052 69.207h6.492v1.592h-6.492z"/>
        <g stroke="#62CE46" stroke-width="3.93">
            <path d="M69.665 26.378l-3.489 7.481M49.966 26.377l3.487 7.482"/>
        </g>
    </g>
</svg>
