<svg xmlns="http://www.w3.org/2000/svg" width="100" height="100" viewBox="0 0 100 100">
    <g fill="none" fill-rule="evenodd">
        <path stroke="#050302" stroke-width="2" d="M95.258 68.747c10.353-24.995-1.516-53.651-26.511-64.005C43.752-5.611 15.096 6.258 4.742 31.253-5.611 56.25 6.258 84.905 31.253 95.258c24.996 10.353 53.651-1.516 64.005-26.511z"/>
        <path stroke="#002C25" stroke-width=".77" d="M14.12 51.31v14.137a2.895 2.895 0 0 0 2.895 2.895h1.284c1.6 0 2.896-1.297 2.896-2.895v-2.061c-.39-.005-.649-.01-.649-.01-4.034.022-3.957.853-5.212-8.461M64.846 54.915c-1.254 9.313-1.178 8.483-5.212 8.462l-.648-.003v2.073a2.894 2.894 0 0 0 2.894 2.894h1.285c1.6 0 2.896-1.295 2.896-2.894V51.311"/>
        <path fill="#A4BD7E" d="M19.945 64.169s2.712.039 3.856 0c.088-.002.275-.069.318-.145.127-.229.212-.476.475-.476h30.993c.262 0 .348.246.474.476.042.076.23.146.318.145 1.026-.02 3.857 0 3.857 0 4.158.021 4.079.852 5.371-8.462.354-2.545.566-4.319.678-5.56l-.381-.076c-1.905 2.449-7.51 3.219-14.081 3.509-.359 1.5-.821 3.382-1.086 4.28-.698 2.371-1.473 3.576-3.769 3.576H33.212c-2.295 0-3.071-1.205-3.77-3.577-.264-.897-.726-2.78-1.086-4.28-6.57-.29-12.174-1.06-14.078-3.508l-.383.076c.113 1.241.324 3.015.677 5.56 1.293 9.314 1.215 8.483 5.373 8.462"/>
        <path stroke="#002C25" stroke-width=".77" d="M65.872 46.654c-.45-2.939-1.373-5.28-2.745-5.809-.434-.251-.58-.59-.866-1.183-1.748-4.624-2.753-6.503-4.186-8.815-1.31-2.119-1.785-2.33-4.294-2.514-4.975-.366-9.035-.567-12.81-.61v-.01c-.293 0-.586 0-.881.002-.294-.003-.589-.003-.882-.003v.01c-3.774.044-7.834.245-12.809.611-2.508.184-2.983.395-4.295 2.514-1.431 2.312-2.437 4.19-4.185 8.815-.284.592-.433.932-.865 1.183-1.373.529-2.297 2.87-2.745 5.809-.034.222-.86.961.263 9.053 1.294 9.314 1.214 8.483 5.373 8.462 0 0 2.712.039 3.857 0 .087-.002.274-.069.317-.145.127-.23.213-.475.475-.475h30.993c.261 0 .348.245.475.475.042.076.229.147.316.145 1.027-.02 3.858 0 3.858 0 4.158.02 3.774.804 5.371-8.462 1.128-6.532.3-8.83.265-9.053z"/>
        <path stroke="#002C25" stroke-width=".77" d="M48.412 48.338c-2.544-.266-4.933-.312-8.307-.312H40.076c-3.375 0-5.764.046-8.308.312-1.804.188-3.303 1.473-2.96 2.96 0 0 1.102 4.729 1.559 6.282.688 2.336 1.324 2.959 2.96 2.959H46.853c1.634 0 2.272-.623 2.96-2.959.458-1.553 1.557-6.283 1.557-6.283.344-1.486-1.155-2.771-2.96-2.96z"/>
        <path stroke="#002C25" stroke-width=".77" d="M47.436 57.434H32.745a.555.555 0 0 1-.554-.554v-2.89c0-.306.248-.555.554-.555h14.69c.306 0 .555.249.555.554v2.891a.555.555 0 0 1-.554.554zM29.405 48.554c-3.026-4.383-8.016-6.758-10.827-7.024M61.601 41.53c-2.811.266-7.8 2.641-10.826 7.024M17.626 38.366c1.038.005-.016 2.16-.295 2.16h-3.97a1.982 1.982 0 0 1-1.982-1.982c0-1.096.911-1.752 1.981-1.983.855-.185 1.708-.263 1.708-.263 1.692-.186 1.524-.225 2.105 1.834 0 0 .092.231.453.234zM62.565 38.366c-1.037.005.016 2.16.296 2.16h3.97a1.982 1.982 0 0 0 1.982-1.982c0-1.096-.911-1.752-1.982-1.983a16.316 16.316 0 0 0-1.707-.263c-1.692-.186-1.524-.225-2.105 1.834 0 0-.093.231-.454.234z"/>
        <path fill="#2191C6" d="M60.661 40.107c-.24-.776-.488-1.52-.74-2.234l-.024-.065a3.031 3.031 0 0 1-.026-.076h-.002c-.796-2.202-1.703-4.233-2.609-5.765-.401-.677-.625-.902-.969-.923-4.012-.235-11.202-.562-15.636-.586v-.001H39.568v.001c-4.434.024-11.625.35-15.637.586-.343.021-.568.246-.969.923-.213.36-.483.86-.704 1.288h-.002c-.015.026-.027.054-.041.082l-.04.075h.003c-.94 1.862-1.819 4.115-2.617 6.695-.052.167.002.332.317.316 5.07-.245 12.217-.464 19.69-.474H40.655c7.473.01 14.62.229 19.689.474.317.016.368-.15.317-.316"/>
        <path fill="#DC6A67" d="M55.537 51.845c-.673 0-1.35-.024-2.015-.074l.046-.202a3.208 3.208 0 0 0-.376-2.37c2.153-.684 5.228-1.41 9.149-2.163a.66.66 0 0 1 .59.19c.117.119.254.346.246.758a38.518 38.518 0 0 1-.084 1.782c-.042.5-.473.913-.854 1.05-1.91.683-4.165 1.03-6.702 1.03"/>
        <path fill="#002C25" d="M62.458 46.6a.967.967 0 0 0-.197.018c-4.15.795-7.358 1.564-9.536 2.286l-.207.068.15.203c.495.693.667 1.509.485 2.297l-.16.682.183.017c.776.066 1.57.1 2.362.1 2.586 0 4.89-.353 6.844-1.054.52-.186 1.077-.731 1.136-1.415.039-.471.076-1.386.085-1.81.01-.56-.194-.888-.367-1.065a1.083 1.083 0 0 0-.778-.328m0 .853c.065 0 .122.023.17.072.047.049.128.174.122.451a36.908 36.908 0 0 1-.082 1.754c-.027.324-.35.606-.574.686-1.862.666-4.067 1.004-6.556 1.004-.5 0-1.003-.014-1.5-.043a3.591 3.591 0 0 0-.243-1.917c2.103-.636 4.999-1.309 8.626-2.005.012-.002.025-.002.037-.002"/>
        <path fill="#DC6A67" d="M24.643 51.845c-2.537 0-4.792-.346-6.702-1.029-.381-.137-.812-.55-.854-1.05a36.856 36.856 0 0 1-.084-1.782c-.007-.412.13-.64.246-.758a.656.656 0 0 1 .59-.19c3.923.752 6.999 1.48 9.15 2.164a3.21 3.21 0 0 0-.378 2.368l.048.203c-.665.05-1.342.074-2.016.074"/>
        <path fill="#002C25" d="M17.722 46.6c-.294 0-.57.115-.778.327-.172.177-.377.505-.367 1.065.009.424.045 1.339.085 1.81.059.684.616 1.23 1.136 1.415 1.954.7 4.258 1.055 6.845 1.055.79 0 1.585-.035 2.362-.101l.182-.017-.16-.682c-.182-.788-.01-1.604.484-2.297l.15-.203-.206-.068c-2.177-.722-5.386-1.49-9.536-2.286a.974.974 0 0 0-.197-.019m0 .853l.037.002c3.627.696 6.522 1.369 8.625 2.004a3.588 3.588 0 0 0-.241 1.918c-.498.03-1 .043-1.5.043-2.49 0-4.695-.338-6.557-1.004-.223-.08-.546-.362-.574-.686-.038-.45-.074-1.34-.082-1.754-.006-.277.074-.402.124-.452a.227.227 0 0 1 .168-.07"/>
        <path stroke="#002C25" stroke-width=".77" d="M60.661 40.107c-.24-.776-.488-1.52-.74-2.234l-.024-.065a3.031 3.031 0 0 1-.026-.076h-.002c-.796-2.202-1.703-4.233-2.609-5.765-.401-.677-.625-.902-.969-.923-4.012-.235-11.202-.562-15.636-.586v-.001H39.568v.001c-4.434.024-11.625.35-15.637.586-.343.021-.568.246-.969.923-.213.36-.483.86-.704 1.288h-.002c-.015.026-.027.054-.041.082l-.04.075h.003c-.94 1.862-1.819 4.115-2.617 6.695-.052.167.002.332.317.316 5.07-.245 12.217-.464 19.69-.474H40.655c7.473.01 14.62.229 19.689.474.317.016.368-.15.317-.316z"/>
        <path fill="#002C25" d="M86.876 75.281l1.46-.317c-.164-.76-1.26-5.549-1.64-6.932-.441-1.612-.907-3.044-1.387-4.257-.753-1.907-1.517-3.238-2.338-4.067-1.7-1.72-9.175-4.38-11.425-5.154-.381-.131-.79-.1-1.142.074l-.004-.78a1.495 1.495 0 1 0-2.265-1.276c-1.394.838-2.534 1.06-2.96 1.06-1.247-.031-2.604-.423-3.817-1.103a1.49 1.49 0 0 0-1.473.006c-.457.26-.742.74-.754 1.265l-.017.763a1.52 1.52 0 0 0-.583.061c-2.42.818-10.462 3.628-12.275 5.46-.762.769-1.49 1.893-2.224 3.438-.75 1.572-1.359 3.282-1.736 4.438-.297.902-1.91 6.569-2.01 6.922l2.878.81.115-.405 42.065-.006c.03.135.057.25.07.319l1.462-.319z"/>
        <path fill="#050302" d="M86.876 75.281c-.166-.763-1.257-5.526-1.62-6.854-.363-1.322-.814-2.778-1.337-4.103-.59-1.49-1.266-2.813-2.01-3.565-1.318-1.33-7.945-3.792-10.85-4.792-.18.15-.44.347-.752.557a9.71 9.71 0 0 1-1.387.776c-.367.17-.777.321-1.214.456a9.325 9.325 0 0 1-3.845.372c-1.396-.144-2.487-.549-3.308-.994a7.1 7.1 0 0 1-1.37-.94c-.058-.052-.126-.108-.174-.154-3.136 1.06-10.279 3.67-11.69 5.096-.704.71-1.357 1.811-1.938 3.03-.667 1.4-1.237 2.952-1.665 4.261-.272.83-1.841 6.333-1.99 6.86"/>
        <path fill="#DCCEB6" d="M68.913 55.748l-.009-1.892c-1.617.97-3.025 1.27-3.713 1.27h-.053c-1.66-.04-3.262-.593-4.511-1.292l-.038 1.706c.81.566 2.227 1.256 4.347 1.256a8.218 8.218 0 0 0 3.977-1.048"/>
        <path fill="#DCCEB6" d="M74.752 40.12a.451.451 0 0 1-.45-.45c0-7.377-4.798-10.68-9.551-10.68-4.754 0-9.551 3.303-9.551 10.68a.45.45 0 0 1-.45.45c-1.426 0-2.195 1.32-2.195 2.562 0 1.601 1.132 2.98 3.19 3.883.118.052.21.153.248.277 1.594 5.032 6.57 7.21 8.758 7.21 2.187 0 7.164-2.178 8.757-7.21a.446.446 0 0 1 .238-.272l.011-.005c2.057-.903 3.19-2.282 3.19-3.883 0-1.242-.77-2.562-2.195-2.562"/>
        <path fill="#002C25" d="M73.675 46.38l-.005.002a.65.65 0 0 0-.356.398c-1.562 4.934-6.427 7.068-8.563 7.068-2.137 0-7.001-2.134-8.565-7.068a.652.652 0 0 0-.36-.4c-1.979-.87-3.068-2.183-3.068-3.698 0-1.144.698-2.36 1.991-2.36.36 0 .653-.293.653-.652 0-7.236 4.695-10.476 9.349-10.476 4.652 0 9.348 3.24 9.348 10.476 0 .36.293.652.652.652 1.295 0 1.993 1.216 1.993 2.36 0 1.515-1.09 2.828-3.07 3.698m2.033-7.215l-.308-.1-.018-.325c-.186-3.437-1.437-6.283-3.62-8.231-1.893-1.69-4.384-2.621-7.01-2.621-2.627 0-5.117.93-7.011 2.62-2.182 1.95-3.433 4.795-3.62 8.232l-.016.326-.31.1c-1.402.454-2.343 1.867-2.343 3.516 0 1.93 1.211 3.595 3.41 4.69l.17.083.065.178c1.101 3.034 4.932 7.522 9.655 7.522 2.792 0 7.79-2.39 9.654-7.522l.064-.178.17-.084c2.2-1.094 3.412-2.76 3.412-4.689 0-1.65-.942-3.062-2.344-3.517"/>
        <path fill="#002C25" d="M64.798 26.051c-9.435-1.63-12.257 7.416-10.162 13.123h.29c.448-1.477 2.454-4.433 3.27-5.017 1.77-1.27 2.425 1.286 6.602 1.314 4.178-.028 4.832-2.583 6.603-1.314.82.586 2.853 3.553 3.29 5.017h.268c2.097-5.707-.725-14.753-10.16-13.123"/>
        <path fill="#002C25" d="M74.85 37.594l-.076.364-.176-.328c-.837-1.568-2.21-3.433-2.88-3.913-1.161-.832-2.042-.363-2.975.135-.888.474-1.996 1.065-3.94 1.077-1.954-.012-3.061-.603-3.95-1.077-.932-.498-1.813-.967-2.973-.135-.699.5-2.016 2.303-2.876 3.936l-.175.331-.078-.366c-.65-3.061.083-6.426 1.87-8.57 1.446-1.733 3.53-2.648 6.032-2.648.653 0 1.345.062 2.054.184l.092.017.092-.017c3.448-.595 6.244.257 8.084 2.463 1.781 2.138 2.518 5.493 1.875 8.547m-1.044-9.24c-1.45-1.739-4.187-3.646-8.985-2.855l-.022.003-.022-.003c-4.8-.793-7.536 1.116-8.986 2.855-2.331 2.797-3.015 7.323-1.662 11.007l.13.354h1.067l.116-.383c.435-1.427 2.398-4.255 3.068-4.736.588-.421.886-.294 1.834.21.941.504 2.231 1.191 4.46 1.205 2.218-.014 3.508-.701 4.45-1.204.945-.505 1.245-.632 1.832-.21.669.478 2.675 3.355 3.086 4.731l.115.387h1.05l.13-.354c1.354-3.685.67-8.211-1.661-11.007M87.657 76.121h-46.69a.683.683 0 0 1-.68-.68v-.309c0-.373.306-.679.68-.679h46.69c.374 0 .68.306.68.68v.308c0 .374-.306.68-.68.68"/>
        <path fill="#002C25" d="M76.326 36.632c.625-.26 1.072-.936 1.072-1.732v-2.273c0-1.02-1.264-1.848-2.169-1.848l-.229-.7c-.957-3.875-5.16-6.794-10.202-6.794-5.043 0-9.245 2.92-10.202 6.795l-.075.7c-.905 0-2.322.827-2.322 1.847V34.9c0 .868.53 1.594 1.247 1.793l22.88-.061zM69.264 43.421a1.785 1.785 0 0 1-1.977-1.426l3.525-.455c.06.929-.612 1.76-1.548 1.881zm-8.796.015a1.784 1.784 0 0 1-1.78-1.896l3.526.455a1.785 1.785 0 0 1-1.746 1.44zm12.568-3.885h-16.57l-2.231.129v3.095s1.72.178 2.786 1.051c.326.205.626.457.888.75a3.363 3.363 0 0 0 5.407-.521c.3-.505.838-.823 1.426-.823l.009.001h.009c.587 0 1.125.317 1.426.822a3.36 3.36 0 0 0 5.406.522c.262-.294.562-.546.89-.75 1.065-.874 2.785-1.052 2.785-1.052V39.68l-2.231-.129z"/>
    </g>
</svg>
