<svg xmlns="http://www.w3.org/2000/svg" xmlns:xlink="http://www.w3.org/1999/xlink" width="100" height="100" viewBox="0 0 100 100">
    <defs>
        <path id="a" d="M0 54.808h57.118V.564H0z"/>
    </defs>
    <g fill="none" fill-rule="evenodd">
        <circle cx="50" cy="50" r="49" stroke="#050302" stroke-width="2"/>
        <path fill="#FEFEFE" d="M82.036 64.36l-40.99 24.104-17.15-25.537 44.133-25.48zM30.27 58.81L62.26 40.339l-7.957-13.781-31.992 18.47z"/>
        <g transform="rotate(-30 81 .361)">
            <path fill="#A4BD7E" d="M52.571 45.43a4.837 4.837 0 0 1-4.83 4.831H9.377a4.837 4.837 0 0 1-4.831-4.83V20.99h48.024v24.44zm-40.64-28.417h33.256V5.111H11.931v11.902zm37.234 0V1.133H7.953v15.88H.568V45.43c0 4.858 3.952 8.81 8.81 8.81H47.74c4.858 0 8.81-3.952 8.81-8.81V17.013h-7.385z"/>
            <mask id="b" fill="#fff">
                <use xlink:href="#a"/>
            </mask>
            <path stroke="#002C25" stroke-width="1.137" d="M52.571 45.43a4.837 4.837 0 0 1-4.83 4.831H9.377a4.837 4.837 0 0 1-4.831-4.83V20.99h48.024v24.44zm-40.64-28.417h33.256V5.111H11.931v11.902zm37.234 0V1.133H7.953v15.88H.568V45.43c0 4.858 3.952 8.81 8.81 8.81H47.74c4.858 0 8.81-3.952 8.81-8.81V17.013h-7.385z" mask="url(#b)"/>
        </g>
        <text fill="#26A1D9" font-family="Graphik-Medium, Graphik" font-size="19.231" font-weight="400" letter-spacing="-.321" transform="rotate(-29 69.305 33.39)">
            <tspan x="28.548" y="43.192">PIA</tspan>
        </text>
    </g>
</svg>
