<svg xmlns="http://www.w3.org/2000/svg" width="100" height="100" viewBox="0 0 100 100">
    <g fill="none" fill-rule="nonzero" transform="translate(0 21)">
        <path fill="#62CE46" d="M49.31 10.087c.619 0 1.084-.461 1.084-1.104 0-.629-.465-1.09-1.085-1.09-.603 0-1.08.461-1.08 1.09 0 .642.477 1.104 1.08 1.104zM53.796 13.845c0 .643.479 1.104 1.083 1.104.618 0 1.083-.461 1.083-1.104 0-.629-.465-1.09-1.083-1.09-.604 0-1.083.461-1.083 1.09z"/>
        <path fill="#62CE46" d="M12.867 22.245h51.144l3.924 3.898V.43a3.369 3.369 0 0 0-1.41-.312H12.866c-1.86 0-3.382 1.512-3.382 3.36v15.407c0 1.847 1.523 3.36 3.382 3.36zm44.276-8.4c0 1.244-1.054 2.208-2.264 2.208-1.21 0-2.25-.964-2.25-2.208 0-1.23 1.04-2.194 2.25-2.194s2.264.965 2.264 2.194zm-1.14-6.958l-6.524 9.054h-1.294l6.553-9.054h1.265zm-6.694-.098c1.21 0 2.265.963 2.265 2.194 0 1.243-1.055 2.206-2.265 2.206-1.208 0-2.25-.963-2.25-2.206 0-1.231 1.042-2.194 2.25-2.194zm-6.74 4.471c-.647 0-1.265.252-1.659.657-.48-.182-.887-.363-1.35-.531l1.18-4.499h4.81v1.258h-3.895l-.676 2.598c.408-.447 1.14-.67 1.857-.67 1.786 0 3.094 1.132 3.094 3.003 0 1.706-1.321 3.088-3.347 3.088-1.94 0-3.25-1.258-3.375-2.683l1.322-.39c.085 1.117.915 1.872 2.053 1.872 1.083 0 1.954-.712 1.954-1.831 0-1.244-.913-1.872-1.968-1.872z"/>
        <path fill="#18302A" d="M69.906 28.103V3.479c0-1.349-.81-2.515-1.971-3.05v25.714l1.971 1.96zM85.428 38.05c-.506.334-1.2.79-1.522 1.912l1.733.49c.139-.485.368-.636.784-.91.507-.334 1.201-.79 1.523-1.912.32-1.121-.027-1.873-.28-2.421-.209-.451-.324-.7-.184-1.184.138-.486.367-.637.783-.909.507-.334 1.201-.791 1.522-1.912l-1.733-.49c-.138.484-.367.635-.784.909-.506.334-1.2.79-1.522 1.91-.321 1.122.027 1.875.28 2.424.209.45.324.699.185 1.184-.139.483-.369.635-.785.91zM93.174 36.637c-.517 1.047-.309 1.848-.158 2.432.126.482.194.746-.029 1.2-.224.452-.476.56-.935.756-.558.24-1.323.566-1.84 1.613l1.617.788c.225-.453.477-.56.936-.756.558-.24 1.323-.567 1.84-1.614.516-1.047.308-1.849.156-2.434-.125-.48-.193-.743.03-1.197.223-.452.476-.56.934-.755.559-.24 1.323-.566 1.84-1.613l-1.618-.788c-.223.452-.475.56-.933.756-.56.238-1.324.565-1.84 1.612zM89.738 37.2c.138.478.214.74.004 1.199-.212.458-.461.573-.914.782-.552.253-1.307.6-1.795 1.662l1.638.745c.212-.46.46-.575.914-.783.552-.254 1.307-.602 1.795-1.663.488-1.06.258-1.855.09-2.436-.138-.477-.214-.739-.003-1.197.211-.459.46-.574.914-.782.55-.253 1.307-.6 1.795-1.66l-1.639-.745c-.21.457-.46.574-.913.78-.552.254-1.307.601-1.795 1.662s-.258 1.857-.09 2.437z"/>
        <path fill="#18302A" d="M94.296 47.182c-5.37-1.697-17.376-3.263-20.258-3.51 2.471-3.858 7.452-11.218 10.588-14.54 1.697-1.797 3.536-2.706 5.306-2.635l.06-1.44c-1.538-.068-3.905.42-6.423 3.088-3.085 3.268-8.429 11.034-10.972 15.069-3.056-1.594-13.995-7.175-18.92-8.012-6.05-1.03-20.62-3.707-42.702 6.86 0 0-8.515-.27-9.135.817-.811 1.421.658 5.52-.365 6.498-1.025.982-1.281.946-1.17 2 .11 1.05-.038 6.971 3.252 7.696 2.304.51 5.187 1.16 9.555 1.69-.003-.078-.013-.157-.013-.238 0-3.99 3.255-7.223 7.272-7.223 4.015 0 7.272 3.234 7.272 7.223 0 .422-.044.834-.114 1.236 5.822.16 16.018.194 45.279.29 0 0 .418-.001 1.148-.009a7.195 7.195 0 0 1-.163-1.517c0-3.99 3.258-7.223 7.272-7.223 4.017 0 7.272 3.234 7.272 7.223 0 .306-.026.603-.063.899 5.73-.485 10.912-1.342 11.137-2.86.511-3.45.42-5.173.42-5.173s.494-4.302-5.535-6.209zm-72.512-3.32c.042-.86 1.75-2.84 5.271-4.615 4.958-2.496 8.896-3.592 16.25-3.427l.914 8.69-22.435-.648zm31.183 5.446c0 .12-.1.218-.22.218h-3.95a.22.22 0 0 1-.218-.218v-.438a.22.22 0 0 1 .218-.218h3.95a.22.22 0 0 1 .22.218v.438zm12.085-4.195l1.082-2.148c.054-.106 0-.195-.121-.195h-.953a.392.392 0 0 0-.317.195l-1.06 2.108-16.504-.477-2.108-8.721c7.312.3 13.234 1.33 25.582 9.4l-5.601-.162zm32.414 7.385c-2.058.026-6.023-.447-6.863-4.356 1.533.271 3.003.582 4.016.902 3.097.98 2.845 3.189 2.845 3.189s.002.087.002.265z"/>
        <path fill="#3D4C48" d="M81.067 53.302c-4.015 0-7.273 3.234-7.273 7.223 0 .52.058 1.029.163 1.517.702 3.262 3.618 5.708 7.11 5.708 3.71 0 6.762-2.762 7.208-6.326.037-.296.063-.593.063-.899 0-3.99-3.254-7.223-7.271-7.223zm0 12.67c-3.027 0-5.482-2.438-5.482-5.447 0-3.008 2.455-5.446 5.482-5.446s5.482 2.438 5.482 5.446c0 3.009-2.455 5.447-5.482 5.447z"/>
        <ellipse cx="81.067" cy="60.525" fill="#18302A" rx="5.482" ry="5.446"/>
        <path fill="#3D4C48" d="M20.372 53.302c-4.017 0-7.272 3.234-7.272 7.223 0 .081.01.16.013.238.127 3.88 3.324 6.987 7.26 6.987 3.589 0 6.566-2.589 7.157-5.989.07-.402.114-.814.114-1.236 0-3.99-3.258-7.223-7.272-7.223zm0 12.67c-3.027 0-5.482-2.438-5.482-5.447 0-3.008 2.456-5.446 5.482-5.446 3.028 0 5.481 2.438 5.481 5.446 0 3.009-2.453 5.447-5.481 5.447z"/>
        <ellipse cx="20.371" cy="60.525" fill="#18302A" rx="5.482" ry="5.446"/>
        <path fill="#62CE46" d="M94.62 49.044c-1.014-.32-2.483-.631-4.017-.902.84 3.909 4.805 4.382 6.863 4.355l-.001-.265s.25-2.208-2.845-3.188zM52.748 48.652h-3.95a.22.22 0 0 0-.22.218v.438c0 .12.1.218.22.218h3.95a.22.22 0 0 0 .219-.218v-.438a.22.22 0 0 0-.22-.218z"/>
    </g>
</svg>
