<svg xmlns="http://www.w3.org/2000/svg" width="100" height="100" viewBox="0 0 100 100">
    <g fill="none" fill-rule="evenodd">
        <circle cx="50" cy="50" r="49" stroke="#050302" stroke-width="2"/>
        <path fill="#A4BD7E" d="M24.038 31.02c.548 9.564 4.02 40.841 25.96 48.788 21.944-7.948 25.416-39.228 25.964-48.79-9.598 5.41-18.121-.502-25.95-5.056-7.738 4.638-16.27 10.546-25.974 5.059"/>
        <path stroke="#050302" stroke-width="1.052" d="M24.038 31.02c.548 9.564 4.02 40.841 25.96 48.788 21.944-7.948 25.416-39.228 25.964-48.79-9.598 5.41-18.121-.502-25.95-5.056-7.738 4.638-16.27 10.546-25.974 5.059z"/>
        <path fill="#FEFEFE" d="M49.401 61.538c-.443 0-.882-.137-1.258-.401l-6.76-4.746c-1.035-.724-1.31-2.188-.615-3.267.698-1.078 2.097-1.366 3.13-.64l4.698 3.298 5.817-11.276c.59-1.145 1.963-1.57 3.054-.956 1.097.617 1.508 2.046.916 3.189l-6.996 13.56c-.301.587-.825 1.01-1.443 1.17-.18.046-.36.07-.543.07"/>
    </g>
</svg>
