<svg xmlns="http://www.w3.org/2000/svg" width="100" height="100" viewBox="0 0 100 100">
    <g fill="none" fill-rule="nonzero" transform="translate(0 7)">
        <path fill="#62CE46" d="M63.151 42.7a23.16 23.16 0 0 0 3.31 1.98l-.814-2.745-3.321-11.187h-2.114c-1.29 0-2.346-1.063-2.346-2.363v-1.338c0-1.3 1.056-2.363 2.346-2.363h3.675v-2.357c0-1.03.598-1.87 1.332-1.87.728 0 1.329.84 1.329 1.87v2.357l4.439 14.955 3.218-10.213c.586-1.858 2.648-3.38 4.584-3.38H89.259v-2.448h-4.99V16.06c0-5.937 10.284-5.937 10.284 0v9.986h5.071c.66-6.645-1.504-13.526-6.511-18.666-8.96-9.19-23.618-9.327-32.741-.302-8.145 8.049-9.122 20.67-2.873 29.825l-4.273 9.919 9.925-4.12z"/>
        <path fill="#18302A" d="M96.682 26.046h-2.128v-9.987c0-5.937-10.284-5.937-10.284 0v7.538h4.99v2.448h-1.45c-.001 0 1.363 4.184 8.872 0zM70.987 39.64v-.002l-4.44-14.955v-2.356c0-1.03-.6-1.87-1.327-1.87-.735 0-1.333.84-1.333 1.87v2.356h-3.674c-1.29 0-2.347 1.064-2.347 2.363v1.338c0 1.3 1.056 2.364 2.347 2.364h2.113l3.322 11.187 4.895-3.787.444 1.492z"/>
        <path fill="#3D4C48" d="M87.809 26.046h-9.02c-1.936 0-3.998 1.522-4.583 3.38l-3.219 10.212v.002l-.444-1.492-4.895 3.787.814 2.744c8.561 4.199 19.168 2.778 26.35-4.323a23.3 23.3 0 0 0 6.813-14.31h-2.943c-7.509 4.183-8.873 0-8.873 0z"/>
        <path fill="#18302A" d="M86.15 61.856c-5.502-1.76-18.652-3.374-19.05-3.274 0 0-12.75-6.898-17.998-7.803-5.52-.953-18.807-3.427-38.95 6.343 0 0-7.764-.249-8.331.756-.738 1.314.6 5.104-.333 6.01-.933.906-1.168.872-1.066 1.848.099.97-.035 6.444 2.966 7.117 2.102.47 4.732 1.071 8.715 1.562-.003-.074-.01-.147-.01-.22 0-3.689 2.967-6.68 6.631-6.68 3.662 0 6.633 2.991 6.633 6.68 0 .39-.04.77-.104 1.142 5.31.15 14.61.18 41.297.268 0 0 .383 0 1.05-.008a6.787 6.787 0 0 1-.15-1.402c0-3.689 2.97-6.68 6.633-6.68s6.633 2.991 6.633 6.68c0 .28-.023.558-.057.83 5.226-.448 9.95-1.24 10.158-2.642.464-3.191.381-4.786.381-4.786s.45-3.977-5.048-5.741zm-66.137-3.07c.038-.795 1.597-2.625 4.807-4.265 4.522-2.31 8.114-3.323 14.82-3.17l.834 8.035-20.461-.6zm28.44 5.035a.2.2 0 0 1-.2.203H44.65a.2.2 0 0 1-.2-.203v-.405c0-.11.09-.2.2-.2h3.602c.111 0 .2.09.2.2v.405zm11.023-3.877l.986-1.986c.05-.099 0-.18-.11-.18h-.867c-.11 0-.24.08-.29.18l-.967 1.95-15.053-.442-1.922-8.064c6.667.275 12.072 1.23 23.332 8.693l-5.11-.15zm29.564 6.827c-1.877.025-5.493-.412-6.26-4.026 1.399.249 2.74.537 3.665.834 2.823.906 2.593 2.947 2.593 2.947s.005.082.002.245z"/>
        <path fill="#3D4C48" d="M74.083 67.515c-3.663 0-6.632 2.991-6.632 6.68 0 .48.053.95.148 1.402.64 3.016 3.3 5.28 6.484 5.28 3.384 0 6.17-2.557 6.576-5.852.033-.272.057-.55.057-.83 0-3.689-2.97-6.68-6.633-6.68zm0 11.717c-2.763 0-5-2.257-5-5.037 0-2.782 2.237-5.037 5-5.037 2.761 0 5 2.255 5 5.037 0 2.78-2.239 5.037-5 5.037z"/>
        <path fill="#18302A" d="M79.083 74.195c0-2.782-2.239-5.037-5-5.037-2.763 0-5 2.255-5 5.037 0 2.78 2.237 5.037 5 5.037 2.761 0 5-2.257 5-5.037z"/>
        <path fill="#3D4C48" d="M18.724 67.515c-3.664 0-6.63 2.991-6.63 6.68 0 .074.007.147.01.22.116 3.586 3.03 6.461 6.62 6.461 3.274 0 5.989-2.395 6.529-5.54.063-.37.104-.75.104-1.141 0-3.689-2.97-6.68-6.633-6.68zm0 11.717c-2.76 0-4.999-2.257-4.999-5.037 0-2.782 2.238-5.037 5-5.037 2.76 0 4.998 2.255 4.998 5.037 0 2.78-2.238 5.037-4.999 5.037z"/>
        <ellipse cx="18.724" cy="74.195" fill="#18302A" rx="4.999" ry="5.035"/>
        <path fill="#FFF" d="M43.175 59.465l15.053.442.967-1.95c.05-.098.18-.18.29-.18h.867c.11 0 .16.081.11.18l-.986 1.987 5.11.15c-11.261-7.464-16.666-8.418-23.333-8.693l1.922 8.064zM39.64 51.35c-6.706-.152-10.298.86-14.82 3.171-3.21 1.64-4.769 3.47-4.807 4.265l20.461.6-.834-8.035z"/>
        <path fill="#62CE46" d="M86.445 63.579c-.924-.297-2.266-.586-3.665-.834.767 3.613 4.384 4.051 6.26 4.026.002-.163-.003-.244-.003-.244s.231-2.042-2.592-2.948zM48.252 63.216H44.65a.2.2 0 0 0-.2.2v.406a.2.2 0 0 0 .2.202h3.602a.2.2 0 0 0 .2-.202v-.405c0-.11-.09-.201-.2-.201z"/>
    </g>
</svg>
