<svg xmlns="http://www.w3.org/2000/svg" width="100" height="100" viewBox="0 0 100 100">
    <g fill="none" fill-rule="evenodd" transform="translate(0 17)">
        <g fill-rule="nonzero">
            <path fill="#18302A" d="M96.84 43.684L60.193 23.52 25.904 4.653l-.002-.001-2.353-1.295c-2.59-1.426-5.749-.677-7.02 1.662-.852 1.567-.644 3.462.357 4.97l-5.462 10.06c-.029.052-.051.107-.077.16-.031.053-.066.101-.093.155L2.114 37.19c-1.415 2.606-.457 5.904 2.135 7.33l37.58 20.68c2.59 1.424 6.227.699 8.08-1.614l9.009-11.247 23.223 12.779c2.589 1.424 5.867.456 7.282-2.15l5.464-10.058c1.804.034 3.5-.815 4.35-2.38 1.271-2.34.192-5.42-2.398-6.846z"/>
            <path fill="#3D4C48" d="M42.27 13.526c2.396-4.406.785-9.931-3.591-12.34C34.3-1.22 28.81.397 26.419 4.805c-2.394 4.406-.784 9.93 3.592 12.338 4.378 2.41 9.868.791 12.26-3.616z"/>
            <path fill="#18302A" d="M39.053 11.755c1.422-2.617.467-5.9-2.133-7.33a5.349 5.349 0 0 0-7.284 2.148c-1.422 2.619-.466 5.9 2.136 7.331 2.6 1.431 5.86.47 7.281-2.149zM50.299 47.545l-1.49-.821.403 3.758 1.492.821z"/>
            <path fill="#62CE46" d="M48.494 37.316l-6.225-3.425-.835 1.541 6.223 3.423z"/>
        </g>
        <path fill="#62CE46" fill-rule="nonzero" d="M96.84 43.684l-32.516-17.89-43.422 27.89L41.83 65.199c2.589 1.425 6.226.7 8.078-1.613l9.01-11.248 23.223 12.78c2.589 1.424 5.867.456 7.282-2.15l5.464-10.058c1.804.033 3.5-.815 4.35-2.38 1.271-2.34.192-5.42-2.398-6.846z"/>
        <path fill="#FFF" fill-rule="nonzero" d="M44.831 60.002l-36.73-20.21 6.448-11.869L53.632 49.43z"/>
        <path fill="#18302A" fill-rule="nonzero" d="M37.017 39.24l1.825.998-7.637 13.973-1.825-.997z"/>
        <path fill="#62CE46" fill-rule="nonzero" d="M33.569 45.549l3.64-2.34-5.977 11.004-1.824-1.004z"/>
        <path fill="#FFF" fill-rule="nonzero" d="M89.28 60.978l-.025.05c-1.416 2.606-4.694 3.574-7.285 2.147l-2.393-1.315c.725-.945 3.233-3.177 9.704-.882z"/>
        <path fill="#3D4C48" fill-rule="nonzero" d="M88.271 38.839c2.395-4.408.786-9.931-3.591-12.34-4.379-2.41-9.868-.79-12.26 3.616-2.395 4.406-.784 9.932 3.592 12.34 4.377 2.409 9.868.789 12.26-3.616z"/>
        <ellipse cx="80.346" cy="34.477" fill="#18302A" fill-rule="nonzero" rx="5.366" ry="5.401"/>
        <path fill="#62CE46" fill-rule="nonzero" d="M17.054 54.114l6.755 5.21-7.879-1.433 2.027 5.437-4.427-3.777-3.15 6.194-1.803-7.478-6.903 2.57 3.974-4.836-5.477-.752 5.63-1.89L.7 47.467l8.328 1.964z"/>
        <path stroke="#18302A" stroke-width="2.059" d="M59.445 4.237c-.526 1.86-2.11 1.406-2.637 3.266-.526 1.862 1.059 2.315.533 4.177-.526 1.86-2.11 1.407-2.637 3.269M68.402 8.527c-.846 1.736-2.325 1.006-3.17 2.743-.847 1.737.632 2.467-.214 4.205-.847 1.737-2.326 1.007-3.172 2.745M64.517 6.247c-.799 1.759-2.297 1.07-3.096 2.828-.8 1.76.699 2.45-.1 4.21-.8 1.759-2.298 1.07-3.098 2.83"/>
    </g>
</svg>
