<svg xmlns="http://www.w3.org/2000/svg" width="100" height="100" viewBox="0 0 100 100">
    <g fill="none" fill-rule="evenodd">
        <g transform="translate(0 13)">
            <g fill="#FFF" fill-rule="nonzero">
                <path d="M49.583 11.498c.073.967.79 1.62 1.774 1.62.936 0 1.689-.616 1.689-1.585 0-1.076-.79-1.62-1.7-1.62-.561 0-1.094.219-1.436.57-.414-.158-.766-.315-1.167-.461l1.02-3.893h4.158v1.088h-3.365l-.586 2.248c.353-.386.986-.58 1.605-.58 1.545 0 2.675.98 2.675 2.6 0 1.476-1.142 2.673-2.893 2.673-1.676 0-2.809-1.089-2.918-2.322l1.144-.338zM57.17 6.044c1.046 0 1.958.834 1.958 1.899 0 1.077-.912 1.91-1.958 1.91-1.044 0-1.944-.833-1.944-1.91 0-1.065.9-1.899 1.944-1.899zm-.972 7.92l5.665-7.835h1.094l-5.64 7.835h-1.119zm.972-5.066c.536 0 .937-.399.937-.955 0-.544-.401-.944-.937-.944a.92.92 0 0 0-.934.944c0 .556.412.955.934.955zm4.815 1.355c1.046 0 1.957.834 1.957 1.898 0 1.076-.911 1.91-1.957 1.91-1.045 0-1.945-.834-1.945-1.91 0-1.064.9-1.898 1.945-1.898zm0 2.853c.534 0 .936-.399.936-.955a.915.915 0 0 0-.936-.944.921.921 0 0 0-.936.944c0 .556.413.955.936.955z"/>
            </g>
            <path fill="#18302A" fill-rule="nonzero" d="M.06 61.988a2.438 2.438 0 0 0 2.438 2.425h95.006a2.438 2.438 0 0 0 2.435-2.425V48.85a2.437 2.437 0 0 0-2.435-2.423H2.498A2.438 2.438 0 0 0 .06 48.85v13.137z"/>
            <path fill="#18302A" fill-rule="nonzero" d="M72.527 47.736c.53 1.224-.133 2.226-1.474 2.226H6.64c-1.34 0-2.207-1.067-1.924-2.369l3.847-17.796c.283-1.303 1.61-2.369 2.95-2.369h49.794c1.339 0 2.87 1.001 3.399 2.226l7.821 18.082z"/>
            <path fill="#3D4C48" fill-rule="nonzero" d="M84.345 64.669c0 5.554-4.527 10.06-10.112 10.06-5.586 0-10.113-4.506-10.113-10.06 0-5.556 4.527-10.06 10.113-10.06 5.585 0 10.112 4.504 10.112 10.06z"/>
            <ellipse cx="74.233" cy="64.669" fill="#18302A" fill-rule="nonzero" rx="7.311" ry="7.272"/>
            <path fill="#3D4C48" fill-rule="nonzero" d="M25.537 64.669c0 5.554-4.529 10.06-10.113 10.06-5.586 0-10.112-4.506-10.112-10.06 0-5.556 4.526-10.06 10.112-10.06 5.584 0 10.113 4.504 10.113 10.06z"/>
            <path stroke="#18302A" stroke-width="2.924" d="M73.278 48.572l9.685-26.485"/>
            <path fill="#FFF" fill-rule="nonzero" d="M67.124 46.428H10.225l2.924-13.555h48.127z"/>
            <path stroke="#18302A" stroke-width="4.874" d="M37.455 30.813l4.874 18.244"/>
            <g fill-rule="nonzero">
                <path fill="#62CE46" d="M67.204.271H20.825c-1.608 0-2.924 1.309-2.924 2.909v13.331c0 1.6 1.316 2.91 2.924 2.91h44.207l3.392 3.373V.54a2.907 2.907 0 0 0-1.22-.27z"/>
                <path fill="#18302A" d="M68.424.541v22.253l1.705 1.695V3.18A2.915 2.915 0 0 0 68.424.541z"/>
            </g>
            <path fill="#62CE46" fill-rule="nonzero" d="M97.445 50.633c.316.431.135.784-.401.784h-4.792c-.536 0-1.233-.353-1.548-.784l-1.29-1.762c-.316-.43-.135-.783.401-.783h4.794c.536 0 1.232.353 1.548.784l1.288 1.76z"/>
            <path fill="#18302A" fill-rule="nonzero" d="M63.234 46.428H61.63l1.462-3.92h1.603z"/>
            <ellipse cx="15.424" cy="64.669" fill="#18302A" fill-rule="nonzero" rx="7.31" ry="7.272"/>
            <g fill="#FFF" fill-rule="nonzero">
                <path d="M44.735 11.498c.074.967.791 1.62 1.775 1.62.936 0 1.69-.616 1.69-1.585 0-1.076-.79-1.62-1.702-1.62-.56 0-1.093.219-1.434.57-.414-.158-.766-.315-1.167-.461l1.02-3.893h4.158v1.088h-3.366l-.585 2.248c.353-.386.984-.58 1.605-.58 1.544 0 2.675.98 2.675 2.6 0 1.476-1.143 2.673-2.894 2.673-1.677 0-2.808-1.089-2.916-2.322l1.141-.338zM52.324 6.044c1.046 0 1.958.834 1.958 1.899 0 1.077-.912 1.91-1.958 1.91-1.045 0-1.946-.833-1.946-1.91 0-1.065.901-1.899 1.946-1.899zm-.972 7.92l5.664-7.835h1.095l-5.64 7.835h-1.119zm.972-5.066c.536 0 .937-.399.937-.955a.915.915 0 0 0-.937-.944c-.522 0-.935.4-.935.944 0 .556.413.955.935.955zm4.814 1.355c1.046 0 1.957.834 1.957 1.898 0 1.076-.91 1.91-1.957 1.91-1.044 0-1.944-.834-1.944-1.91 0-1.064.9-1.898 1.944-1.898zm0 2.853c.535 0 .936-.399.936-.955 0-.545-.401-.944-.936-.944a.922.922 0 0 0-.935.944c0 .556.414.955.935.955z"/>
            </g>
        </g>
        <path fill="#62CE46" fill-rule="nonzero" d="M46.498 64.417h6.441v1.575h-6.441z"/>
        <path stroke="#18302A" stroke-width="1.87" d="M88.294 42.891c-.477 1.67-1.916 1.262-2.394 2.931-.478 1.67.96 2.078.483 3.749-.479 1.67-1.918 1.263-2.396 2.933M96.428 46.742c-.768 1.558-2.11.903-2.88 2.462-.768 1.56.575 2.214-.193 3.774s-2.111.904-2.88 2.464M92.9 44.695c-.726 1.579-2.087.96-2.813 2.539-.725 1.58.635 2.198-.09 3.778-.727 1.58-2.087.961-2.814 2.54"/>
    </g>
</svg>
