<svg xmlns="http://www.w3.org/2000/svg" width="100" height="100" viewBox="0 0 100 100">
    <g fill="none" fill-rule="nonzero">
        <path fill="#18302A" d="M85.116 58.87h-3.854v-9.867a2.808 2.808 0 0 0-2.79-2.79H59.635a2.808 2.808 0 0 0-2.791 2.79v9.867H52.99a4.523 4.523 0 0 0-4.518 4.519v32.093A4.523 4.523 0 0 0 52.99 100h32.093a4.523 4.523 0 0 0 4.518-4.518V63.389c.067-2.492-1.993-4.519-4.485-4.519z"/>
        <path fill="#62CE46" d="M77.807 91.23a2 2 0 0 1-1.993 1.993H62.359a2 2 0 0 1-1.994-1.994v-5.083a2 2 0 0 1 1.994-1.993h13.455a2 2 0 0 1 1.993 1.993v5.083zM44.319 7.143c-6.977-8.173-19.27-9.136-27.409-2.16-8.172 6.977-9.136 19.27-2.16 27.442 6.213 7.276 16.679 8.837 24.652 4.12l8.007 4.153-2.858-8.572c5.88-7.143 5.98-17.707-.232-24.983zm-24.95 15.68a3.19 3.19 0 1 1 3.19-3.188c-.034 1.76-1.43 3.189-3.19 3.189zm10.166 0a3.19 3.19 0 1 1 .002-6.38 3.19 3.19 0 0 1-.002 6.38zm10.166 0a3.19 3.19 0 1 1 3.19-3.188c0 1.76-1.462 3.189-3.19 3.189z"/>
    </g>
</svg>
