<svg xmlns="http://www.w3.org/2000/svg" xmlns:xlink="http://www.w3.org/1999/xlink" width="100" height="100" viewBox="0 0 100 100">
    <defs>
        <path id="a" d="M.47 45.074c-2.325 26.757 17.333 50.344 43.906 52.684 26.573 2.34 49.998-17.453 52.321-44.21C99.023 26.791 79.364 3.205 52.791.864a48.24 48.24 0 0 0-4.264-.187C23.757.678 2.667 19.76.469 45.074z"/>
        <path id="c" d="M.47 45.074c-2.325 26.757 17.333 50.344 43.906 52.684 26.573 2.34 49.998-17.453 52.321-44.21C99.023 26.791 79.364 3.205 52.791.864a48.24 48.24 0 0 0-4.264-.187C23.757.678 2.667 19.76.469 45.074"/>
        <path id="e" d="M.47 45.074c-2.325 26.757 17.333 50.344 43.906 52.684 26.573 2.34 49.998-17.453 52.321-44.21C99.023 26.791 79.364 3.205 52.791.864a48.24 48.24 0 0 0-4.264-.187C23.757.678 2.667 19.76.469 45.074"/>
        <path id="g" d="M.47 45.074c-2.325 26.757 17.333 50.344 43.906 52.684 26.573 2.34 49.998-17.453 52.321-44.21C99.023 26.791 79.364 3.205 52.791.864a48.24 48.24 0 0 0-4.264-.187C23.757.678 2.667 19.76.469 45.074"/>
        <path id="i" d="M.47 45.074c-2.325 26.757 17.333 50.344 43.906 52.684 26.573 2.34 49.998-17.453 52.321-44.21C99.023 26.791 79.364 3.205 52.791.864a48.24 48.24 0 0 0-4.264-.187C23.757.678 2.667 19.76.469 45.074"/>
        <path id="k" d="M.47 45.074c-2.325 26.757 17.333 50.344 43.906 52.684 26.573 2.34 49.998-17.453 52.321-44.21C99.023 26.791 79.364 3.205 52.791.864a48.24 48.24 0 0 0-4.264-.187C23.757.678 2.667 19.76.469 45.074"/>
        <path id="m" d="M.47 45.074c-2.325 26.757 17.333 50.344 43.906 52.684 26.573 2.34 49.998-17.453 52.321-44.21C99.023 26.791 79.364 3.205 52.791.864a48.24 48.24 0 0 0-4.264-.187C23.757.678 2.667 19.76.469 45.074"/>
        <path id="o" d="M.47 45.074c-2.325 26.757 17.333 50.344 43.906 52.684 26.573 2.34 49.998-17.453 52.321-44.21C99.023 26.791 79.364 3.205 52.791.864a48.24 48.24 0 0 0-4.264-.187C23.757.678 2.667 19.76.469 45.074"/>
        <path id="q" d="M.47 45.074c-2.325 26.757 17.333 50.344 43.906 52.684 26.573 2.34 49.998-17.453 52.321-44.21C99.023 26.791 79.364 3.205 52.791.864a48.24 48.24 0 0 0-4.264-.187C23.757.678 2.667 19.76.469 45.074"/>
        <path id="s" d="M.47 45.074c-2.325 26.757 17.333 50.344 43.906 52.684 26.573 2.34 49.998-17.453 52.321-44.21C99.023 26.791 79.364 3.205 52.791.864a48.24 48.24 0 0 0-4.264-.187C23.757.678 2.667 19.76.469 45.074"/>
        <path id="u" d="M.47 45.074c-2.325 26.757 17.333 50.344 43.906 52.684 26.573 2.34 49.998-17.453 52.321-44.21C99.023 26.791 79.364 3.205 52.791.864a48.24 48.24 0 0 0-4.264-.187C23.757.678 2.667 19.76.469 45.074"/>
        <path id="w" d="M.47 45.074c-2.325 26.757 17.333 50.344 43.906 52.684 26.573 2.34 49.998-17.453 52.321-44.21C99.023 26.791 79.364 3.205 52.791.864a48.24 48.24 0 0 0-4.264-.187C23.757.678 2.667 19.76.469 45.074"/>
        <path id="y" d="M.47 45.074c-2.325 26.757 17.333 50.344 43.906 52.684 26.573 2.34 49.998-17.453 52.321-44.21C99.023 26.791 79.364 3.205 52.791.864a48.24 48.24 0 0 0-4.264-.187C23.757.678 2.667 19.76.469 45.074"/>
        <path id="A" d="M.47 45.074c-2.325 26.757 17.333 50.344 43.906 52.684 26.573 2.34 49.998-17.453 52.321-44.21C99.023 26.791 79.364 3.205 52.791.864a48.24 48.24 0 0 0-4.264-.187C23.757.678 2.667 19.76.469 45.074"/>
        <path id="C" d="M.47 45.074c-2.325 26.757 17.333 50.344 43.906 52.684 26.573 2.34 49.998-17.453 52.321-44.21C99.023 26.791 79.364 3.205 52.791.864a48.24 48.24 0 0 0-4.264-.187C23.757.678 2.667 19.76.469 45.074"/>
        <path id="E" d="M.47 45.074c-2.325 26.757 17.333 50.344 43.906 52.684 26.573 2.34 49.998-17.453 52.321-44.21C99.023 26.791 79.364 3.205 52.791.864a48.24 48.24 0 0 0-4.264-.187C23.757.678 2.667 19.76.469 45.074z"/>
        <path id="G" d="M.47 45.074c-2.325 26.757 17.333 50.344 43.906 52.684 26.573 2.34 49.998-17.453 52.321-44.21C99.023 26.791 79.364 3.205 52.791.864a48.24 48.24 0 0 0-4.264-.187C23.757.678 2.667 19.76.469 45.074"/>
        <path id="I" d="M.47 45.074c-2.325 26.757 17.333 50.344 43.906 52.684 26.573 2.34 49.998-17.453 52.321-44.21C99.023 26.791 79.364 3.205 52.791.864a48.24 48.24 0 0 0-4.264-.187C23.757.678 2.667 19.76.469 45.074"/>
        <path id="K" d="M.47 45.074c-2.325 26.757 17.333 50.344 43.906 52.684 26.573 2.34 49.998-17.453 52.321-44.21C99.023 26.791 79.364 3.205 52.791.864a48.24 48.24 0 0 0-4.264-.187C23.757.678 2.667 19.76.469 45.074"/>
        <path id="M" d="M.47 45.074c-2.325 26.757 17.333 50.344 43.906 52.684 26.573 2.34 49.998-17.453 52.321-44.21C99.023 26.791 79.364 3.205 52.791.864a48.24 48.24 0 0 0-4.264-.187C23.757.678 2.667 19.76.469 45.074"/>
        <path id="O" d="M.47 45.074c-2.325 26.757 17.333 50.344 43.906 52.684 26.573 2.34 49.998-17.453 52.321-44.21C99.023 26.791 79.364 3.205 52.791.864a48.24 48.24 0 0 0-4.264-.187C23.757.678 2.667 19.76.469 45.074"/>
        <path id="Q" d="M.47 45.074c-2.325 26.757 17.333 50.344 43.906 52.684 26.573 2.34 49.998-17.453 52.321-44.21C99.023 26.791 79.364 3.205 52.791.864a48.24 48.24 0 0 0-4.264-.187C23.757.678 2.667 19.76.469 45.074"/>
        <path id="S" d="M.47 45.074c-2.325 26.757 17.333 50.344 43.906 52.684 26.573 2.34 49.998-17.453 52.321-44.21C99.023 26.791 79.364 3.205 52.791.864a48.24 48.24 0 0 0-4.264-.187C23.757.678 2.667 19.76.469 45.074"/>
        <path id="U" d="M.47 45.074c-2.325 26.757 17.333 50.344 43.906 52.684 26.573 2.34 49.998-17.453 52.321-44.21C99.023 26.791 79.364 3.205 52.791.864a48.24 48.24 0 0 0-4.264-.187C23.757.678 2.667 19.76.469 45.074"/>
        <path id="W" d="M.47 45.074c-2.325 26.757 17.333 50.344 43.906 52.684 26.573 2.34 49.998-17.453 52.321-44.21C99.023 26.791 79.364 3.205 52.791.864a48.24 48.24 0 0 0-4.264-.187C23.757.678 2.667 19.76.469 45.074"/>
        <path id="Y" d="M.47 45.074c-2.325 26.757 17.333 50.344 43.906 52.684 26.573 2.34 49.998-17.453 52.321-44.21C99.023 26.791 79.364 3.205 52.791.864a48.24 48.24 0 0 0-4.264-.187C23.757.678 2.667 19.76.469 45.074z"/>
        <path id="aa" d="M.47 45.074c-2.325 26.757 17.333 50.344 43.906 52.684 26.573 2.34 49.998-17.453 52.321-44.21C99.023 26.791 79.364 3.205 52.791.864a48.24 48.24 0 0 0-4.264-.187C23.757.678 2.667 19.76.469 45.074"/>
        <path id="ac" d="M.47 45.074c-2.325 26.757 17.333 50.344 43.906 52.684 26.573 2.34 49.998-17.453 52.321-44.21C99.023 26.791 79.364 3.205 52.791.864a48.24 48.24 0 0 0-4.264-.187C23.757.678 2.667 19.76.469 45.074"/>
        <path id="ae" d="M.47 45.074c-2.325 26.757 17.333 50.344 43.906 52.684 26.573 2.34 49.998-17.453 52.321-44.21C99.023 26.791 79.364 3.205 52.791.864a48.24 48.24 0 0 0-4.264-.187C23.757.678 2.667 19.76.469 45.074"/>
        <path id="ag" d="M.47 45.074c-2.325 26.757 17.333 50.344 43.906 52.684 26.573 2.34 49.998-17.453 52.321-44.21C99.023 26.791 79.364 3.205 52.791.864a48.24 48.24 0 0 0-4.264-.187C23.757.678 2.667 19.76.469 45.074"/>
        <path id="ai" d="M.47 45.074c-2.325 26.757 17.333 50.344 43.906 52.684 26.573 2.34 49.998-17.453 52.321-44.21C99.023 26.791 79.364 3.205 52.791.864a48.24 48.24 0 0 0-4.264-.187C23.757.678 2.667 19.76.469 45.074"/>
        <path id="ak" d="M.47 45.074c-2.325 26.757 17.333 50.344 43.906 52.684 26.573 2.34 49.998-17.453 52.321-44.21C99.023 26.791 79.364 3.205 52.791.864a48.24 48.24 0 0 0-4.264-.187C23.757.678 2.667 19.76.469 45.074"/>
        <path id="am" d="M.47 45.074c-2.325 26.757 17.333 50.344 43.906 52.684 26.573 2.34 49.998-17.453 52.321-44.21C99.023 26.791 79.364 3.205 52.791.864a48.24 48.24 0 0 0-4.264-.187C23.757.678 2.667 19.76.469 45.074"/>
        <path id="ao" d="M.47 45.074c-2.325 26.757 17.333 50.344 43.906 52.684 26.573 2.34 49.998-17.453 52.321-44.21C99.023 26.791 79.364 3.205 52.791.864a48.24 48.24 0 0 0-4.264-.187C23.757.678 2.667 19.76.469 45.074"/>
        <path id="aq" d="M.47 45.074c-2.325 26.757 17.333 50.344 43.906 52.684 26.573 2.34 49.998-17.453 52.321-44.21C99.023 26.791 79.364 3.205 52.791.864a48.24 48.24 0 0 0-4.264-.187C23.757.678 2.667 19.76.469 45.074z"/>
        <path id="as" d="M.47 45.074c-2.325 26.757 17.333 50.344 43.906 52.684 26.573 2.34 49.998-17.453 52.321-44.21C99.023 26.791 79.364 3.205 52.791.864a48.24 48.24 0 0 0-4.264-.187C23.757.678 2.667 19.76.469 45.074z"/>
        <path id="au" d="M.47 45.074c-2.325 26.757 17.333 50.344 43.906 52.684 26.573 2.34 49.998-17.453 52.321-44.21C99.023 26.791 79.364 3.205 52.791.864a48.24 48.24 0 0 0-4.264-.187C23.757.678 2.667 19.76.469 45.074"/>
        <path id="aw" d="M.47 45.074c-2.325 26.757 17.333 50.344 43.906 52.684 26.573 2.34 49.998-17.453 52.321-44.21C99.023 26.791 79.364 3.205 52.791.864a48.24 48.24 0 0 0-4.264-.187C23.757.678 2.667 19.76.469 45.074"/>
        <path id="ay" d="M.47 45.074c-2.325 26.757 17.333 50.344 43.906 52.684 26.573 2.34 49.998-17.453 52.321-44.21C99.023 26.791 79.364 3.205 52.791.864a48.24 48.24 0 0 0-4.264-.187C23.757.678 2.667 19.76.469 45.074"/>
        <path id="aA" d="M.47 45.074c-2.325 26.757 17.333 50.344 43.906 52.684 26.573 2.34 49.998-17.453 52.321-44.21C99.023 26.791 79.364 3.205 52.791.864a48.24 48.24 0 0 0-4.264-.187C23.757.678 2.667 19.76.469 45.074"/>
        <path id="aC" d="M.47 45.074c-2.325 26.757 17.333 50.344 43.906 52.684 26.573 2.34 49.998-17.453 52.321-44.21C99.023 26.791 79.364 3.205 52.791.864a48.24 48.24 0 0 0-4.264-.187C23.757.678 2.667 19.76.469 45.074z"/>
        <path id="aE" d="M.47 45.074c-2.325 26.757 17.333 50.344 43.906 52.684 26.573 2.34 49.998-17.453 52.321-44.21C99.023 26.791 79.364 3.205 52.791.864a48.24 48.24 0 0 0-4.264-.187C23.757.678 2.667 19.76.469 45.074"/>
        <path id="aG" d="M.47 45.074c-2.325 26.757 17.333 50.344 43.906 52.684 26.573 2.34 49.998-17.453 52.321-44.21C99.023 26.791 79.364 3.205 52.791.864a48.24 48.24 0 0 0-4.264-.187C23.757.678 2.667 19.76.469 45.074"/>
        <path id="aI" d="M.47 45.074c-2.325 26.757 17.333 50.344 43.906 52.684 26.573 2.34 49.998-17.453 52.321-44.21C99.023 26.791 79.364 3.205 52.791.864a48.24 48.24 0 0 0-4.264-.187C23.757.678 2.667 19.76.469 45.074"/>
        <path id="aK" d="M.47 45.074c-2.325 26.757 17.333 50.344 43.906 52.684 26.573 2.34 49.998-17.453 52.321-44.21C99.023 26.791 79.364 3.205 52.791.864a48.24 48.24 0 0 0-4.264-.187C23.757.678 2.667 19.76.469 45.074"/>
        <path id="aM" d="M.47 45.074c-2.325 26.757 17.333 50.344 43.906 52.684 26.573 2.34 49.998-17.453 52.321-44.21C99.023 26.791 79.364 3.205 52.791.864a48.24 48.24 0 0 0-4.264-.187C23.757.678 2.667 19.76.469 45.074"/>
        <path id="aO" d="M.47 45.074c-2.325 26.757 17.333 50.344 43.906 52.684 26.573 2.34 49.998-17.453 52.321-44.21C99.023 26.791 79.364 3.205 52.791.864a48.24 48.24 0 0 0-4.264-.187C23.757.678 2.667 19.76.469 45.074"/>
        <path id="aQ" d="M.47 45.074c-2.325 26.757 17.333 50.344 43.906 52.684 26.573 2.34 49.998-17.453 52.321-44.21C99.023 26.791 79.364 3.205 52.791.864a48.24 48.24 0 0 0-4.264-.187C23.757.678 2.667 19.76.469 45.074"/>
        <path id="aS" d="M.47 45.074c-2.325 26.757 17.333 50.344 43.906 52.684 26.573 2.34 49.998-17.453 52.321-44.21C99.023 26.791 79.364 3.205 52.791.864a48.24 48.24 0 0 0-4.264-.187C23.757.678 2.667 19.76.469 45.074"/>
        <path id="aU" d="M.47 45.074c-2.325 26.757 17.333 50.344 43.906 52.684 26.573 2.34 49.998-17.453 52.321-44.21C99.023 26.791 79.364 3.205 52.791.864a48.24 48.24 0 0 0-4.264-.187C23.757.678 2.667 19.76.469 45.074"/>
        <path id="aW" d="M.47 45.074c-2.325 26.757 17.333 50.344 43.906 52.684 26.573 2.34 49.998-17.453 52.321-44.21C99.023 26.791 79.364 3.205 52.791.864a48.24 48.24 0 0 0-4.264-.187C23.757.678 2.667 19.76.469 45.074"/>
        <path id="aY" d="M.47 45.074c-2.325 26.757 17.333 50.344 43.906 52.684 26.573 2.34 49.998-17.453 52.321-44.21C99.023 26.791 79.364 3.205 52.791.864a48.24 48.24 0 0 0-4.264-.187C23.757.678 2.667 19.76.469 45.074"/>
        <path id="ba" d="M.47 45.074c-2.325 26.757 17.333 50.344 43.906 52.684 26.573 2.34 49.998-17.453 52.321-44.21C99.023 26.791 79.364 3.205 52.791.864a48.24 48.24 0 0 0-4.264-.187C23.757.678 2.667 19.76.469 45.074"/>
        <path id="bc" d="M.47 45.074c-2.325 26.757 17.333 50.344 43.906 52.684 26.573 2.34 49.998-17.453 52.321-44.21C99.023 26.791 79.364 3.205 52.791.864a48.24 48.24 0 0 0-4.264-.187C23.757.678 2.667 19.76.469 45.074"/>
        <path id="be" d="M.47 45.074c-2.325 26.757 17.333 50.344 43.906 52.684 26.573 2.34 49.998-17.453 52.321-44.21C99.023 26.791 79.364 3.205 52.791.864a48.24 48.24 0 0 0-4.264-.187C23.757.678 2.667 19.76.469 45.074"/>
        <path id="bg" d="M.47 45.074c-2.325 26.757 17.333 50.344 43.906 52.684 26.573 2.34 49.998-17.453 52.321-44.21C99.023 26.791 79.364 3.205 52.791.864a48.24 48.24 0 0 0-4.264-.187C23.757.678 2.667 19.76.469 45.074"/>
        <path id="bi" d="M.47 45.074c-2.325 26.757 17.333 50.344 43.906 52.684 26.573 2.34 49.998-17.453 52.321-44.21C99.023 26.791 79.364 3.205 52.791.864a48.24 48.24 0 0 0-4.264-.187C23.757.678 2.667 19.76.469 45.074"/>
        <path id="bk" d="M.47 45.074c-2.325 26.757 17.333 50.344 43.906 52.684 26.573 2.34 49.998-17.453 52.321-44.21C99.023 26.791 79.364 3.205 52.791.864a48.24 48.24 0 0 0-4.264-.187C23.757.678 2.667 19.76.469 45.074"/>
        <path id="bm" d="M.47 45.074c-2.325 26.757 17.333 50.344 43.906 52.684 26.573 2.34 49.998-17.453 52.321-44.21C99.023 26.791 79.364 3.205 52.791.864a48.24 48.24 0 0 0-4.264-.187C23.757.678 2.667 19.76.469 45.074"/>
        <path id="bo" d="M.47 45.074c-2.325 26.757 17.333 50.344 43.906 52.684 26.573 2.34 49.998-17.453 52.321-44.21C99.023 26.791 79.364 3.205 52.791.864a48.24 48.24 0 0 0-4.264-.187C23.757.678 2.667 19.76.469 45.074"/>
        <path id="bq" d="M.47 45.074c-2.325 26.757 17.333 50.344 43.906 52.684 26.573 2.34 49.998-17.453 52.321-44.21C99.023 26.791 79.364 3.205 52.791.864a48.24 48.24 0 0 0-4.264-.187C23.757.678 2.667 19.76.469 45.074"/>
        <path id="bs" d="M.47 45.074c-2.325 26.757 17.333 50.344 43.906 52.684 26.573 2.34 49.998-17.453 52.321-44.21C99.023 26.791 79.364 3.205 52.791.864a48.24 48.24 0 0 0-4.264-.187C23.757.678 2.667 19.76.469 45.074"/>
        <path id="bu" d="M.47 45.074c-2.325 26.757 17.333 50.344 43.906 52.684 26.573 2.34 49.998-17.453 52.321-44.21C99.023 26.791 79.364 3.205 52.791.864a48.24 48.24 0 0 0-4.264-.187C23.757.678 2.667 19.76.469 45.074"/>
        <path id="bw" d="M.47 45.074c-2.325 26.757 17.333 50.344 43.906 52.684 26.573 2.34 49.998-17.453 52.321-44.21C99.023 26.791 79.364 3.205 52.791.864a48.24 48.24 0 0 0-4.264-.187C23.757.678 2.667 19.76.469 45.074"/>
        <path id="by" d="M.47 45.074c-2.325 26.757 17.333 50.344 43.906 52.684 26.573 2.34 49.998-17.453 52.321-44.21C99.023 26.791 79.364 3.205 52.791.864a48.24 48.24 0 0 0-4.264-.187C23.757.678 2.667 19.76.469 45.074"/>
        <path id="bA" d="M.47 45.074c-2.325 26.757 17.333 50.344 43.906 52.684 26.573 2.34 49.998-17.453 52.321-44.21C99.023 26.791 79.364 3.205 52.791.864a48.24 48.24 0 0 0-4.264-.187C23.757.678 2.667 19.76.469 45.074"/>
        <path id="bC" d="M.47 45.074c-2.325 26.757 17.333 50.344 43.906 52.684 26.573 2.34 49.998-17.453 52.321-44.21C99.023 26.791 79.364 3.205 52.791.864a48.24 48.24 0 0 0-4.264-.187C23.757.678 2.667 19.76.469 45.074"/>
        <path id="bE" d="M.47 45.074c-2.325 26.757 17.333 50.344 43.906 52.684 26.573 2.34 49.998-17.453 52.321-44.21C99.023 26.791 79.364 3.205 52.791.864a48.24 48.24 0 0 0-4.264-.187C23.757.678 2.667 19.76.469 45.074"/>
        <path id="bG" d="M.47 45.074c-2.325 26.757 17.333 50.344 43.906 52.684 26.573 2.34 49.998-17.453 52.321-44.21C99.023 26.791 79.364 3.205 52.791.864a48.24 48.24 0 0 0-4.264-.187C23.757.678 2.667 19.76.469 45.074"/>
        <path id="bI" d="M.47 45.074c-2.325 26.757 17.333 50.344 43.906 52.684 26.573 2.34 49.998-17.453 52.321-44.21C99.023 26.791 79.364 3.205 52.791.864a48.24 48.24 0 0 0-4.264-.187C23.757.678 2.667 19.76.469 45.074z"/>
        <path id="bK" d="M.47 45.074c-2.325 26.757 17.333 50.344 43.906 52.684 26.573 2.34 49.998-17.453 52.321-44.21C99.023 26.791 79.364 3.205 52.791.864a48.24 48.24 0 0 0-4.264-.187C23.757.678 2.667 19.76.469 45.074"/>
        <path id="bM" d="M.47 45.074c-2.325 26.757 17.333 50.344 43.906 52.684 26.573 2.34 49.998-17.453 52.321-44.21C99.023 26.791 79.364 3.205 52.791.864a48.24 48.24 0 0 0-4.264-.187C23.757.678 2.667 19.76.469 45.074"/>
        <path id="bO" d="M.47 45.074c-2.325 26.757 17.333 50.344 43.906 52.684 26.573 2.34 49.998-17.453 52.321-44.21C99.023 26.791 79.364 3.205 52.791.864a48.24 48.24 0 0 0-4.264-.187C23.757.678 2.667 19.76.469 45.074"/>
        <path id="bQ" d="M.47 45.074c-2.325 26.757 17.333 50.344 43.906 52.684 26.573 2.34 49.998-17.453 52.321-44.21C99.023 26.791 79.364 3.205 52.791.864a48.24 48.24 0 0 0-4.264-.187C23.757.678 2.667 19.76.469 45.074"/>
        <path id="bS" d="M.47 45.074c-2.325 26.757 17.333 50.344 43.906 52.684 26.573 2.34 49.998-17.453 52.321-44.21C99.023 26.791 79.364 3.205 52.791.864a48.24 48.24 0 0 0-4.264-.187C23.757.678 2.667 19.76.469 45.074z"/>
        <path id="bU" d="M.47 45.074c-2.325 26.757 17.333 50.344 43.906 52.684 26.573 2.34 49.998-17.453 52.321-44.21C99.023 26.791 79.364 3.205 52.791.864a48.24 48.24 0 0 0-4.264-.187C23.757.678 2.667 19.76.469 45.074"/>
        <path id="bW" d="M.47 45.074c-2.325 26.757 17.333 50.344 43.906 52.684 26.573 2.34 49.998-17.453 52.321-44.21C99.023 26.791 79.364 3.205 52.791.864a48.24 48.24 0 0 0-4.264-.187C23.757.678 2.667 19.76.469 45.074"/>
        <path id="bY" d="M.47 45.074c-2.325 26.757 17.333 50.344 43.906 52.684 26.573 2.34 49.998-17.453 52.321-44.21C99.023 26.791 79.364 3.205 52.791.864a48.24 48.24 0 0 0-4.264-.187C23.757.678 2.667 19.76.469 45.074"/>
        <path id="ca" d="M.47 45.074c-2.325 26.757 17.333 50.344 43.906 52.684 26.573 2.34 49.998-17.453 52.321-44.21C99.023 26.791 79.364 3.205 52.791.864a48.24 48.24 0 0 0-4.264-.187C23.757.678 2.667 19.76.469 45.074"/>
        <path id="cc" d="M.47 45.074c-2.325 26.757 17.333 50.344 43.906 52.684 26.573 2.34 49.998-17.453 52.321-44.21C99.023 26.791 79.364 3.205 52.791.864a48.24 48.24 0 0 0-4.264-.187C23.757.678 2.667 19.76.469 45.074z"/>
        <path id="ce" d="M.47 45.074c-2.325 26.757 17.333 50.344 43.906 52.684 26.573 2.34 49.998-17.453 52.321-44.21C99.023 26.791 79.364 3.205 52.791.864a48.24 48.24 0 0 0-4.264-.187C23.757.678 2.667 19.76.469 45.074"/>
        <path id="cg" d="M.47 45.074c-2.325 26.757 17.333 50.344 43.906 52.684 26.573 2.34 49.998-17.453 52.321-44.21C99.023 26.791 79.364 3.205 52.791.864a48.24 48.24 0 0 0-4.264-.187C23.757.678 2.667 19.76.469 45.074"/>
        <path id="ci" d="M.47 45.074c-2.325 26.757 17.333 50.344 43.906 52.684 26.573 2.34 49.998-17.453 52.321-44.21C99.023 26.791 79.364 3.205 52.791.864a48.24 48.24 0 0 0-4.264-.187C23.757.678 2.667 19.76.469 45.074z"/>
        <path id="ck" d="M.47 45.074c-2.325 26.757 17.333 50.344 43.906 52.684 26.573 2.34 49.998-17.453 52.321-44.21C99.023 26.791 79.364 3.205 52.791.864a48.24 48.24 0 0 0-4.264-.187C23.757.678 2.667 19.76.469 45.074"/>
        <path id="cm" d="M.47 45.074c-2.325 26.757 17.333 50.344 43.906 52.684 26.573 2.34 49.998-17.453 52.321-44.21C99.023 26.791 79.364 3.205 52.791.864a48.24 48.24 0 0 0-4.264-.187C23.757.678 2.667 19.76.469 45.074"/>
        <path id="co" d="M.47 45.074c-2.325 26.757 17.333 50.344 43.906 52.684 26.573 2.34 49.998-17.453 52.321-44.21C99.023 26.791 79.364 3.205 52.791.864a48.24 48.24 0 0 0-4.264-.187C23.757.678 2.667 19.76.469 45.074"/>
        <path id="cq" d="M.47 45.074c-2.325 26.757 17.333 50.344 43.906 52.684 26.573 2.34 49.998-17.453 52.321-44.21C99.023 26.791 79.364 3.205 52.791.864a48.24 48.24 0 0 0-4.264-.187C23.757.678 2.667 19.76.469 45.074"/>
        <path id="cs" d="M.47 45.074c-2.325 26.757 17.333 50.344 43.906 52.684 26.573 2.34 49.998-17.453 52.321-44.21C99.023 26.791 79.364 3.205 52.791.864a48.24 48.24 0 0 0-4.264-.187C23.757.678 2.667 19.76.469 45.074"/>
        <path id="cu" d="M.47 45.074c-2.325 26.757 17.333 50.344 43.906 52.684 26.573 2.34 49.998-17.453 52.321-44.21C99.023 26.791 79.364 3.205 52.791.864a48.24 48.24 0 0 0-4.264-.187C23.757.678 2.667 19.76.469 45.074"/>
        <path id="cw" d="M.47 45.074c-2.325 26.757 17.333 50.344 43.906 52.684 26.573 2.34 49.998-17.453 52.321-44.21C99.023 26.791 79.364 3.205 52.791.864a48.24 48.24 0 0 0-4.264-.187C23.757.678 2.667 19.76.469 45.074"/>
        <path id="cy" d="M.47 45.074c-2.325 26.757 17.333 50.344 43.906 52.684 26.573 2.34 49.998-17.453 52.321-44.21C99.023 26.791 79.364 3.205 52.791.864a48.24 48.24 0 0 0-4.264-.187C23.757.678 2.667 19.76.469 45.074"/>
        <path id="cA" d="M.47 45.074c-2.325 26.757 17.333 50.344 43.906 52.684 26.573 2.34 49.998-17.453 52.321-44.21C99.023 26.791 79.364 3.205 52.791.864a48.24 48.24 0 0 0-4.264-.187C23.757.678 2.667 19.76.469 45.074"/>
        <path id="cC" d="M.47 45.074c-2.325 26.757 17.333 50.344 43.906 52.684 26.573 2.34 49.998-17.453 52.321-44.21C99.023 26.791 79.364 3.205 52.791.864a48.24 48.24 0 0 0-4.264-.187C23.757.678 2.667 19.76.469 45.074"/>
        <path id="cE" d="M.47 45.074c-2.325 26.757 17.333 50.344 43.906 52.684 26.573 2.34 49.998-17.453 52.321-44.21C99.023 26.791 79.364 3.205 52.791.864a48.24 48.24 0 0 0-4.264-.187C23.757.678 2.667 19.76.469 45.074z"/>
        <path id="cG" d="M.47 45.074c-2.325 26.757 17.333 50.344 43.906 52.684 26.573 2.34 49.998-17.453 52.321-44.21C99.023 26.791 79.364 3.205 52.791.864a48.24 48.24 0 0 0-4.264-.187C23.757.678 2.667 19.76.469 45.074"/>
        <path id="cI" d="M.47 45.074c-2.325 26.757 17.333 50.344 43.906 52.684 26.573 2.34 49.998-17.453 52.321-44.21C99.023 26.791 79.364 3.205 52.791.864a48.24 48.24 0 0 0-4.264-.187C23.757.678 2.667 19.76.469 45.074"/>
        <path id="cK" d="M.47 45.074c-2.325 26.757 17.333 50.344 43.906 52.684 26.573 2.34 49.998-17.453 52.321-44.21C99.023 26.791 79.364 3.205 52.791.864a48.24 48.24 0 0 0-4.264-.187C23.757.678 2.667 19.76.469 45.074"/>
        <path id="cM" d="M.47 45.074c-2.325 26.757 17.333 50.344 43.906 52.684 26.573 2.34 49.998-17.453 52.321-44.21C99.023 26.791 79.364 3.205 52.791.864a48.24 48.24 0 0 0-4.264-.187C23.757.678 2.667 19.76.469 45.074"/>
        <path id="cO" d="M.47 45.074c-2.325 26.757 17.333 50.344 43.906 52.684 26.573 2.34 49.998-17.453 52.321-44.21C99.023 26.791 79.364 3.205 52.791.864a48.24 48.24 0 0 0-4.264-.187C23.757.678 2.667 19.76.469 45.074"/>
        <path id="cQ" d="M.47 45.074c-2.325 26.757 17.333 50.344 43.906 52.684 26.573 2.34 49.998-17.453 52.321-44.21C99.023 26.791 79.364 3.205 52.791.864a48.24 48.24 0 0 0-4.264-.187C23.757.678 2.667 19.76.469 45.074z"/>
        <path id="cS" d="M.47 45.074c-2.325 26.757 17.333 50.344 43.906 52.684 26.573 2.34 49.998-17.453 52.321-44.21C99.023 26.791 79.364 3.205 52.791.864a48.24 48.24 0 0 0-4.264-.187C23.757.678 2.667 19.76.469 45.074"/>
        <path id="cU" d="M.47 45.074c-2.325 26.757 17.333 50.344 43.906 52.684 26.573 2.34 49.998-17.453 52.321-44.21C99.023 26.791 79.364 3.205 52.791.864a48.24 48.24 0 0 0-4.264-.187C23.757.678 2.667 19.76.469 45.074"/>
        <path id="cW" d="M.47 45.074c-2.325 26.757 17.333 50.344 43.906 52.684 26.573 2.34 49.998-17.453 52.321-44.21C99.023 26.791 79.364 3.205 52.791.864a48.24 48.24 0 0 0-4.264-.187C23.757.678 2.667 19.76.469 45.074z"/>
        <path id="cY" d="M.47 45.074c-2.325 26.757 17.333 50.344 43.906 52.684 26.573 2.34 49.998-17.453 52.321-44.21C99.023 26.791 79.364 3.205 52.791.864a48.24 48.24 0 0 0-4.264-.187C23.757.678 2.667 19.76.469 45.074"/>
        <path id="da" d="M.47 45.074c-2.325 26.757 17.333 50.344 43.906 52.684 26.573 2.34 49.998-17.453 52.321-44.21C99.023 26.791 79.364 3.205 52.791.864a48.24 48.24 0 0 0-4.264-.187C23.757.678 2.667 19.76.469 45.074"/>
        <path id="dc" d="M.47 45.074c-2.325 26.757 17.333 50.344 43.906 52.684 26.573 2.34 49.998-17.453 52.321-44.21C99.023 26.791 79.364 3.205 52.791.864a48.24 48.24 0 0 0-4.264-.187C23.757.678 2.667 19.76.469 45.074"/>
        <path id="de" d="M.47 45.074c-2.325 26.757 17.333 50.344 43.906 52.684 26.573 2.34 49.998-17.453 52.321-44.21C99.023 26.791 79.364 3.205 52.791.864a48.24 48.24 0 0 0-4.264-.187C23.757.678 2.667 19.76.469 45.074"/>
        <path id="dg" d="M.47 45.074c-2.325 26.757 17.333 50.344 43.906 52.684 26.573 2.34 49.998-17.453 52.321-44.21C99.023 26.791 79.364 3.205 52.791.864a48.24 48.24 0 0 0-4.264-.187C23.757.678 2.667 19.76.469 45.074"/>
        <path id="di" d="M.47 45.074c-2.325 26.757 17.333 50.344 43.906 52.684 26.573 2.34 49.998-17.453 52.321-44.21C99.023 26.791 79.364 3.205 52.791.864a48.24 48.24 0 0 0-4.264-.187C23.757.678 2.667 19.76.469 45.074"/>
        <path id="dk" d="M.47 45.074c-2.325 26.757 17.333 50.344 43.906 52.684 26.573 2.34 49.998-17.453 52.321-44.21C99.023 26.791 79.364 3.205 52.791.864a48.24 48.24 0 0 0-4.264-.187C23.757.678 2.667 19.76.469 45.074"/>
    </defs>
    <g fill="none" fill-rule="evenodd">
        <g transform="translate(1 1)">
            <mask id="b" fill="#fff">
                <use xlink:href="#a"/>
            </mask>
            <path fill="#002C25" d="M49.078 43.535l6.518 1.364 4.81-4.634.728 6.663 5.862 3.175-6.068 2.754-1.187 6.596-1.23-4.323.657-3.657 3.366-1.528-3.252-1.76-.403-3.695-2.668 2.57-3.614-.756z" mask="url(#b)"/>
        </g>
        <g transform="translate(1 1)">
            <mask id="d" fill="#fff">
                <use xlink:href="#c"/>
            </mask>
            <path fill="#FEFEFE" d="M121.421 32.804c-4.794 1.407-10.593 4.443-15.49 7.498-.524.111-.938.288-1.114.56-.036.056-.06.133-.09.203-.32.206-.636.412-.945.616-1.96 1.293-3.7 2.544-5.073 3.629-.736.58-.613.585.512.565 1.51-.028 3.715-.148 4.397-.148.143 0 .847-.038 1.949-.105.269.146.581.2.964.2.376 0 .819-.05 1.352-.11l.476-.055c.42-.045 1.071-.14 1.741-.324 5-.323 11.873-.781 16.908-1.12v16.933h-.024c-8.051.133-16.101.265-24.007.387-1.198-4.839-4.218-8.469-8.545-10.25-4.979-2.05-10.895-1.345-15.824 1.887-.264.123-1.248.214-2.532.28 1.193-1.086 2.154-1.865 3.187-2.593.372-.263.753-.52 1.16-.784a.593.593 0 0 0-.204-1.079c-1.29-.25-3.065-.282-4.254-.2a.536.536 0 0 0-.06.006c-1.73.122-4.087.545-5.6 1.859-.866.753-1.81 1.92-2.343 2.613.476-1.806 2.036-3.594 4.375-4.95 2.507-1.455 5.8-2.304 8.983-3.006a456.254 456.254 0 0 1 6.34-1.339c2.321-.476 4.562-.903 6.537-1.28 1.638-.313 3.066-.586 4.15-.811l.148-.053c.152-.078 15.16-7.786 17.029-8.514.253-.098.53-.21.836-.333 2-.804 5.022-2.02 8.5-2.499a73.263 73.263 0 0 1 2.148-.261v1.516c-1.93.221-3.834.547-5.587 1.062" mask="url(#d)"/>
        </g>
        <g transform="translate(1 1)">
            <mask id="f" fill="#fff">
                <use xlink:href="#e"/>
            </mask>
            <path fill="#002C25" d="M124.781 29.9c-4.084.561-7.55 2.12-9.47 2.868-1.918.747-17.082 8.538-17.082 8.538-2.379.495-6.423 1.219-10.687 2.092-1.507.308-3.77.774-6.347 1.341-3.044.67-6.49 1.526-9.152 3.07-2.394 1.389-4.358 3.454-4.749 5.776h-.017l-.361-.028-.19.306c-.026.045-.05.099-.078.147.192-2.47 2.066-4.953 5.102-6.713 2.646-1.535 6.043-2.415 9.319-3.136a425.034 425.034 0 0 1 6.356-1.343c2.33-.477 4.573-.906 6.554-1.284 1.591-.304 2.984-.57 4.053-.79 1.26-.648 15.19-7.796 17.067-8.528.25-.097.525-.208.823-.328 2.054-.827 5.157-2.077 8.78-2.574.739-.101 1.51-.194 2.306-.278v.595c-.717.077-1.465.165-2.227.27" mask="url(#f)"/>
        </g>
        <g transform="translate(1 1)">
            <mask id="h" fill="#fff">
                <use xlink:href="#g"/>
            </mask>
            <path fill="#002C25" d="M124.86 30.487c-3.478.478-6.501 1.694-8.5 2.5-.305.121-.584.234-.836.332-1.869.729-16.877 8.437-17.029 8.515l-.147.051c-1.084.226-2.513.499-4.15.812-1.977.377-4.217.805-6.538 1.28-1.651.338-3.864.795-6.34 1.339-3.185.702-6.476 1.552-8.983 3.005-2.339 1.358-3.899 3.146-4.374 4.95l-.248.328a9.35 9.35 0 0 1-.422-.014c.393-2.322 2.356-4.388 4.75-5.776 2.662-1.544 6.109-2.4 9.151-3.07a426.32 426.32 0 0 1 6.348-1.341c4.264-.873 8.307-1.597 10.686-2.092 0 0 15.164-7.791 17.083-8.538 1.92-.748 5.385-2.306 9.47-2.868a70.928 70.928 0 0 1 2.226-.268v.594c-.74.08-1.458.166-2.146.261" mask="url(#h)"/>
        </g>
        <g transform="translate(1 1)">
            <mask id="j" fill="#fff">
                <use xlink:href="#i"/>
            </mask>
            <path fill="#2191C6" d="M104.577 41.708a7.37 7.37 0 0 0-.001 1.08c.09 1.456.226 2.228.758 2.677.073.062.151.113.233.157a73.775 73.775 0 0 1-1.95.105c-.682 0-2.886.12-4.396.148-1.125.02-1.248.015-.512-.565 1.374-1.085 3.114-2.336 5.072-3.629.31-.204.626-.41.947-.616a2.058 2.058 0 0 0-.148.595l-.003.048" mask="url(#j)"/>
        </g>
        <g transform="translate(1 1)">
            <mask id="l" fill="#fff">
                <use xlink:href="#k"/>
            </mask>
            <path fill="#FEFEFE" d="M83.01 63.862c0-3.147 2.544-5.71 5.67-5.71s5.67 2.563 5.67 5.71c0 3.149-2.544 5.71-5.67 5.71s-5.67-2.561-5.67-5.71m-2.871 0c0 4.742 3.831 8.6 8.541 8.6 4.71 0 8.541-3.858 8.541-8.6 0-4.74-3.831-8.6-8.54-8.6-4.71 0-8.542 3.86-8.542 8.6" mask="url(#l)"/>
        </g>
        <g transform="translate(1 1)">
            <mask id="n" fill="#fff">
                <use xlink:href="#m"/>
            </mask>
            <path fill="#002C25" d="M79.552 63.862c0-5.062 4.1-9.192 9.128-9.192 5.028 0 9.129 4.13 9.129 9.192 0 5.063-4.101 9.192-9.129 9.192s-9.128-4.13-9.128-9.192m-.587 0c0 5.395 4.358 9.784 9.715 9.784 5.358 0 9.717-4.389 9.717-9.784 0-5.395-4.359-9.784-9.717-9.784-5.357 0-9.715 4.39-9.715 9.784" mask="url(#n)"/>
        </g>
        <g transform="translate(1 1)">
            <mask id="p" fill="#fff">
                <use xlink:href="#o"/>
            </mask>
            <path fill="#002C25" d="M80.14 63.862c0-4.74 3.83-8.6 8.54-8.6 4.71 0 8.541 3.86 8.541 8.6 0 4.742-3.83 8.6-8.541 8.6-4.71 0-8.54-3.858-8.54-8.6m-.589 0c0 5.063 4.101 9.192 9.129 9.192s9.128-4.13 9.128-9.192-4.1-9.192-9.128-9.192c-5.028 0-9.129 4.13-9.129 9.192" mask="url(#p)"/>
        </g>
        <g transform="translate(1 1)">
            <mask id="r" fill="#fff">
                <use xlink:href="#q"/>
            </mask>
            <path fill="#FEFEFE" d="M88.68 59.337c2.478 0 4.494 2.03 4.494 4.525 0 2.495-2.016 4.525-4.494 4.525-2.478 0-4.494-2.03-4.494-4.525 0-2.494 2.016-4.525 4.494-4.525" mask="url(#r)"/>
        </g>
        <g transform="translate(1 1)">
            <mask id="t" fill="#fff">
                <use xlink:href="#s"/>
            </mask>
            <path fill="#002C25" d="M83.598 63.862c0-2.818 2.283-5.117 5.082-5.117 2.8 0 5.082 2.299 5.082 5.117 0 2.82-2.282 5.117-5.082 5.117-2.799 0-5.082-2.298-5.082-5.117m-.588 0c0 3.149 2.543 5.71 5.67 5.71 3.126 0 5.67-2.561 5.67-5.71 0-3.147-2.544-5.71-5.67-5.71-3.127 0-5.67 2.563-5.67 5.71" mask="url(#t)"/>
        </g>
        <g transform="translate(1 1)">
            <mask id="v" fill="#fff">
                <use xlink:href="#u"/>
            </mask>
            <path fill="#002C25" d="M84.186 63.862c0-2.494 2.016-4.525 4.494-4.525 2.478 0 4.494 2.031 4.494 4.525 0 2.495-2.016 4.525-4.494 4.525-2.478 0-4.494-2.03-4.494-4.525m-.588 0c0 2.82 2.283 5.117 5.082 5.117 2.8 0 5.082-2.298 5.082-5.117 0-2.818-2.282-5.117-5.082-5.117-2.799 0-5.082 2.299-5.082 5.117" mask="url(#v)"/>
        </g>
        <g transform="translate(1 1)">
            <mask id="x" fill="#fff">
                <use xlink:href="#w"/>
            </mask>
            <path fill="#DC6A67" d="M71.073 51.557c1.283-1.114 3.407-1.474 4.963-1.58l.057-.007a19.83 19.83 0 0 1 2.372.004c-1.31.933-2.513 1.95-4.201 3.55-1.75.055-3.67.078-5.065.081.515-.647 1.23-1.49 1.874-2.048" mask="url(#x)"/>
        </g>
        <g transform="translate(1 1)">
            <mask id="z" fill="#fff">
                <use xlink:href="#y"/>
            </mask>
            <path fill="#002C25" d="M70.305 50.659c1.514-1.313 3.87-1.737 5.6-1.86l.06-.007c1.19-.08 2.964-.048 4.253.202a.593.593 0 0 1 .205 1.08c-.408.262-.787.52-1.16.783-1.033.728-1.993 1.507-3.187 2.593-.292.015-.599.03-.917.042 1.43-1.332 2.538-2.254 3.767-3.122.378-.265.766-.528 1.181-.795-1.175-.228-2.863-.276-4.103-.192l-.007.004c-1.933.13-4.006.59-5.308 1.72-.814.707-1.717 1.82-2.239 2.498a73.168 73.168 0 0 1-.565-.004c.02-.109.048-.22.078-.328.532-.695 1.475-1.862 2.342-2.614" mask="url(#z)"/>
        </g>
        <g transform="translate(1 1)">
            <mask id="B" fill="#fff">
                <use xlink:href="#A"/>
            </mask>
            <path fill="#002C25" d="M67.715 53.6c.066-.09.15-.201.247-.328-.029.11-.057.22-.077.33l-.17-.003" mask="url(#B)"/>
        </g>
        <g transform="translate(1 1)">
            <mask id="D" fill="#fff">
                <use xlink:href="#C"/>
            </mask>
            <path fill="#002C25" d="M78.465 49.975a19.83 19.83 0 0 0-2.372-.005c-.02.004-.038.006-.057.008-1.556.105-3.68.465-4.963 1.579-.645.558-1.359 1.4-1.874 2.048a86.78 86.78 0 0 1-.75 0c.523-.678 1.427-1.79 2.24-2.497 1.301-1.13 3.374-1.59 5.307-1.721l.007-.003c1.24-.084 2.93-.037 4.104.191-.416.267-.803.53-1.181.796-1.228.867-2.336 1.788-3.767 3.121l-.895.032c1.688-1.6 2.892-2.617 4.201-3.55" mask="url(#D)"/>
        </g>
        <g transform="translate(1 1)">
            <mask id="F" fill="#fff">
                <use xlink:href="#E"/>
            </mask>
            <path fill="#A4BD7E" d="M77.48 55.83c6.645-3.468 10.682-4.946 14.308-3.417 1.205.51 2.456 1.359 3.617 2.559a11.457 11.457 0 0 0-6.643-2.109c-6.152 0-11.158 4.769-11.158 10.63 0 .829.1 1.646.298 2.446-2.816-.233-7.436-.809-9.14-1.722l-.073-.033c-.473-.175-.887-.748-1.197-1.652-.585-1.71-.653-4.152-.38-5.98l10.258-.664.11-.057z" mask="url(#F)"/>
        </g>
        <g transform="translate(1 1)">
            <mask id="H" fill="#fff">
                <use xlink:href="#G"/>
            </mask>
            <path fill="#A4BD7E" d="M94.472 52.596c3.835 1.76 6.48 5.168 7.466 9.665l.105.471.479-.009c8.058-.123 16.27-.258 24.48-.394h.006v4.21c-7.554.027-15.313.055-22.8.117-.961.003-1.914.008-2.856.012-.605-7.143-3.642-11.716-6.88-14.072" mask="url(#H)"/>
        </g>
        <g transform="translate(1 1)">
            <mask id="J" fill="#fff">
                <use xlink:href="#I"/>
            </mask>
            <path fill="#A4BD7E" d="M67.998 54.783c.34.007.692.018 1.057.029a79.647 79.647 0 0 0 2.294.046 29.76 29.76 0 0 0 3.179-.157 50.322 50.322 0 0 0 2.904-.174l-.383.196-9.244.598v-.548l.14.001c.018.002.035.009.053.009" mask="url(#J)"/>
        </g>
        <g transform="translate(1 1)">
            <mask id="L" fill="#fff">
                <use xlink:href="#K"/>
            </mask>
            <path fill="#A4BD7E" d="M86.855 51.402a15.087 15.087 0 0 1 4.199.136c.323.091.645.197.962.331 2.312.976 4.635 3.051 6.322 6.196a10.915 10.915 0 0 0-2.933-3.093c-1.161-1.2-2.412-2.05-3.617-2.559-3.626-1.529-7.663-.05-14.308 3.418l-.11.057-10.257.664c.03-.208.065-.41.106-.599l9.99-.648c3.995-2.085 7.046-3.437 9.646-3.903" mask="url(#L)"/>
        </g>
        <g transform="translate(1 1)">
            <mask id="N" fill="#fff">
                <use xlink:href="#M"/>
            </mask>
            <path fill="#A4BD7E" d="M92.016 51.869a8.14 8.14 0 0 0-.963-.332 14 14 0 0 1 2.934.842c.165.068.324.143.485.218 3.238 2.354 6.275 6.929 6.88 14.072l-.6.003c-.182-2.09-.582-3.97-1.146-5.64a10.263 10.263 0 0 0-1.268-2.966c-1.687-3.146-4.01-5.222-6.322-6.197" mask="url(#N)"/>
        </g>
        <g transform="translate(1 1)">
            <mask id="P" fill="#fff">
                <use xlink:href="#O"/>
            </mask>
            <path fill="#A4BD7E" d="M67.805 54.773v.548l9.244-.598.383-.196c.906-.09 1.577-.208 1.817-.365 2.377-1.558 4.994-2.484 7.605-2.76-2.598.466-5.65 1.82-9.644 3.903l-9.992.648c.098-.462.217-.866.36-1.183l.227.003" mask="url(#P)"/>
        </g>
        <g transform="translate(1 1)">
            <mask id="R" fill="#fff">
                <use xlink:href="#Q"/>
            </mask>
            <path fill="#A4BD7E" d="M71.103 54.857c-.713-.004-1.4-.024-2.049-.045a102.55 102.55 0 0 0-1.056-.029c-.018 0-.035-.006-.053-.008 1.312.01 4.093.016 6.584-.075-.92.103-2.037.159-3.18.159-.083 0-.164 0-.246-.002" mask="url(#R)"/>
        </g>
        <g transform="translate(1 1)">
            <mask id="T" fill="#fff">
                <use xlink:href="#S"/>
            </mask>
            <path fill="#002C25" d="M66.648 54.01c-.01.14-.019.277-.019.416v1.485c-.607 3.03-.193 8.068 1.857 8.83 2.033 1.087 7.634 1.678 10.22 1.85a9.561 9.561 0 0 1-.515-3.097c0-5.545 4.734-10.04 10.57-10.04 3.892 0 7.283 2.004 9.117 4.976.42.794.797 1.666 1.124 2.614.207.785.33 1.601.33 2.45a9.572 9.572 0 0 1-.777 3.781l1.662-.009c.001.018.005.033.006.049l.035.543-1.7.01-.899.003.356-.83a8.938 8.938 0 0 0 .73-3.547c0-5.21-4.48-9.447-9.984-9.447s-9.981 4.238-9.981 9.447c0 .991.162 1.97.481 2.906l.288.84-.882-.058c-.8-.052-7.857-.557-10.424-1.902-.807-.317-1.433-1.112-1.862-2.364-.901-2.632-.756-7.034.267-8.906" mask="url(#T)"/>
        </g>
        <g transform="translate(1 1)">
            <mask id="V" fill="#fff">
                <use xlink:href="#U"/>
            </mask>
            <path fill="#002C25" d="M102.513 62.133c-1.419-6.46-5.97-10.213-11.28-11.16-1.475-.426-3.002-.45-4.698-.119-2.598.314-5.215 1.244-7.607 2.813-.304.198-1.748.326-3.525.406.232-.218.457-.427.673-.623 1.285-.066 2.268-.158 2.531-.28 4.93-3.231 10.845-3.937 15.824-1.888 4.329 1.782 7.347 5.412 8.546 10.25 7.906-.121 15.956-.254 24.007-.386h.024v.592c-8.216.134-16.432.27-24.495.395" mask="url(#V)"/>
        </g>
        <g transform="translate(1 1)">
            <mask id="X" fill="#fff">
                <use xlink:href="#W"/>
            </mask>
            <path fill="#002C25" d="M97.879 58.43a9.664 9.664 0 0 1 1.123 2.614 18.46 18.46 0 0 0-1.123-2.613" mask="url(#X)"/>
        </g>
        <g transform="translate(1 1)">
            <mask id="Z" fill="#fff">
                <use xlink:href="#Y"/>
            </mask>
            <path fill="#002C25" d="M66.915 53.557l.356.027.023.001a5.235 5.235 0 0 0-.065.59h-.003c-.25.41-.452 1.016-.596 1.736v-1.485a6 6 0 0 1 .018-.416c.027-.048.051-.102.08-.147l.187-.306z" mask="url(#Z)"/>
        </g>
        <g transform="translate(1 1)">
            <mask id="ab" fill="#fff">
                <use xlink:href="#aa"/>
            </mask>
            <path fill="#002C25" d="M67.534 53.844a.59.59 0 0 0-.107.338 6.732 6.732 0 0 1-.197-.006c.01-.198.03-.395.064-.59.08.005.222.01.42.013l-.18.245" mask="url(#ab)"/>
        </g>
        <g transform="translate(1 1)">
            <mask id="ad" fill="#fff">
                <use xlink:href="#ac"/>
            </mask>
            <path fill="#002C25" d="M91.232 50.972a15.895 15.895 0 0 0-4.697-.117c1.695-.333 3.224-.308 4.697.117" mask="url(#ad)"/>
        </g>
        <g transform="translate(1 1)">
            <mask id="af" fill="#fff">
                <use xlink:href="#ae"/>
            </mask>
            <path fill="#002C25" d="M74.245 53.541c-.91.094-2.027.143-3.135.134a76.07 76.07 0 0 1-1.932-.043l.021-.026c1.394-.003 3.315-.027 5.065-.083l-.019.018" mask="url(#af)"/>
        </g>
        <g transform="translate(1 1)">
            <mask id="ah" fill="#fff">
                <use xlink:href="#ag"/>
            </mask>
            <path fill="#002C25" d="M67.817 54.189c.01-.196.03-.39.067-.588l.566.004a26.04 26.04 0 0 0-.439.585l-.194-.001" mask="url(#ah)"/>
        </g>
        <g transform="translate(1 1)">
            <mask id="aj" fill="#fff">
                <use xlink:href="#ai"/>
            </mask>
            <path fill="#002C25" d="M74.505 54.108c.225-.215.444-.42.654-.616.318-.013.624-.027.916-.042-.215.196-.44.405-.672.622-.293.013-.592.025-.898.036" mask="url(#aj)"/>
        </g>
        <g transform="translate(1 1)">
            <mask id="al" fill="#fff">
                <use xlink:href="#ak"/>
            </mask>
            <path fill="#002C25" d="M67.817 54.189c-.158-.002-.29-.004-.39-.007a.579.579 0 0 1 .107-.338c.012-.016.077-.106.181-.245l.17.002a4.603 4.603 0 0 0-.068.588" mask="url(#al)"/>
        </g>
        <g transform="translate(1 1)">
            <mask id="an" fill="#fff">
                <use xlink:href="#am"/>
            </mask>
            <path fill="#002C25" d="M68.01 54.191s.17-.237.44-.586c.227.002.477.002.749 0a.87.87 0 0 0-.014.02c.607.026 1.254.046 1.925.05 1.108.008 2.225-.04 3.135-.134l.012-.01c.312-.017.612-.028.902-.039-.211.196-.428.4-.654.616-2.416.084-5.162.095-6.494.083" mask="url(#an)"/>
        </g>
        <g transform="translate(1 1)">
            <mask id="ap" fill="#fff">
                <use xlink:href="#ao"/>
            </mask>
            <path fill="#002C25" d="M99.41 66.68c.247-.003.503-.004.753-.005.017.2.041.389.054.592-.554.003-1.116.005-1.662.009.5-1.168.777-2.445.777-3.783 0-.847-.123-1.664-.33-2.449.358 1.035.655 2.155.872 3.378a10.12 10.12 0 0 1-.465 2.257" mask="url(#ap)"/>
        </g>
        <g transform="translate(1 1)">
            <mask id="ar" fill="#fff">
                <use xlink:href="#aq"/>
            </mask>
            <path fill="#002C25" d="M67.113 56.552c-.274 1.828-.206 4.27.38 5.98.31.905.723 1.476 1.196 1.652l.073.033c1.705.913 6.323 1.489 9.14 1.721a10.155 10.155 0 0 1-.298-2.445c0-5.861 5.005-10.63 11.158-10.63 2.49 0 4.785.791 6.643 2.109.902.933 1.746 2.084 2.473 3.458-1.834-2.973-5.225-4.975-9.116-4.975-5.837 0-10.571 4.494-10.571 10.038 0 1.082.182 2.123.515 3.099-2.586-.172-8.186-.764-10.22-1.853-2.05-.76-2.464-5.797-1.857-8.829v.673l.484-.031z" mask="url(#ar)"/>
        </g>
        <g transform="translate(1 1)">
            <mask id="at" fill="#fff">
                <use xlink:href="#as"/>
            </mask>
            <path fill="#002C25" d="M74.57 54.697a.583.583 0 0 0 .338-.159c.171-.163.333-.314.495-.466 1.777-.08 3.221-.206 3.526-.405 2.391-1.569 5.008-2.498 7.606-2.812-2.533.496-5.444 1.78-9.103 3.672-.82.08-1.833.135-2.903.174l.041-.004z" mask="url(#at)"/>
        </g>
        <g transform="translate(1 1)">
            <mask id="av" fill="#fff">
                <use xlink:href="#au"/>
            </mask>
            <path fill="#002C25" d="M67.805 54.773v-.03c.045.015.091.026.14.031h-.14" mask="url(#av)"/>
        </g>
        <g transform="translate(1 1)">
            <mask id="ax" fill="#fff">
                <use xlink:href="#aw"/>
            </mask>
            <path fill="#002C25" d="M91.232 50.972c5.311.947 9.862 4.7 11.28 11.16 8.064-.124 16.28-.26 24.495-.394v.592h-.005c-8.21.135-16.421.27-24.48.394l-.479.008-.104-.472c-.988-4.496-3.632-7.905-7.467-9.663a11.236 11.236 0 0 0-2.229-1.274 8.87 8.87 0 0 0-1.01-.35" mask="url(#ax)"/>
        </g>
        <g transform="translate(1 1)">
            <mask id="az" fill="#fff">
                <use xlink:href="#ay"/>
            </mask>
            <path fill="#002C25" d="M91.054 51.538a15.086 15.086 0 0 0-4.2-.136c1.524-.272 2.891-.238 4.2.136" mask="url(#az)"/>
        </g>
        <g transform="translate(1 1)">
            <mask id="aB" fill="#fff">
                <use xlink:href="#aA"/>
            </mask>
            <path fill="#002C25" d="M98.338 58.066c.482.898.905 1.892 1.268 2.965.198.792.313 1.613.313 2.462 0 .311-.017.621-.045.93a22.093 22.093 0 0 0-.872-3.379 9.664 9.664 0 0 0-1.124-2.613c-.727-1.375-1.571-2.526-2.473-3.459a10.9 10.9 0 0 1 2.933 3.094" mask="url(#aB)"/>
        </g>
        <g transform="translate(1 1)">
            <mask id="aD" fill="#fff">
                <use xlink:href="#aC"/>
            </mask>
            <path fill="#002C25" d="M67.23 54.175c-.004.083-.013.166-.013.25v1.527h.001c-.04.19-.075.392-.106.6l-.483.031v-.673c.146-.72.347-1.326.598-1.735h.003z" mask="url(#aD)"/>
        </g>
        <g transform="translate(1 1)">
            <mask id="aF" fill="#fff">
                <use xlink:href="#aE"/>
            </mask>
            <path fill="#002C25" d="M67.484 54.455a.592.592 0 0 0 .321.287v.032l-.228-.004a5.962 5.962 0 0 0-.359 1.183h-.001v-1.527c0-.084.009-.168.013-.251l.198.008a.578.578 0 0 0 .056.272" mask="url(#aF)"/>
        </g>
        <g transform="translate(1 1)">
            <mask id="aH" fill="#fff">
                <use xlink:href="#aG"/>
            </mask>
            <path fill="#002C25" d="M91.232 50.972a8.87 8.87 0 0 1 1.011.351c.736.31 1.487.734 2.23 1.274-.162-.075-.321-.15-.486-.218-.945-.39-1.93-.666-2.933-.842-1.309-.372-2.676-.408-4.2-.135-2.611.275-5.228 1.203-7.605 2.76-.24.157-.912.276-1.817.365 3.66-1.892 6.57-3.176 9.103-3.672a15.895 15.895 0 0 1 4.697.117" mask="url(#aH)"/>
        </g>
        <g transform="translate(1 1)">
            <mask id="aJ" fill="#fff">
                <use xlink:href="#aI"/>
            </mask>
            <path fill="#002C25" d="M98.338 58.066c.57.91 1.002 1.906 1.268 2.965a19.383 19.383 0 0 0-1.268-2.965" mask="url(#aJ)"/>
        </g>
        <g transform="translate(1 1)">
            <mask id="aL" fill="#fff">
                <use xlink:href="#aK"/>
            </mask>
            <path fill="#002C25" d="M67.817 54.189l.194.002c.94.02 1.984.068 3.095.075a29.525 29.525 0 0 0 3.399-.158c.305-.01.606-.022.898-.035-.162.15-.324.302-.495.465a.578.578 0 0 1-.338.159l-.042.004c-2.49.09-5.27.084-6.583.073a.616.616 0 0 1-.14-.032v-.316c0-.08.007-.159.012-.237" mask="url(#aL)"/>
        </g>
        <g transform="translate(1 1)">
            <mask id="aN" fill="#fff">
                <use xlink:href="#aM"/>
            </mask>
            <path fill="#002C25" d="M67.805 54.425v.317a.592.592 0 0 1-.32-.287.592.592 0 0 1-.058-.273l.39.007c-.004.08-.012.158-.012.236" mask="url(#aN)"/>
        </g>
        <g transform="translate(1 1)">
            <mask id="aP" fill="#fff">
                <use xlink:href="#aO"/>
            </mask>
            <path fill="#002C25" d="M74.505 54.108c-1.088.124-2.32.166-3.4.158h.001c-1.111-.006-2.155-.055-3.095-.075 1.332.012 4.078 0 6.494-.083" mask="url(#aP)"/>
        </g>
        <g transform="translate(1 1)">
            <mask id="aR" fill="#fff">
                <use xlink:href="#aQ"/>
            </mask>
            <path fill="#FEFEFE" d="M1.432 32.804c4.794 1.407 10.594 4.443 15.491 7.498.523.111.938.288 1.114.56.035.056.06.133.09.203.32.206.635.412.945.616 1.958 1.293 3.699 2.544 5.073 3.629.735.58.612.585-.513.565-1.51-.028-3.714-.148-4.396-.148-.144 0-.848-.038-1.948-.105-.27.146-.583.2-.966.2-.376 0-.818-.05-1.352-.11l-.476-.055c-.419-.045-1.07-.14-1.741-.324a7660.13 7660.13 0 0 1-16.908-1.12v16.933h.024c8.051.133 16.101.265 24.008.387 1.198-4.839 4.217-8.469 8.546-10.25 4.978-2.05 10.894-1.345 15.824 1.887.263.123 1.246.214 2.531.28-1.194-1.086-2.154-1.865-3.188-2.593-.372-.263-.752-.52-1.16-.784a.59.59 0 0 1 .205-1.079c1.29-.25 3.064-.282 4.254-.2.02 0 .04.002.059.006 1.73.122 4.087.545 5.6 1.859.867.753 1.81 1.92 2.343 2.613-.476-1.806-2.034-3.594-4.374-4.95-2.507-1.455-5.799-2.304-8.984-3.006a456.541 456.541 0 0 0-6.338-1.339c-2.323-.476-4.563-.903-6.54-1.28a289.668 289.668 0 0 1-4.15-.811l-.147-.053c-.152-.078-15.159-7.786-17.028-8.514-.253-.098-.532-.21-.836-.333-2-.804-5.022-2.02-8.501-2.499a72.82 72.82 0 0 0-2.148-.261v1.516c1.93.221 3.835.547 5.587 1.062" mask="url(#aR)"/>
        </g>
        <g transform="translate(1 1)">
            <mask id="aT" fill="#fff">
                <use xlink:href="#aS"/>
            </mask>
            <path fill="#002C25" d="M22.039 67.868l.556.006v-.016l-3.834-.019c1.099.009 2.192.018 3.278.03" mask="url(#aT)"/>
        </g>
        <g transform="translate(1 1)">
            <mask id="aV" fill="#fff">
                <use xlink:href="#aU"/>
            </mask>
            <path fill="#002C25" d="M-1.928 29.9c4.085.561 7.55 2.12 9.47 2.868 1.919.747 17.083 8.538 17.083 8.538 2.378.495 6.423 1.219 10.687 2.092 1.506.308 3.77.774 6.347 1.341 3.043.67 6.49 1.526 9.152 3.07 2.393 1.389 4.357 3.454 4.748 5.776l.023-.001.356-.027.19.306c.026.045.05.099.076.147-.19-2.47-2.064-4.953-5.1-6.713-2.647-1.535-6.044-2.415-9.319-3.136a425.033 425.033 0 0 0-6.357-1.343c-2.329-.477-4.573-.906-6.554-1.284-1.59-.304-2.983-.57-4.052-.79-1.26-.648-15.19-7.796-17.068-8.528-.249-.097-.525-.208-.823-.328-2.054-.827-5.157-2.077-8.78-2.574a74.896 74.896 0 0 0-2.306-.278v.595c.718.077 1.466.165 2.227.27" mask="url(#aV)"/>
        </g>
        <g transform="translate(1 1)">
            <mask id="aX" fill="#fff">
                <use xlink:href="#aW"/>
            </mask>
            <path fill="#002C25" d="M-2.007 30.487c3.478.478 6.502 1.694 8.5 2.5.305.121.584.234.837.332 1.868.729 16.877 8.437 17.028 8.515l.148.051c1.084.226 2.512.499 4.15.812 1.977.377 4.216.805 6.538 1.28 1.65.338 3.864.795 6.34 1.339 3.184.702 6.476 1.552 8.983 3.005 2.339 1.358 3.897 3.146 4.374 4.95l.248.328a9.35 9.35 0 0 0 .421-.014c-.392-2.322-2.356-4.388-4.75-5.776-2.661-1.544-6.108-2.4-9.151-3.07a426.675 426.675 0 0 0-6.347-1.341c-4.265-.873-8.308-1.597-10.686-2.092 0 0-15.165-7.791-17.084-8.538-1.918-.748-5.384-2.306-9.47-2.868a70.605 70.605 0 0 0-2.227-.268v.594c.742.08 1.46.166 2.148.261" mask="url(#aX)"/>
        </g>
        <g transform="translate(1 1)">
            <mask id="aZ" fill="#fff">
                <use xlink:href="#aY"/>
            </mask>
            <path fill="#2191C6" d="M18.277 41.708c.026.297.026.66 0 1.08-.089 1.456-.226 2.228-.757 2.677a1.364 1.364 0 0 1-.233.157c1.1.067 1.804.105 1.949.105.683 0 2.886.12 4.396.148 1.125.02 1.248.015.513-.565-1.374-1.085-3.114-2.336-5.073-3.629a86.17 86.17 0 0 0-.946-.616c.068.165.123.355.148.595l.003.048" mask="url(#aZ)"/>
        </g>
        <g transform="translate(1 1)">
            <mask id="bb" fill="#fff">
                <use xlink:href="#ba"/>
            </mask>
            <path fill="#2191C6" d="M10.305 43.74c-.173-.391-.266-1.013.266-1.78.006-.01.012-.021.02-.031.26-.37.688-.772 1.144-1.075a.485.485 0 0 1 .056-.033c.236-.15.511-.313.843-.42.604-.199 2.862-.4 4.289-.099-4.898-3.055-10.697-6.092-15.492-7.498-1.75-.515-3.656-.84-5.585-1.061v12.471c5.035.337 11.909.797 16.907 1.12-1.016-.278-2.077-.76-2.448-1.595" mask="url(#bb)"/>
        </g>
        <g transform="translate(1 1)">
            <mask id="bd" fill="#fff">
                <use xlink:href="#bc"/>
            </mask>
            <path fill="#FEFEFE" d="M34.173 69.571c-3.125 0-5.67-2.56-5.67-5.71 0-3.147 2.545-5.708 5.67-5.708 3.126 0 5.67 2.561 5.67 5.709 0 3.148-2.544 5.71-5.67 5.71m0-14.31c-4.709 0-8.54 3.86-8.54 8.6 0 4.743 3.831 8.6 8.54 8.6 4.71 0 8.54-3.857 8.54-8.6 0-4.74-3.83-8.6-8.54-8.6" mask="url(#bd)"/>
        </g>
        <g transform="translate(1 1)">
            <mask id="bf" fill="#fff">
                <use xlink:href="#be"/>
            </mask>
            <path fill="#002C25" d="M34.173 73.054c-5.028 0-9.128-4.13-9.128-9.192s4.1-9.192 9.128-9.192c5.028 0 9.129 4.13 9.129 9.192 0 5.063-4.1 9.192-9.129 9.192m0-18.976c-5.358 0-9.716 4.39-9.716 9.784 0 5.395 4.358 9.784 9.716 9.784 5.357 0 9.716-4.389 9.716-9.784 0-5.395-4.359-9.784-9.716-9.784" mask="url(#bf)"/>
        </g>
        <g transform="translate(1 1)">
            <mask id="bh" fill="#fff">
                <use xlink:href="#bg"/>
            </mask>
            <path fill="#002C25" d="M34.173 72.462c-4.709 0-8.54-3.858-8.54-8.6 0-4.741 3.831-8.6 8.54-8.6 4.71 0 8.54 3.859 8.54 8.6 0 4.742-3.83 8.6-8.54 8.6m0-17.791c-5.028 0-9.128 4.129-9.128 9.191 0 5.063 4.1 9.192 9.128 9.192 5.028 0 9.129-4.13 9.129-9.192s-4.1-9.191-9.129-9.191" mask="url(#bh)"/>
        </g>
        <g transform="translate(1 1)">
            <mask id="bj" fill="#fff">
                <use xlink:href="#bi"/>
            </mask>
            <path fill="#FEFEFE" d="M34.173 59.337c-2.478 0-4.494 2.03-4.494 4.525 0 2.495 2.016 4.525 4.494 4.525 2.478 0 4.495-2.03 4.495-4.525 0-2.494-2.017-4.525-4.495-4.525" mask="url(#bj)"/>
        </g>
        <g transform="translate(1 1)">
            <mask id="bl" fill="#fff">
                <use xlink:href="#bk"/>
            </mask>
            <path fill="#002C25" d="M34.173 68.98c-2.8 0-5.082-2.299-5.082-5.118 0-2.818 2.283-5.117 5.082-5.117 2.8 0 5.083 2.299 5.083 5.117 0 2.82-2.284 5.117-5.083 5.117m0-10.826c-3.125 0-5.67 2.562-5.67 5.709 0 3.149 2.545 5.71 5.67 5.71 3.126 0 5.67-2.561 5.67-5.71 0-3.147-2.544-5.71-5.67-5.71" mask="url(#bl)"/>
        </g>
        <g transform="translate(1 1)">
            <mask id="bn" fill="#fff">
                <use xlink:href="#bm"/>
            </mask>
            <path fill="#002C25" d="M34.173 68.388c-2.478 0-4.494-2.03-4.494-4.526 0-2.494 2.016-4.525 4.494-4.525 2.478 0 4.495 2.031 4.495 4.525 0 2.495-2.017 4.526-4.495 4.526m0-9.643c-2.8 0-5.082 2.3-5.082 5.117 0 2.82 2.283 5.118 5.082 5.118 2.8 0 5.083-2.299 5.083-5.118 0-2.818-2.284-5.117-5.083-5.117" mask="url(#bn)"/>
        </g>
        <g transform="translate(1 1)">
            <mask id="bp" fill="#fff">
                <use xlink:href="#bo"/>
            </mask>
            <path fill="#FEFEFE" d="M12.34 41.87c-.304.21-.6.485-.773.718l-.011.019c-.287.402-.205.589-.178.65.236.53 1.6 1.045 3.242 1.224l.482.055c.797.09 1.488.17 1.662.022.24-.202.311-1.352.342-1.843a5.9 5.9 0 0 0-.006-.97 1.364 1.364 0 0 0-.037-.195c-.552-.259-3.138-.328-4.066-.023-.201.065-.386.171-.622.322l-.035.021" mask="url(#bp)"/>
        </g>
        <g transform="translate(1 1)">
            <mask id="br" fill="#fff">
                <use xlink:href="#bq"/>
            </mask>
            <path fill="#002C25" d="M18.037 40.862c-.177-.272-.59-.449-1.114-.56.407.255.809.51 1.203.763-.028-.07-.053-.147-.09-.203" mask="url(#br)"/>
        </g>
        <g transform="translate(1 1)">
            <mask id="bt" fill="#fff">
                <use xlink:href="#bs"/>
            </mask>
            <path fill="#002C25" d="M14.494 45.658l.476.053c.534.061.976.112 1.352.112.383 0 .695-.054.965-.202-1.142-.07-2.715-.169-4.534-.287.671.183 1.321.279 1.741.324" mask="url(#bt)"/>
        </g>
        <g transform="translate(1 1)">
            <mask id="bv" fill="#fff">
                <use xlink:href="#bu"/>
            </mask>
            <path fill="#002C25" d="M17.544 41.185c.087.134.129.377.145.537h-.001c.032.307.025.678.004 1.03-.176 2.837-.508 2.603-3.135 2.318-2.035-.223-4.724-1.06-3.486-2.8v.001c.238-.339.629-.684.987-.923l.001.002c.242-.155.482-.297.756-.387 1.018-.332 4.372-.332 4.73.222m-4.91-.785c-.333.108-.609.27-.844.421a.758.758 0 0 0-.057.033c-.455.303-.883.705-1.144 1.075l-.02.031c-.53.767-.438 1.389-.264 1.78.37.834 1.431 1.316 2.447 1.594 1.82.118 3.392.218 4.534.288.081-.044.159-.095.233-.157.531-.449.668-1.22.759-2.676.024-.42.024-.784-.002-1.08 0-.017-.002-.033-.004-.05-.024-.24-.079-.429-.147-.593a95.302 95.302 0 0 0-1.204-.764c-1.427-.301-3.684-.1-4.288.098" mask="url(#bv)"/>
        </g>
        <g transform="translate(1 1)">
            <mask id="bx" fill="#fff">
                <use xlink:href="#bw"/>
            </mask>
            <path fill="#002C25" d="M17.063 41.55c.012.044.027.11.036.194l.004.039c.025.237.025.56.003.932-.031.492-.103 1.64-.342 1.843-.174.148-.865.068-1.662-.023l-.482-.054c-1.643-.178-3.006-.694-3.242-1.225-.027-.06-.11-.247.171-.64 0 0 .013-.018.018-.028.172-.234.468-.508.773-.718l.035-.022c.236-.15.42-.256.621-.321.928-.304 3.514-.235 4.067.022m-5.004-.199l-.001-.002c-.358.238-.75.583-.988.924l.002-.002c-1.239 1.739 1.45 2.577 3.485 2.8 2.627.285 2.958.52 3.135-2.317a6.612 6.612 0 0 0-.005-1.032h.001c-.016-.159-.057-.402-.144-.536-.357-.554-3.712-.554-4.73-.221-.273.089-.513.23-.755.386" mask="url(#bx)"/>
        </g>
        <g transform="translate(1 1)">
            <mask id="bz" fill="#fff">
                <use xlink:href="#by"/>
            </mask>
            <path fill="#DC6A67" d="M51.78 51.557c-1.282-1.114-3.406-1.474-4.963-1.58l-.057-.007a19.83 19.83 0 0 0-2.372.004c1.31.933 2.513 1.95 4.202 3.55 1.75.055 3.67.078 5.065.081-.516-.647-1.23-1.49-1.874-2.048" mask="url(#bz)"/>
        </g>
        <g transform="translate(1 1)">
            <mask id="bB" fill="#fff">
                <use xlink:href="#bA"/>
            </mask>
            <path fill="#002C25" d="M52.549 50.659c-1.514-1.313-3.87-1.737-5.601-1.86a9.981 9.981 0 0 0-.059-.007c-1.19-.08-2.964-.048-4.254.202a.593.593 0 0 0-.205 1.08c.408.262.788.52 1.16.783 1.034.728 1.994 1.507 3.188 2.593.292.015.599.03.916.042-1.43-1.332-2.538-2.254-3.766-3.122a34.827 34.827 0 0 0-1.181-.795c1.174-.228 2.862-.276 4.103-.192l.007.004c1.933.13 4.006.59 5.308 1.72.813.707 1.717 1.82 2.238 2.498.213 0 .402-.002.566-.004a4.057 4.057 0 0 0-.078-.328c-.533-.695-1.475-1.862-2.342-2.614" mask="url(#bB)"/>
        </g>
        <g transform="translate(1 1)">
            <mask id="bD" fill="#fff">
                <use xlink:href="#bC"/>
            </mask>
            <path fill="#002C25" d="M55.139 53.6c-.067-.09-.15-.201-.247-.328.029.11.056.22.077.33l.17-.003" mask="url(#bD)"/>
        </g>
        <g transform="translate(1 1)">
            <mask id="bF" fill="#fff">
                <use xlink:href="#bE"/>
            </mask>
            <path fill="#002C25" d="M44.388 49.975a19.83 19.83 0 0 1 2.372-.005c.02.004.039.006.057.008 1.557.105 3.68.465 4.964 1.579.643.558 1.358 1.4 1.874 2.048.271.002.521.002.75 0-.524-.678-1.427-1.79-2.24-2.497-1.302-1.13-3.374-1.59-5.307-1.721l-.008-.003c-1.24-.084-2.929-.037-4.104.191.416.267.803.53 1.182.796 1.228.867 2.335 1.788 3.767 3.121l.895.032c-1.69-1.6-2.892-2.617-4.202-3.55" mask="url(#bF)"/>
        </g>
        <g transform="translate(1 1)">
            <mask id="bH" fill="#fff">
                <use xlink:href="#bG"/>
            </mask>
            <path fill="#A4BD7E" d="M23.444 66.68a10.06 10.06 0 0 1-.465-2.258c-.126.716-.219 1.471-.288 2.253l.753.004" mask="url(#bH)"/>
        </g>
        <g transform="translate(1 1)">
            <mask id="bJ" fill="#fff">
                <use xlink:href="#bI"/>
            </mask>
            <path fill="#A4BD7E" d="M45.373 55.83c-6.645-3.468-10.682-4.946-14.308-3.417-1.204.51-2.455 1.359-3.617 2.559a11.462 11.462 0 0 1 6.644-2.109c6.152 0 11.157 4.769 11.157 10.63 0 .829-.1 1.646-.297 2.446 2.816-.233 7.435-.809 9.14-1.722l.072-.033c.474-.175.887-.748 1.197-1.652.586-1.71.653-4.152.38-5.98l-10.259-.664-.109-.057z" mask="url(#bJ)"/>
        </g>
        <g transform="translate(1 1)">
            <mask id="bL" fill="#fff">
                <use xlink:href="#bK"/>
            </mask>
            <path fill="#A4BD7E" d="M28.381 52.596c-3.834 1.76-6.479 5.168-7.467 9.665l-.104.471-.478-.009c-8.059-.123-16.27-.258-24.481-.394h-.006v4.21c7.554.027 15.313.055 22.8.117.962.003 1.914.008 2.856.012.605-7.143 3.642-11.716 6.88-14.072" mask="url(#bL)"/>
        </g>
        <g transform="translate(1 1)">
            <mask id="bN" fill="#fff">
                <use xlink:href="#bM"/>
            </mask>
            <path fill="#A4BD7E" d="M54.855 54.783c-.339.007-.691.018-1.056.029-.649.02-1.335.04-2.048.045l-.246.001a29.76 29.76 0 0 1-3.18-.157 50.322 50.322 0 0 1-2.903-.174l.382.196 9.245.598v-.548l-.14.001c-.019.002-.036.009-.054.009" mask="url(#bN)"/>
        </g>
        <g transform="translate(1 1)">
            <mask id="bP" fill="#fff">
                <use xlink:href="#bO"/>
            </mask>
            <path fill="#A4BD7E" d="M35.999 51.402a15.087 15.087 0 0 0-4.2.136 8.14 8.14 0 0 0-.961.331c-2.313.976-4.636 3.051-6.323 6.196a10.926 10.926 0 0 1 2.933-3.093c1.162-1.2 2.412-2.05 3.617-2.559 3.626-1.529 7.663-.05 14.308 3.418l.11.057 10.258.664a9.724 9.724 0 0 0-.106-.599l-9.991-.648c-3.994-2.085-7.045-3.437-9.645-3.903" mask="url(#bP)"/>
        </g>
        <g transform="translate(1 1)">
            <mask id="bR" fill="#fff">
                <use xlink:href="#bQ"/>
            </mask>
            <path fill="#A4BD7E" d="M22.691 66.675c.069-.783.162-1.537.289-2.253a10.333 10.333 0 0 1-.046-.929c0-.85.115-1.67.314-2.462-.564 1.671-.964 3.551-1.147 5.64l.59.004" mask="url(#bR)"/>
        </g>
        <g transform="translate(1 1)">
            <mask id="bT" fill="#fff">
                <use xlink:href="#bS"/>
            </mask>
            <path fill="#A4BD7E" d="M-4.155 66.547h.39c7.645.036 15.27.072 22.41.109-7.487-.062-15.246-.09-22.8-.117v.008z" mask="url(#bT)"/>
        </g>
        <g transform="translate(1 1)">
            <mask id="bV" fill="#fff">
                <use xlink:href="#bU"/>
            </mask>
            <path fill="#A4BD7E" d="M30.838 51.869c.317-.135.64-.24.962-.332a14 14 0 0 0-2.933.842c-.165.068-.324.143-.486.218-3.238 2.354-6.275 6.929-6.88 14.072.201 0 .4.002.6.003.183-2.09.582-3.97 1.147-5.64a10.29 10.29 0 0 1 1.267-2.966c1.688-3.146 4.01-5.222 6.323-6.197" mask="url(#bV)"/>
        </g>
        <g transform="translate(1 1)">
            <mask id="bX" fill="#fff">
                <use xlink:href="#bW"/>
            </mask>
            <path fill="#A4BD7E" d="M55.048 54.773v.548l-9.244-.598-.382-.196c-.907-.09-1.577-.208-1.818-.365-2.376-1.558-4.993-2.484-7.605-2.76 2.6.466 5.65 1.82 9.645 3.903l9.991.648a5.962 5.962 0 0 0-.359-1.183l-.228.003" mask="url(#bX)"/>
        </g>
        <g transform="translate(1 1)">
            <mask id="bZ" fill="#fff">
                <use xlink:href="#bY"/>
            </mask>
            <path fill="#A4BD7E" d="M51.75 54.857c.714-.004 1.4-.024 2.05-.045.364-.012.715-.021 1.055-.029.019 0 .036-.006.054-.008-1.313.01-4.093.016-6.584-.075.919.103 2.036.159 3.18.159.081 0 .164 0 .246-.002" mask="url(#bZ)"/>
        </g>
        <g transform="translate(1 1)">
            <mask id="cb" fill="#fff">
                <use xlink:href="#ca"/>
            </mask>
            <path fill="#002C25" d="M56.205 54.01c.01.14.019.277.019.416v1.485c.607 3.03.194 8.068-1.856 8.83-2.033 1.087-7.635 1.678-10.22 1.85a9.56 9.56 0 0 0 .514-3.097c0-5.545-4.732-10.04-10.57-10.04-3.892 0-7.283 2.004-9.117 4.976a18.64 18.64 0 0 0-1.124 2.614 9.563 9.563 0 0 0-.329 2.45c0 1.338.277 2.613.777 3.781l-1.663-.009-.005.049-.035.543 1.7.01.899.003-.357-.83a8.957 8.957 0 0 1-.73-3.547c0-5.21 4.48-9.447 9.984-9.447s9.982 4.238 9.982 9.447c0 .991-.162 1.97-.482 2.906l-.288.84.882-.058c.8-.052 7.858-.557 10.424-1.902.808-.317 1.434-1.112 1.862-2.364.901-2.632.756-7.034-.267-8.906" mask="url(#cb)"/>
        </g>
        <g transform="translate(1 1)">
            <mask id="cd" fill="#fff">
                <use xlink:href="#cc"/>
            </mask>
            <path fill="#002C25" d="M-4.155 67.73l.384.002 22.532.107c-7.522-.061-15.323-.09-22.916-.116v.007z" mask="url(#cd)"/>
        </g>
        <g transform="translate(1 1)">
            <mask id="cf" fill="#fff">
                <use xlink:href="#ce"/>
            </mask>
            <path fill="#002C25" d="M20.34 62.133c1.42-6.46 5.97-10.213 11.281-11.16 1.474-.426 3.002-.45 4.697-.119 2.598.314 5.215 1.244 7.608 2.813.302.198 1.748.326 3.524.406a56.934 56.934 0 0 0-.672-.623c-1.285-.066-2.269-.158-2.532-.28-4.929-3.231-10.845-3.937-15.823-1.888-4.329 1.782-7.348 5.412-8.546 10.25-7.907-.121-15.957-.254-24.008-.386h-.016l-.008.592c8.216.134 16.433.27 24.496.395" mask="url(#cf)"/>
        </g>
        <g transform="translate(1 1)">
            <mask id="ch" fill="#fff">
                <use xlink:href="#cg"/>
            </mask>
            <path fill="#002C25" d="M24.975 58.43a9.664 9.664 0 0 0-1.124 2.614 18.46 18.46 0 0 1 1.124-2.613" mask="url(#ch)"/>
        </g>
        <g transform="translate(1 1)">
            <mask id="cj" fill="#fff">
                <use xlink:href="#ci"/>
            </mask>
            <path fill="#002C25" d="M55.938 53.557l-.356.027-.022.001c.033.196.053.393.064.59h.002c.251.41.453 1.016.598 1.736v-1.485c0-.139-.009-.277-.02-.416-.025-.048-.05-.102-.078-.147l-.188-.306z" mask="url(#cj)"/>
        </g>
        <g transform="translate(1 1)">
            <mask id="cl" fill="#fff">
                <use xlink:href="#ck"/>
            </mask>
            <path fill="#002C25" d="M22.636 67.267l-.59-.003-.001.013c-1.286-.013-2.593-.023-3.892-.033-7.118-.035-14.71-.07-22.308-.105v.584c7.593.026 15.394.055 22.916.115 1.296.008 2.574.014 3.834.02l.037-.543c0-.017.003-.03.004-.048" mask="url(#cl)"/>
        </g>
        <g transform="translate(1 1)">
            <mask id="cn" fill="#fff">
                <use xlink:href="#cm"/>
            </mask>
            <path fill="#002C25" d="M22.045 67.276l.001-.008c-1.28-.011-2.576-.016-3.893-.023 1.3.009 2.606.018 3.892.031" mask="url(#cn)"/>
        </g>
        <g transform="translate(1 1)">
            <mask id="cp" fill="#fff">
                <use xlink:href="#co"/>
            </mask>
            <path fill="#002C25" d="M55.32 53.844a.59.59 0 0 1 .106.338l.198-.006a5.182 5.182 0 0 0-.064-.59 8.24 8.24 0 0 1-.421.013l.18.245" mask="url(#cp)"/>
        </g>
        <g transform="translate(1 1)">
            <mask id="cr" fill="#fff">
                <use xlink:href="#cq"/>
            </mask>
            <path fill="#002C25" d="M31.621 50.972a15.895 15.895 0 0 1 4.698-.117c-1.696-.333-3.224-.308-4.698.117" mask="url(#cr)"/>
        </g>
        <g transform="translate(1 1)">
            <mask id="ct" fill="#fff">
                <use xlink:href="#cs"/>
            </mask>
            <path fill="#002C25" d="M48.609 53.541c.91.094 2.026.143 3.135.134a76.07 76.07 0 0 0 1.932-.043l-.022-.026a181.836 181.836 0 0 1-5.065-.083l.02.018" mask="url(#ct)"/>
        </g>
        <g transform="translate(1 1)">
            <mask id="cv" fill="#fff">
                <use xlink:href="#cu"/>
            </mask>
            <path fill="#002C25" d="M55.037 54.189a4.603 4.603 0 0 0-.068-.588 74.03 74.03 0 0 1-.565.004c.268.35.438.585.438.585l.195-.001" mask="url(#cv)"/>
        </g>
        <g transform="translate(1 1)">
            <mask id="cx" fill="#fff">
                <use xlink:href="#cw"/>
            </mask>
            <path fill="#002C25" d="M48.349 54.108c-.226-.215-.444-.42-.655-.616a84.287 84.287 0 0 1-.916-.042c.215.196.44.405.673.622.291.013.592.025.898.036" mask="url(#cx)"/>
        </g>
        <g transform="translate(1 1)">
            <mask id="cz" fill="#fff">
                <use xlink:href="#cy"/>
            </mask>
            <path fill="#002C25" d="M55.037 54.189c.158-.002.29-.004.389-.007a.579.579 0 0 0-.107-.338l-.18-.245-.17.002c.037.197.057.392.068.588" mask="url(#cz)"/>
        </g>
        <g transform="translate(1 1)">
            <mask id="cB" fill="#fff">
                <use xlink:href="#cA"/>
            </mask>
            <path fill="#002C25" d="M54.843 54.191s-.17-.237-.44-.586c-.226.002-.476.002-.748 0a.87.87 0 0 1 .014.02c-.607.026-1.254.046-1.925.05a29.92 29.92 0 0 1-3.136-.134l-.02-.017c-.304-.01-.603-.02-.894-.032.212.196.429.4.654.616 2.416.084 5.163.095 6.495.083" mask="url(#cB)"/>
        </g>
        <g transform="translate(1 1)">
            <mask id="cD" fill="#fff">
                <use xlink:href="#cC"/>
            </mask>
            <path fill="#002C25" d="M23.444 66.68c-.248-.003-.503-.004-.753-.005-.017.2-.042.389-.055.592.554.003 1.116.005 1.663.009a9.577 9.577 0 0 1-.778-3.783c0-.847.123-1.664.33-2.449a22.093 22.093 0 0 0-.872 3.378c.07.769.223 1.523.465 2.257" mask="url(#cD)"/>
        </g>
        <g transform="translate(1 1)">
            <mask id="cF" fill="#fff">
                <use xlink:href="#cE"/>
            </mask>
            <path fill="#002C25" d="M55.741 56.552c.274 1.828.205 4.27-.38 5.98-.31.905-.723 1.476-1.197 1.652l-.073.033c-1.705.913-6.323 1.489-9.139 1.721.198-.798.297-1.616.297-2.445 0-5.861-5.005-10.63-11.157-10.63-2.49 0-4.785.791-6.644 2.109-.902.933-1.747 2.084-2.473 3.458 1.835-2.973 5.226-4.975 9.117-4.975 5.837 0 10.57 4.494 10.57 10.038a9.563 9.563 0 0 1-.515 3.099c2.586-.172 8.187-.764 10.22-1.853 2.05-.76 2.464-5.797 1.857-8.829v.673l-.483-.031z" mask="url(#cF)"/>
        </g>
        <g transform="translate(1 1)">
            <mask id="cH" fill="#fff">
                <use xlink:href="#cG"/>
            </mask>
            <path fill="#002C25" d="M48.283 54.697a.577.577 0 0 1-.337-.159l-.495-.466c-1.777-.08-3.222-.206-3.526-.405-2.392-1.569-5.008-2.498-7.606-2.812 2.532.496 5.443 1.78 9.103 3.672.82.08 1.833.135 2.904.174l-.043-.004" mask="url(#cH)"/>
        </g>
        <g transform="translate(1 1)">
            <mask id="cJ" fill="#fff">
                <use xlink:href="#cI"/>
            </mask>
            <path fill="#002C25" d="M55.048 54.773v-.03a.603.603 0 0 1-.14.031h.14" mask="url(#cJ)"/>
        </g>
        <g transform="translate(1 1)">
            <mask id="cL" fill="#fff">
                <use xlink:href="#cK"/>
            </mask>
            <path fill="#002C25" d="M31.621 50.972c-5.312.947-9.861 4.7-11.28 11.16-8.064-.124-16.28-.26-24.496-.394v.592h.007c8.21.135 16.421.27 24.48.394l.478.008.104-.472c.988-4.496 3.633-7.905 7.467-9.663.742-.54 1.494-.964 2.23-1.274a8.87 8.87 0 0 1 1.01-.35" mask="url(#cL)"/>
        </g>
        <g transform="translate(1 1)">
            <mask id="cN" fill="#fff">
                <use xlink:href="#cM"/>
            </mask>
            <path fill="#002C25" d="M21.5 66.68l.001-.012c-.942-.004-1.894-.01-2.855-.012.955.006 1.908.015 2.854.023" mask="url(#cN)"/>
        </g>
        <g transform="translate(1 1)">
            <mask id="cP" fill="#fff">
                <use xlink:href="#cO"/>
            </mask>
            <path fill="#002C25" d="M22.101 66.672c-.017.2-.041.39-.055.592l.59.003c.014-.203.037-.394.055-.592l-.59-.003" mask="url(#cP)"/>
        </g>
        <g transform="translate(1 1)">
            <mask id="cR" fill="#fff">
                <use xlink:href="#cQ"/>
            </mask>
            <path fill="#002C25" d="M-4.155 67.139c7.598.035 15.19.07 22.308.106-7.308-.058-14.8-.087-22.308-.114v.008z" mask="url(#cR)"/>
        </g>
        <g transform="translate(1 1)">
            <mask id="cT" fill="#fff">
                <use xlink:href="#cS"/>
            </mask>
            <path fill="#002C25" d="M31.8 51.538a15.086 15.086 0 0 1 4.2-.136c-1.524-.272-2.892-.238-4.2.136" mask="url(#cT)"/>
        </g>
        <g transform="translate(1 1)">
            <mask id="cV" fill="#fff">
                <use xlink:href="#cU"/>
            </mask>
            <path fill="#002C25" d="M24.515 58.066a19.489 19.489 0 0 0-1.267 2.965 10.072 10.072 0 0 0-.314 2.462c0 .311.018.621.046.93.216-1.224.514-2.344.871-3.379a9.664 9.664 0 0 1 1.124-2.613c.727-1.375 1.571-2.526 2.473-3.459a10.9 10.9 0 0 0-2.933 3.094" mask="url(#cV)"/>
        </g>
        <g transform="translate(1 1)">
            <mask id="cX" fill="#fff">
                <use xlink:href="#cW"/>
            </mask>
            <path fill="#002C25" d="M55.624 54.175c.004.083.011.166.011.25v1.527c.04.19.075.392.106.6l.483.031v-.673c-.145-.72-.346-1.326-.597-1.735h-.003z" mask="url(#cX)"/>
        </g>
        <g transform="translate(1 1)">
            <mask id="cZ" fill="#fff">
                <use xlink:href="#cY"/>
            </mask>
            <path fill="#002C25" d="M55.369 54.455a.589.589 0 0 1-.32.287v.032l.227-.004c.142.317.263.721.36 1.183v-1.527c0-.084-.008-.168-.013-.251a5.563 5.563 0 0 1-.196.008.592.592 0 0 1-.058.272" mask="url(#cZ)"/>
        </g>
        <g transform="translate(1 1)">
            <mask id="db" fill="#fff">
                <use xlink:href="#da"/>
            </mask>
            <path fill="#002C25" d="M21.501 66.669l-.001.01c-.946-.008-1.899-.017-2.854-.024-7.14-.036-14.766-.071-22.412-.107h-.389v.584c7.508.026 15 .055 22.308.113l3.893.02c.013-.203.038-.395.056-.593l-.6-.003" mask="url(#db)"/>
        </g>
        <g transform="translate(1 1)">
            <mask id="dd" fill="#fff">
                <use xlink:href="#dc"/>
            </mask>
            <path fill="#002C25" d="M31.621 50.972a8.87 8.87 0 0 0-1.01.351c-.736.31-1.488.734-2.23 1.274.162-.075.32-.15.486-.218.945-.39 1.93-.666 2.933-.842 1.308-.372 2.676-.408 4.2-.135 2.61.275 5.228 1.203 7.604 2.76.24.157.912.276 1.818.365-3.66-1.892-6.57-3.176-9.103-3.672a15.895 15.895 0 0 0-4.698.117" mask="url(#dd)"/>
        </g>
        <g transform="translate(1 1)">
            <mask id="df" fill="#fff">
                <use xlink:href="#de"/>
            </mask>
            <path fill="#002C25" d="M24.515 58.066c-.57.91-1.002 1.906-1.267 2.965a19.489 19.489 0 0 1 1.267-2.965" mask="url(#df)"/>
        </g>
        <g transform="translate(1 1)">
            <mask id="dh" fill="#fff">
                <use xlink:href="#dg"/>
            </mask>
            <path fill="#002C25" d="M55.037 54.189l-.195.002c-.94.02-1.984.068-3.095.075a29.525 29.525 0 0 1-3.398-.158 99.68 99.68 0 0 1-.898-.035c.161.15.324.302.495.465.092.089.21.144.337.159l.042.004c2.49.09 5.27.084 6.584.073a.616.616 0 0 0 .14-.032v-.316c0-.08-.008-.159-.012-.237" mask="url(#dh)"/>
        </g>
        <g transform="translate(1 1)">
            <mask id="dj" fill="#fff">
                <use xlink:href="#di"/>
            </mask>
            <path fill="#002C25" d="M55.048 54.425v.317a.596.596 0 0 0 .321-.287.592.592 0 0 0 .058-.273l-.39.007c.004.08.011.158.011.236" mask="url(#dj)"/>
        </g>
        <g transform="translate(1 1)">
            <mask id="dl" fill="#fff">
                <use xlink:href="#dk"/>
            </mask>
            <path fill="#002C25" d="M48.349 54.108c1.088.124 2.32.166 3.4.158h-.002c1.112-.006 2.155-.055 3.096-.075-1.332.012-4.078 0-6.494-.083" mask="url(#dl)"/>
        </g>
        <path stroke="#050302" stroke-width="2" d="M45.731 98.81c26.958 2.359 50.721-17.583 53.08-44.54 2.358-26.958-17.584-50.723-44.542-53.08C27.311-1.169 3.546 18.773 1.19 45.73c-2.358 26.957 17.584 50.722 44.542 53.08z"/>
    </g>
</svg>
