<?xml version="1.0" encoding="utf-8"?>
<!-- Generator: Adobe Illustrator 24.0.0, SVG Export Plug-In . SVG Version: 6.00 Build 0)  -->
<svg version="1.1" xmlns="http://www.w3.org/2000/svg" xmlns:xlink="http://www.w3.org/1999/xlink" x="0px" y="0px"
	 viewBox="0 0 500 300" style="enable-background:new 0 0 500 300;" xml:space="preserve">
<style type="text/css">
	.st0{fill:#8DBA38;}
	.st1{fill:#233530;}
	.st2{fill:#FFFFFF;}
</style>
<g id="Layer_2">
</g>
<g id="Layer_1">
	<g>
		<g>
			<g>
				<g>
					<path class="st0" d="M42.66,188.14l4.01-7.28H63.2l5.48,6.54l8.45,1.85c7.15,1.77,6.22,8.73,6.22,8.73h-3.11l0,0.01
						c0,2.34-1.9,4.23-4.23,4.23c-2.34,0-4.23-1.9-4.23-4.23v-0.01H47.56v0.01c0,2.34-1.89,4.23-4.23,4.23
						c-2.34,0-4.23-1.9-4.23-4.23v-0.01H36v-5.09C36.62,188.74,42.66,188.14,42.66,188.14z"/>
				</g>
			</g>
			<path class="st1" d="M120.33,157.65c-0.36,0-0.7,0.07-1.03,0.17l-32.95-48.78c-0.32-0.48-0.97-0.6-1.45-0.28
				c-0.48,0.32-0.6,0.97-0.28,1.45l32.95,48.78c-0.49,0.61-0.8,1.38-0.8,2.22c0,1.97,1.6,3.56,3.56,3.56c1.97,0,3.56-1.6,3.56-3.56
				C123.89,159.24,122.3,157.65,120.33,157.65z"/>
			<path class="st2" d="M120.33,157.65c-0.36,0-0.7,0.07-1.03,0.17l-32.95-48.78c-0.32-0.48-0.97-0.6-1.45-0.28
				c-0.48,0.32-0.6,0.97-0.28,1.45l32.95,48.78c-0.49,0.61-0.8,1.38-0.8,2.22c0,1.97,1.6,3.56,3.56,3.56c1.97,0,3.56-1.6,3.56-3.56
				C123.89,159.24,122.3,157.65,120.33,157.65z"/>
			<path class="st0" d="M120.34,96.52c2.07,0,3.76-1.69,3.76-3.76V78.12c-2.52-0.11-5.03-0.1-7.53,0.02v14.62
				C116.58,94.83,118.27,96.52,120.34,96.52z"/>
			<path class="st0" d="M95.59,101.45c1.91-0.79,2.83-3.01,2.04-4.92l-5.59-13.48c-2.36,0.86-4.68,1.82-6.96,2.88l5.59,13.48
				C91.46,101.32,93.68,102.24,95.59,101.45z"/>
			<path class="st0" d="M74.61,115.47c1.46-1.46,1.46-3.86,0-5.32L64.27,99.81c-1.85,1.68-3.64,3.45-5.34,5.31l10.35,10.35
				C70.75,116.93,73.14,116.93,74.61,115.47z"/>
			<path class="st0" d="M60.59,136.45c0.79-1.91-0.12-4.13-2.04-4.92l-13.52-5.6c-0.53,1.13-1.05,2.27-1.53,3.44
				c-0.48,1.16-0.93,2.34-1.36,3.51l13.52,5.6C57.58,139.28,59.79,138.36,60.59,136.45z"/>
			<path class="st0" d="M180.1,136.45c0.79,1.91,3.01,2.83,4.92,2.04l13.48-5.59c-0.86-2.36-1.82-4.68-2.88-6.96l-13.48,5.59
				C180.22,132.32,179.31,134.54,180.1,136.45z"/>
			<path class="st0" d="M166.08,115.47c1.46,1.46,3.86,1.46,5.32,0l10.34-10.34c-1.68-1.85-3.45-3.64-5.31-5.34l-10.35,10.35
				C164.61,111.61,164.61,114,166.08,115.47z"/>
			<path class="st0" d="M145.09,101.45c1.91,0.79,4.13-0.12,4.92-2.04l5.6-13.52c-1.13-0.53-2.28-1.05-3.44-1.53
				c-1.17-0.48-2.34-0.93-3.51-1.35l-5.6,13.52C142.26,98.44,143.18,100.65,145.09,101.45z"/>
			<path class="st2" d="M154.99,77.55c-46.13-19.11-99.2,2.88-118.31,49c-5.12,12.37-7.4,25.43-6.85,38.41H51.9
				c2.07,0,3.76-1.69,3.76-3.76c0-2.07-1.69-3.76-3.76-3.76H37.22c0.38-8.3,2.02-16.56,4.93-24.55c0.43-1.18,0.87-2.35,1.36-3.51
				c0.48-1.17,1-2.31,1.53-3.44c3.64-7.78,8.35-14.76,13.9-20.82c1.7-1.86,3.49-3.63,5.34-5.31c6.24-5.68,13.26-10.35,20.82-13.88
				c2.27-1.06,4.59-2.03,6.96-2.88c7.84-2.84,16.11-4.51,24.54-4.9c2.5-0.12,5.01-0.13,7.53-0.02c8.21,0.36,16.47,1.96,24.55,4.89
				c1.18,0.43,2.35,0.87,3.51,1.35c1.17,0.48,2.31,1,3.44,1.53c7.78,3.64,14.76,8.35,20.82,13.9c1.86,1.7,3.62,3.49,5.31,5.34
				c5.68,6.24,10.35,13.26,13.88,20.82c1.06,2.27,2.03,4.59,2.88,6.96c2.84,7.84,4.51,16.11,4.9,24.54h-14.62
				c-2.07,0-3.76,1.69-3.76,3.76c0,2.07,1.69,3.76,3.76,3.76h22.03C212.31,128.1,191.01,92.47,154.99,77.55z"/>
			<path class="st2" d="M29.76,174.62L29.76,174.62v33.85v0l6.24,0l174.89,0v0v-33.85v0H29.76z M204.64,202.22H36v-21.36h168.64
				V202.22z"/>
		</g>
		<g>
			<g>
				<g>
					<path class="st2" d="M255.73,142.49l-11.28-3c-2.99-0.8-4.27-2.36-4.27-5.21c0-3.98,3.18-6.35,8.52-6.35
						c5.43,0,8.8,2.69,8.8,7.02v1.6h5.58v-1.71c0-6.99-5.91-11.88-14.38-11.88c-8.63,0-14.21,4.58-14.21,11.66
						c0,5.16,2.79,8.49,8.29,9.91l11.01,2.89c2.28,0.6,4.99,2.05,4.99,5.6c0,4.43-3.47,6.96-9.52,6.96c-5.85,0-9.63-2.93-9.63-7.46
						v-1.65h-5.64v1.76c0,7.26,6.28,12.32,15.27,12.32c9.1,0,15.21-4.93,15.21-12.27C264.47,147.68,261.29,143.97,255.73,142.49z"/>
					<polygon class="st2" points="298.65,159.02 277.25,159.02 277.25,146.27 296.98,146.27 296.98,141.13 277.25,141.13 
						277.25,128.87 298.59,128.87 298.59,123.73 271.39,123.73 271.39,164.16 298.65,164.16 					"/>
					<path class="st2" d="M320.18,148.99h10.89v0.24c0,6.89-3.72,10.69-10.46,10.69c-9.69,0-11.13-8.05-11.13-12.85v-6.45
						c0-4.68,1.41-12.52,10.85-12.52c7,0,10.27,4.62,10.41,9.21l0.02,0.74h5.63l-0.02-0.78c-0.19-8.56-6.66-14.31-16.1-14.31
						c-10.28,0-16.66,6.83-16.66,17.83v6.17c0,10.93,6.65,17.99,16.94,17.99c9.85,0,16.21-6.36,16.21-16.22v-4.88h-16.59V148.99z"/>
					<path class="st2" d="M359.57,164.94c9.4,0,15.71-5.89,15.71-14.66v-26.55h-5.86v26.94c0,5.63-3.78,9.13-9.85,9.13
						c-6.08,0-9.85-3.5-9.85-9.13v-26.94h-5.86v26.55C343.85,159.05,350.17,164.94,359.57,164.94z"/>
					<path class="st2" d="M406.14,148.92c4.99-1.95,8.04-6.48,8.04-12.03c0-7.99-5.43-13.16-13.82-13.16h-16.83v40.43h5.86v-14.23
						h10.79l7.89,14.23h6.71L406.14,148.92z M389.39,128.76h10.41c5.25,0,8.52,3.11,8.52,8.13c0,5.06-3.18,8.07-8.52,8.07h-10.41
						V128.76z"/>
					<path class="st2" d="M436.87,122.95c-10.39,0-17.1,7.02-17.1,17.88v6.22c0,10.86,6.71,17.88,17.1,17.88
						c10.39,0,17.1-7.02,17.1-17.88v-6.22C453.97,129.97,447.26,122.95,436.87,122.95z M448.11,140.61v6.67
						c0,7.84-4.2,12.52-11.24,12.52c-7.04,0-11.24-4.68-11.24-12.52v-6.67c0-7.84,4.2-12.52,11.24-12.52
						C443.91,128.09,448.11,132.77,448.11,140.61z"/>
					<polygon class="st2" points="256.56,178.23 251.19,178.23 245.43,186.71 239.66,178.23 234.29,178.23 242.74,190.71 
						233.99,203.58 239.43,203.58 245.43,194.71 251.42,203.58 256.86,203.58 248.11,190.71 					"/>
					<polygon class="st2" points="287.06,178.23 280.85,178.23 272.05,187.72 272.05,178.23 267.22,178.23 267.22,203.58 
						272.05,203.58 272.05,193.83 281.22,203.58 287.44,203.58 275.28,190.77 					"/>
					<rect x="288.73" y="178.23" class="st2" width="4.84" height="25.35"/>
					<polygon class="st2" points="303.46,178.23 298.62,178.23 298.62,203.58 315.3,203.58 315.3,199.17 303.46,199.17 					"/>
					<polygon class="st2" points="334.98,170.08 329.16,170.08 325.52,176.45 330.53,176.45 					"/>
					<path class="st2" d="M327.69,177.77c-6.58,0-10.83,4.43-10.83,11.29v3.69c0,6.86,4.25,11.29,10.83,11.29
						c6.58,0,10.83-4.43,10.83-11.29v-3.69C338.52,182.2,334.27,177.77,327.69,177.77z M321.7,188.93c0-2.03,0.58-6.75,5.99-6.75
						c5.41,0,5.99,4.72,5.99,6.75v3.96c0,2.03-0.58,6.75-5.99,6.75c-5.41,0-5.99-4.72-5.99-6.75V188.93z"/>
					<polygon class="st2" points="353.88,192.07 346.96,178.23 342.72,178.23 342.72,203.58 347.42,203.58 347.42,189.05 
						351.96,198.01 355.79,198.01 360.33,189.05 360.33,203.58 365.03,203.58 365.03,178.23 360.8,178.23 					"/>
					<polygon class="st2" points="374.77,192.96 386.47,192.96 386.47,188.55 374.77,188.55 374.77,182.64 387.43,182.64 
						387.43,178.23 369.93,178.23 369.93,203.58 387.46,203.58 387.46,199.17 374.77,199.17 					"/>
					<polygon class="st2" points="389.1,182.64 396.15,182.64 396.15,203.58 400.99,203.58 400.99,182.64 408.05,182.64 
						408.05,178.23 389.1,178.23 					"/>
					<path class="st2" d="M430.41,186.72c0-5.08-3.57-8.49-8.88-8.49h-10.66v25.35h4.84v-8.44h5.33l4.68,8.44h5.54l-5.33-9.41
						C428.72,192.78,430.41,190.03,430.41,186.72z M415.7,182.57h5.5c2.74,0,4.38,1.55,4.38,4.15c0,1.54-0.57,4.11-4.38,4.11h-5.5
						V182.57z"/>
					<path class="st2" d="M444.35,177.77c-6.58,0-10.83,4.43-10.83,11.29v3.69c0,6.86,4.25,11.29,10.83,11.29
						c6.58,0,10.83-4.43,10.83-11.29v-3.69C455.18,182.2,450.93,177.77,444.35,177.77z M438.36,188.93c0-2.03,0.58-6.75,5.99-6.75
						c5.41,0,5.99,4.72,5.99,6.75v3.96c0,2.03-0.58,6.75-5.99,6.75c-5.41,0-5.99-4.72-5.99-6.75V188.93z"/>
				</g>
			</g>
			<path class="st2" d="M464.17,191.95c3.17,0,5.83,2.51,5.83,5.78c0,3.35-2.66,5.85-5.83,5.85c-3.19,0-5.86-2.49-5.86-5.85
				C458.31,194.46,460.98,191.95,464.17,191.95 M464.17,202.74c2.69,0,4.77-2.16,4.77-5c0-2.78-2.09-4.92-4.77-4.92
				c-2.73,0-4.81,2.15-4.81,4.92C459.37,200.58,461.45,202.74,464.17,202.74 M461.91,194.36h2.62c1.61,0,2.38,0.64,2.38,1.94
				c0,1.23-0.78,1.74-1.79,1.85l1.95,3h-1.13l-1.86-2.92h-1.12v2.92h-1.05V194.36z M462.96,197.38h1.1c0.93,0,1.79-0.04,1.79-1.11
				c0-0.91-0.79-1.05-1.5-1.05h-1.4V197.38z"/>
		</g>
	</g>
</g>
</svg>
