<?xml version="1.0" encoding="utf-8"?>
<!-- Generator: Adobe Illustrator 24.0.0, SVG Export Plug-In . SVG Version: 6.00 Build 0)  -->
<svg version="1.1" xmlns="http://www.w3.org/2000/svg" xmlns:xlink="http://www.w3.org/1999/xlink" x="0px" y="0px"
	 viewBox="0 0 500 300" style="enable-background:new 0 0 500 300;" xml:space="preserve">
<style type="text/css">
	.st0{fill:#FFFFFF;}
	.st1{opacity:0.79;}
	.st2{fill:#42F2DE;}
	.st3{fill:none;stroke:#FFFFFF;stroke-width:3;stroke-miterlimit:10;}
</style>
<g id="Layer_2">
</g>
<g id="Layer_1">
	<g>
		<g>
			<path class="st0" d="M119.07,115.58l9.52,40.1H95.51L119.07,115.58z M117.35,89.37L52.91,198.59h17.47l16.38-28.08h45.25
				l6.71,28.08h15.45L128.12,89.37H117.35z"/>
			<g>
				<g class="st1">
					<g>
						<polygon class="st2" points="97.26,198.59 78.07,89.37 93.52,89.37 110.05,183.77 158.58,183.77 161.23,198.59 						"/>
					</g>
				</g>
			</g>
		</g>
		<circle class="st3" cx="110.47" cy="150.25" r="80.79"/>
		<g>
			<path class="st0" d="M252.21,125.17H234.4l-4.25,11.23h-5.95l15.99-40.21h6.41l15.99,40.21h-6.01L252.21,125.17z M236.39,120.01
				h13.84l-6.98-18.04L236.39,120.01z"/>
			<path class="st0" d="M270.3,94.95c2.16,0,3.86,1.7,3.86,3.86c0,2.1-1.7,3.8-3.86,3.8c-2.1,0-3.8-1.7-3.8-3.8
				C266.5,96.65,268.2,94.95,270.3,94.95z M267.69,136.4v-27.28h5.27v27.28H267.69z"/>
			<path class="st0" d="M297.18,114.51c-0.79-0.11-1.59-0.17-2.33-0.17c-4.48,0-7.49,2.38-7.49,8.39v13.67h-5.33v-27.28h5.22v4.76
				c1.98-4.2,5.39-5.22,8.17-5.22c0.74,0,1.47,0.11,1.76,0.17V114.51z"/>
			<path class="st0" d="M326.33,128.63c-1.53,4.82-5.9,8.62-12.25,8.62c-7.32,0-13.72-5.33-13.72-14.58
				c0-8.56,6.18-14.41,13.04-14.41c8.39,0,13.1,5.78,13.1,14.29c0,0.68-0.06,1.36-0.11,1.7h-20.53c0.11,4.88,3.63,8.28,8.22,8.28
				c4.42,0,6.64-2.44,7.66-5.5L326.33,128.63z M320.94,119.96c-0.11-3.91-2.66-6.98-7.49-6.98c-4.48,0-7.2,3.46-7.43,6.98H320.94z"
				/>
			<path class="st0" d="M348.05,136.4V96.19h5.56v34.99h19v5.22H348.05z"/>
			<path class="st0" d="M381.17,94.95c2.16,0,3.86,1.7,3.86,3.86c0,2.1-1.7,3.8-3.86,3.8c-2.1,0-3.8-1.7-3.8-3.8
				C377.37,96.65,379.07,94.95,381.17,94.95z M378.56,136.4v-27.28h5.27v27.28H378.56z"/>
			<path class="st0" d="M392.91,136.4V95.34h5.27v17.64c1.3-2.44,4.48-4.65,9.02-4.65c8.28,0,12.53,6.35,12.53,14.29
				c0,8.11-4.59,14.52-12.7,14.52c-4.03,0-7.15-1.76-8.85-4.71v3.97H392.91z M406.24,113.04c-4.71,0-8.11,3.69-8.11,9.58
				c0,5.9,3.4,9.75,8.11,9.75c4.88,0,8.05-3.86,8.05-9.75C414.29,116.72,411.17,113.04,406.24,113.04z"/>
			<path class="st0" d="M441.68,114.51c-0.79-0.11-1.59-0.17-2.33-0.17c-4.48,0-7.49,2.38-7.49,8.39v13.67h-5.33v-27.28h5.22v4.76
				c1.98-4.2,5.39-5.22,8.17-5.22c0.74,0,1.47,0.11,1.76,0.17V114.51z"/>
			<path class="st0" d="M470.83,128.63c-1.53,4.82-5.9,8.62-12.25,8.62c-7.32,0-13.72-5.33-13.72-14.58
				c0-8.56,6.18-14.41,13.04-14.41c8.39,0,13.1,5.78,13.1,14.29c0,0.68-0.06,1.36-0.11,1.7h-20.53c0.11,4.88,3.63,8.28,8.22,8.28
				c4.42,0,6.64-2.44,7.66-5.5L470.83,128.63z M465.44,119.96c-0.11-3.91-2.66-6.98-7.49-6.98c-4.48,0-7.2,3.46-7.43,6.98H465.44z"
				/>
			<path class="st0" d="M233.95,204.46v-25.92h-8.9v-3.91c5.1-0.11,8.62-2.95,9.47-6.92h4.88v36.75H233.95z"/>
			<path class="st0" d="M250.05,172.75c2.38-3.57,6.07-5.9,11.29-5.9c5.22,0,8.9,2.33,11.29,5.9c2.44,3.63,3.29,8.28,3.29,13.33
				c0,5.05-0.85,9.7-3.29,13.33c-2.38,3.57-6.07,5.9-11.29,5.9c-5.22,0-8.9-2.33-11.29-5.9c-2.44-3.63-3.29-8.28-3.29-13.33
				C246.76,181.04,247.61,176.38,250.05,172.75z M255.5,197.99c1.42,1.47,3.23,2.38,5.84,2.38c2.61,0,4.42-0.91,5.84-2.38
				c2.21-2.33,3.23-6.29,3.23-11.91c0-5.61-1.02-9.58-3.23-11.91c-1.42-1.47-3.23-2.38-5.84-2.38c-2.61,0-4.42,0.91-5.84,2.38
				c-2.21,2.33-3.23,6.3-3.23,11.91C252.26,191.7,253.28,195.67,255.5,197.99z"/>
			<path class="st0" d="M285.78,192.89c0.34,4.54,3.69,7.6,8.28,7.6c4.37,0,7.88-2.89,7.88-7.43c0-5.05-3.69-7.6-7.94-7.6
				c-2.61,0-5.1,1.02-6.69,2.66c-1.93-0.74-3.57-1.47-5.44-2.15l4.76-18.26h19.4v5.1h-15.71l-2.72,10.55
				c1.65-1.81,4.59-2.72,7.49-2.72c7.2,0,12.48,4.59,12.48,12.19c0,6.92-5.33,12.53-13.5,12.53c-7.83,0-13.1-5.1-13.61-10.89
				L285.78,192.89z"/>
			<path class="st0" d="M316.86,196.86c2.21,0,3.97,1.76,3.97,3.97c0,2.21-1.76,3.91-3.97,3.91s-3.91-1.7-3.91-3.91
				C312.95,198.62,314.65,196.86,316.86,196.86z"/>
			<path class="st0" d="M334.84,182.79l10.83-9.98h-17.58v-5.1h24.95v4.99l-10.49,9.7c5.39,0,11.34,3.63,11.34,11.17
				c0,6.18-4.76,11.8-13.33,11.8c-8.51,0-13.33-5.56-13.67-11.57l5.44-1.25c0.23,4.88,3.74,7.94,8.17,7.94
				c5.05,0,7.77-3.12,7.77-6.81c0-4.82-3.86-6.86-7.49-6.86c-1.14,0-2.27,0.23-3.23,0.57L334.84,182.79z"/>
			<path class="st0" d="M382.02,182v22.46h-5.5V182h-5.05v-4.82h5.05v-4.59c0-6.07,4.03-9.36,8.96-9.36c1.82,0,2.95,0.4,3.18,0.57
				v4.76c-0.28-0.11-0.96-0.34-2.33-0.34c-1.87,0-4.31,0.91-4.31,4.65v4.31h6.58V182H382.02z"/>
			<path class="st0" d="M394.33,204.46v-27.28h5.1v3.63c1.7-3.01,5.1-4.42,8.28-4.42c3.4,0,6.69,1.65,8.17,5.16
				c2.15-3.91,5.67-5.16,9.13-5.16c4.76,0,9.41,3.23,9.41,10.38v17.69h-5.27v-17.13c0-3.57-1.76-6.24-5.78-6.24
				c-3.74,0-6.3,2.95-6.3,6.86v16.5h-5.33v-17.13c0-3.52-1.7-6.24-5.79-6.24c-3.8,0-6.35,2.84-6.35,6.92v16.45H394.33z"/>
		</g>
	</g>
</g>
</svg>
