<?xml version="1.0" encoding="iso-8859-1"?>
<!-- Generator: Adobe Illustrator 19.0.0, SVG Export Plug-In . SVG Version: 6.00 Build 0)  -->
<svg version="1.1" id="Layer_1" xmlns="http://www.w3.org/2000/svg" xmlns:xlink="http://www.w3.org/1999/xlink" x="0px" y="0px"
	 viewBox="0 0 512 512" style="enable-background:new 0 0 512 512;" xml:space="preserve">
<path style="fill:#D94158;" d="M501.725,384.4L320.501,51.401C306.7,28.6,282.7,14.8,256,14.8s-50.7,13.8-64.501,36.601
	c0,0.298-0.298,0.298-0.298,0.599L10.54,383.8c-13.799,23.701-14.1,51.901-0.599,75.6c13.499,23.699,37.798,37.8,65.099,37.8
	h361.884c27.301,0,51.601-14.101,65.099-37.8C515.524,435.701,515.223,407.501,501.725,384.4z"/>
<path style="fill:#CC2944;" d="M502.023,459.4c-13.499,23.699-37.798,37.8-65.099,37.8H256V14.8c26.7,0,50.7,13.801,64.501,36.601
	L501.725,384.4C515.223,407.501,515.524,435.701,502.023,459.4z"/>
<path style="fill:#FFDE33;" d="M475.625,399.1l-181.224-333c-7.8-13.2-22.5-21.3-38.401-21.3s-30.3,8.101-38.699,21.601
	L36.639,398.799c-8.699,14.401-8.699,31.5-0.599,45.601c8.099,14.399,22.798,22.8,39,22.8h361.884c16.201,0,30.901-8.401,39-22.8
	C484.024,430.299,484.024,413.201,475.625,399.1z"/>
<path style="fill:#FFBC33;" d="M475.924,444.4c-8.099,14.399-22.798,22.8-39,22.8H256V44.8c15.901,0,30.601,8.101,38.401,21.301
	L475.625,399.1C484.024,413.201,484.024,430.299,475.924,444.4z"/>
<path d="M411.816,422.2H100.305c-11.36,0-18.598-12.136-13.198-22.13l45.641-82.137c5.259-9.697,15.381-15.732,26.396-15.732h11.309
	c13.345,0,24.844,7.617,28.608,18.97c8.174,24.551,31.055,41.03,56.938,41.03s48.765-16.494,56.938-41.045
	c3.765-11.338,15.264-18.955,28.608-18.955h12.056c11.104,0,21.255,6.079,26.47,15.879l44.981,82.062
	C430.38,410.134,423.14,422.2,411.816,422.2z"/>
<path style="fill:#495A79;" d="M424.925,400.001L380.2,318.099c-5.4-9.899-15.601-15.899-26.7-15.899h-12.001
	c-13.2,0-24.899,7.5-28.499,18.9c-8.101,24.6-31.201,41.1-57.001,41.1s-48.9-16.5-57.001-41.1c-3.6-11.4-15.298-18.9-28.499-18.9
	h-11.4c-11.1,0-21,6-26.4,15.599l-45.661,82.202c-5.4,10.199,1.8,22.2,13.2,22.2h311.486
	C423.125,422.2,430.325,410.2,424.925,400.001z"/>
<path style="fill:#42516D;" d="M411.725,422.2H256v-60c25.8,0,48.9-16.5,57.001-41.1c3.6-11.4,15.298-18.9,28.499-18.9h12
	c11.1,0,21.301,6,26.7,15.899L424.925,400C430.325,410.2,423.125,422.2,411.725,422.2z"/>
<path style="fill:#495A79;" d="M296.499,237.7l-30,30c-2.699,3.001-6.599,4.5-10.499,4.5s-7.8-1.5-10.499-4.501l-30-30
	c-6-5.7-6-15.3,0-21c5.7-5.999,15.298-5.999,20.999,0l4.501,4.2V182.2c0-8.401,6.599-15,15-15s15,6.599,15,15v38.7l4.501-4.2
	c5.7-5.999,15.298-5.999,20.999,0C302.5,222.399,302.5,231.999,296.499,237.7z"/>
<path style="fill:#42516D;" d="M296.499,237.7l-30,30c-2.699,3.001-6.599,4.5-10.499,4.5v-105c8.401,0,15,6.599,15,15v38.7
	l4.501-4.2c5.7-5.999,15.298-5.999,20.999,0C302.5,222.399,302.5,231.999,296.499,237.7z"/>
<g>
</g>
<g>
</g>
<g>
</g>
<g>
</g>
<g>
</g>
<g>
</g>
<g>
</g>
<g>
</g>
<g>
</g>
<g>
</g>
<g>
</g>
<g>
</g>
<g>
</g>
<g>
</g>
<g>
</g>
</svg>
