<?xml version="1.0"?>
<svg xmlns="http://www.w3.org/2000/svg" height="512px" viewBox="0 0 384 384" width="512px"><path d="m192 384c105.863281 0 192-86.128906 192-192s-86.136719-192-192-192-192 86.128906-192 192 86.136719 192 192 192zm0-352c88.222656 0 160 71.777344 160 160s-71.777344 160-160 160-160-71.777344-160-160 71.777344-160 160-160zm0 0" fill="#2400d9"/><path d="m160 176h72.984375l-31.609375 31.167969 22.464844 22.792969 70.953125-69.960938-70.953125-69.960938-22.464844 22.792969 31.609375 31.167969h-104.984375v144h32zm0 0" fill="#2400d9"/></svg>
