<?xml version="1.0"?>
<svg xmlns="http://www.w3.org/2000/svg" height="512px" viewBox="0 0 384 384" width="512px"><path d="m192 0c-105.863281 0-192 86.128906-192 192s86.136719 192 192 192 192-86.128906 192-192-86.136719-192-192-192zm0 352c-88.222656 0-160-71.777344-160-160s71.777344-160 160-160 160 71.777344 160 160-71.777344 160-160 160zm0 0" fill="#0c02c7"/><path d="m182.625 112.792969-22.472656-22.777344-70.9375 69.984375 70.9375 69.984375 22.472656-22.777344-31.625-31.207031h73v112h32v-144h-105zm0 0" fill="#0c02c7"/></svg>
