<?xml version="1.0" encoding="iso-8859-1"?>
<!-- Generator: Adobe Illustrator 19.0.0, SVG Export Plug-In . SVG Version: 6.00 Build 0)  -->
<svg version="1.1" id="Capa_1" xmlns="http://www.w3.org/2000/svg" xmlns:xlink="http://www.w3.org/1999/xlink" x="0px" y="0px"
	 viewBox="0 0 512 512" style="enable-background:new 0 0 512 512;" xml:space="preserve">
<path style="fill:#FEDB41;" d="M489.49,389.71c10.206,18.908,9.905,41.118-0.899,59.426c-11.105,18.309-30.314,29.414-51.624,29.414
	H75.005c-21.311,0-40.519-11.105-51.624-29.414c-10.805-18.308-11.105-40.517-0.899-59.426L203.462,64.664
	c10.504-19.508,30.314-31.213,52.523-31.213s42.02,11.705,52.523,31.213L489.49,389.71z"/>
<path style="fill:#FCBF29;" d="M488.591,449.135c-11.105,18.309-30.314,29.414-51.624,29.414H255.986V33.451
	c22.21,0,42.02,11.705,52.523,31.213L489.49,389.71C499.696,408.618,499.395,430.828,488.591,449.135z"/>
<path style="fill:#57555C;" d="M446.871,411.321l-57.025-104.448c-7.803-14.405-22.81-23.409-39.318-23.409h-9.005
	c-19.808,0-36.915,11.705-42.919,29.112c-6.003,18.608-23.109,30.915-42.618,30.915s-36.615-12.307-42.618-30.915
	c-6.003-17.407-23.111-29.112-42.919-29.112h-9.005c-16.206,0-31.514,9.004-39.318,23.409L65.101,411.321
	c-5.703,9.903,1.501,22.21,12.906,22.21h355.959C445.37,433.531,452.574,421.224,446.871,411.321z"/>
<path style="fill:#FD4E26;" d="M502.696,382.507L321.715,57.46c-13.206-24.611-37.817-39.017-65.729-39.017
	s-52.523,14.405-65.729,39.017L9.275,382.507c-27.313,50.121,9.004,111.05,65.729,111.05h361.962
	c43.821,0,75.034-36.016,75.034-75.034C512,406.517,509,394.213,502.696,382.507z M476.284,396.913
	c16.507,30.013-5.101,66.631-39.318,66.631H75.005c-34.215,0-55.825-36.617-39.318-66.631L216.368,71.869
	c8.405-15.608,24.011-23.411,39.618-23.411s31.213,7.803,39.618,23.411L476.284,396.913z"/>
<path style="fill:#3C3A41;" d="M433.965,433.531h-177.98v-90.04c19.51,0,36.615-12.307,42.618-30.915
	c6.003-17.407,23.111-29.112,42.919-29.112h9.005c16.507,0,31.514,9.004,39.318,23.409l57.025,104.448
	C452.574,421.224,445.37,433.531,433.965,433.531z"/>
<path style="fill:#FD3018;" d="M512,418.524c0,39.017-31.213,75.034-75.034,75.034H255.986v-30.013h180.981
	c34.215,0,55.825-36.617,39.318-66.631L295.603,71.869c-8.405-15.608-24.011-23.411-39.618-23.411V18.444
	c27.912,0,52.523,14.405,65.729,39.017l180.981,325.046C509,394.213,512,406.517,512,418.524z"/>
<g>
</g>
<g>
</g>
<g>
</g>
<g>
</g>
<g>
</g>
<g>
</g>
<g>
</g>
<g>
</g>
<g>
</g>
<g>
</g>
<g>
</g>
<g>
</g>
<g>
</g>
<g>
</g>
<g>
</g>
</svg>
