<?xml version="1.0" encoding="utf-8"?>
<!-- Generator: Adobe Illustrator 19.2.1, SVG Export Plug-In . SVG Version: 6.00 Build 0)  -->
<svg xmlns="http://www.w3.org/2000/svg" xmlns:xlink="http://www.w3.org/1999/xlink" version="1.1" id="Layer" x="0px" y="0px" width="512" height="512" viewBox="0 0 64 64" enable-background="new 0 0 64 64" xml:space="preserve">
<circle fill="#CCE4FF" cx="32" cy="32" r="17"/>
<path fill="#007AFF" d="M32,8C18.767,8,8,18.766,8,32c0,13.233,10.767,24,24,24s24-10.767,24-24C56,18.766,45.233,8,32,8z M32,52  c-11.028,0-20-8.972-20-20c0-11.028,8.972-20,20-20s20,8.972,20,20C52,43.028,43.028,52,32,52z"/>
<polygon fill="#007AFF" points="37.172,24 40.172,27 34,27 30,27 23.828,27 26.828,24 24,21.171 16.172,29 24,36.828 26.828,34   23.828,31 30,31 30,44 34,44 34,31 40.172,31 37.172,34 40,36.828 47.828,29 40,21.171 "/>
</svg>
