<?xml version="1.0" encoding="UTF-8"?>
<svg width="100px" height="100px" viewBox="0 0 100 100" version="1.1" xmlns="http://www.w3.org/2000/svg" xmlns:xlink="http://www.w3.org/1999/xlink">
    <!-- Generator: sketchtool 51.2 (57519) - http://www.bohemiancoding.com/sketch -->
    <title>F5B4C150-3045-4872-9859-0568A2F9B193</title>
    <desc>Created with sketchtool.</desc>
    <defs></defs>
    <g id="Symbols" stroke="none" stroke-width="1" fill="none" fill-rule="evenodd">
        <g id="image/acelerador-perdida" fill-rule="nonzero">
            <g id="iconos-SxKm-03" transform="translate(0.000000, 28.000000)">
                <polygon id="Shape" fill="#62CE46" points="26.4805785 41.9650615 18.8545455 36.7112769 9.90330579 35.2362462 15.0735537 41.2003385 9.36570248 43.1148462 14.9202479 43.8758308 10.8904959 48.7728 17.8876033 46.17 19.7152893 53.7420462 22.9082645 47.4697385 27.3950413 51.2925231 25.3417355 45.7895077 33.3260331 47.2404462"></polygon>
                <path d="M55.5206612,11.0783077 C56.1384298,10.6674923 56.9838843,10.1050615 57.3805785,8.70604615 C57.7756198,7.30744615 57.3520661,6.38113846 57.0429752,5.70489231 C56.8086777,5.19604615 56.7020661,4.96384615 56.8409091,4.47784615 C56.9768595,3.99267692 57.1896694,3.85144615 57.6541322,3.5424 C58.2714876,3.132 59.1165289,2.56915385 59.5132231,1.1718 L57.0603306,0.468969231 C56.9219008,0.954553846 56.7099174,1.09578462 56.246281,1.40441538 C55.6272727,1.81481538 54.7826446,2.37766154 54.3876033,3.77543077 C53.9917355,5.17444615 54.4157025,6.09992308 54.7256198,6.77658462 C54.9578512,7.28543077 55.0640496,7.51763077 54.9256198,8.00404615 C54.7892562,8.49004615 54.5768595,8.63169231 54.1123967,8.94032308 C53.4942149,9.35155385 52.6491736,9.9144 52.2528926,11.3134154 L54.7066116,12.0145846 C54.8446281,11.5285846 55.0566116,11.3877692 55.5206612,11.0783077 Z" id="Shape" fill="#62CE46"></path>
                <path d="M63.0049587,7.3764 C62.3702479,8.68153846 62.6231405,9.66849231 62.8082645,10.3883538 C62.9479339,10.9316769 63.011157,11.1796615 62.7896694,11.6328462 C62.5681818,12.0868615 62.3355372,12.1882154 61.8231405,12.4092 C61.1438017,12.7032923 60.2123967,13.1070462 59.5752066,14.4117692 L61.8661157,15.5407846 C62.0876033,15.0867692 62.3202479,14.9858308 62.8326446,14.7644308 C63.511157,14.4703385 64.4429752,14.0674154 65.0805785,12.7618615 C65.7173554,11.4571385 65.4632231,10.4689385 65.277686,9.74866154 C65.1396694,9.20575385 65.0768595,8.9586 65.2958678,8.505 C65.5173554,8.05264615 65.7516529,7.95129231 66.2623967,7.73072308 C66.942562,7.43663077 67.8747934,7.03287692 68.5095041,5.72815385 L66.218595,4.59996923 C65.9991736,5.05315385 65.7652893,5.15367692 65.2549587,5.37466154 C64.5743802,5.66875385 63.642562,6.07167692 63.0049587,7.3764 Z" id="Shape" fill="#62CE46"></path>
                <path d="M59.0103306,8.20384615 C59.1657025,8.74176923 59.2359504,8.98767692 59.0264463,9.44833846 C58.8181818,9.90692308 58.5876033,10.0153385 58.0818182,10.2496154 C57.4095041,10.5624 56.4884298,10.9906615 55.8884298,12.3136615 L58.207438,13.3795385 C58.4157025,12.9205385 58.6458678,12.8117077 59.1520661,12.5774308 C59.8243802,12.2646462 60.7454545,11.8363846 61.3446281,10.5133846 C61.9475207,9.19121538 61.6681818,8.21132308 61.4640496,7.49603077 C61.3090909,6.95727692 61.2380165,6.71136923 61.4483471,6.25153846 C61.6557851,5.79253846 61.8867769,5.68536923 62.3921488,5.45150769 C63.0644628,5.13913846 63.985124,4.71087692 64.585124,3.38912308 L62.2661157,2.32324615 C62.057438,2.78224615 61.8268595,2.88941538 61.322314,3.12327692 C60.65,3.43564615 59.7293388,3.86390769 59.1285124,5.18566154 C58.5272727,6.50824615 58.8057851,7.48772308 59.0103306,8.20384615 Z" id="Shape" fill="#62CE46"></path>
                <path d="M90.5966942,37.2288462 C90.5012397,37.5308308 90.3904959,37.8299077 90.2549587,38.1244154 C88.4731405,41.9617385 83.9256198,43.6249385 80.103719,41.8329692 C76.2826446,40.0422462 74.6330579,35.4701077 76.4152893,31.6315385 C76.6475207,31.1301692 76.9301653,30.6678462 77.2495868,30.2441538 C76.5566116,29.9089385 76.1578512,29.7207692 76.1578512,29.7207692 C48.2661157,16.7532923 38.5495868,12.2347385 32.9363636,9.79186154 C32.8243802,10.2109846 32.6826446,10.6267846 32.4917355,11.0334462 C30.7115702,14.8711846 26.1677686,16.5372923 22.3446281,14.7449077 C18.5243802,12.9521077 16.8735537,8.37996923 18.6528926,4.54223077 C18.6904959,4.46538462 18.7330579,4.39476923 18.772314,4.31875385 C14.3785124,2.88152308 11.3442149,2.22106154 8.92727273,1.68355385 C5.46983471,0.914261538 2.96363636,6.67730769 2.39297521,7.64224615 C1.8161157,8.60510769 2.07603306,8.68527692 2.61033058,10.0838769 C3.14958678,11.4866308 -0.0818181818,14.7798 0.0566115702,16.5061385 C0.157024793,17.8295538 8.37933884,21.3732 8.37933884,21.3732 C24.6706612,41.4009692 39.735124,45.3276 45.95,47.0335846 C51.8640496,48.6577385 68.5041322,47.7173077 68.5041322,47.7173077 C68.8706612,48.0126462 83.368595,52.7717077 89.9578512,53.6282308 C96.5483471,54.4835077 98.0012397,50.1194769 98.0012397,50.1194769 C98.0012397,50.1194769 98.8578512,48.4978154 99.9152893,44.9491846 C100.377273,43.3898308 95.8318182,40.2524308 90.5966942,37.2288462 Z M47.2095041,31.5958154 L47.4033058,31.1779385 C47.4561983,31.0645385 47.5929752,31.0134462 47.7082645,31.0666154 L51.4673554,32.8311692 C51.5822314,32.8847538 51.631405,33.0226615 51.5780992,33.1377231 L51.3838843,33.5539385 C51.3305785,33.6681692 51.1942149,33.7192615 51.0793388,33.6652615 L47.3227273,31.9040308 C47.2070248,31.8508615 47.1566116,31.7112923 47.2095041,31.5958154 Z M22.4243802,31.2568615 C19.8681818,27.9790615 19.1272727,25.3068923 19.4756198,24.4632462 L41.1107438,33.8509385 L36.3607438,41.8113692 C29.2909091,38.6876769 26.0285124,35.8771846 22.4243802,31.2568615 Z M38.0644628,42.5453538 L43.9690083,35.0904462 L59.8855372,41.9945538 L59.9512397,44.4964154 C59.9557851,44.6239385 60.0524793,44.7722308 60.1673554,44.8258154 L61.0706612,45.2495077 C61.1855372,45.3030923 61.2780992,45.2428615 61.2735537,45.1165846 L61.2066116,42.5698615 L66.607438,44.9122154 C51.2495868,47.1727385 45.1508264,45.5228308 38.0644628,42.5453538 Z M95.2309917,50.1813692 C95.2309917,50.1813692 94.4855372,52.4207077 91.1012397,51.9783231 C89.9909091,51.8346 88.4533058,51.4794462 86.872314,51.0565846 C89.4194215,47.6678769 93.4061983,48.9804923 95.3504132,49.9263231 C95.2735537,50.0953846 95.2309917,50.1813692 95.2309917,50.1813692 Z" id="Shape" fill="#18302A"></path>
                <path d="M80.103719,41.8329692 C83.9256198,43.6249385 88.4731405,41.9621538 90.2549587,38.1244154 C90.3904959,37.8299077 90.5012397,37.5304154 90.5966942,37.2288462 C91.7632231,33.6008769 90.0896694,29.5766308 86.5615702,27.9209077 C83.2396694,26.3632154 79.3731405,27.4195385 77.2491736,30.2445692 C76.9301653,30.6682615 76.6471074,31.1305846 76.414876,31.6319538 C74.6326446,35.4701077 76.2826446,40.0422462 80.103719,41.8329692 Z M78.1181818,32.4315692 C79.4603306,29.5392462 82.8880165,28.2827077 85.7665289,29.6335385 C88.6471074,30.9843692 89.8929752,34.4316462 88.5516529,37.3248 C87.2061983,40.2179538 83.7780992,41.472 80.8995868,40.1203385 C78.0210744,38.7695077 76.7743802,35.3255538 78.1181818,32.4315692 Z" id="Shape" fill="#3D4C48"></path>
                <path d="M80.8995868,40.1203385 C83.7780992,41.472 87.2061983,40.2175385 88.5516529,37.3248 C89.8929752,34.4316462 88.6466942,30.9843692 85.7665289,29.6335385 C82.8880165,28.2827077 79.4603306,29.5392462 78.1181818,32.4315692 C76.7743802,35.3255538 78.0210744,38.7695077 80.8995868,40.1203385 Z" id="Shape" fill="#18302A"></path>
                <path d="M22.3446281,14.7457385 C26.1677686,16.5381231 30.7115702,14.8720154 32.4917355,11.0342769 C32.6826446,10.6276154 32.8247934,10.2118154 32.9363636,9.79269231 C33.8929752,6.25569231 32.2190083,2.4354 28.8024793,0.832430769 C25.0578512,-0.922984615 20.6264463,0.645092308 18.7727273,4.32 C18.7334711,4.3956 18.6909091,4.46663077 18.6533058,4.54347692 C16.8735537,8.38038462 18.5243802,12.9529385 22.3446281,14.7457385 Z M20.3557851,5.34143077 C21.6987603,2.44827692 25.1285124,1.19464615 28.007438,2.54547692 C30.8909091,3.89589231 32.1338843,7.34067692 30.788843,10.2346615 C29.4458678,13.1282308 26.0219008,14.3839385 23.1409091,13.0318615 C20.2595041,11.6814462 19.0144628,8.23541538 20.3557851,5.34143077 Z" id="Shape" fill="#3D4C48"></path>
                <path d="M23.1409091,13.0318615 C26.0219008,14.3839385 29.4458678,13.1282308 30.788843,10.2346615 C32.1338843,7.34067692 30.8904959,3.89630769 28.007438,2.54547692 C25.1285124,1.19464615 21.6987603,2.44827692 20.3557851,5.34143077 C19.0144628,8.23541538 20.2595041,11.6814462 23.1409091,13.0318615 Z" id="Shape" fill="#18302A"></path>
                <path d="M86.8719008,51.0565846 C88.4528926,51.4794462 89.9909091,51.8346 91.1008264,51.9783231 C94.485124,52.4202923 95.2305785,50.1813692 95.2305785,50.1813692 C95.2305785,50.1813692 95.2731405,50.0953846 95.3495868,49.9267385 C93.4061983,48.9804923 89.4194215,47.6678769 86.8719008,51.0565846 Z" id="Shape" fill="#62CE46"></path>
                <path d="M47.3227273,31.9044462 L51.0793388,33.6656769 C51.1942149,33.7200923 51.3305785,33.669 51.3838843,33.5543538 L51.5780992,33.1381385 C51.6318182,33.0230769 51.5826446,32.8851692 51.4673554,32.8315846 L47.7082645,31.0670308 C47.5929752,31.0134462 47.4561983,31.0645385 47.4033058,31.1783538 L47.2095041,31.5962308 C47.1566116,31.7112923 47.2070248,31.8508615 47.3227273,31.9044462 Z" id="Shape" fill="#62CE46"></path>
            </g>
        </g>
    </g>
</svg>