<?xml version="1.0" encoding="UTF-8"?>
<svg width="100px" height="100px" viewBox="0 0 100 100" version="1.1" xmlns="http://www.w3.org/2000/svg" xmlns:xlink="http://www.w3.org/1999/xlink">
    <!-- Generator: sketchtool 51.2 (57519) - http://www.bohemiancoding.com/sketch -->
    <title>3B8B7DAD-374C-403A-8A6B-269878CBB92C</title>
    <desc>Created with sketchtool.</desc>
    <defs></defs>
    <g id="Symbols" stroke="none" stroke-width="1" fill="none" fill-rule="evenodd">
        <g id="image/deducible" fill-rule="nonzero">
            <g id="iconos-SxKm-04" transform="translate(1.000000, 15.000000)">
                <path d="M45.3782377,8.03473404 C44.6213547,8.17696809 44.1764151,8.68521277 44.1764151,9.32265957 C44.1764151,9.86851064 44.4898528,10.3369149 45.3782377,10.5070745 L45.3782377,8.03473404 Z" id="Shape" fill="#62CE46"></path>
                <path d="M43.8274868,22.4841489 L45.8276604,27.3115426 L47.7635774,22.4592021 C53.0598906,21.4963298 57.0598642,16.8618085 57.0251208,11.3117021 C56.9847736,5.09026596 51.8931849,0.0811702128 45.6517019,0.121010638 C39.4105925,0.161223404 34.383634,5.2362234 34.4239811,11.4565426 C34.4583509,17.0070213 38.5180981,21.5905319 43.8274868,22.4841489 Z M45.0513509,11.7439894 C43.7195208,11.4710638 42.8838113,10.6496809 42.8838113,9.37515957 C42.8838113,8.13898936 43.9164,7.08414894 45.3782377,6.90095745 L45.3782377,5.53558511 L46.3973774,5.53558511 L46.3973774,6.91473404 C48.0037925,7.12324468 48.6299208,8.19074468 48.8387547,9.03632979 L47.6642038,9.46675532 C47.5850038,8.97191489 47.1927396,8.29462766 46.3970038,8.07234043 L46.3970038,10.7409043 L46.5916415,10.7807447 C48.0430189,11.0670745 48.9179547,12.0299468 48.9179547,13.2005851 C48.9179547,14.3593085 48.0542264,15.4789362 46.3970038,15.6747872 L46.3970038,17.0278723 L45.3778642,17.0278723 L45.3778642,15.6747872 C43.5629887,15.4923404 42.6746038,14.2431383 42.5304,13.0967021 L43.7725698,12.7076064 C43.8502755,13.5405319 44.3452755,14.3473936 45.3778642,14.5294681 L45.3778642,11.8091489 L45.0513509,11.7439894 Z" id="Shape" fill="#62CE46"></path>
                <path d="M47.6376792,13.2668617 C47.6376792,12.720266 47.2469094,12.2120213 46.3973774,12.0180319 L46.3973774,14.5290957 C47.2469094,14.3727128 47.6376792,13.8652128 47.6376792,13.2668617 Z" id="Shape" fill="#62CE46"></path>
                <path d="M43.7729434,12.7076064 L42.5307736,13.0967021 C42.6749774,14.2431383 43.5633623,15.4923404 45.3782377,15.6747872 L45.3782377,17.0278723 L46.3973774,17.0278723 L46.3973774,15.6747872 C48.0546,15.4789362 48.9183283,14.3593085 48.9183283,13.2005851 C48.9183283,12.0299468 48.0433925,11.0670745 46.5920151,10.7807447 L46.3973774,10.7409043 L46.3973774,8.07234043 C47.1931132,8.29462766 47.5853774,8.97191489 47.6645774,9.46675532 L48.8391283,9.03632979 C48.6299208,8.19074468 48.004166,7.12324468 46.3977509,6.91473404 L46.3977509,5.53558511 L45.3786113,5.53558511 L45.3786113,6.90095745 C43.9167736,7.0837766 42.8841849,8.13861702 42.8841849,9.37515957 C42.8841849,10.6496809 43.7195208,11.4706915 45.0517245,11.7439894 L45.3786113,11.8087766 L45.3786113,14.5290957 C44.3456491,14.3473936 43.8506491,13.5405319 43.7729434,12.7076064 Z M46.3970038,12.0184043 C47.2465358,12.2123936 47.6373057,12.720266 47.6373057,13.267234 C47.6373057,13.8655851 47.2465358,14.3730851 46.3970038,14.5294681 L46.3970038,12.0184043 Z M44.1764151,9.32303191 C44.1764151,8.68521277 44.6209811,8.17734043 45.3782377,8.03510638 L45.3782377,10.5078191 C44.4898528,10.3369149 44.1764151,9.86851064 44.1764151,9.32303191 Z" id="Shape" fill="#FFFFFF"></path>
                <polygon id="Shape" fill="#62CE46" points="79.3602679 26.3233511 76.2968717 24.2717553 71.9662755 30.695 75.0274302 32.7469681"></polygon>
                <rect id="Rectangle-path" fill="#62CE46" transform="translate(81.201906, 33.887126) rotate(148.843660) translate(-81.201906, -33.887126) " x="77.3190512" y="32.0480479" width="7.76571013" height="3.678156"></rect>
                <rect id="Rectangle-path" fill="#62CE46" transform="translate(68.575100, 25.420650) rotate(8.957435) translate(-68.575100, -25.420650) " x="66.7303456" y="21.5511192" width="3.68950853" height="7.7390622"></rect>
                <path d="M85.6719849,48.7032447 C87.4110226,49.0420745 88.8810792,49.3745745 90.0421811,49.6921809 L91.0172377,46.146383 C89.7694642,45.8038298 88.2075057,45.4504787 86.3795547,45.0941489 L85.6719849,48.7032447 Z" id="Shape" fill="#18302A"></path>
                <path d="M94.6951811,58.4291489 C94.4474943,58.5579787 93.9102792,58.7839894 92.8365962,59.0356915 L93.6838868,62.6142553 C95.6721057,62.1473404 97.9935623,61.3568617 98.2860792,59.3890426 C98.3286679,59.0922872 98.3682679,58.8085638 98.4048792,58.5367553 L94.7448679,58.066117 C94.7295509,58.1848936 94.7134868,58.3062766 94.6951811,58.4291489 Z" id="Shape" fill="#18302A"></path>
                <path d="M78.2824755,66.0278723 L77.7979358,69.6742021 C78.179366,69.7237234 78.5678943,69.7490426 78.9560491,69.7490426 C80.5262264,69.7490426 82.0680113,69.3309043 83.4155321,68.5374468 L81.5378943,65.3718085 C80.5654528,65.9440957 79.3886604,66.1742021 78.2824755,66.0278723 Z" id="Shape" fill="#18302A"></path>
                <path d="M81.7698906,44.2824468 C80.2621019,44.0396809 78.7109774,43.8110638 77.1579849,43.5988298 L76.6581283,47.2436702 C78.1625547,47.4473404 79.7263811,47.6785638 81.1837358,47.9135106 L81.7698906,44.2824468 Z" id="Shape" fill="#18302A"></path>
                <path d="M85.6787094,60.0246277 C84.8104981,60.097234 84.1126415,60.7685638 84.0057962,61.6290426 C83.9523736,62.0464362 83.8481434,62.4582447 83.6949736,62.8492021 L87.1300868,64.1903723 C87.2111547,63.9852128 87.2836302,63.7767021 87.3482604,63.5633511 C87.8978038,63.5093617 88.4230642,63.4535106 88.9218,63.3954255 L88.4944189,59.7423936 C87.6344264,59.8436702 86.6873887,59.9382447 85.6787094,60.0246277 Z" id="Shape" fill="#18302A"></path>
                <path d="M71.7611774,46.673617 C71.8489698,46.6773404 71.9834604,46.6873936 72.1541887,46.7026596 L72.4575396,43.346383 L72.5251585,43.2182979 C72.5217962,43.2138298 72.5012491,43.2045213 72.4702415,43.187766 L72.4836906,43.0395745 C72.3465849,43.0280319 72.2337623,43.0190957 72.1388717,43.012766 C71.5777472,42.7160106 70.443917,42.1239894 68.9645208,41.3800532 L67.3028151,44.6633511 C69.3552906,45.6951064 70.7659472,46.4502128 70.7808906,46.4572872 C71.0831208,46.6196277 71.4242038,46.6929787 71.7611774,46.673617 Z" id="Shape" fill="#18302A"></path>
                <path d="M34.5625811,64.1304255 C35.9149585,64.1449468 37.4399321,64.1557447 39.1778491,64.1684043 L39.2047472,60.4907979 C37.4694453,60.4785106 35.9489547,60.4669681 34.6010604,60.4520745 L34.5625811,64.1304255 Z" id="Shape" fill="#18302A"></path>
                <path d="M3.77881132,52.6898936 C3.76498868,52.4106383 3.75378113,52.1909574 3.73846415,52.0490957 C3.73099245,51.9805851 3.72538868,51.9232447 3.72538868,51.8696277 C3.7224,52.0185638 3.62564151,52.2579787 3.5244,52.3700532 L0.820766038,49.8668085 C0.286166038,50.4413298 0.0351169811,51.0784043 0.0351169811,51.8740957 C0.0351169811,52.0349468 0.0459509434,52.218883 0.0691132075,52.431117 C0.0788264151,52.5294149 0.0851773585,52.6783511 0.0937698113,52.8689894 C0.127766038,53.5671277 0.184550943,54.7381383 0.417667925,55.9646277 L4.04368302,55.2817553 C3.85838491,54.3051064 3.81056604,53.3318085 3.77881132,52.6898936 Z" id="Shape" fill="#18302A"></path>
                <path d="M19.9356113,41.9553191 L18.6280642,38.516383 C17.1897623,39.0596277 15.7234415,39.6587234 14.2709434,40.2950532 L15.7574377,43.661383 C17.1516566,43.0503723 18.5563358,42.4758511 19.9356113,41.9553191 Z" id="Shape" fill="#18302A"></path>
                <path d="M28.5179774,39.2834043 L27.6422943,35.7096809 C26.1416038,36.0753191 24.6087849,36.5016489 23.0882943,36.9760106 L24.1907434,40.4860638 C25.6372642,40.0344149 27.0942453,39.6289362 28.5179774,39.2834043 Z" id="Shape" fill="#18302A"></path>
                <path d="M72.1526943,60.6084574 C71.865034,60.6114362 71.6311698,60.6136702 71.4548377,60.6144149 L71.4634302,62.5975 L70.3714415,62.8302128 C70.7162604,64.4446809 71.5123698,65.924734 72.674966,67.1121277 L75.3154642,64.5414894 C74.6411434,63.8534043 74.1778981,62.9970213 73.9780302,62.0646809 C73.7960943,61.2056915 73.0362226,60.6021277 72.1526943,60.6084574 Z" id="Shape" fill="#18302A"></path>
                <path d="M14.3482755,59.3983511 L13.7710868,59.3257447 L13.5234,61.2432979 L12.2786151,61.283883 C12.3346528,62.9929255 12.8838226,64.6334574 13.8678453,66.0275 L16.8871585,63.9140957 C16.3174415,63.1053723 15.9984,62.1547872 15.9658981,61.1628723 C15.9375057,60.2580851 15.2489887,59.5089362 14.3482755,59.3983511 Z" id="Shape" fill="#18302A"></path>
                <path d="M21.0522566,66.0729255 C20.5535208,66.0662234 20.0514226,66.0010638 19.5773434,65.8577128 L18.5111321,69.3781915 C19.3330189,69.6254255 20.1855396,69.7490426 21.0500151,69.7490426 C21.0507623,69.7490426 21.051883,69.7490426 21.0533774,69.7490426 C22.151717,69.7490426 23.2250264,69.5483511 24.2400566,69.1532979 L22.8970189,65.7281383 C22.3108642,65.9560106 21.6892189,66.0729255 21.0522566,66.0729255 Z" id="Shape" fill="#18302A"></path>
                <path d="M5.40726792,57.8125532 C5.34786792,57.7987766 5.29556604,57.7812766 5.24326415,57.7581915 L3.7298717,61.1129787 C4.00781887,61.2373404 4.30295094,61.3348936 4.60630189,61.4022872 L4.80766415,61.4465957 C5.90563019,61.6901064 7.15004151,61.9660106 8.64251321,62.2445213 L9.31982264,58.6294681 C7.88973962,58.3632447 6.67820377,58.0936702 5.60900377,57.8579787 L5.40726792,57.8125532 Z" id="Shape" fill="#18302A"></path>
                <path d="M5.93402264,41.5945213 L6.23662642,45.2590957 C7.21541887,45.1790426 8.5091434,45.1354787 9.97807925,45.1354787 C10.2302491,45.1354787 10.4663547,45.1377128 10.6841547,45.1392021 L10.7144151,41.4615957 C10.4876491,41.4601064 10.2403358,41.458617 9.97733208,41.458617 C8.38698113,41.4593617 7.02638491,41.5036702 5.93402264,41.5945213 Z" id="Shape" fill="#18302A"></path>
                <path d="M1.53506038,48.9549468 C1.53506038,49.2394149 1.50890943,49.3425532 1.50778868,49.3470213 C1.50816226,49.3462766 1.55411321,49.1813298 1.74015849,49.0029787 L4.29958868,51.6521809 C5.12969434,50.855 5.22570566,49.7316489 5.22570566,48.9549468 C5.22570566,48.3383511 5.1554717,47.6744681 5.08972075,47.0314362 C5.04115472,46.5682447 4.99520377,46.131117 4.9772717,45.7382979 L1.29148302,45.9069681 C1.31464528,46.4051596 1.36732075,46.9171277 1.41999623,47.4123404 C1.47827547,47.9868617 1.53506038,48.5293617 1.53506038,48.9549468 Z" id="Shape" fill="#18302A"></path>
                <path d="M46.5258906,34.0624468 C45.0973019,33.9496277 43.6440566,33.8922872 42.2065019,33.8922872 L41.753717,33.8937766 L41.7892075,37.5721277 L42.2065019,37.5710106 C43.5476717,37.5710106 44.9030377,37.6231383 46.2352415,37.727766 L46.5258906,34.0624468 Z" id="Shape" fill="#18302A"></path>
                <polygon id="Shape" fill="#18302A" points="62.2343887 64.2659574 66.8466679 64.2812234 66.8575019 60.6028723 62.2482113 60.5876064"></polygon>
                <path d="M26.0601623,61.8665957 C25.9551849,62.4731383 25.7411208,63.0491489 25.4269358,63.5793617 L28.6039019,65.451117 C28.8695208,65.0031915 29.0936717,64.5362766 29.273366,64.0526064 C29.4889245,64.0578191 29.7115811,64.0611702 29.9390943,64.066383 L30.0104491,60.3887766 C29.2479623,60.3742553 28.5620604,60.3575 27.9292075,60.3407447 C26.9997283,60.3053723 26.2152,60.9655319 26.0601623,61.8665957 Z" id="Shape" fill="#18302A"></path>
                <path d="M64.7691623,39.3362766 C63.236717,38.6154255 61.7987887,37.9709043 60.4904943,37.4153723 L59.0465887,40.7995745 C60.3096792,41.3353723 61.7046453,41.9631383 63.1941283,42.6620213 L64.7691623,39.3362766 Z" id="Shape" fill="#18302A"></path>
                <path d="M95.0202,53.8251596 L98.7041208,53.6114362 C98.6361283,52.4538298 98.1751245,50.2357979 95.8476906,48.3774468 L93.5419245,51.2470745 C94.7545811,52.2147872 94.9880717,53.2774468 95.0202,53.8251596 Z" id="Shape" fill="#18302A"></path>
                <path d="M56.0358679,35.7096809 C54.8975547,35.3351064 53.9497698,35.0856383 53.134234,34.9471277 L52.837234,34.8953723 C52.3568038,34.8134574 51.8270604,34.7233511 51.2465094,34.6310106 L50.6682,38.2628191 C51.2319396,38.3540426 51.748234,38.4415426 52.2159623,38.5201064 L52.5129623,38.5718617 C53.1338604,38.6779787 53.9299698,38.8902128 54.8777547,39.202234 L56.0358679,35.7096809 Z" id="Shape" fill="#18302A"></path>
                <polygon id="Shape" fill="#18302A" points="43.7897547 64.1944681 48.4024075 64.2164362 48.4180981 60.5380851 43.808434 60.5168617"></polygon>
                <polygon id="Shape" fill="#18302A" points="53.0124453 64.2339362 57.6250981 64.2499468 57.6359321 60.5723404 53.0266415 60.5563298"></polygon>
                <path d="M36.9987283,34.1324468 C35.4483509,34.2743085 33.8617358,34.4820745 32.2863283,34.7497872 L32.9053585,38.3748936 C34.3892377,38.1231915 35.8783472,37.9273404 37.3357019,37.7951596 L36.9987283,34.1324468 Z" id="Shape" fill="#18302A"></path>
            </g>
        </g>
    </g>
</svg>